M48
;Layer_Color=9474304
;FILE_FORMAT=4:4
METRIC
;TYPE=PLATED
T1F00S00C0.5000
T2F00S00C0.6000
T4F00S00C0.9000
T5F00S00C1.0000
T6F00S00C1.2000
T7F00S00C1.5494
T8F00S00C1.9050
T9F00S00C3.1000
T10F00S00C3.1600
;TYPE=NON_PLATED
T11F00S00C3.2000
%
T01
X-00098781Y00105424
Y00118192
Y00130892
X-00099321Y00142977
Y00156292
Y00169942
Y00182422
X-00099591Y00195119
X-00764489Y00138675
X-00850000Y00140000
X-00822750Y00191250
X-00890899Y00187923
X-00930625Y00140000
X-01501020Y00143486
X-01501561Y00131401
Y00118701
Y00105933
X-01501020Y00156801
Y00170451
Y00182931
X-01500750Y00195629
X-00610000Y00660000
X-00467289Y00651551
X-00150856Y00642992
X-00031002Y00548500
X-00097092Y00855249
Y00868017
Y00880716
X-00097632Y00892802
Y00906116
Y00919766
Y00932246
X-00097902Y00944944
X-00148477Y00992039
X-00560000Y00860000
X-00550000Y00825400
X-01150000Y00892653
X-01340000Y00702700
X-01435050Y01008981
X-01500500Y01105482
Y01118250
Y01130950
X-01499959Y01143035
Y01156350
Y01170000
Y01182480
X-01499689Y01195178
X-01077000Y01192000
X-01054047Y01144598
X-01061014Y01137425
X-01067635Y01129931
X-01074251Y01122432
X-01077000Y01112818
X-00940000Y01114250
X-00940958Y01126730
X-00930000Y01133230
X-00920000Y01139730
X-00910497Y01146230
X-00910000Y01160374
X-00920000Y01167290
X-00930000Y01173397
X-00940000Y01180000
X-00950000Y01186270
X-00900000Y01153250
X-00810000Y01210000
X-00640000Y01200000
X-00670000Y01160374
X-00662522Y01148729
X-00653686Y01131101
X-00645502Y01119146
X-00550000Y01188046
X-00540000
X-00530000
X-00520000
X-00510000
X-00500000
X-00490000
X-00480000
X-00470000
X-00460000
X-00450000
T02
X-00996940Y00680900
X-00971540
Y00731700
X-00996940
T04
X-00825998Y00472831
X-00800598
X-00108400Y00466300
Y00493700
Y00521100
Y00548500
Y00575900
Y00603300
Y00630700
Y00658100
X-00080000Y00644400
Y00617000
Y00589600
Y00562200
Y00534800
Y00507400
Y00480000
X-00800598Y00701135
X-00825998
Y00923431
X-00800598
T05
X-00380001Y00140000
X-00354601
X-00354601Y00210000
X-00380001
X-00380001Y00280000
X-00354601
X-00600000Y00209974
X-00674600Y00140000
Y00114600
Y00089200
X-00720000Y00090000
X-00810000Y00089200
X-01257300Y00140000
X-01282700
Y00210000
X-01257300
Y00280000
X-01282700
Y00350000
X-01257300
Y00420000
X-01282700
Y00490000
X-01257300
Y00560000
X-01282700
Y00630000
X-01257300
X-00703448Y00633400
X-00678448
X-00653448
X-00653225Y00539991
X-00703225
X-00780000Y00534990
X-00703225Y00394991
X-00678225
X-00653225
X-00380001Y00420000
X-00354601
Y00350000
X-00380001
Y00490000
X-00354601
Y00560000
X-00380001
Y00630000
X-00354601
X-00106500Y00992039
X-00106500Y01060000
X-00354601Y01050000
X-00380001
Y00980000
X-00354601
Y00910000
X-00380001
Y00840000
X-00354601
X-00354601Y00771063
X-00380001
Y00700000
X-00354601
X-00550000Y00800000
X-00653448Y00778400
X-00703448
X-00704000Y00845000
X-00679000
X-00654000
Y00990000
X-00704000
X-00780000Y00980000
X-00780000Y00774541
X-01010000Y00880000
X-01009067Y00938393
X-01257605Y00910000
X-01283005
X-01282700Y00980000
X-01257300
Y01050000
X-01282700
Y00840000
X-01257300
Y00770000
X-01282700
Y00700000
X-01257300
X-01400000Y01030000
X-01540000Y01050000
X-01283005Y01120000
X-01257605
X-01257300Y01190000
X-01282700
X-01063341Y01270000
X-01022287
X-00980000
X-00940000
X-00810000
X-00780000Y01110000
X-00611407Y01270000
X-00570000
X-00530000
X-00490000
X-00380001Y01188046
X-00354601
Y01120000
X-00380001
X-00106500Y01123262
T06
X-01117500Y00571400
Y00596800
Y00622200
Y00647600
Y00673000
X-01092100
Y00647600
Y00622200
Y00596800
Y00571400
X-00507900
X-00482500
Y00596800
Y00622200
Y00647600
Y00673000
X-00507900
Y00647600
Y00622200
Y00596800
Y00698400
X-00482500
Y00723800
Y00749200
Y00774600
Y00800000
Y00825400
Y00850800
Y00876200
Y00901600
Y00927000
Y00952400
Y00977800
Y01003200
Y01028600
X-00507900
Y01003200
Y00977800
Y00952400
Y00927000
Y00901600
Y00876200
Y00850800
Y00825400
Y00800000
Y00774600
Y00749200
Y00723800
X-01092100
X-01117500
Y00749200
Y00774600
Y00800000
Y00825400
Y00850800
Y00876200
Y00901600
Y00927000
Y00952400
Y00977800
Y01003200
Y01028600
X-01092100
Y01003200
Y00977800
Y00952400
Y00927000
Y00901600
Y00876200
Y00850800
Y00825400
Y00800000
Y00774600
Y00749200
Y00698400
X-01117500
T07
X-01467780Y00377900
X-01432220
X-01467780Y00962100
T08
X-01493180Y00431240
X-01406820Y00421080
Y00918920
X-01493180Y00908760
T09
X-00094200Y00395600
Y00728800
T10
X-00724725Y00469991
X-00631725
X-00631948Y00708400
X-00724948
X-00725500Y00920000
X-00632500
T11
X-00050000Y00050000
X-01550000
Y01250000
X-00050000
M30
