G04*
G04 #@! TF.GenerationSoftware,Altium Limited,Altium Designer,22.7.1 (60)*
G04*
G04 Layer_Physical_Order=1*
G04 Layer_Color=255*
%FSLAX44Y44*%
%MOMM*%
G71*
G04*
G04 #@! TF.SameCoordinates,B875D083-2DC7-4D9C-95C5-8495ED73C8DD*
G04*
G04*
G04 #@! TF.FilePolarity,Positive*
G04*
G01*
G75*
%ADD13C,0.2540*%
%ADD14C,0.5000*%
G04:AMPARAMS|DCode=19|XSize=1.05mm|YSize=1.1mm|CornerRadius=0.2625mm|HoleSize=0mm|Usage=FLASHONLY|Rotation=270.000|XOffset=0mm|YOffset=0mm|HoleType=Round|Shape=RoundedRectangle|*
%AMROUNDEDRECTD19*
21,1,1.0500,0.5750,0,0,270.0*
21,1,0.5250,1.1000,0,0,270.0*
1,1,0.5250,-0.2875,-0.2625*
1,1,0.5250,-0.2875,0.2625*
1,1,0.5250,0.2875,0.2625*
1,1,0.5250,0.2875,-0.2625*
%
%ADD19ROUNDEDRECTD19*%
%ADD20R,0.9000X0.4000*%
G04:AMPARAMS|DCode=21|XSize=1mm|YSize=1.05mm|CornerRadius=0.25mm|HoleSize=0mm|Usage=FLASHONLY|Rotation=180.000|XOffset=0mm|YOffset=0mm|HoleType=Round|Shape=RoundedRectangle|*
%AMROUNDEDRECTD21*
21,1,1.0000,0.5500,0,0,180.0*
21,1,0.5000,1.0500,0,0,180.0*
1,1,0.5000,-0.2500,0.2750*
1,1,0.5000,0.2500,0.2750*
1,1,0.5000,0.2500,-0.2750*
1,1,0.5000,-0.2500,-0.2750*
%
%ADD21ROUNDEDRECTD21*%
G04:AMPARAMS|DCode=22|XSize=1.05mm|YSize=1.1mm|CornerRadius=0.2625mm|HoleSize=0mm|Usage=FLASHONLY|Rotation=0.000|XOffset=0mm|YOffset=0mm|HoleType=Round|Shape=RoundedRectangle|*
%AMROUNDEDRECTD22*
21,1,1.0500,0.5750,0,0,0.0*
21,1,0.5250,1.1000,0,0,0.0*
1,1,0.5250,0.2625,-0.2875*
1,1,0.5250,-0.2625,-0.2875*
1,1,0.5250,-0.2625,0.2875*
1,1,0.5250,0.2625,0.2875*
%
%ADD22ROUNDEDRECTD22*%
G04:AMPARAMS|DCode=23|XSize=0.65mm|YSize=1.15mm|CornerRadius=0.1625mm|HoleSize=0mm|Usage=FLASHONLY|Rotation=90.000|XOffset=0mm|YOffset=0mm|HoleType=Round|Shape=RoundedRectangle|*
%AMROUNDEDRECTD23*
21,1,0.6500,0.8250,0,0,90.0*
21,1,0.3250,1.1500,0,0,90.0*
1,1,0.3250,0.4125,0.1625*
1,1,0.3250,0.4125,-0.1625*
1,1,0.3250,-0.4125,-0.1625*
1,1,0.3250,-0.4125,0.1625*
%
%ADD23ROUNDEDRECTD23*%
%ADD24O,2.0000X1.8000*%
%ADD25R,2.0000X1.8000*%
%ADD26C,4.6500*%
%ADD27C,1.4000*%
%ADD28R,1.4000X1.4000*%
%ADD29C,1.5000*%
%ADD30C,4.7400*%
%ADD31C,1.8000*%
%ADD32R,1.8000X1.8000*%
%ADD33C,1.1000*%
%ADD34R,1.1000X1.1000*%
%ADD35C,3.1750*%
%ADD36C,3.0480*%
%ADD37C,2.5000*%
%ADD38O,3.8000X1.9000*%
%ADD39O,1.9000X3.8000*%
%ADD40R,1.8000X1.8000*%
%ADD41C,1.0000*%
%ADD42C,0.8500*%
G36*
X-2549Y2549D02*
X-1597451D01*
Y1297451D01*
X-2549D01*
Y2549D01*
D02*
G37*
%LPC*%
G36*
X-808157Y1284000D02*
X-811843D01*
X-815404Y1283046D01*
X-818596Y1281203D01*
X-821203Y1278596D01*
X-823046Y1275404D01*
X-824000Y1271843D01*
Y1268157D01*
X-823046Y1264596D01*
X-821203Y1261404D01*
X-818596Y1258797D01*
X-815404Y1256954D01*
X-811843Y1256000D01*
X-808157D01*
X-804596Y1256954D01*
X-801404Y1258797D01*
X-798797Y1261404D01*
X-796954Y1264596D01*
X-796000Y1268157D01*
Y1271843D01*
X-796954Y1275404D01*
X-798797Y1278596D01*
X-801404Y1281203D01*
X-804596Y1283046D01*
X-808157Y1284000D01*
D02*
G37*
G36*
X-938157D02*
X-941843D01*
X-945404Y1283046D01*
X-948596Y1281203D01*
X-951203Y1278596D01*
X-953046Y1275404D01*
X-954000Y1271843D01*
Y1268157D01*
X-953046Y1264596D01*
X-951203Y1261404D01*
X-948596Y1258797D01*
X-945404Y1256954D01*
X-941843Y1256000D01*
X-938157D01*
X-934596Y1256954D01*
X-931404Y1258797D01*
X-928797Y1261404D01*
X-926954Y1264596D01*
X-926000Y1268157D01*
Y1271843D01*
X-926954Y1275404D01*
X-928797Y1278596D01*
X-931404Y1281203D01*
X-934596Y1283046D01*
X-938157Y1284000D01*
D02*
G37*
G36*
X-978157D02*
X-981843D01*
X-985404Y1283046D01*
X-988596Y1281203D01*
X-991203Y1278596D01*
X-993046Y1275404D01*
X-994000Y1271843D01*
Y1268157D01*
X-993046Y1264596D01*
X-991203Y1261404D01*
X-988596Y1258797D01*
X-985404Y1256954D01*
X-981843Y1256000D01*
X-978157D01*
X-974596Y1256954D01*
X-971404Y1258797D01*
X-968797Y1261404D01*
X-966954Y1264596D01*
X-966000Y1268157D01*
Y1271843D01*
X-966954Y1275404D01*
X-968797Y1278596D01*
X-971404Y1281203D01*
X-974596Y1283046D01*
X-978157Y1284000D01*
D02*
G37*
G36*
X-1020444D02*
X-1024130D01*
X-1027691Y1283046D01*
X-1030883Y1281203D01*
X-1033490Y1278596D01*
X-1035333Y1275404D01*
X-1036287Y1271843D01*
Y1268157D01*
X-1035333Y1264596D01*
X-1033490Y1261404D01*
X-1030883Y1258797D01*
X-1027691Y1256954D01*
X-1024130Y1256000D01*
X-1020444D01*
X-1016883Y1256954D01*
X-1013691Y1258797D01*
X-1011084Y1261404D01*
X-1009241Y1264596D01*
X-1008287Y1268157D01*
Y1271843D01*
X-1009241Y1275404D01*
X-1011084Y1278596D01*
X-1013691Y1281203D01*
X-1016883Y1283046D01*
X-1020444Y1284000D01*
D02*
G37*
G36*
X-1061498D02*
X-1065185D01*
X-1068745Y1283046D01*
X-1071938Y1281203D01*
X-1074544Y1278596D01*
X-1076387Y1275404D01*
X-1077341Y1271843D01*
Y1268157D01*
X-1076387Y1264596D01*
X-1074544Y1261404D01*
X-1071938Y1258797D01*
X-1068745Y1256954D01*
X-1065185Y1256000D01*
X-1061498D01*
X-1057938Y1256954D01*
X-1054745Y1258797D01*
X-1052139Y1261404D01*
X-1050295Y1264596D01*
X-1049341Y1268157D01*
Y1271843D01*
X-1050295Y1275404D01*
X-1052139Y1278596D01*
X-1054745Y1281203D01*
X-1057938Y1283046D01*
X-1061498Y1284000D01*
D02*
G37*
G36*
X-488157D02*
X-491843D01*
X-495404Y1283046D01*
X-498596Y1281203D01*
X-501203Y1278596D01*
X-503046Y1275404D01*
X-504000Y1271843D01*
Y1268157D01*
X-503046Y1264596D01*
X-501203Y1261404D01*
X-498596Y1258797D01*
X-498288Y1258619D01*
X-498122Y1257360D01*
X-502658Y1252824D01*
X-527188D01*
X-527257Y1252901D01*
X-527750Y1254094D01*
X-527391Y1254633D01*
X-527176Y1255713D01*
X-527176Y1255714D01*
Y1256263D01*
X-524596Y1256954D01*
X-521404Y1258797D01*
X-518797Y1261404D01*
X-516954Y1264596D01*
X-516000Y1268157D01*
Y1271843D01*
X-516954Y1275404D01*
X-518797Y1278596D01*
X-521404Y1281203D01*
X-524596Y1283046D01*
X-528157Y1284000D01*
X-531843D01*
X-535404Y1283046D01*
X-538596Y1281203D01*
X-541203Y1278596D01*
X-543046Y1275404D01*
X-544000Y1271843D01*
Y1268157D01*
X-543046Y1264596D01*
X-541203Y1261404D01*
X-538596Y1258797D01*
X-535404Y1256954D01*
X-534540Y1256723D01*
X-534212Y1255496D01*
X-566002Y1223705D01*
X-567176Y1224191D01*
Y1256263D01*
X-564596Y1256954D01*
X-561404Y1258797D01*
X-558797Y1261404D01*
X-556954Y1264596D01*
X-556000Y1268157D01*
Y1271843D01*
X-556954Y1275404D01*
X-558797Y1278596D01*
X-561404Y1281203D01*
X-564596Y1283046D01*
X-568157Y1284000D01*
X-571843D01*
X-575404Y1283046D01*
X-578596Y1281203D01*
X-581203Y1278596D01*
X-583046Y1275404D01*
X-584000Y1271843D01*
Y1268157D01*
X-583046Y1264596D01*
X-581203Y1261404D01*
X-578596Y1258797D01*
X-575404Y1256954D01*
X-572824Y1256263D01*
Y1248478D01*
X-573998Y1247992D01*
X-597407Y1271401D01*
Y1271843D01*
X-598361Y1275404D01*
X-600204Y1278596D01*
X-602810Y1281203D01*
X-606003Y1283046D01*
X-609563Y1284000D01*
X-613250D01*
X-616810Y1283046D01*
X-620003Y1281203D01*
X-622609Y1278596D01*
X-624453Y1275404D01*
X-625407Y1271843D01*
Y1268157D01*
X-624453Y1264596D01*
X-622609Y1261404D01*
X-620003Y1258797D01*
X-616810Y1256954D01*
X-613250Y1256000D01*
X-609563D01*
X-606003Y1256954D01*
X-602810Y1258797D01*
X-600204Y1261404D01*
X-598966Y1263547D01*
X-597707Y1263713D01*
X-576864Y1242870D01*
Y1224270D01*
X-637936Y1163198D01*
X-664946D01*
X-665125Y1163631D01*
X-666743Y1165249D01*
X-668856Y1166124D01*
X-671144D01*
X-673257Y1165249D01*
X-674875Y1163631D01*
X-675750Y1161518D01*
Y1159230D01*
X-674875Y1157117D01*
X-673257Y1155499D01*
X-671144Y1154624D01*
X-668856D01*
X-666743Y1155499D01*
X-665125Y1157117D01*
X-664946Y1157550D01*
X-639530D01*
X-639044Y1156376D01*
X-643867Y1151554D01*
X-657468D01*
X-657647Y1151986D01*
X-659265Y1153604D01*
X-661378Y1154479D01*
X-663666D01*
X-665779Y1153604D01*
X-667397Y1151986D01*
X-668272Y1149873D01*
Y1147586D01*
X-667397Y1145472D01*
X-665779Y1143855D01*
X-663666Y1142979D01*
X-661378D01*
X-659265Y1143855D01*
X-657647Y1145472D01*
X-657468Y1145905D01*
X-645462D01*
X-644976Y1144732D01*
X-651539Y1138169D01*
X-651679Y1137959D01*
X-652787Y1136851D01*
X-654829D01*
X-656943Y1135976D01*
X-658560Y1134358D01*
X-659436Y1132245D01*
Y1129957D01*
X-658560Y1127844D01*
X-656943Y1126226D01*
X-654829Y1125351D01*
X-652542D01*
X-650428Y1126226D01*
X-649596Y1127059D01*
X-648326Y1126533D01*
Y1124200D01*
X-648759Y1124021D01*
X-650376Y1122403D01*
X-651252Y1120290D01*
Y1118003D01*
X-650376Y1115889D01*
X-648759Y1114272D01*
X-646645Y1113396D01*
X-644358D01*
X-642244Y1114272D01*
X-640627Y1115889D01*
X-639752Y1118003D01*
Y1120290D01*
X-640627Y1122403D01*
X-642244Y1124021D01*
X-642677Y1124200D01*
Y1133328D01*
X-528830Y1247176D01*
X-501488D01*
X-501488Y1247176D01*
X-500407Y1247391D01*
X-499491Y1248003D01*
X-491494Y1256000D01*
X-488157D01*
X-484596Y1256954D01*
X-481404Y1258797D01*
X-478797Y1261404D01*
X-476954Y1264596D01*
X-476000Y1268157D01*
Y1271843D01*
X-476954Y1275404D01*
X-478797Y1278596D01*
X-481404Y1281203D01*
X-484596Y1283046D01*
X-488157Y1284000D01*
D02*
G37*
G36*
X-1181746Y1234944D02*
X-1181746Y1234944D01*
X-1309492D01*
X-1309492Y1234944D01*
X-1310573Y1234729D01*
X-1311489Y1234117D01*
X-1311489Y1234117D01*
X-1320077Y1225529D01*
X-1320689Y1224613D01*
X-1320904Y1223532D01*
X-1320904Y1223532D01*
Y200780D01*
X-1320904Y200780D01*
X-1320689Y199699D01*
X-1320077Y198783D01*
X-1266449Y145154D01*
X-1267084Y144053D01*
X-1267800Y141382D01*
Y138618D01*
X-1267084Y135947D01*
X-1265702Y133553D01*
X-1263747Y131598D01*
X-1261353Y130216D01*
X-1258682Y129500D01*
X-1255918D01*
X-1253247Y130216D01*
X-1250853Y131598D01*
X-1248898Y133553D01*
X-1247516Y135947D01*
X-1246800Y138618D01*
Y141382D01*
X-1247516Y144053D01*
X-1248898Y146447D01*
X-1250853Y148402D01*
X-1253247Y149784D01*
X-1255918Y150500D01*
X-1258682D01*
X-1261353Y149784D01*
X-1262454Y149149D01*
X-1315256Y201950D01*
Y262302D01*
X-1314082Y262788D01*
X-1266449Y215154D01*
X-1267084Y214053D01*
X-1267800Y211382D01*
Y208618D01*
X-1267084Y205947D01*
X-1265702Y203553D01*
X-1263747Y201598D01*
X-1261353Y200216D01*
X-1258682Y199500D01*
X-1255918D01*
X-1253247Y200216D01*
X-1250853Y201598D01*
X-1248898Y203553D01*
X-1247516Y205947D01*
X-1246800Y208618D01*
Y211382D01*
X-1247516Y214053D01*
X-1248898Y216447D01*
X-1250853Y218402D01*
X-1253247Y219784D01*
X-1255918Y220500D01*
X-1258682D01*
X-1261353Y219784D01*
X-1262454Y219149D01*
X-1311216Y267910D01*
Y328262D01*
X-1310042Y328748D01*
X-1266449Y285154D01*
X-1267084Y284053D01*
X-1267800Y281382D01*
Y278618D01*
X-1267084Y275947D01*
X-1265702Y273553D01*
X-1263747Y271598D01*
X-1261353Y270216D01*
X-1258682Y269500D01*
X-1255918D01*
X-1253247Y270216D01*
X-1250853Y271598D01*
X-1248898Y273553D01*
X-1247516Y275947D01*
X-1246800Y278618D01*
Y281382D01*
X-1247516Y284053D01*
X-1248898Y286447D01*
X-1250853Y288402D01*
X-1253247Y289784D01*
X-1255918Y290500D01*
X-1258682D01*
X-1261353Y289784D01*
X-1262454Y289149D01*
X-1307176Y333870D01*
Y394222D01*
X-1306002Y394708D01*
X-1266449Y355154D01*
X-1267084Y354053D01*
X-1267800Y351382D01*
Y348618D01*
X-1267084Y345947D01*
X-1265702Y343553D01*
X-1263747Y341598D01*
X-1261353Y340216D01*
X-1258682Y339500D01*
X-1255918D01*
X-1253247Y340216D01*
X-1250853Y341598D01*
X-1248898Y343553D01*
X-1247516Y345947D01*
X-1246800Y348618D01*
Y351382D01*
X-1247516Y354053D01*
X-1248898Y356447D01*
X-1250853Y358402D01*
X-1253247Y359784D01*
X-1255918Y360500D01*
X-1258682D01*
X-1261353Y359784D01*
X-1262454Y359148D01*
X-1303136Y399830D01*
Y460182D01*
X-1301962Y460668D01*
X-1266449Y425154D01*
X-1267084Y424053D01*
X-1267800Y421382D01*
Y418618D01*
X-1267084Y415947D01*
X-1265702Y413553D01*
X-1263747Y411598D01*
X-1261353Y410216D01*
X-1258682Y409500D01*
X-1255918D01*
X-1253247Y410216D01*
X-1250853Y411598D01*
X-1248898Y413553D01*
X-1247516Y415947D01*
X-1246800Y418618D01*
Y421382D01*
X-1247516Y424053D01*
X-1248898Y426447D01*
X-1250853Y428402D01*
X-1253247Y429784D01*
X-1255918Y430500D01*
X-1258682D01*
X-1261353Y429784D01*
X-1262454Y429148D01*
X-1299096Y465790D01*
Y1213136D01*
X-1189609D01*
X-1089867Y1113393D01*
X-1088951Y1112781D01*
X-1087870Y1112566D01*
X-1087870Y1112566D01*
X-1082750D01*
Y1111674D01*
X-1081874Y1109560D01*
X-1080448Y1108134D01*
X-1080641Y1107229D01*
X-1080838Y1106864D01*
X-1223830D01*
X-1254476Y1137510D01*
Y1179886D01*
X-1253247Y1180216D01*
X-1250853Y1181598D01*
X-1248898Y1183553D01*
X-1247516Y1185947D01*
X-1246800Y1188618D01*
Y1191382D01*
X-1247516Y1194053D01*
X-1248898Y1196447D01*
X-1250853Y1198402D01*
X-1253247Y1199784D01*
X-1255918Y1200500D01*
X-1258682D01*
X-1261353Y1199784D01*
X-1263747Y1198402D01*
X-1265702Y1196447D01*
X-1267084Y1194053D01*
X-1267800Y1191382D01*
Y1188618D01*
X-1267084Y1185947D01*
X-1265702Y1183553D01*
X-1263747Y1181598D01*
X-1261353Y1180216D01*
X-1260124Y1179886D01*
Y1136340D01*
X-1260124Y1136340D01*
X-1259909Y1135259D01*
X-1259297Y1134343D01*
X-1256724Y1131770D01*
X-1257250Y1130500D01*
X-1258988D01*
X-1261658Y1129784D01*
X-1264053Y1128402D01*
X-1266008Y1126447D01*
X-1267390Y1124053D01*
X-1268105Y1121382D01*
Y1118618D01*
X-1267390Y1115947D01*
X-1266008Y1113553D01*
X-1264053Y1111598D01*
X-1261658Y1110216D01*
X-1258988Y1109500D01*
X-1256223D01*
X-1253553Y1110216D01*
X-1252451Y1110852D01*
X-1239603Y1098003D01*
X-1239603Y1098003D01*
X-1238686Y1097391D01*
X-1237605Y1097176D01*
X-1217785D01*
X-1217299Y1096002D01*
X-1253460Y1059841D01*
X-1255918Y1060500D01*
X-1258682D01*
X-1261353Y1059784D01*
X-1263747Y1058402D01*
X-1265702Y1056447D01*
X-1267084Y1054053D01*
X-1267800Y1051382D01*
Y1048618D01*
X-1267084Y1045947D01*
X-1265702Y1043553D01*
X-1263747Y1041598D01*
X-1261353Y1040216D01*
X-1258682Y1039500D01*
X-1255918D01*
X-1253247Y1040216D01*
X-1250853Y1041598D01*
X-1248898Y1043553D01*
X-1247516Y1045947D01*
X-1246800Y1048618D01*
Y1051382D01*
X-1247516Y1054053D01*
X-1248886Y1056427D01*
X-1233998Y1071315D01*
X-1232824Y1070829D01*
Y1008470D01*
X-1252146Y989148D01*
X-1253247Y989784D01*
X-1255918Y990500D01*
X-1258682D01*
X-1261353Y989784D01*
X-1263747Y988402D01*
X-1265702Y986447D01*
X-1267084Y984053D01*
X-1267800Y981382D01*
Y978618D01*
X-1267084Y975947D01*
X-1265702Y973553D01*
X-1263747Y971598D01*
X-1261353Y970216D01*
X-1258682Y969500D01*
X-1255918D01*
X-1253247Y970216D01*
X-1250853Y971598D01*
X-1248898Y973553D01*
X-1247516Y975947D01*
X-1246800Y978618D01*
Y981382D01*
X-1247516Y984053D01*
X-1248151Y985154D01*
X-1229958Y1003348D01*
X-1228784Y1002862D01*
Y942815D01*
X-1252451Y919148D01*
X-1253553Y919784D01*
X-1256223Y920500D01*
X-1258988D01*
X-1261658Y919784D01*
X-1264053Y918402D01*
X-1266008Y916447D01*
X-1267390Y914053D01*
X-1268105Y911382D01*
Y908618D01*
X-1267390Y905947D01*
X-1266008Y903553D01*
X-1264053Y901598D01*
X-1261658Y900216D01*
X-1258988Y899500D01*
X-1256223D01*
X-1253553Y900216D01*
X-1251158Y901598D01*
X-1249203Y903553D01*
X-1247821Y905947D01*
X-1247105Y908618D01*
Y911382D01*
X-1247821Y914053D01*
X-1248457Y915154D01*
X-1225918Y937694D01*
X-1224744Y937208D01*
Y876550D01*
X-1252146Y849148D01*
X-1253247Y849784D01*
X-1255918Y850500D01*
X-1258682D01*
X-1261353Y849784D01*
X-1263747Y848402D01*
X-1265702Y846447D01*
X-1267084Y844053D01*
X-1267800Y841382D01*
Y838618D01*
X-1267084Y835947D01*
X-1265702Y833553D01*
X-1263747Y831598D01*
X-1261353Y830216D01*
X-1258682Y829500D01*
X-1255918D01*
X-1253247Y830216D01*
X-1250853Y831598D01*
X-1248898Y833553D01*
X-1247516Y835947D01*
X-1246800Y838618D01*
Y841382D01*
X-1247516Y844053D01*
X-1248151Y845154D01*
X-1221621Y871685D01*
X-1220448Y871199D01*
Y810846D01*
X-1252146Y779148D01*
X-1253247Y779784D01*
X-1255918Y780500D01*
X-1258682D01*
X-1261353Y779784D01*
X-1263747Y778402D01*
X-1265702Y776447D01*
X-1267084Y774053D01*
X-1267800Y771382D01*
Y768618D01*
X-1267084Y765947D01*
X-1265702Y763553D01*
X-1263747Y761598D01*
X-1261353Y760216D01*
X-1258682Y759500D01*
X-1255918D01*
X-1253247Y760216D01*
X-1250853Y761598D01*
X-1248898Y763553D01*
X-1247516Y765947D01*
X-1246800Y768618D01*
Y771382D01*
X-1247516Y774053D01*
X-1248151Y775154D01*
X-1217581Y805725D01*
X-1216408Y805239D01*
Y744886D01*
X-1252146Y709148D01*
X-1253247Y709784D01*
X-1255918Y710500D01*
X-1258682D01*
X-1261353Y709784D01*
X-1263747Y708402D01*
X-1265702Y706447D01*
X-1267084Y704053D01*
X-1267800Y701382D01*
Y698618D01*
X-1267084Y695947D01*
X-1265702Y693553D01*
X-1263747Y691598D01*
X-1261353Y690216D01*
X-1258682Y689500D01*
X-1255918D01*
X-1253247Y690216D01*
X-1250853Y691598D01*
X-1248898Y693553D01*
X-1247516Y695947D01*
X-1246800Y698618D01*
Y701382D01*
X-1247516Y704053D01*
X-1248151Y705154D01*
X-1213541Y739765D01*
X-1212368Y739279D01*
Y678926D01*
X-1252146Y639148D01*
X-1253247Y639784D01*
X-1255918Y640500D01*
X-1258682D01*
X-1261353Y639784D01*
X-1263747Y638402D01*
X-1265702Y636447D01*
X-1267084Y634053D01*
X-1267800Y631382D01*
Y628618D01*
X-1267084Y625947D01*
X-1265702Y623553D01*
X-1263747Y621598D01*
X-1261353Y620216D01*
X-1258682Y619500D01*
X-1255918D01*
X-1253247Y620216D01*
X-1250853Y621598D01*
X-1248898Y623553D01*
X-1247516Y625947D01*
X-1246800Y628618D01*
Y631382D01*
X-1247516Y634053D01*
X-1248151Y635154D01*
X-1208869Y674437D01*
X-1207696Y673951D01*
Y613598D01*
X-1252146Y569148D01*
X-1253247Y569784D01*
X-1255918Y570500D01*
X-1258682D01*
X-1261353Y569784D01*
X-1263747Y568402D01*
X-1265702Y566447D01*
X-1267084Y564053D01*
X-1267800Y561382D01*
Y558618D01*
X-1267084Y555947D01*
X-1265702Y553553D01*
X-1263747Y551598D01*
X-1261353Y550216D01*
X-1258682Y549500D01*
X-1255918D01*
X-1253247Y550216D01*
X-1250853Y551598D01*
X-1248898Y553553D01*
X-1247516Y555947D01*
X-1246800Y558618D01*
Y561382D01*
X-1247516Y564053D01*
X-1248151Y565154D01*
X-1204829Y608477D01*
X-1203656Y607991D01*
Y547638D01*
X-1252146Y499148D01*
X-1253247Y499784D01*
X-1255918Y500500D01*
X-1258682D01*
X-1261353Y499784D01*
X-1263747Y498402D01*
X-1265702Y496447D01*
X-1267084Y494053D01*
X-1267800Y491382D01*
Y488618D01*
X-1267084Y485947D01*
X-1265702Y483553D01*
X-1263747Y481598D01*
X-1261353Y480216D01*
X-1258682Y479500D01*
X-1255918D01*
X-1253247Y480216D01*
X-1250853Y481598D01*
X-1248898Y483553D01*
X-1247516Y485947D01*
X-1246800Y488618D01*
Y491382D01*
X-1247516Y494053D01*
X-1248151Y495154D01*
X-1198835Y544471D01*
X-1198835Y544471D01*
X-1198222Y545388D01*
X-1198007Y546468D01*
X-1198007Y546469D01*
Y1057589D01*
X-1194780Y1060816D01*
X-1006360D01*
X-1006360Y1060816D01*
X-1005279Y1061031D01*
X-1004363Y1061643D01*
X-955721Y1110285D01*
X-944167D01*
X-943257Y1109375D01*
X-941144Y1108500D01*
X-938856D01*
X-936743Y1109375D01*
X-935125Y1110993D01*
X-934250Y1113106D01*
Y1115394D01*
X-935125Y1117507D01*
X-936743Y1119125D01*
X-938856Y1120000D01*
X-938861D01*
X-939114Y1121270D01*
X-937701Y1121855D01*
X-936083Y1123473D01*
X-935208Y1125586D01*
Y1127874D01*
X-935658Y1128960D01*
X-934581Y1129680D01*
X-933257Y1128355D01*
X-931144Y1127480D01*
X-928856D01*
X-926743Y1128355D01*
X-925125Y1129973D01*
X-924250Y1132086D01*
Y1134052D01*
X-923659Y1134530D01*
X-923449Y1134651D01*
X-923077Y1134781D01*
X-921144Y1133980D01*
X-918856D01*
X-916743Y1134855D01*
X-915125Y1136473D01*
X-914250Y1138586D01*
Y1140192D01*
X-913060Y1141068D01*
X-911641Y1140480D01*
X-909354D01*
X-907240Y1141355D01*
X-905623Y1142973D01*
X-904747Y1145086D01*
Y1147374D01*
X-905239Y1148561D01*
X-904163Y1149281D01*
X-903257Y1148375D01*
X-901144Y1147500D01*
X-898856D01*
X-896743Y1148375D01*
X-895125Y1149993D01*
X-894250Y1152106D01*
Y1154394D01*
X-895125Y1156507D01*
X-896743Y1158125D01*
X-898856Y1159000D01*
X-901144D01*
X-903257Y1158125D01*
X-903387Y1157995D01*
X-904464Y1158714D01*
X-904250Y1159230D01*
Y1161518D01*
X-905125Y1163631D01*
X-906743Y1165249D01*
X-908856Y1166124D01*
X-911144D01*
X-913245Y1165254D01*
X-913295Y1165275D01*
X-914317Y1165985D01*
X-914250Y1166146D01*
Y1168434D01*
X-915125Y1170547D01*
X-916743Y1172165D01*
X-918856Y1173040D01*
X-921144D01*
X-922980Y1172279D01*
X-923885Y1172673D01*
X-924250Y1172968D01*
Y1174541D01*
X-925125Y1176654D01*
X-926743Y1178271D01*
X-928856Y1179147D01*
X-931144D01*
X-933089Y1178341D01*
X-933652Y1178591D01*
X-934250Y1179075D01*
Y1181144D01*
X-935125Y1183257D01*
X-936743Y1184875D01*
X-938856Y1185750D01*
X-941144D01*
X-943048Y1184961D01*
X-943831Y1185339D01*
X-944250Y1185678D01*
Y1187414D01*
X-945125Y1189527D01*
X-946743Y1191145D01*
X-948856Y1192020D01*
X-951144D01*
X-953257Y1191145D01*
X-954875Y1189527D01*
X-955750Y1187414D01*
Y1185126D01*
X-954875Y1183013D01*
X-953257Y1181395D01*
X-952824Y1181216D01*
Y1178304D01*
X-1024264Y1106864D01*
X-1073162D01*
X-1073359Y1107229D01*
X-1073551Y1108134D01*
X-1072125Y1109560D01*
X-1071250Y1111674D01*
Y1113961D01*
X-1072097Y1116007D01*
X-1071742Y1117248D01*
X-1070994Y1117558D01*
X-1069376Y1119175D01*
X-1068501Y1121289D01*
Y1123576D01*
X-1068097Y1124181D01*
X-1066491D01*
X-1064378Y1125056D01*
X-1062760Y1126673D01*
X-1061885Y1128787D01*
Y1131074D01*
X-1061484Y1131675D01*
X-1059870D01*
X-1057757Y1132550D01*
X-1056139Y1134168D01*
X-1055264Y1136281D01*
Y1137675D01*
X-1055207Y1138582D01*
X-1054090Y1138848D01*
X-1052903D01*
X-1050790Y1139724D01*
X-1049172Y1141341D01*
X-1048297Y1143455D01*
Y1145742D01*
X-1049172Y1147856D01*
X-1050790Y1149473D01*
X-1052903Y1150348D01*
X-1055191D01*
X-1057304Y1149473D01*
X-1057760Y1149017D01*
X-1058515Y1149167D01*
X-1058515Y1149167D01*
X-1094798D01*
X-1179749Y1234117D01*
X-1180665Y1234729D01*
X-1181746Y1234944D01*
D02*
G37*
G36*
X-167620Y1234555D02*
X-186620D01*
X-189492Y1234177D01*
X-192167Y1233068D01*
X-194465Y1231305D01*
X-196229Y1229007D01*
X-197337Y1226332D01*
X-197715Y1223460D01*
X-197337Y1220588D01*
X-196229Y1217913D01*
X-194465Y1215615D01*
X-192167Y1213851D01*
X-189492Y1212743D01*
X-186620Y1212365D01*
X-167620D01*
X-164748Y1212743D01*
X-162073Y1213851D01*
X-159775Y1215615D01*
X-158012Y1217913D01*
X-156903Y1220588D01*
X-156525Y1223460D01*
X-156903Y1226332D01*
X-158012Y1229007D01*
X-159775Y1231305D01*
X-162073Y1233068D01*
X-164748Y1234177D01*
X-167620Y1234555D01*
D02*
G37*
G36*
X-50000Y1292862D02*
X-55595Y1292495D01*
X-61094Y1291401D01*
X-66403Y1289599D01*
X-71431Y1287119D01*
X-76093Y1284005D01*
X-80308Y1280308D01*
X-84004Y1276093D01*
X-87119Y1271431D01*
X-89599Y1266403D01*
X-91401Y1261093D01*
X-92495Y1255595D01*
X-92862Y1250000D01*
X-92495Y1244405D01*
X-91401Y1238906D01*
X-89599Y1233597D01*
X-87119Y1228569D01*
X-84004Y1223907D01*
X-80308Y1219692D01*
X-76093Y1215995D01*
X-71431Y1212881D01*
X-66403Y1210401D01*
X-61094Y1208599D01*
X-55595Y1207505D01*
X-50000Y1207138D01*
X-44405Y1207505D01*
X-38907Y1208599D01*
X-33598Y1210401D01*
X-28569Y1212881D01*
X-23907Y1215995D01*
X-19692Y1219692D01*
X-15996Y1223907D01*
X-12881Y1228569D01*
X-10401Y1233597D01*
X-8599Y1238906D01*
X-7505Y1244405D01*
X-7138Y1250000D01*
X-7505Y1255595D01*
X-8599Y1261093D01*
X-10401Y1266403D01*
X-12881Y1271431D01*
X-15996Y1276093D01*
X-19692Y1280308D01*
X-23907Y1284005D01*
X-28569Y1287119D01*
X-33598Y1289599D01*
X-38907Y1291401D01*
X-44405Y1292495D01*
X-50000Y1292862D01*
D02*
G37*
G36*
X-1550000D02*
X-1555595Y1292495D01*
X-1561093Y1291401D01*
X-1566402Y1289599D01*
X-1571431Y1287119D01*
X-1576093Y1284005D01*
X-1580308Y1280308D01*
X-1584005Y1276093D01*
X-1587119Y1271431D01*
X-1589599Y1266403D01*
X-1591401Y1261093D01*
X-1592495Y1255595D01*
X-1592862Y1250000D01*
X-1592495Y1244405D01*
X-1591401Y1238906D01*
X-1589599Y1233597D01*
X-1587119Y1228569D01*
X-1584005Y1223907D01*
X-1580308Y1219692D01*
X-1576093Y1215995D01*
X-1571431Y1212881D01*
X-1566402Y1210401D01*
X-1561093Y1208599D01*
X-1555595Y1207505D01*
X-1550000Y1207138D01*
X-1544405Y1207505D01*
X-1538907Y1208599D01*
X-1533598Y1210401D01*
X-1528569Y1212881D01*
X-1523907Y1215995D01*
X-1519692Y1219692D01*
X-1515995Y1223907D01*
X-1512881Y1228569D01*
X-1510401Y1233597D01*
X-1508599Y1238906D01*
X-1507505Y1244405D01*
X-1507138Y1250000D01*
X-1507505Y1255595D01*
X-1508599Y1261093D01*
X-1510401Y1266403D01*
X-1512881Y1271431D01*
X-1515995Y1276093D01*
X-1519692Y1280308D01*
X-1523907Y1284005D01*
X-1528569Y1287119D01*
X-1533598Y1289599D01*
X-1538907Y1291401D01*
X-1544405Y1292495D01*
X-1550000Y1292862D01*
D02*
G37*
G36*
X-1281318Y1200500D02*
X-1284082D01*
X-1286753Y1199784D01*
X-1289147Y1198402D01*
X-1291102Y1196447D01*
X-1292484Y1194053D01*
X-1293200Y1191382D01*
Y1188618D01*
X-1292484Y1185947D01*
X-1291102Y1183553D01*
X-1289147Y1181598D01*
X-1286753Y1180216D01*
X-1284082Y1179500D01*
X-1281318D01*
X-1278647Y1180216D01*
X-1276253Y1181598D01*
X-1274298Y1183553D01*
X-1272916Y1185947D01*
X-1272200Y1188618D01*
Y1191382D01*
X-1272916Y1194053D01*
X-1274298Y1196447D01*
X-1276253Y1198402D01*
X-1278647Y1199784D01*
X-1281318Y1200500D01*
D02*
G37*
G36*
X-353218Y1198546D02*
X-355983D01*
X-358654Y1197830D01*
X-361048Y1196448D01*
X-363003Y1194493D01*
X-364385Y1192098D01*
X-365101Y1189428D01*
Y1186663D01*
X-364385Y1183993D01*
X-363003Y1181598D01*
X-361048Y1179643D01*
X-358654Y1178261D01*
X-355983Y1177545D01*
X-353218D01*
X-350548Y1178261D01*
X-348154Y1179643D01*
X-346199Y1181598D01*
X-344816Y1183993D01*
X-344101Y1186663D01*
Y1189428D01*
X-344816Y1192098D01*
X-346199Y1194493D01*
X-348154Y1196448D01*
X-350548Y1197830D01*
X-353218Y1198546D01*
D02*
G37*
G36*
X-378618D02*
X-381383D01*
X-384054Y1197830D01*
X-386448Y1196448D01*
X-388403Y1194493D01*
X-389785Y1192098D01*
X-390501Y1189428D01*
Y1186663D01*
X-389785Y1183993D01*
X-388403Y1181598D01*
X-386448Y1179643D01*
X-384054Y1178261D01*
X-381383Y1177545D01*
X-378618D01*
X-375948Y1178261D01*
X-373554Y1179643D01*
X-371599Y1181598D01*
X-370216Y1183993D01*
X-369501Y1186663D01*
Y1189428D01*
X-370216Y1192098D01*
X-371599Y1194493D01*
X-373554Y1196448D01*
X-375948Y1197830D01*
X-378618Y1198546D01*
D02*
G37*
G36*
X-223620Y1211555D02*
X-226492Y1211177D01*
X-229167Y1210069D01*
X-231465Y1208305D01*
X-233228Y1206007D01*
X-234337Y1203332D01*
X-234715Y1200460D01*
Y1181460D01*
X-234337Y1178588D01*
X-233228Y1175913D01*
X-231465Y1173615D01*
X-229167Y1171852D01*
X-226492Y1170743D01*
X-223620Y1170365D01*
X-220749Y1170743D01*
X-218073Y1171852D01*
X-215775Y1173615D01*
X-214012Y1175913D01*
X-212903Y1178588D01*
X-212525Y1181460D01*
Y1200460D01*
X-212903Y1203332D01*
X-214012Y1206007D01*
X-215775Y1208305D01*
X-218073Y1210069D01*
X-220749Y1211177D01*
X-223620Y1211555D01*
D02*
G37*
G36*
X-167620Y1175255D02*
X-186620D01*
X-189492Y1174877D01*
X-192167Y1173768D01*
X-194465Y1172005D01*
X-196229Y1169707D01*
X-197337Y1167032D01*
X-197715Y1164160D01*
X-197337Y1161288D01*
X-196229Y1158613D01*
X-194465Y1156315D01*
X-192167Y1154551D01*
X-189492Y1153443D01*
X-186620Y1153065D01*
X-167620D01*
X-164748Y1153443D01*
X-162073Y1154551D01*
X-159775Y1156315D01*
X-158012Y1158613D01*
X-156903Y1161288D01*
X-156525Y1164160D01*
X-156903Y1167032D01*
X-158012Y1169707D01*
X-159775Y1172005D01*
X-162073Y1173768D01*
X-164748Y1174877D01*
X-167620Y1175255D01*
D02*
G37*
G36*
X-353218Y1130500D02*
X-355983D01*
X-358654Y1129784D01*
X-361048Y1128402D01*
X-363003Y1126447D01*
X-364385Y1124053D01*
X-365101Y1121382D01*
Y1118618D01*
X-364385Y1115947D01*
X-363003Y1113553D01*
X-361048Y1111598D01*
X-358654Y1110216D01*
X-355983Y1109500D01*
X-353218D01*
X-350548Y1110216D01*
X-348154Y1111598D01*
X-346199Y1113553D01*
X-344816Y1115947D01*
X-344101Y1118618D01*
Y1121382D01*
X-344816Y1124053D01*
X-346199Y1126447D01*
X-348154Y1128402D01*
X-350548Y1129784D01*
X-353218Y1130500D01*
D02*
G37*
G36*
X-378618D02*
X-381383D01*
X-384054Y1129784D01*
X-386448Y1128402D01*
X-388403Y1126447D01*
X-389785Y1124053D01*
X-390501Y1121382D01*
Y1118618D01*
X-389785Y1115947D01*
X-388403Y1113553D01*
X-386448Y1111598D01*
X-384054Y1110216D01*
X-381383Y1109500D01*
X-378618D01*
X-375948Y1110216D01*
X-373554Y1111598D01*
X-371599Y1113553D01*
X-370216Y1115947D01*
X-369501Y1118618D01*
Y1121382D01*
X-370216Y1124053D01*
X-371599Y1126447D01*
X-373554Y1128402D01*
X-375948Y1129784D01*
X-378618Y1130500D01*
D02*
G37*
G36*
X-1281623D02*
X-1284388D01*
X-1287058Y1129784D01*
X-1289453Y1128402D01*
X-1291407Y1126447D01*
X-1292790Y1124053D01*
X-1293505Y1121382D01*
Y1118618D01*
X-1292790Y1115947D01*
X-1291407Y1113553D01*
X-1289453Y1111598D01*
X-1287058Y1110216D01*
X-1284388Y1109500D01*
X-1281623D01*
X-1278953Y1110216D01*
X-1276558Y1111598D01*
X-1274603Y1113553D01*
X-1273221Y1115947D01*
X-1272505Y1118618D01*
Y1121382D01*
X-1273221Y1124053D01*
X-1274603Y1126447D01*
X-1276558Y1128402D01*
X-1278953Y1129784D01*
X-1281623Y1130500D01*
D02*
G37*
G36*
X-104657Y1137262D02*
X-108343D01*
X-111904Y1136308D01*
X-115096Y1134465D01*
X-117703Y1131858D01*
X-119546Y1128666D01*
X-120500Y1125105D01*
Y1121419D01*
X-119546Y1117858D01*
X-117703Y1114666D01*
X-115096Y1112059D01*
X-111904Y1110216D01*
X-108343Y1109262D01*
X-104657D01*
X-101096Y1110216D01*
X-97904Y1112059D01*
X-95297Y1114666D01*
X-93454Y1117858D01*
X-92500Y1121419D01*
Y1125105D01*
X-93454Y1128666D01*
X-95297Y1131858D01*
X-97904Y1134465D01*
X-101096Y1136308D01*
X-104657Y1137262D01*
D02*
G37*
G36*
X-778157Y1124000D02*
X-781843D01*
X-785404Y1123046D01*
X-788596Y1121203D01*
X-791203Y1118596D01*
X-793046Y1115404D01*
X-794000Y1111843D01*
Y1108157D01*
X-793046Y1104596D01*
X-791203Y1101404D01*
X-788596Y1098797D01*
X-785404Y1096954D01*
X-781843Y1096000D01*
X-778157D01*
X-774596Y1096954D01*
X-771404Y1098797D01*
X-768797Y1101404D01*
X-766954Y1104596D01*
X-766000Y1108157D01*
Y1111843D01*
X-766954Y1115404D01*
X-768797Y1118596D01*
X-771404Y1121203D01*
X-774596Y1123046D01*
X-778157Y1124000D01*
D02*
G37*
G36*
X-104657Y1074000D02*
X-108343D01*
X-111904Y1073046D01*
X-115096Y1071203D01*
X-117703Y1068596D01*
X-119546Y1065404D01*
X-120500Y1061843D01*
Y1058157D01*
X-119546Y1054596D01*
X-117703Y1051404D01*
X-115096Y1048797D01*
X-111904Y1046954D01*
X-108343Y1046000D01*
X-104657D01*
X-101096Y1046954D01*
X-97904Y1048797D01*
X-95297Y1051404D01*
X-93454Y1054596D01*
X-92500Y1058157D01*
Y1061843D01*
X-93454Y1065404D01*
X-95297Y1068596D01*
X-97904Y1071203D01*
X-101096Y1073046D01*
X-104657Y1074000D01*
D02*
G37*
G36*
X-1281318Y1060500D02*
X-1284082D01*
X-1286753Y1059784D01*
X-1289147Y1058402D01*
X-1291102Y1056447D01*
X-1292484Y1054053D01*
X-1293200Y1051382D01*
Y1048618D01*
X-1292484Y1045947D01*
X-1291102Y1043553D01*
X-1289147Y1041598D01*
X-1286753Y1040216D01*
X-1284082Y1039500D01*
X-1281318D01*
X-1278647Y1040216D01*
X-1276253Y1041598D01*
X-1274298Y1043553D01*
X-1272916Y1045947D01*
X-1272200Y1048618D01*
Y1051382D01*
X-1272916Y1054053D01*
X-1274298Y1056447D01*
X-1276253Y1058402D01*
X-1278647Y1059784D01*
X-1281318Y1060500D01*
D02*
G37*
G36*
X-353218Y1060500D02*
X-355983D01*
X-358654Y1059784D01*
X-361048Y1058402D01*
X-363003Y1056447D01*
X-364385Y1054053D01*
X-365101Y1051382D01*
Y1048618D01*
X-364385Y1045947D01*
X-363003Y1043553D01*
X-361048Y1041598D01*
X-358654Y1040216D01*
X-355983Y1039500D01*
X-353218D01*
X-350548Y1040216D01*
X-348154Y1041598D01*
X-346199Y1043553D01*
X-344816Y1045947D01*
X-344101Y1048618D01*
Y1051382D01*
X-344816Y1054053D01*
X-346199Y1056447D01*
X-348154Y1058402D01*
X-350548Y1059784D01*
X-353218Y1060500D01*
D02*
G37*
G36*
X-378618D02*
X-381383D01*
X-384054Y1059784D01*
X-386448Y1058402D01*
X-388403Y1056447D01*
X-389785Y1054053D01*
X-390501Y1051382D01*
Y1048618D01*
X-389785Y1045947D01*
X-388403Y1043553D01*
X-386448Y1041598D01*
X-384054Y1040216D01*
X-381383Y1039500D01*
X-378618D01*
X-375948Y1040216D01*
X-373554Y1041598D01*
X-371599Y1043553D01*
X-370216Y1045947D01*
X-369501Y1048618D01*
Y1051382D01*
X-370216Y1054053D01*
X-371599Y1056447D01*
X-373554Y1058402D01*
X-375948Y1059784D01*
X-378618Y1060500D01*
D02*
G37*
G36*
X-1538157Y1064000D02*
X-1541843D01*
X-1545404Y1063046D01*
X-1548596Y1061203D01*
X-1551203Y1058596D01*
X-1553046Y1055404D01*
X-1554000Y1051843D01*
Y1048157D01*
X-1553046Y1044596D01*
X-1551203Y1041404D01*
X-1548596Y1038797D01*
X-1545404Y1036954D01*
X-1541843Y1036000D01*
X-1538157D01*
X-1534596Y1036954D01*
X-1531404Y1038797D01*
X-1528797Y1041404D01*
X-1526954Y1044596D01*
X-1526000Y1048157D01*
Y1051843D01*
X-1526954Y1055404D01*
X-1528797Y1058596D01*
X-1531404Y1061203D01*
X-1534596Y1063046D01*
X-1538157Y1064000D01*
D02*
G37*
G36*
X-481500Y1039190D02*
X-483500D01*
X-486241Y1038829D01*
X-488795Y1037772D01*
X-490989Y1036088D01*
X-492672Y1033895D01*
X-493730Y1031341D01*
X-494090Y1028600D01*
X-493730Y1025859D01*
X-492672Y1023305D01*
X-490989Y1021111D01*
X-488795Y1019428D01*
X-486241Y1018370D01*
X-483500Y1018009D01*
X-481500D01*
X-478759Y1018370D01*
X-476204Y1019428D01*
X-474011Y1021111D01*
X-472328Y1023305D01*
X-471270Y1025859D01*
X-470909Y1028600D01*
X-471270Y1031341D01*
X-472328Y1033895D01*
X-474011Y1036088D01*
X-476204Y1037772D01*
X-478759Y1038829D01*
X-481500Y1039190D01*
D02*
G37*
G36*
X-506900D02*
X-508900D01*
X-511641Y1038829D01*
X-514195Y1037772D01*
X-516389Y1036088D01*
X-518072Y1033895D01*
X-519130Y1031341D01*
X-519491Y1028600D01*
X-519130Y1025859D01*
X-518072Y1023305D01*
X-516389Y1021111D01*
X-514195Y1019428D01*
X-511641Y1018370D01*
X-508900Y1018009D01*
X-506900D01*
X-504159Y1018370D01*
X-501604Y1019428D01*
X-499411Y1021111D01*
X-497728Y1023305D01*
X-496670Y1025859D01*
X-496309Y1028600D01*
X-496670Y1031341D01*
X-497728Y1033895D01*
X-499411Y1036088D01*
X-501604Y1037772D01*
X-504159Y1038829D01*
X-506900Y1039190D01*
D02*
G37*
G36*
X-1091100D02*
X-1093100D01*
X-1095841Y1038829D01*
X-1098395Y1037772D01*
X-1100589Y1036088D01*
X-1102272Y1033895D01*
X-1103330Y1031341D01*
X-1103690Y1028600D01*
X-1103330Y1025859D01*
X-1102272Y1023305D01*
X-1100589Y1021111D01*
X-1098395Y1019428D01*
X-1095841Y1018370D01*
X-1093100Y1018009D01*
X-1091100D01*
X-1088359Y1018370D01*
X-1085805Y1019428D01*
X-1083611Y1021111D01*
X-1081928Y1023305D01*
X-1080870Y1025859D01*
X-1080509Y1028600D01*
X-1080870Y1031341D01*
X-1081928Y1033895D01*
X-1083611Y1036088D01*
X-1085805Y1037772D01*
X-1088359Y1038829D01*
X-1091100Y1039190D01*
D02*
G37*
G36*
X-1116500D02*
X-1118500D01*
X-1121241Y1038829D01*
X-1123795Y1037772D01*
X-1125989Y1036088D01*
X-1127672Y1033895D01*
X-1128730Y1031341D01*
X-1129090Y1028600D01*
X-1128730Y1025859D01*
X-1127672Y1023305D01*
X-1125989Y1021111D01*
X-1123795Y1019428D01*
X-1121241Y1018370D01*
X-1118500Y1018009D01*
X-1116500D01*
X-1113759Y1018370D01*
X-1111205Y1019428D01*
X-1109011Y1021111D01*
X-1107328Y1023305D01*
X-1106270Y1025859D01*
X-1105909Y1028600D01*
X-1106270Y1031341D01*
X-1107328Y1033895D01*
X-1109011Y1036088D01*
X-1111205Y1037772D01*
X-1113759Y1038829D01*
X-1116500Y1039190D01*
D02*
G37*
G36*
X-650000Y1012824D02*
X-650000Y1012824D01*
X-750000D01*
X-750000Y1012824D01*
X-751081Y1012609D01*
X-751997Y1011997D01*
X-772283Y991711D01*
X-774596Y993046D01*
X-778157Y994000D01*
X-781843D01*
X-785404Y993046D01*
X-788596Y991203D01*
X-791203Y988596D01*
X-793046Y985404D01*
X-794000Y981843D01*
Y978157D01*
X-793046Y974596D01*
X-791203Y971404D01*
X-788596Y968797D01*
X-785404Y966954D01*
X-781843Y966000D01*
X-778157D01*
X-774596Y966954D01*
X-771404Y968797D01*
X-768797Y971404D01*
X-766954Y974596D01*
X-766000Y978157D01*
Y981843D01*
X-766954Y985404D01*
X-768289Y987717D01*
X-748830Y1007176D01*
X-651170D01*
X-602824Y958830D01*
Y900170D01*
X-649944Y853050D01*
X-650526Y853387D01*
X-652815Y854000D01*
X-655185D01*
X-657474Y853387D01*
X-659526Y852202D01*
X-661202Y850526D01*
X-662387Y848474D01*
X-663000Y846185D01*
Y843815D01*
X-662387Y841526D01*
X-661202Y839474D01*
X-659526Y837798D01*
X-657474Y836613D01*
X-655185Y836000D01*
X-652815D01*
X-650526Y836613D01*
X-648474Y837798D01*
X-646798Y839474D01*
X-645613Y841526D01*
X-645000Y843815D01*
Y846185D01*
X-645613Y848474D01*
X-645950Y849056D01*
X-598003Y897003D01*
X-598003Y897003D01*
X-597391Y897919D01*
X-597176Y899000D01*
X-597176Y899000D01*
Y960000D01*
X-597176Y960000D01*
X-597391Y961081D01*
X-598003Y961997D01*
X-648003Y1011997D01*
X-648919Y1012609D01*
X-650000Y1012824D01*
D02*
G37*
G36*
X-1448125Y1016831D02*
X-1453875D01*
X-1455484Y1016511D01*
X-1456849Y1015599D01*
X-1457761Y1014234D01*
X-1458081Y1012625D01*
Y1007375D01*
X-1457761Y1005766D01*
X-1456849Y1004401D01*
X-1455484Y1003489D01*
X-1453875Y1003169D01*
X-1448125D01*
X-1446516Y1003489D01*
X-1445151Y1004401D01*
X-1444239Y1005766D01*
X-1444208Y1005922D01*
X-1440006D01*
X-1439924Y1005724D01*
X-1438307Y1004107D01*
X-1436193Y1003231D01*
X-1433906D01*
X-1431792Y1004107D01*
X-1430175Y1005724D01*
X-1429300Y1007837D01*
Y1010125D01*
X-1430175Y1012238D01*
X-1431792Y1013856D01*
X-1433906Y1014731D01*
X-1436193D01*
X-1437769Y1014078D01*
X-1444208D01*
X-1444239Y1014234D01*
X-1445151Y1015599D01*
X-1446516Y1016511D01*
X-1448125Y1016831D01*
D02*
G37*
G36*
X-105019Y1007079D02*
X-105230D01*
Y993309D01*
X-91460D01*
Y993520D01*
X-92038Y996426D01*
X-93172Y999163D01*
X-94818Y1001626D01*
X-96913Y1003721D01*
X-99376Y1005367D01*
X-102113Y1006501D01*
X-105019Y1007079D01*
D02*
G37*
G36*
X-107770D02*
X-107981D01*
X-110887Y1006501D01*
X-113624Y1005367D01*
X-116088Y1003721D01*
X-118182Y1001626D01*
X-119828Y999163D01*
X-120962Y996426D01*
X-121540Y993520D01*
Y993309D01*
X-107770D01*
Y1007079D01*
D02*
G37*
G36*
X-481500Y1013790D02*
X-483500D01*
X-486241Y1013429D01*
X-488795Y1012372D01*
X-490989Y1010688D01*
X-492672Y1008495D01*
X-493730Y1005941D01*
X-494090Y1003200D01*
X-493730Y1000459D01*
X-492672Y997905D01*
X-490989Y995711D01*
X-488795Y994028D01*
X-486241Y992970D01*
X-483500Y992609D01*
X-481500D01*
X-478759Y992970D01*
X-476204Y994028D01*
X-474011Y995711D01*
X-472328Y997905D01*
X-471270Y1000459D01*
X-470909Y1003200D01*
X-471270Y1005941D01*
X-472328Y1008495D01*
X-474011Y1010688D01*
X-476204Y1012372D01*
X-478759Y1013429D01*
X-481500Y1013790D01*
D02*
G37*
G36*
X-506900D02*
X-508900D01*
X-511641Y1013429D01*
X-514195Y1012372D01*
X-516389Y1010688D01*
X-518072Y1008495D01*
X-519130Y1005941D01*
X-519491Y1003200D01*
X-519130Y1000459D01*
X-518072Y997905D01*
X-516389Y995711D01*
X-514195Y994028D01*
X-511641Y992970D01*
X-508900Y992609D01*
X-506900D01*
X-504159Y992970D01*
X-501604Y994028D01*
X-499411Y995711D01*
X-497728Y997905D01*
X-496670Y1000459D01*
X-496309Y1003200D01*
X-496670Y1005941D01*
X-497728Y1008495D01*
X-499411Y1010688D01*
X-501604Y1012372D01*
X-504159Y1013429D01*
X-506900Y1013790D01*
D02*
G37*
G36*
X-1091100D02*
X-1093100D01*
X-1095841Y1013429D01*
X-1098395Y1012372D01*
X-1100589Y1010688D01*
X-1102272Y1008495D01*
X-1103330Y1005941D01*
X-1103690Y1003200D01*
X-1103330Y1000459D01*
X-1102272Y997905D01*
X-1100589Y995711D01*
X-1098395Y994028D01*
X-1095841Y992970D01*
X-1093100Y992609D01*
X-1091100D01*
X-1088359Y992970D01*
X-1085805Y994028D01*
X-1083611Y995711D01*
X-1081928Y997905D01*
X-1080870Y1000459D01*
X-1080509Y1003200D01*
X-1080870Y1005941D01*
X-1081928Y1008495D01*
X-1083611Y1010688D01*
X-1085805Y1012372D01*
X-1088359Y1013429D01*
X-1091100Y1013790D01*
D02*
G37*
G36*
X-1116500D02*
X-1118500D01*
X-1121241Y1013429D01*
X-1123795Y1012372D01*
X-1125989Y1010688D01*
X-1127672Y1008495D01*
X-1128730Y1005941D01*
X-1129090Y1003200D01*
X-1128730Y1000459D01*
X-1127672Y997905D01*
X-1125989Y995711D01*
X-1123795Y994028D01*
X-1121241Y992970D01*
X-1118500Y992609D01*
X-1116500D01*
X-1113759Y992970D01*
X-1111205Y994028D01*
X-1109011Y995711D01*
X-1107328Y997905D01*
X-1106270Y1000459D01*
X-1105909Y1003200D01*
X-1106270Y1005941D01*
X-1107328Y1008495D01*
X-1109011Y1010688D01*
X-1111205Y1012372D01*
X-1113759Y1013429D01*
X-1116500Y1013790D01*
D02*
G37*
G36*
X-652815Y999000D02*
X-655185D01*
X-657474Y998387D01*
X-659526Y997202D01*
X-661202Y995526D01*
X-662387Y993474D01*
X-663000Y991185D01*
Y988815D01*
X-662387Y986526D01*
X-661202Y984474D01*
X-659526Y982798D01*
X-657474Y981613D01*
X-655185Y981000D01*
X-652815D01*
X-650526Y981613D01*
X-648474Y982798D01*
X-646798Y984474D01*
X-645613Y986526D01*
X-645000Y988815D01*
Y991185D01*
X-645613Y993474D01*
X-646798Y995526D01*
X-648474Y997202D01*
X-650526Y998387D01*
X-652815Y999000D01*
D02*
G37*
G36*
X-91460Y990769D02*
X-105230D01*
Y976999D01*
X-105019D01*
X-102113Y977577D01*
X-99376Y978711D01*
X-96913Y980357D01*
X-94818Y982451D01*
X-93172Y984915D01*
X-92038Y987652D01*
X-91460Y990558D01*
Y990769D01*
D02*
G37*
G36*
X-107770D02*
X-121540D01*
Y990558D01*
X-120962Y987652D01*
X-119828Y984915D01*
X-118182Y982451D01*
X-116088Y980357D01*
X-113624Y978711D01*
X-110887Y977577D01*
X-107981Y976999D01*
X-107770D01*
Y990769D01*
D02*
G37*
G36*
X-353218Y990500D02*
X-355983D01*
X-358654Y989784D01*
X-361048Y988402D01*
X-363003Y986447D01*
X-364385Y984053D01*
X-365101Y981382D01*
Y978618D01*
X-364385Y975947D01*
X-363003Y973553D01*
X-361048Y971598D01*
X-358654Y970216D01*
X-355983Y969500D01*
X-353218D01*
X-350548Y970216D01*
X-348154Y971598D01*
X-346199Y973553D01*
X-344816Y975947D01*
X-344101Y978618D01*
Y981382D01*
X-344816Y984053D01*
X-346199Y986447D01*
X-348154Y988402D01*
X-350548Y989784D01*
X-353218Y990500D01*
D02*
G37*
G36*
X-378618D02*
X-381383D01*
X-384054Y989784D01*
X-386448Y988402D01*
X-388403Y986447D01*
X-389785Y984053D01*
X-390501Y981382D01*
Y978618D01*
X-389785Y975947D01*
X-388403Y973553D01*
X-386448Y971598D01*
X-384054Y970216D01*
X-381383Y969500D01*
X-378618D01*
X-375948Y970216D01*
X-373554Y971598D01*
X-371599Y973553D01*
X-370216Y975947D01*
X-369501Y978618D01*
Y981382D01*
X-370216Y984053D01*
X-371599Y986447D01*
X-373554Y988402D01*
X-375948Y989784D01*
X-378618Y990500D01*
D02*
G37*
G36*
X-1281318D02*
X-1284082D01*
X-1286753Y989784D01*
X-1289147Y988402D01*
X-1291102Y986447D01*
X-1292484Y984053D01*
X-1293200Y981382D01*
Y978618D01*
X-1292484Y975947D01*
X-1291102Y973553D01*
X-1289147Y971598D01*
X-1286753Y970216D01*
X-1284082Y969500D01*
X-1281318D01*
X-1278647Y970216D01*
X-1276253Y971598D01*
X-1274298Y973553D01*
X-1272916Y975947D01*
X-1272200Y978618D01*
Y981382D01*
X-1272916Y984053D01*
X-1274298Y986447D01*
X-1276253Y988402D01*
X-1278647Y989784D01*
X-1281318Y990500D01*
D02*
G37*
G36*
X-506900Y988390D02*
X-508900D01*
X-511641Y988029D01*
X-514195Y986972D01*
X-516389Y985288D01*
X-518072Y983095D01*
X-519130Y980541D01*
X-519491Y977800D01*
X-519130Y975059D01*
X-518072Y972505D01*
X-516389Y970311D01*
X-514195Y968628D01*
X-511641Y967570D01*
X-508900Y967209D01*
X-506900D01*
X-504159Y967570D01*
X-501604Y968628D01*
X-499411Y970311D01*
X-497728Y972505D01*
X-496670Y975059D01*
X-496309Y977800D01*
X-496670Y980541D01*
X-497728Y983095D01*
X-499411Y985288D01*
X-501604Y986972D01*
X-504159Y988029D01*
X-506900Y988390D01*
D02*
G37*
G36*
X-1091100D02*
X-1093100D01*
X-1095841Y988029D01*
X-1098395Y986972D01*
X-1100589Y985288D01*
X-1102272Y983095D01*
X-1103330Y980541D01*
X-1103690Y977800D01*
X-1103330Y975059D01*
X-1102272Y972505D01*
X-1100589Y970311D01*
X-1098395Y968628D01*
X-1095841Y967570D01*
X-1093100Y967209D01*
X-1091100D01*
X-1088359Y967570D01*
X-1085805Y968628D01*
X-1083611Y970311D01*
X-1081928Y972505D01*
X-1080870Y975059D01*
X-1080509Y977800D01*
X-1080870Y980541D01*
X-1081928Y983095D01*
X-1083611Y985288D01*
X-1085805Y986972D01*
X-1088359Y988029D01*
X-1091100Y988390D01*
D02*
G37*
G36*
X-1116500D02*
X-1118500D01*
X-1121241Y988029D01*
X-1123795Y986972D01*
X-1125989Y985288D01*
X-1127672Y983095D01*
X-1128730Y980541D01*
X-1129090Y977800D01*
X-1128730Y975059D01*
X-1127672Y972505D01*
X-1125989Y970311D01*
X-1123795Y968628D01*
X-1121241Y967570D01*
X-1118500Y967209D01*
X-1116500D01*
X-1113759Y967570D01*
X-1111205Y968628D01*
X-1109011Y970311D01*
X-1107328Y972505D01*
X-1106270Y975059D01*
X-1105909Y977800D01*
X-1106270Y980541D01*
X-1107328Y983095D01*
X-1109011Y985288D01*
X-1111205Y986972D01*
X-1113759Y988029D01*
X-1116500Y988390D01*
D02*
G37*
G36*
X-481500Y962990D02*
X-483500D01*
X-486241Y962629D01*
X-488795Y961572D01*
X-490989Y959889D01*
X-492672Y957695D01*
X-493730Y955141D01*
X-494090Y952400D01*
X-493730Y949659D01*
X-492672Y947104D01*
X-490989Y944911D01*
X-488795Y943228D01*
X-486241Y942170D01*
X-483500Y941809D01*
X-481500D01*
X-478759Y942170D01*
X-476204Y943228D01*
X-474011Y944911D01*
X-472328Y947104D01*
X-471270Y949659D01*
X-470909Y952400D01*
X-471270Y955141D01*
X-472328Y957695D01*
X-474011Y959889D01*
X-476204Y961572D01*
X-478759Y962629D01*
X-481500Y962990D01*
D02*
G37*
G36*
X-506900D02*
X-508900D01*
X-511641Y962629D01*
X-514195Y961572D01*
X-516389Y959889D01*
X-518072Y957695D01*
X-519130Y955141D01*
X-519491Y952400D01*
X-519130Y949659D01*
X-518072Y947104D01*
X-516389Y944911D01*
X-514195Y943228D01*
X-511641Y942170D01*
X-508900Y941809D01*
X-506900D01*
X-504159Y942170D01*
X-501604Y943228D01*
X-499411Y944911D01*
X-497728Y947104D01*
X-496670Y949659D01*
X-496309Y952400D01*
X-496670Y955141D01*
X-497728Y957695D01*
X-499411Y959889D01*
X-501604Y961572D01*
X-504159Y962629D01*
X-506900Y962990D01*
D02*
G37*
G36*
X-1091100D02*
X-1093100D01*
X-1095841Y962629D01*
X-1098395Y961572D01*
X-1100589Y959889D01*
X-1102272Y957695D01*
X-1103330Y955141D01*
X-1103690Y952400D01*
X-1103330Y949659D01*
X-1102272Y947104D01*
X-1100589Y944911D01*
X-1098395Y943228D01*
X-1095841Y942170D01*
X-1093100Y941809D01*
X-1091100D01*
X-1088359Y942170D01*
X-1085805Y943228D01*
X-1083611Y944911D01*
X-1081928Y947104D01*
X-1080870Y949659D01*
X-1080509Y952400D01*
X-1080870Y955141D01*
X-1081928Y957695D01*
X-1083611Y959889D01*
X-1085805Y961572D01*
X-1088359Y962629D01*
X-1091100Y962990D01*
D02*
G37*
G36*
X-1116500D02*
X-1118500D01*
X-1121241Y962629D01*
X-1123795Y961572D01*
X-1125989Y959889D01*
X-1127672Y957695D01*
X-1128730Y955141D01*
X-1129090Y952400D01*
X-1128730Y949659D01*
X-1127672Y947104D01*
X-1125989Y944911D01*
X-1123795Y943228D01*
X-1121241Y942170D01*
X-1118500Y941809D01*
X-1116500D01*
X-1113759Y942170D01*
X-1111205Y943228D01*
X-1109011Y944911D01*
X-1107328Y947104D01*
X-1106270Y949659D01*
X-1105909Y952400D01*
X-1106270Y955141D01*
X-1107328Y957695D01*
X-1109011Y959889D01*
X-1111205Y961572D01*
X-1113759Y962629D01*
X-1116500Y962990D01*
D02*
G37*
G36*
X-702815Y999000D02*
X-705185D01*
X-707474Y998387D01*
X-709526Y997202D01*
X-711202Y995526D01*
X-712387Y993474D01*
X-713000Y991185D01*
Y988815D01*
X-712387Y986526D01*
X-711202Y984474D01*
X-709526Y982798D01*
X-708078Y981962D01*
Y939876D01*
X-709252Y939390D01*
X-709436Y939574D01*
X-713563Y942332D01*
X-718149Y944232D01*
X-723018Y945200D01*
X-727982D01*
X-732851Y944232D01*
X-737437Y942332D01*
X-741564Y939574D01*
X-745074Y936064D01*
X-747832Y931937D01*
X-749732Y927350D01*
X-750700Y922482D01*
Y917518D01*
X-749732Y912649D01*
X-747832Y908063D01*
X-745074Y903936D01*
X-741564Y900426D01*
X-737437Y897668D01*
X-732851Y895768D01*
X-727982Y894800D01*
X-723018D01*
X-718149Y895768D01*
X-713563Y897668D01*
X-709436Y900426D01*
X-705926Y903936D01*
X-703168Y908063D01*
X-703124Y908170D01*
X-701878Y907922D01*
Y854885D01*
X-702815Y854000D01*
X-705185D01*
X-707474Y853387D01*
X-709526Y852202D01*
X-711202Y850526D01*
X-712038Y849078D01*
X-994610D01*
X-1005922Y860390D01*
Y866599D01*
X-1004596Y866954D01*
X-1001404Y868797D01*
X-998797Y871404D01*
X-996954Y874596D01*
X-996000Y878157D01*
Y881843D01*
X-996954Y885404D01*
X-998797Y888596D01*
X-1001404Y891203D01*
X-1004596Y893046D01*
X-1008157Y894000D01*
X-1011843D01*
X-1015404Y893046D01*
X-1018596Y891203D01*
X-1021203Y888596D01*
X-1023046Y885404D01*
X-1024000Y881843D01*
Y878157D01*
X-1023046Y874596D01*
X-1021203Y871404D01*
X-1018596Y868797D01*
X-1015404Y866954D01*
X-1014078Y866599D01*
Y858700D01*
X-1014078Y858700D01*
X-1013768Y857140D01*
X-1012884Y855816D01*
X-1002067Y845000D01*
X-1043534Y803534D01*
X-1043534Y803534D01*
X-1087849Y759218D01*
X-1088359Y759429D01*
X-1091100Y759790D01*
X-1093100D01*
X-1095841Y759429D01*
X-1098395Y758372D01*
X-1100589Y756689D01*
X-1102272Y754495D01*
X-1103330Y751941D01*
X-1103690Y749200D01*
X-1103330Y746459D01*
X-1102272Y743904D01*
X-1100589Y741711D01*
X-1098395Y740028D01*
X-1095841Y738970D01*
X-1093100Y738609D01*
X-1091100D01*
X-1088359Y738970D01*
X-1085805Y740028D01*
X-1083611Y741711D01*
X-1081928Y743904D01*
X-1080870Y746459D01*
X-1080509Y749200D01*
X-1080870Y751941D01*
X-1081667Y753865D01*
X-1038960Y796572D01*
X-1036939D01*
X-978619Y738251D01*
Y734700D01*
X-978619Y734700D01*
X-978540Y734306D01*
Y724700D01*
X-964540D01*
Y738700D01*
X-970462D01*
Y739940D01*
X-970772Y741501D01*
X-971656Y742824D01*
X-971656Y742824D01*
X-1032182Y803350D01*
X-994610Y840922D01*
X-712038D01*
X-711202Y839474D01*
X-709526Y837798D01*
X-707526Y836644D01*
X-707526Y786437D01*
X-708974Y785602D01*
X-710650Y783926D01*
X-711834Y781874D01*
X-712448Y779585D01*
Y777215D01*
X-711834Y774926D01*
X-710650Y772874D01*
X-708974Y771198D01*
X-706922Y770013D01*
X-704633Y769400D01*
X-702263D01*
X-701326Y768514D01*
Y720478D01*
X-702572Y720230D01*
X-702616Y720337D01*
X-705374Y724464D01*
X-708884Y727974D01*
X-713011Y730732D01*
X-717597Y732631D01*
X-722466Y733600D01*
X-727430D01*
X-732299Y732631D01*
X-736885Y730732D01*
X-741012Y727974D01*
X-744522Y724464D01*
X-747280Y720337D01*
X-749180Y715750D01*
X-750148Y710882D01*
Y705918D01*
X-749180Y701049D01*
X-747280Y696463D01*
X-744522Y692336D01*
X-741012Y688826D01*
X-736885Y686068D01*
X-732299Y684168D01*
X-727430Y683200D01*
X-722466D01*
X-717597Y684168D01*
X-713011Y686068D01*
X-708884Y688826D01*
X-705374Y692336D01*
X-702616Y696463D01*
X-702572Y696570D01*
X-701326Y696322D01*
Y643285D01*
X-702263Y642400D01*
X-704633D01*
X-706922Y641786D01*
X-708974Y640602D01*
X-710650Y638926D01*
X-711834Y636874D01*
X-712448Y634585D01*
Y632215D01*
X-711834Y629926D01*
X-710650Y627874D01*
X-708974Y626198D01*
X-707526Y625362D01*
Y547929D01*
X-707526Y547929D01*
X-707521Y547903D01*
X-708751Y547193D01*
X-710427Y545518D01*
X-711611Y543465D01*
X-712225Y541176D01*
Y538806D01*
X-711611Y536517D01*
X-710427Y534465D01*
X-708751Y532790D01*
X-706699Y531605D01*
X-704410Y530991D01*
X-702040D01*
X-700422Y531425D01*
X-699378Y530382D01*
Y477969D01*
X-700648Y477716D01*
X-702393Y481928D01*
X-705151Y486055D01*
X-708661Y489566D01*
X-712788Y492323D01*
X-717374Y494223D01*
X-722243Y495191D01*
X-727207D01*
X-732075Y494223D01*
X-736662Y492323D01*
X-740789Y489566D01*
X-744299Y486055D01*
X-747057Y481928D01*
X-748957Y477342D01*
X-749925Y472473D01*
Y467509D01*
X-748957Y462641D01*
X-747057Y458055D01*
X-744299Y453927D01*
X-740789Y450417D01*
X-736662Y447659D01*
X-732075Y445760D01*
X-727207Y444791D01*
X-722243D01*
X-717374Y445760D01*
X-712788Y447659D01*
X-708661Y450417D01*
X-705151Y453927D01*
X-702393Y458055D01*
X-700648Y462267D01*
X-699378Y462014D01*
Y404618D01*
X-700435Y403561D01*
X-702040Y403991D01*
X-704410D01*
X-706699Y403378D01*
X-708751Y402193D01*
X-710427Y400518D01*
X-711611Y398465D01*
X-712225Y396176D01*
Y393807D01*
X-711611Y391518D01*
X-710427Y389465D01*
X-708751Y387790D01*
X-706699Y386605D01*
X-704410Y385991D01*
X-702040D01*
X-699751Y386605D01*
X-697699Y387790D01*
X-696023Y389465D01*
X-694838Y391518D01*
X-694225Y393807D01*
Y396176D01*
X-694660Y397801D01*
X-692416Y400045D01*
X-692416Y400045D01*
X-691532Y401368D01*
X-691222Y402929D01*
Y532071D01*
X-691222Y532071D01*
X-691532Y533632D01*
X-692416Y534955D01*
X-694657Y537195D01*
X-694225Y538806D01*
Y541176D01*
X-694838Y543465D01*
X-696023Y545518D01*
X-697699Y547193D01*
X-699370Y548158D01*
Y625362D01*
X-697922Y626198D01*
X-696246Y627874D01*
X-695061Y629926D01*
X-694448Y632215D01*
Y634585D01*
X-695061Y636874D01*
X-695381Y637428D01*
X-694364Y638445D01*
X-693480Y639768D01*
X-693169Y641329D01*
X-693170Y641329D01*
Y770471D01*
X-693169Y770471D01*
X-693480Y772032D01*
X-694364Y773355D01*
X-695381Y774372D01*
X-695061Y774926D01*
X-694448Y777215D01*
Y779585D01*
X-695061Y781874D01*
X-696246Y783926D01*
X-697922Y785602D01*
X-699370Y786438D01*
X-699370Y837281D01*
X-698474Y837798D01*
X-696798Y839474D01*
X-695613Y841526D01*
X-695000Y843815D01*
Y846185D01*
X-695613Y848474D01*
X-695933Y849028D01*
X-694916Y850045D01*
X-694032Y851368D01*
X-693722Y852929D01*
X-693722Y852929D01*
Y931474D01*
X-693722Y931474D01*
X-694032Y933034D01*
X-694916Y934358D01*
X-699922Y939363D01*
Y981962D01*
X-698474Y982798D01*
X-696798Y984474D01*
X-695613Y986526D01*
X-695000Y988815D01*
Y991185D01*
X-695613Y993474D01*
X-696798Y995526D01*
X-698474Y997202D01*
X-700526Y998387D01*
X-702815Y999000D01*
D02*
G37*
G36*
X-1007224Y952393D02*
X-1010910D01*
X-1014471Y951439D01*
X-1017663Y949595D01*
X-1020270Y946989D01*
X-1022113Y943796D01*
X-1023067Y940236D01*
Y936550D01*
X-1022618Y934874D01*
X-1053068Y904424D01*
X-1080905D01*
X-1081928Y906895D01*
X-1083611Y909089D01*
X-1085805Y910771D01*
X-1088359Y911830D01*
X-1091100Y912190D01*
X-1093100D01*
X-1095841Y911830D01*
X-1098395Y910771D01*
X-1100589Y909089D01*
X-1102272Y906895D01*
X-1103330Y904341D01*
X-1103690Y901600D01*
X-1103330Y898859D01*
X-1103264Y898700D01*
X-1106280Y895684D01*
X-1107328Y896305D01*
X-1106270Y898859D01*
X-1105909Y901600D01*
X-1106270Y904341D01*
X-1107328Y906895D01*
X-1109011Y909089D01*
X-1111205Y910771D01*
X-1113759Y911830D01*
X-1116500Y912190D01*
X-1118500D01*
X-1121241Y911830D01*
X-1123795Y910771D01*
X-1125989Y909089D01*
X-1127672Y906895D01*
X-1128730Y904341D01*
X-1129090Y901600D01*
X-1128730Y898859D01*
X-1127672Y896304D01*
X-1125989Y894111D01*
X-1124275Y892797D01*
X-1124261Y892778D01*
X-1124076Y891431D01*
X-1124142Y891197D01*
X-1147278Y868062D01*
X-1147375Y868081D01*
X-1152625D01*
X-1154234Y867761D01*
X-1155599Y866849D01*
X-1156511Y865484D01*
X-1156831Y863875D01*
Y858508D01*
X-1181997Y833342D01*
X-1182609Y832426D01*
X-1182824Y831345D01*
X-1182824Y831345D01*
Y340000D01*
X-1182824Y340000D01*
X-1182609Y338919D01*
X-1181997Y338003D01*
X-891997Y48003D01*
X-891997Y48003D01*
X-891081Y47391D01*
X-890000Y47176D01*
X-354287D01*
X-354287Y47176D01*
X-353206Y47391D01*
X-352290Y48003D01*
X-39923Y360369D01*
X-39923Y360369D01*
X-39311Y361286D01*
X-39096Y362367D01*
X-39096Y362367D01*
Y527221D01*
X-39311Y528302D01*
X-39923Y529218D01*
X-39923Y529218D01*
X-46176Y535471D01*
Y555369D01*
X-46125D01*
X-44516Y555689D01*
X-43151Y556601D01*
X-42239Y557966D01*
X-41919Y559575D01*
Y564825D01*
X-42239Y566435D01*
X-43151Y567799D01*
X-44516Y568711D01*
X-46125Y569031D01*
X-51875D01*
X-53485Y568711D01*
X-54849Y567799D01*
X-55761Y566435D01*
X-56041Y565024D01*
X-71957D01*
X-72079Y565481D01*
X-73198Y567419D01*
X-74781Y569002D01*
X-76719Y570121D01*
X-78881Y570700D01*
X-79527D01*
X-80053Y571970D01*
X-78590Y573432D01*
X-77886Y573903D01*
X-68233Y583556D01*
X-68233Y583556D01*
X-67998Y583908D01*
X-66021Y585885D01*
X-66020Y585885D01*
X-65408Y586802D01*
X-65193Y587882D01*
Y605018D01*
X-65193Y605018D01*
X-65408Y606099D01*
X-66020Y607015D01*
X-72316Y613310D01*
X-72079Y613719D01*
X-71500Y615881D01*
Y618119D01*
X-72079Y620281D01*
X-73198Y622219D01*
X-74781Y623802D01*
X-76719Y624921D01*
X-78881Y625500D01*
X-81119D01*
X-83281Y624921D01*
X-85219Y623802D01*
X-86802Y622219D01*
X-87921Y620281D01*
X-88500Y618119D01*
Y615881D01*
X-87921Y613719D01*
X-86802Y611781D01*
X-85219Y610198D01*
X-83281Y609079D01*
X-81119Y608500D01*
X-78881D01*
X-76719Y609079D01*
X-76310Y609316D01*
X-70842Y603848D01*
Y593170D01*
X-72079Y592881D01*
X-73198Y594819D01*
X-74781Y596402D01*
X-76719Y597521D01*
X-78881Y598100D01*
X-81119D01*
X-83281Y597521D01*
X-85219Y596402D01*
X-86802Y594819D01*
X-87921Y592881D01*
X-88500Y590719D01*
Y588481D01*
X-87921Y586319D01*
X-87684Y585910D01*
X-98426Y575168D01*
X-98630Y574863D01*
X-99900Y575248D01*
Y577019D01*
X-100479Y579181D01*
X-101598Y581119D01*
X-103181Y582702D01*
X-105119Y583821D01*
X-107281Y584400D01*
X-109519D01*
X-111681Y583821D01*
X-113619Y582702D01*
X-115202Y581119D01*
X-116321Y579181D01*
X-116900Y577019D01*
Y574781D01*
X-116321Y572619D01*
X-115202Y570681D01*
X-113619Y569098D01*
X-111681Y567979D01*
X-109519Y567400D01*
X-107281D01*
X-105119Y567979D01*
X-103181Y569098D01*
X-101598Y570681D01*
X-100523Y572543D01*
X-100403Y572581D01*
X-99253Y571997D01*
Y555028D01*
X-99253Y555028D01*
X-99038Y553947D01*
X-98426Y553031D01*
X-90036Y544641D01*
X-90036Y544641D01*
X-89120Y544029D01*
X-88039Y543814D01*
X-88039Y543814D01*
X-83927D01*
X-83587Y542544D01*
X-85219Y541602D01*
X-86802Y540019D01*
X-87921Y538081D01*
X-88500Y535919D01*
Y533681D01*
X-87921Y531519D01*
X-86802Y529581D01*
X-85219Y527998D01*
X-83281Y526879D01*
X-81119Y526300D01*
X-78881D01*
X-76719Y526879D01*
X-74781Y527998D01*
X-73198Y529581D01*
X-72079Y531519D01*
X-71500Y533681D01*
Y534327D01*
X-70230Y534853D01*
X-52824Y517447D01*
Y366883D01*
X-358803Y60904D01*
X-616910D01*
X-665452Y109446D01*
X-664816Y110547D01*
X-664100Y113218D01*
Y115982D01*
X-664816Y118653D01*
X-666198Y121047D01*
X-668153Y123002D01*
X-670547Y124384D01*
X-673218Y125100D01*
X-675982D01*
X-678653Y124384D01*
X-681047Y123002D01*
X-683002Y121047D01*
X-684384Y118653D01*
X-684714Y117424D01*
X-695400D01*
X-696481Y117209D01*
X-697397Y116597D01*
X-697397Y116597D01*
X-712283Y101711D01*
X-714596Y103046D01*
X-718157Y104000D01*
X-721843D01*
X-725404Y103046D01*
X-728596Y101203D01*
X-731203Y98596D01*
X-733046Y95404D01*
X-734000Y91843D01*
Y88157D01*
X-733046Y84596D01*
X-731203Y81404D01*
X-728596Y78797D01*
X-725404Y76954D01*
X-721843Y76000D01*
X-718157D01*
X-714596Y76954D01*
X-711404Y78797D01*
X-708797Y81404D01*
X-706954Y84596D01*
X-706000Y88157D01*
Y91843D01*
X-706954Y95404D01*
X-708289Y97717D01*
X-694230Y111776D01*
X-684714D01*
X-684384Y110547D01*
X-683002Y108153D01*
X-681047Y106198D01*
X-678653Y104816D01*
X-675982Y104100D01*
X-673218D01*
X-670547Y104816D01*
X-669446Y105451D01*
X-622032Y58038D01*
X-622518Y56864D01*
X-773670D01*
X-798289Y81483D01*
X-796954Y83796D01*
X-796000Y87357D01*
Y91043D01*
X-796954Y94604D01*
X-798797Y97796D01*
X-801404Y100403D01*
X-804596Y102246D01*
X-805926Y102602D01*
Y140000D01*
X-802750D01*
Y147000D01*
X-814750D01*
Y140000D01*
X-811574D01*
Y103200D01*
X-811843D01*
X-815404Y102246D01*
X-818596Y100403D01*
X-821203Y97796D01*
X-823046Y94604D01*
X-824000Y91043D01*
Y87357D01*
X-823046Y83796D01*
X-821203Y80604D01*
X-818596Y77997D01*
X-815404Y76154D01*
X-811843Y75200D01*
X-808157D01*
X-804596Y76154D01*
X-802283Y77489D01*
X-778792Y53998D01*
X-779278Y52824D01*
X-888830D01*
X-1177176Y341170D01*
Y830175D01*
X-1153298Y854053D01*
X-1152625Y853919D01*
X-1147375D01*
X-1145766Y854239D01*
X-1144401Y855151D01*
X-1143489Y856516D01*
X-1143169Y858125D01*
Y863875D01*
X-1143220Y864131D01*
X-1130175Y877176D01*
X-1129036Y876614D01*
X-1129090Y876200D01*
X-1128730Y873459D01*
X-1127672Y870904D01*
X-1125989Y868711D01*
X-1123795Y867028D01*
X-1121241Y865970D01*
X-1118500Y865609D01*
X-1116500D01*
X-1113759Y865970D01*
X-1111205Y867028D01*
X-1109011Y868711D01*
X-1107328Y870904D01*
X-1106270Y873459D01*
X-1105909Y876200D01*
X-1106270Y878941D01*
X-1107328Y881495D01*
X-1109011Y883689D01*
X-1111205Y885371D01*
X-1112083Y885735D01*
X-1111831Y887005D01*
X-1108139D01*
X-1108139Y887005D01*
X-1107058Y887221D01*
X-1106142Y887833D01*
X-1100179Y893796D01*
X-1098395Y892428D01*
X-1095841Y891370D01*
X-1093100Y891009D01*
X-1091100D01*
X-1088359Y891370D01*
X-1085805Y892428D01*
X-1083611Y894111D01*
X-1081928Y896304D01*
X-1080905Y898775D01*
X-1051899D01*
X-1051899Y898775D01*
X-1050818Y898990D01*
X-1049902Y899603D01*
X-1019989Y929515D01*
X-1017663Y927190D01*
X-1014471Y925347D01*
X-1010910Y924393D01*
X-1007224D01*
X-1003663Y925347D01*
X-1000471Y927190D01*
X-997865Y929796D01*
X-996021Y932989D01*
X-995067Y936550D01*
Y940236D01*
X-996021Y943796D01*
X-997865Y946989D01*
X-1000471Y949595D01*
X-1003663Y951439D01*
X-1007224Y952393D01*
D02*
G37*
G36*
X-1091100Y937590D02*
X-1093100D01*
X-1095841Y937230D01*
X-1098395Y936171D01*
X-1100589Y934489D01*
X-1102272Y932295D01*
X-1103330Y929741D01*
X-1103690Y927000D01*
X-1103330Y924259D01*
X-1102272Y921704D01*
X-1100589Y919511D01*
X-1098395Y917828D01*
X-1095841Y916770D01*
X-1093100Y916409D01*
X-1091100D01*
X-1088359Y916770D01*
X-1085805Y917828D01*
X-1083611Y919511D01*
X-1081928Y921704D01*
X-1080870Y924259D01*
X-1080509Y927000D01*
X-1080870Y929741D01*
X-1081928Y932295D01*
X-1083611Y934489D01*
X-1085805Y936171D01*
X-1088359Y937230D01*
X-1091100Y937590D01*
D02*
G37*
G36*
X-1116500D02*
X-1118500D01*
X-1121241Y937230D01*
X-1123795Y936171D01*
X-1125989Y934489D01*
X-1127672Y932295D01*
X-1128730Y929741D01*
X-1129090Y927000D01*
X-1128730Y924259D01*
X-1127672Y921704D01*
X-1125989Y919511D01*
X-1123795Y917828D01*
X-1121241Y916770D01*
X-1118500Y916409D01*
X-1116500D01*
X-1113759Y916770D01*
X-1111205Y917828D01*
X-1109011Y919511D01*
X-1107328Y921704D01*
X-1106270Y924259D01*
X-1105909Y927000D01*
X-1106270Y929741D01*
X-1107328Y932295D01*
X-1109011Y934489D01*
X-1111205Y936171D01*
X-1113759Y937230D01*
X-1116500Y937590D01*
D02*
G37*
G36*
X-481500D02*
X-483500D01*
X-486241Y937230D01*
X-488795Y936171D01*
X-490989Y934489D01*
X-492672Y932295D01*
X-493730Y929741D01*
X-494090Y927000D01*
X-493730Y924259D01*
X-492672Y921704D01*
X-492289Y921205D01*
X-497300Y916194D01*
X-502231D01*
X-502483Y917464D01*
X-501604Y917828D01*
X-499411Y919511D01*
X-497728Y921704D01*
X-496670Y924259D01*
X-496309Y927000D01*
X-496670Y929741D01*
X-497728Y932295D01*
X-499411Y934489D01*
X-501604Y936171D01*
X-504159Y937230D01*
X-506900Y937590D01*
X-508900D01*
X-511641Y937230D01*
X-514195Y936171D01*
X-516389Y934489D01*
X-518072Y932295D01*
X-519130Y929741D01*
X-519491Y927000D01*
X-519130Y924259D01*
X-518072Y921704D01*
X-516389Y919511D01*
X-514195Y917828D01*
X-513316Y917464D01*
X-513345Y917318D01*
X-513775Y916194D01*
X-514856Y915979D01*
X-515772Y915367D01*
X-515772Y915367D01*
X-522667Y908472D01*
X-522667Y908472D01*
X-561997Y869142D01*
X-562609Y868226D01*
X-562824Y867145D01*
X-562824Y867145D01*
Y865054D01*
X-563257Y864875D01*
X-564875Y863257D01*
X-565750Y861144D01*
Y858856D01*
X-564875Y856743D01*
X-563257Y855125D01*
X-561144Y854250D01*
X-558856D01*
X-556743Y855125D01*
X-555125Y856743D01*
X-554250Y858856D01*
Y861144D01*
X-555125Y863257D01*
X-556743Y864875D01*
X-556755Y864880D01*
X-556923Y866227D01*
X-520575Y902576D01*
X-519436Y902014D01*
X-519491Y901600D01*
X-519130Y898859D01*
X-518072Y896304D01*
X-516389Y894111D01*
X-514427Y892606D01*
X-514338Y891716D01*
X-514450Y891159D01*
X-514842Y890897D01*
X-514842Y890897D01*
X-550983Y854756D01*
X-551595Y853840D01*
X-551810Y852759D01*
X-551810Y852759D01*
Y831854D01*
X-552001Y830895D01*
X-552001Y830895D01*
Y830795D01*
X-553257Y830274D01*
X-554875Y828657D01*
X-555750Y826544D01*
Y824256D01*
X-554875Y822143D01*
X-553257Y820525D01*
X-551144Y819650D01*
X-548856D01*
X-546743Y820525D01*
X-545125Y822143D01*
X-544250Y824256D01*
Y826544D01*
X-545125Y828657D01*
X-546353Y829884D01*
Y830127D01*
X-546162Y831086D01*
X-546162Y831086D01*
Y851589D01*
X-520575Y877176D01*
X-519436Y876614D01*
X-519491Y876200D01*
X-519130Y873459D01*
X-518072Y870904D01*
X-516389Y868711D01*
X-514195Y867028D01*
X-511641Y865970D01*
X-508900Y865609D01*
X-506900D01*
X-504159Y865970D01*
X-501604Y867028D01*
X-499411Y868711D01*
X-497728Y870904D01*
X-496670Y873459D01*
X-496309Y876200D01*
X-496670Y878941D01*
X-497728Y881495D01*
X-499411Y883689D01*
X-501373Y885194D01*
X-501449Y886148D01*
X-501350Y886641D01*
X-500957Y886903D01*
X-493133Y894727D01*
X-493100Y894777D01*
X-491538Y894828D01*
X-490989Y894111D01*
X-488795Y892428D01*
X-486241Y891370D01*
X-483500Y891009D01*
X-481500D01*
X-478759Y891370D01*
X-476204Y892428D01*
X-474011Y894111D01*
X-472328Y896304D01*
X-471270Y898859D01*
X-470909Y901600D01*
X-471270Y904341D01*
X-472328Y906895D01*
X-474011Y909089D01*
X-476204Y910771D01*
X-478759Y911830D01*
X-481500Y912190D01*
X-483500D01*
X-486241Y911830D01*
X-488795Y910771D01*
X-490989Y909089D01*
X-492672Y906895D01*
X-493730Y904341D01*
X-494078Y901693D01*
X-494725Y901339D01*
X-495241Y901127D01*
X-495846Y901395D01*
X-496331Y901768D01*
X-496670Y904341D01*
X-497728Y906895D01*
X-499411Y909089D01*
X-499743Y909343D01*
X-499334Y910546D01*
X-496130D01*
X-496130Y910546D01*
X-495049Y910760D01*
X-494133Y911373D01*
X-488005Y917501D01*
X-486241Y916770D01*
X-483500Y916409D01*
X-481500D01*
X-478759Y916770D01*
X-476204Y917828D01*
X-474011Y919511D01*
X-472328Y921704D01*
X-471270Y924259D01*
X-470909Y927000D01*
X-471270Y929741D01*
X-472328Y932295D01*
X-474011Y934489D01*
X-476204Y936171D01*
X-478759Y937230D01*
X-481500Y937590D01*
D02*
G37*
G36*
X-799215Y933931D02*
X-801980D01*
X-804651Y933215D01*
X-807045Y931833D01*
X-809000Y929878D01*
X-810382Y927484D01*
X-811098Y924813D01*
Y922049D01*
X-810382Y919378D01*
X-809000Y916984D01*
X-807045Y915029D01*
X-804651Y913647D01*
X-801980Y912931D01*
X-799215D01*
X-796545Y913647D01*
X-794151Y915029D01*
X-792196Y916984D01*
X-790813Y919378D01*
X-790098Y922049D01*
Y924813D01*
X-790813Y927484D01*
X-792196Y929878D01*
X-794151Y931833D01*
X-796545Y933215D01*
X-799215Y933931D01*
D02*
G37*
G36*
X-815498D02*
X-836498D01*
Y912931D01*
X-815498D01*
Y933931D01*
D02*
G37*
G36*
X-1405109Y936295D02*
X-1408531D01*
X-1411888Y935627D01*
X-1415050Y934317D01*
X-1417896Y932416D01*
X-1420316Y929996D01*
X-1422218Y927150D01*
X-1423527Y923988D01*
X-1424195Y920631D01*
Y917209D01*
X-1423527Y913852D01*
X-1422218Y910690D01*
X-1420316Y907844D01*
X-1417896Y905424D01*
X-1415050Y903522D01*
X-1411888Y902213D01*
X-1408531Y901545D01*
X-1405109D01*
X-1401752Y902213D01*
X-1398590Y903522D01*
X-1395744Y905424D01*
X-1393324Y907844D01*
X-1391422Y910690D01*
X-1390113Y913852D01*
X-1389445Y917209D01*
Y920631D01*
X-1390113Y923988D01*
X-1391422Y927150D01*
X-1393324Y929996D01*
X-1395744Y932416D01*
X-1398590Y934317D01*
X-1401752Y935627D01*
X-1405109Y936295D01*
D02*
G37*
G36*
X-1281623Y920500D02*
X-1284388D01*
X-1287058Y919784D01*
X-1289453Y918402D01*
X-1291407Y916447D01*
X-1292790Y914053D01*
X-1293505Y911382D01*
Y908618D01*
X-1292790Y905947D01*
X-1291407Y903553D01*
X-1289453Y901598D01*
X-1287058Y900216D01*
X-1284388Y899500D01*
X-1281623D01*
X-1278953Y900216D01*
X-1276558Y901598D01*
X-1274603Y903553D01*
X-1273221Y905947D01*
X-1272505Y908618D01*
Y911382D01*
X-1273221Y914053D01*
X-1274603Y916447D01*
X-1276558Y918402D01*
X-1278953Y919784D01*
X-1281623Y920500D01*
D02*
G37*
G36*
X-353218Y920500D02*
X-355983D01*
X-358654Y919784D01*
X-361048Y918402D01*
X-363003Y916447D01*
X-364385Y914053D01*
X-365101Y911382D01*
Y908618D01*
X-364385Y905947D01*
X-363003Y903553D01*
X-361048Y901598D01*
X-358654Y900216D01*
X-355983Y899500D01*
X-353218D01*
X-350548Y900216D01*
X-348154Y901598D01*
X-346199Y903553D01*
X-344816Y905947D01*
X-344101Y908618D01*
Y911382D01*
X-344816Y914053D01*
X-346199Y916447D01*
X-348154Y918402D01*
X-350548Y919784D01*
X-353218Y920500D01*
D02*
G37*
G36*
X-378618D02*
X-381383D01*
X-384054Y919784D01*
X-386448Y918402D01*
X-388403Y916447D01*
X-389785Y914053D01*
X-390501Y911382D01*
Y908618D01*
X-389785Y905947D01*
X-388403Y903553D01*
X-386448Y901598D01*
X-384054Y900216D01*
X-381383Y899500D01*
X-378618D01*
X-375948Y900216D01*
X-373554Y901598D01*
X-371599Y903553D01*
X-370216Y905947D01*
X-369501Y908618D01*
Y911382D01*
X-370216Y914053D01*
X-371599Y916447D01*
X-373554Y918402D01*
X-375948Y919784D01*
X-378618Y920500D01*
D02*
G37*
G36*
X-630018Y945200D02*
X-634982D01*
X-639851Y944232D01*
X-644437Y942332D01*
X-648564Y939574D01*
X-652074Y936064D01*
X-654832Y931937D01*
X-656732Y927350D01*
X-657700Y922482D01*
Y917518D01*
X-656732Y912649D01*
X-654832Y908063D01*
X-652074Y903936D01*
X-648564Y900426D01*
X-644437Y897668D01*
X-639851Y895768D01*
X-634982Y894800D01*
X-630018D01*
X-625149Y895768D01*
X-620563Y897668D01*
X-616436Y900426D01*
X-612926Y903936D01*
X-610168Y908063D01*
X-608268Y912649D01*
X-607300Y917518D01*
Y922482D01*
X-608268Y927350D01*
X-610168Y931937D01*
X-612926Y936064D01*
X-616436Y939574D01*
X-620563Y942332D01*
X-625149Y944232D01*
X-630018Y945200D01*
D02*
G37*
G36*
X-1491469Y926135D02*
X-1494891D01*
X-1498248Y925467D01*
X-1501410Y924157D01*
X-1504256Y922256D01*
X-1506676Y919836D01*
X-1508578Y916990D01*
X-1509887Y913828D01*
X-1510555Y910471D01*
Y907049D01*
X-1509887Y903692D01*
X-1508578Y900530D01*
X-1506676Y897684D01*
X-1504256Y895264D01*
X-1501410Y893363D01*
X-1498248Y892053D01*
X-1494891Y891385D01*
X-1491469D01*
X-1488112Y892053D01*
X-1484950Y893363D01*
X-1482104Y895264D01*
X-1479684Y897684D01*
X-1477782Y900530D01*
X-1476473Y903692D01*
X-1475805Y907049D01*
Y910471D01*
X-1476473Y913828D01*
X-1477782Y916990D01*
X-1479684Y919836D01*
X-1482104Y922256D01*
X-1484950Y924157D01*
X-1488112Y925467D01*
X-1491469Y926135D01*
D02*
G37*
G36*
X-1148856Y898403D02*
X-1151144D01*
X-1153257Y897528D01*
X-1154875Y895910D01*
X-1155750Y893797D01*
Y891509D01*
X-1154875Y889396D01*
X-1153257Y887779D01*
X-1152824Y887599D01*
Y886041D01*
X-1154234Y885761D01*
X-1155599Y884849D01*
X-1156511Y883484D01*
X-1156831Y881875D01*
Y876125D01*
X-1156511Y874516D01*
X-1155599Y873151D01*
X-1154234Y872239D01*
X-1152625Y871919D01*
X-1147375D01*
X-1145766Y872239D01*
X-1144401Y873151D01*
X-1143489Y874516D01*
X-1143169Y876125D01*
Y881875D01*
X-1143489Y883484D01*
X-1144401Y884849D01*
X-1145766Y885761D01*
X-1147176Y886041D01*
Y887599D01*
X-1146743Y887779D01*
X-1145125Y889396D01*
X-1144250Y891509D01*
Y893797D01*
X-1145125Y895910D01*
X-1146743Y897528D01*
X-1148856Y898403D01*
D02*
G37*
G36*
X-1091100Y886790D02*
X-1093100D01*
X-1095841Y886430D01*
X-1098395Y885371D01*
X-1100589Y883689D01*
X-1102272Y881495D01*
X-1103330Y878941D01*
X-1103690Y876200D01*
X-1103330Y873459D01*
X-1102272Y870904D01*
X-1100589Y868711D01*
X-1098395Y867028D01*
X-1095841Y865970D01*
X-1093100Y865609D01*
X-1091100D01*
X-1088359Y865970D01*
X-1085805Y867028D01*
X-1083611Y868711D01*
X-1081928Y870904D01*
X-1080870Y873459D01*
X-1080509Y876200D01*
X-1080870Y878941D01*
X-1081928Y881495D01*
X-1083611Y883689D01*
X-1085805Y885371D01*
X-1088359Y886430D01*
X-1091100Y886790D01*
D02*
G37*
G36*
X-808856Y1215750D02*
X-811144D01*
X-813257Y1214875D01*
X-814875Y1213257D01*
X-815750Y1211144D01*
Y1208856D01*
X-814875Y1206743D01*
X-813257Y1205125D01*
X-812824Y1204946D01*
Y1060000D01*
X-812824Y1060000D01*
X-812609Y1058919D01*
X-811997Y1058003D01*
X-796407Y1042413D01*
X-796407Y1042413D01*
X-795491Y1041801D01*
X-794410Y1041585D01*
X-476121D01*
X-467133Y1032598D01*
Y997161D01*
X-476995Y987299D01*
X-478759Y988029D01*
X-481500Y988390D01*
X-483500D01*
X-486241Y988029D01*
X-488795Y986972D01*
X-490989Y985288D01*
X-492672Y983095D01*
X-493730Y980541D01*
X-494090Y977800D01*
X-493730Y975059D01*
X-492672Y972505D01*
X-490989Y970311D01*
X-488795Y968628D01*
X-486241Y967570D01*
X-483500Y967209D01*
X-481500D01*
X-478759Y967570D01*
X-476204Y968628D01*
X-474011Y970311D01*
X-472328Y972505D01*
X-471270Y975059D01*
X-470909Y977800D01*
X-471270Y980541D01*
X-472328Y983095D01*
X-472711Y983594D01*
X-464267Y992039D01*
X-463093Y991553D01*
Y862519D01*
X-463165Y862463D01*
X-464363Y862057D01*
X-472711Y870405D01*
X-472328Y870904D01*
X-471270Y873459D01*
X-470909Y876200D01*
X-471270Y878941D01*
X-472328Y881495D01*
X-474011Y883689D01*
X-476204Y885371D01*
X-478759Y886430D01*
X-481500Y886790D01*
X-483500D01*
X-486241Y886430D01*
X-488795Y885371D01*
X-490989Y883689D01*
X-492672Y881495D01*
X-493730Y878941D01*
X-494090Y876200D01*
X-493730Y873459D01*
X-492672Y870904D01*
X-490989Y868711D01*
X-488795Y867028D01*
X-486241Y865970D01*
X-483500Y865609D01*
X-481500D01*
X-478759Y865970D01*
X-476995Y866701D01*
X-468881Y858587D01*
Y657115D01*
X-470546Y656426D01*
X-472164Y654808D01*
X-472250Y654600D01*
X-473509Y654434D01*
X-474011Y655089D01*
X-476204Y656771D01*
X-478759Y657830D01*
X-481500Y658190D01*
X-483500D01*
X-486241Y657830D01*
X-488795Y656771D01*
X-490989Y655089D01*
X-492672Y652895D01*
X-493730Y650341D01*
X-494090Y647600D01*
X-493730Y644859D01*
X-492672Y642305D01*
X-490989Y640111D01*
X-488795Y638428D01*
X-486241Y637370D01*
X-483500Y637009D01*
X-481500D01*
X-478759Y637370D01*
X-476204Y638428D01*
X-474011Y640111D01*
X-472328Y642305D01*
X-471270Y644859D01*
X-471167Y645639D01*
X-469791Y646364D01*
X-468433Y645801D01*
X-466145D01*
X-464363Y646539D01*
X-463093Y645956D01*
Y583119D01*
X-463165Y583063D01*
X-464363Y582657D01*
X-472711Y591005D01*
X-472328Y591505D01*
X-471270Y594059D01*
X-470909Y596800D01*
X-471270Y599541D01*
X-472328Y602095D01*
X-474011Y604288D01*
X-476204Y605971D01*
X-478759Y607029D01*
X-481500Y607390D01*
X-483500D01*
X-486241Y607029D01*
X-488795Y605971D01*
X-490989Y604288D01*
X-492672Y602095D01*
X-493730Y599541D01*
X-494090Y596800D01*
X-493730Y594059D01*
X-492672Y591505D01*
X-490989Y589311D01*
X-490745Y589124D01*
X-491176Y587854D01*
X-499334D01*
X-499743Y589057D01*
X-499411Y589311D01*
X-497728Y591505D01*
X-496670Y594059D01*
X-496309Y596800D01*
X-496670Y599541D01*
X-497728Y602095D01*
X-499411Y604288D01*
X-501604Y605971D01*
X-504159Y607029D01*
X-506900Y607390D01*
X-508900D01*
X-511641Y607029D01*
X-514195Y605971D01*
X-516389Y604288D01*
X-518072Y602095D01*
X-519130Y599541D01*
X-519491Y596800D01*
X-519130Y594059D01*
X-518072Y591505D01*
X-516389Y589311D01*
X-516057Y589057D01*
X-516465Y587854D01*
X-533860D01*
X-604429Y658423D01*
X-604250Y658856D01*
Y661144D01*
X-605125Y663257D01*
X-606743Y664875D01*
X-608856Y665750D01*
X-611144D01*
X-613257Y664875D01*
X-614875Y663257D01*
X-615750Y661144D01*
Y658856D01*
X-614875Y656743D01*
X-613257Y655125D01*
X-611144Y654250D01*
X-608856D01*
X-608423Y654429D01*
X-537027Y583033D01*
X-537027Y583033D01*
X-536111Y582421D01*
X-535030Y582206D01*
X-520543D01*
X-519400Y581900D01*
X-519400Y580936D01*
Y560900D01*
X-496400D01*
Y580936D01*
X-496400Y581900D01*
X-495257Y582206D01*
X-490772D01*
X-489895Y581329D01*
X-490005Y579643D01*
X-490989Y578889D01*
X-492672Y576695D01*
X-493730Y574141D01*
X-494090Y571400D01*
X-493730Y568659D01*
X-492672Y566105D01*
X-490989Y563911D01*
X-488795Y562228D01*
X-486241Y561170D01*
X-483500Y560809D01*
X-481500D01*
X-478759Y561170D01*
X-476204Y562228D01*
X-474011Y563911D01*
X-472328Y566105D01*
X-471270Y568659D01*
X-470909Y571400D01*
X-471270Y574141D01*
X-472328Y576695D01*
X-474011Y578889D01*
X-476204Y580572D01*
X-478759Y581629D01*
X-481500Y581990D01*
X-483491D01*
X-483644Y582763D01*
X-484257Y583679D01*
X-484257Y583679D01*
X-485810Y585232D01*
X-485217Y586435D01*
X-483500Y586209D01*
X-481500D01*
X-478759Y586570D01*
X-476995Y587301D01*
X-468881Y579187D01*
Y275113D01*
X-481170Y262824D01*
X-818512D01*
X-819593Y262609D01*
X-820509Y261997D01*
X-820509Y261997D01*
X-821997Y260509D01*
X-822609Y259593D01*
X-822824Y258512D01*
X-822824Y258512D01*
Y233811D01*
X-826875D01*
X-828094Y233569D01*
X-829128Y232878D01*
X-829819Y231844D01*
X-829823Y231824D01*
X-832250D01*
X-833331Y231609D01*
X-834247Y230997D01*
X-834247Y230997D01*
X-851420Y213824D01*
X-877750D01*
X-878831Y213609D01*
X-879747Y212997D01*
X-879747Y212997D01*
X-901997Y190747D01*
X-902609Y189831D01*
X-902824Y188750D01*
X-902824Y188750D01*
Y161574D01*
X-913436D01*
X-913732Y163061D01*
X-914616Y164384D01*
X-915939Y165268D01*
X-917500Y165578D01*
X-922500D01*
X-924061Y165268D01*
X-925384Y164384D01*
X-926268Y163061D01*
X-926578Y161500D01*
Y156000D01*
X-926268Y154439D01*
X-925384Y153116D01*
X-924061Y152232D01*
X-922500Y151922D01*
X-917500D01*
X-915939Y152232D01*
X-914616Y153116D01*
X-913732Y154439D01*
X-913436Y155926D01*
X-902824D01*
Y150414D01*
X-902824Y150414D01*
X-902609Y149333D01*
X-901997Y148417D01*
X-900509Y146929D01*
X-900509Y146929D01*
X-900509Y146929D01*
X-891313Y137733D01*
X-890397Y137121D01*
X-889316Y136906D01*
X-889316Y136906D01*
X-887479D01*
X-886800Y135636D01*
X-887247Y134966D01*
X-887639Y133000D01*
Y131520D01*
X-872361D01*
Y133000D01*
X-872752Y134966D01*
X-873199Y135636D01*
X-872521Y136906D01*
X-867774D01*
X-867774Y136906D01*
X-866693Y137121D01*
X-865777Y137733D01*
X-857408Y146102D01*
X-853613D01*
X-853311Y145060D01*
X-853300Y144832D01*
X-854875Y143257D01*
X-855750Y141144D01*
Y138856D01*
X-854875Y136743D01*
X-853257Y135125D01*
X-851144Y134250D01*
X-848856D01*
X-846743Y135125D01*
X-845125Y136743D01*
X-844250Y138856D01*
Y140676D01*
X-837250D01*
Y140000D01*
X-825250D01*
Y146500D01*
Y153000D01*
Y160000D01*
X-837250D01*
Y159324D01*
X-838830D01*
X-840503Y160997D01*
X-841419Y161609D01*
X-842500Y161824D01*
X-842500Y161824D01*
X-877176D01*
Y164736D01*
X-875939Y164982D01*
X-874616Y165866D01*
X-873732Y167189D01*
X-873422Y168750D01*
Y174250D01*
X-873732Y175811D01*
X-874616Y177134D01*
X-875939Y178018D01*
X-877500Y178328D01*
X-882500D01*
X-884061Y178018D01*
X-885384Y177134D01*
X-886268Y175811D01*
X-886578Y174250D01*
Y168750D01*
X-886268Y167189D01*
X-885384Y165866D01*
X-884061Y164982D01*
X-882824Y164736D01*
Y154514D01*
X-884061Y154268D01*
X-885384Y153384D01*
X-886268Y152061D01*
X-886578Y150500D01*
Y145000D01*
X-886344Y143824D01*
X-886964Y142766D01*
X-888257Y142665D01*
X-896515Y150923D01*
X-896515Y150923D01*
X-897176Y151584D01*
Y159000D01*
Y184733D01*
X-895906Y184986D01*
X-895773Y184666D01*
X-894156Y183049D01*
X-892042Y182173D01*
X-889755D01*
X-887642Y183049D01*
X-886869Y183822D01*
X-885605Y183697D01*
X-885384Y183366D01*
X-884061Y182482D01*
X-882500Y182172D01*
X-877500D01*
X-875939Y182482D01*
X-874616Y183366D01*
X-873732Y184689D01*
X-873422Y186250D01*
Y191750D01*
X-873732Y193311D01*
X-874616Y194634D01*
X-875939Y195518D01*
X-877500Y195828D01*
X-882500D01*
X-884061Y195518D01*
X-885384Y194634D01*
X-886268Y193311D01*
X-886283Y193235D01*
X-887642Y192798D01*
X-889424Y193536D01*
X-889909Y194847D01*
X-876580Y208176D01*
X-850250D01*
X-850250Y208176D01*
X-849169Y208391D01*
X-848253Y209003D01*
X-831080Y226176D01*
X-829823D01*
X-829819Y226156D01*
X-829128Y225122D01*
X-828094Y224431D01*
X-826875Y224189D01*
X-818625D01*
X-817406Y224431D01*
X-816372Y225122D01*
X-815681Y226156D01*
X-815439Y227375D01*
Y230625D01*
X-815681Y231844D01*
X-816372Y232878D01*
X-817176Y233415D01*
Y257176D01*
X-480000D01*
X-480000Y257176D01*
X-478919Y257391D01*
X-478003Y258003D01*
X-464363Y271643D01*
X-463165Y271237D01*
X-463093Y271181D01*
Y220268D01*
X-463093Y220268D01*
X-462878Y219187D01*
X-462266Y218271D01*
X-389149Y145154D01*
X-389785Y144053D01*
X-390501Y141382D01*
Y138618D01*
X-389785Y135947D01*
X-388403Y133553D01*
X-386448Y131598D01*
X-384054Y130216D01*
X-381383Y129500D01*
X-378618D01*
X-375948Y130216D01*
X-373554Y131598D01*
X-371599Y133553D01*
X-370216Y135947D01*
X-369501Y138618D01*
Y141382D01*
X-370216Y144053D01*
X-371599Y146447D01*
X-373554Y148402D01*
X-375948Y149784D01*
X-378618Y150500D01*
X-381383D01*
X-384054Y149784D01*
X-385155Y149148D01*
X-457445Y221438D01*
Y281790D01*
X-456271Y282276D01*
X-389149Y215154D01*
X-389785Y214053D01*
X-390501Y211382D01*
Y208618D01*
X-389785Y205947D01*
X-388403Y203553D01*
X-386448Y201598D01*
X-384054Y200216D01*
X-381383Y199500D01*
X-378619D01*
X-375948Y200216D01*
X-373554Y201598D01*
X-371599Y203553D01*
X-370216Y205947D01*
X-369501Y208618D01*
Y211382D01*
X-370216Y214053D01*
X-371599Y216447D01*
X-373554Y218402D01*
X-375948Y219784D01*
X-378619Y220500D01*
X-381383D01*
X-384054Y219784D01*
X-385155Y219148D01*
X-453336Y287329D01*
Y347681D01*
X-452162Y348167D01*
X-389149Y285154D01*
X-389785Y284053D01*
X-390501Y281382D01*
Y278618D01*
X-389785Y275947D01*
X-388403Y273553D01*
X-386448Y271598D01*
X-384054Y270216D01*
X-381383Y269500D01*
X-378618D01*
X-375948Y270216D01*
X-373554Y271598D01*
X-371599Y273553D01*
X-370216Y275947D01*
X-369501Y278618D01*
Y281382D01*
X-370216Y284053D01*
X-371599Y286447D01*
X-373554Y288402D01*
X-375948Y289784D01*
X-378618Y290500D01*
X-381383D01*
X-384054Y289784D01*
X-385155Y289148D01*
X-449296Y353289D01*
Y413642D01*
X-448122Y414128D01*
X-389149Y355154D01*
X-389785Y354053D01*
X-390501Y351382D01*
Y348618D01*
X-389785Y345947D01*
X-388403Y343553D01*
X-386448Y341598D01*
X-384054Y340216D01*
X-381383Y339500D01*
X-378618D01*
X-375948Y340216D01*
X-373554Y341598D01*
X-371599Y343553D01*
X-370216Y345947D01*
X-369501Y348618D01*
Y351382D01*
X-370216Y354053D01*
X-371599Y356447D01*
X-373554Y358402D01*
X-375948Y359784D01*
X-378618Y360500D01*
X-381383D01*
X-384054Y359784D01*
X-385155Y359148D01*
X-445256Y419249D01*
Y479602D01*
X-444082Y480088D01*
X-389149Y425154D01*
X-389785Y424053D01*
X-390501Y421382D01*
Y418618D01*
X-389785Y415947D01*
X-388403Y413553D01*
X-386448Y411598D01*
X-384054Y410216D01*
X-381383Y409500D01*
X-378618D01*
X-375948Y410216D01*
X-373554Y411598D01*
X-371599Y413553D01*
X-370216Y415947D01*
X-369501Y418618D01*
Y421382D01*
X-370216Y424053D01*
X-371599Y426447D01*
X-373554Y428402D01*
X-375948Y429784D01*
X-378618Y430500D01*
X-381383D01*
X-384054Y429784D01*
X-385155Y429148D01*
X-441216Y485209D01*
Y545561D01*
X-440042Y546048D01*
X-389149Y495154D01*
X-389785Y494053D01*
X-390501Y491382D01*
Y488618D01*
X-389785Y485947D01*
X-388403Y483553D01*
X-386448Y481598D01*
X-384054Y480216D01*
X-381383Y479500D01*
X-378618D01*
X-375948Y480216D01*
X-373554Y481598D01*
X-371599Y483553D01*
X-370216Y485947D01*
X-369501Y488618D01*
Y491382D01*
X-370216Y494053D01*
X-371599Y496447D01*
X-373554Y498402D01*
X-375948Y499784D01*
X-378618Y500500D01*
X-381383D01*
X-384054Y499784D01*
X-385155Y499148D01*
X-437176Y551169D01*
Y611521D01*
X-436002Y612007D01*
X-389149Y565154D01*
X-389785Y564053D01*
X-390501Y561382D01*
Y558618D01*
X-389785Y555947D01*
X-388403Y553553D01*
X-386448Y551598D01*
X-384054Y550216D01*
X-381383Y549500D01*
X-378618D01*
X-375948Y550216D01*
X-373554Y551598D01*
X-371599Y553553D01*
X-370216Y555947D01*
X-369501Y558618D01*
Y561382D01*
X-370216Y564053D01*
X-371599Y566447D01*
X-373554Y568402D01*
X-375948Y569784D01*
X-378618Y570500D01*
X-381383D01*
X-384054Y569784D01*
X-385155Y569148D01*
X-432839Y616832D01*
Y677185D01*
X-431665Y677671D01*
X-389149Y635154D01*
X-389785Y634053D01*
X-390501Y631382D01*
Y628618D01*
X-389785Y625947D01*
X-388403Y623553D01*
X-386448Y621598D01*
X-384054Y620216D01*
X-381383Y619500D01*
X-378618D01*
X-375948Y620216D01*
X-373554Y621598D01*
X-371599Y623553D01*
X-370216Y625947D01*
X-369501Y628618D01*
Y631382D01*
X-370216Y634053D01*
X-371599Y636447D01*
X-373554Y638402D01*
X-375948Y639784D01*
X-378618Y640500D01*
X-381383D01*
X-384054Y639784D01*
X-385155Y639148D01*
X-428799Y682792D01*
Y743145D01*
X-427626Y743631D01*
X-389149Y705154D01*
X-389785Y704053D01*
X-390501Y701382D01*
Y698618D01*
X-389785Y695947D01*
X-388403Y693553D01*
X-386448Y691598D01*
X-384054Y690216D01*
X-381383Y689500D01*
X-378618D01*
X-375948Y690216D01*
X-373554Y691598D01*
X-371599Y693553D01*
X-370216Y695947D01*
X-369501Y698618D01*
Y701382D01*
X-370216Y704053D01*
X-371599Y706447D01*
X-373554Y708402D01*
X-375948Y709784D01*
X-378618Y710500D01*
X-381383D01*
X-384054Y709784D01*
X-385155Y709148D01*
X-424759Y748752D01*
Y810167D01*
X-423586Y810654D01*
X-389149Y776217D01*
X-389785Y775116D01*
X-390501Y772445D01*
Y769681D01*
X-389785Y767010D01*
X-388403Y764616D01*
X-386448Y762661D01*
X-384054Y761279D01*
X-381383Y760563D01*
X-378618D01*
X-375948Y761279D01*
X-373554Y762661D01*
X-371599Y764616D01*
X-370216Y767010D01*
X-369501Y769681D01*
Y772445D01*
X-370216Y775116D01*
X-371599Y777510D01*
X-373554Y779465D01*
X-375948Y780847D01*
X-378618Y781563D01*
X-381383D01*
X-384054Y780847D01*
X-385155Y780211D01*
X-420719Y815775D01*
Y875064D01*
X-419546Y875551D01*
X-389149Y845154D01*
X-389785Y844053D01*
X-390501Y841382D01*
Y838618D01*
X-389785Y835947D01*
X-388403Y833553D01*
X-386448Y831598D01*
X-384054Y830216D01*
X-381383Y829500D01*
X-378618D01*
X-375948Y830216D01*
X-373554Y831598D01*
X-371599Y833553D01*
X-370216Y835947D01*
X-369501Y838618D01*
Y841382D01*
X-370216Y844053D01*
X-371599Y846447D01*
X-373554Y848402D01*
X-375948Y849784D01*
X-378618Y850500D01*
X-381383D01*
X-384054Y849784D01*
X-385155Y849148D01*
X-416679Y880672D01*
Y1099497D01*
X-416894Y1100578D01*
X-417506Y1101494D01*
X-417506Y1101494D01*
X-447176Y1131164D01*
Y1182992D01*
X-446743Y1183171D01*
X-445125Y1184788D01*
X-444250Y1186902D01*
Y1189189D01*
X-445125Y1191303D01*
X-446743Y1192920D01*
X-448856Y1193795D01*
X-451144D01*
X-453257Y1192920D01*
X-454170Y1192007D01*
X-455000Y1191395D01*
X-455830Y1192007D01*
X-456743Y1192920D01*
X-458856Y1193795D01*
X-461144D01*
X-463257Y1192920D01*
X-464170Y1192007D01*
X-465000Y1191395D01*
X-465830Y1192007D01*
X-466743Y1192920D01*
X-468856Y1193795D01*
X-471144D01*
X-473257Y1192920D01*
X-474170Y1192007D01*
X-475000Y1191395D01*
X-475830Y1192007D01*
X-476743Y1192920D01*
X-478856Y1193795D01*
X-481144D01*
X-483257Y1192920D01*
X-484170Y1192007D01*
X-485000Y1191395D01*
X-485830Y1192007D01*
X-486743Y1192920D01*
X-488856Y1193795D01*
X-491144D01*
X-493257Y1192920D01*
X-494170Y1192007D01*
X-495000Y1191395D01*
X-495830Y1192007D01*
X-496743Y1192920D01*
X-498856Y1193795D01*
X-501144D01*
X-503257Y1192920D01*
X-504170Y1192007D01*
X-505000Y1191395D01*
X-505830Y1192007D01*
X-506743Y1192920D01*
X-508856Y1193795D01*
X-511144D01*
X-513257Y1192920D01*
X-514170Y1192007D01*
X-515000Y1191395D01*
X-515830Y1192007D01*
X-516743Y1192920D01*
X-518856Y1193795D01*
X-521144D01*
X-523257Y1192920D01*
X-524170Y1192007D01*
X-525000Y1191395D01*
X-525830Y1192007D01*
X-526743Y1192920D01*
X-528856Y1193795D01*
X-531144D01*
X-533257Y1192920D01*
X-534170Y1192007D01*
X-535000Y1191395D01*
X-535830Y1192007D01*
X-536743Y1192920D01*
X-538856Y1193795D01*
X-541144D01*
X-543257Y1192920D01*
X-544170Y1192007D01*
X-545000Y1191395D01*
X-545830Y1192007D01*
X-546743Y1192920D01*
X-548856Y1193795D01*
X-551144D01*
X-553257Y1192920D01*
X-554875Y1191303D01*
X-555750Y1189189D01*
Y1186902D01*
X-554875Y1184788D01*
X-553257Y1183171D01*
X-552824Y1182992D01*
Y1172860D01*
X-552824Y1172860D01*
X-552609Y1171779D01*
X-551997Y1170863D01*
X-463093Y1081959D01*
Y1038205D01*
X-464267Y1037719D01*
X-472954Y1046407D01*
X-473871Y1047019D01*
X-474951Y1047234D01*
X-474951Y1047234D01*
X-793240D01*
X-807176Y1061170D01*
Y1204946D01*
X-806743Y1205125D01*
X-805125Y1206743D01*
X-804250Y1208856D01*
Y1211144D01*
X-805125Y1213257D01*
X-806743Y1214875D01*
X-808856Y1215750D01*
D02*
G37*
G36*
X-481500Y861390D02*
X-483500D01*
X-486241Y861030D01*
X-488795Y859971D01*
X-490989Y858288D01*
X-492672Y856095D01*
X-493730Y853541D01*
X-494090Y850800D01*
X-493730Y848059D01*
X-492672Y845505D01*
X-490989Y843311D01*
X-488795Y841628D01*
X-486241Y840570D01*
X-483500Y840209D01*
X-481500D01*
X-478759Y840570D01*
X-476204Y841628D01*
X-474011Y843311D01*
X-472328Y845505D01*
X-471270Y848059D01*
X-470909Y850800D01*
X-471270Y853541D01*
X-472328Y856095D01*
X-474011Y858288D01*
X-476204Y859971D01*
X-478759Y861030D01*
X-481500Y861390D01*
D02*
G37*
G36*
X-506900D02*
X-508900D01*
X-511641Y861030D01*
X-514195Y859971D01*
X-516389Y858288D01*
X-518072Y856095D01*
X-519130Y853541D01*
X-519491Y850800D01*
X-519130Y848059D01*
X-518072Y845505D01*
X-517688Y845005D01*
X-531997Y830697D01*
X-532609Y829781D01*
X-532824Y828700D01*
X-532824Y828699D01*
Y802824D01*
X-536263D01*
X-536954Y805404D01*
X-538797Y808596D01*
X-541404Y811203D01*
X-544596Y813046D01*
X-548157Y814000D01*
X-551843D01*
X-555404Y813046D01*
X-558596Y811203D01*
X-561203Y808596D01*
X-563046Y805404D01*
X-564000Y801843D01*
Y798157D01*
X-563046Y794596D01*
X-561203Y791404D01*
X-558596Y788797D01*
X-555404Y786954D01*
X-551843Y786000D01*
X-548157D01*
X-544596Y786954D01*
X-541404Y788797D01*
X-538797Y791404D01*
X-536954Y794596D01*
X-536263Y797176D01*
X-530001D01*
X-530000Y797176D01*
X-528919Y797391D01*
X-528003Y798003D01*
X-527391Y798919D01*
X-527176Y800000D01*
X-527176Y800000D01*
Y827530D01*
X-513405Y841301D01*
X-511641Y840570D01*
X-508900Y840209D01*
X-506900D01*
X-504159Y840570D01*
X-501604Y841628D01*
X-499411Y843311D01*
X-497728Y845505D01*
X-496670Y848059D01*
X-496309Y850800D01*
X-496670Y853541D01*
X-497728Y856095D01*
X-499411Y858288D01*
X-501604Y859971D01*
X-504159Y861030D01*
X-506900Y861390D01*
D02*
G37*
G36*
X-1091100D02*
X-1093100D01*
X-1095841Y861030D01*
X-1098395Y859971D01*
X-1100589Y858288D01*
X-1102272Y856095D01*
X-1103330Y853541D01*
X-1103690Y850800D01*
X-1103330Y848059D01*
X-1102272Y845505D01*
X-1100589Y843311D01*
X-1098395Y841628D01*
X-1095841Y840570D01*
X-1093100Y840209D01*
X-1091100D01*
X-1088359Y840570D01*
X-1085805Y841628D01*
X-1083611Y843311D01*
X-1081928Y845505D01*
X-1080870Y848059D01*
X-1080509Y850800D01*
X-1080870Y853541D01*
X-1081928Y856095D01*
X-1083611Y858288D01*
X-1085805Y859971D01*
X-1088359Y861030D01*
X-1091100Y861390D01*
D02*
G37*
G36*
X-1116500D02*
X-1118500D01*
X-1121241Y861030D01*
X-1123795Y859971D01*
X-1125989Y858288D01*
X-1127672Y856095D01*
X-1128730Y853541D01*
X-1129090Y850800D01*
X-1128730Y848059D01*
X-1127672Y845505D01*
X-1125989Y843311D01*
X-1123795Y841628D01*
X-1121241Y840570D01*
X-1118500Y840209D01*
X-1116500D01*
X-1113759Y840570D01*
X-1111205Y841628D01*
X-1109011Y843311D01*
X-1107328Y845505D01*
X-1106270Y848059D01*
X-1105909Y850800D01*
X-1106270Y853541D01*
X-1107328Y856095D01*
X-1109011Y858288D01*
X-1111205Y859971D01*
X-1113759Y861030D01*
X-1116500Y861390D01*
D02*
G37*
G36*
X-677815Y854000D02*
X-680185D01*
X-682474Y853387D01*
X-684526Y852202D01*
X-686202Y850526D01*
X-687387Y848474D01*
X-688000Y846185D01*
Y843815D01*
X-687387Y841526D01*
X-686202Y839474D01*
X-684526Y837798D01*
X-682474Y836613D01*
X-680185Y836000D01*
X-677815D01*
X-675526Y836613D01*
X-673474Y837798D01*
X-671798Y839474D01*
X-670613Y841526D01*
X-670000Y843815D01*
Y846185D01*
X-670613Y848474D01*
X-671798Y850526D01*
X-673474Y852202D01*
X-675526Y853387D01*
X-677815Y854000D01*
D02*
G37*
G36*
X-353218Y850500D02*
X-355983D01*
X-358654Y849784D01*
X-361048Y848402D01*
X-363003Y846447D01*
X-364385Y844053D01*
X-365101Y841382D01*
Y838618D01*
X-364385Y835947D01*
X-363003Y833553D01*
X-361048Y831598D01*
X-358654Y830216D01*
X-355983Y829500D01*
X-353218D01*
X-350548Y830216D01*
X-348154Y831598D01*
X-346199Y833553D01*
X-344816Y835947D01*
X-344101Y838618D01*
Y841382D01*
X-344816Y844053D01*
X-346199Y846447D01*
X-348154Y848402D01*
X-350548Y849784D01*
X-353218Y850500D01*
D02*
G37*
G36*
X-1281318D02*
X-1284082D01*
X-1286753Y849784D01*
X-1289147Y848402D01*
X-1291102Y846447D01*
X-1292484Y844053D01*
X-1293200Y841382D01*
Y838618D01*
X-1292484Y835947D01*
X-1291102Y833553D01*
X-1289147Y831598D01*
X-1286753Y830216D01*
X-1284082Y829500D01*
X-1281318D01*
X-1278647Y830216D01*
X-1276253Y831598D01*
X-1274298Y833553D01*
X-1272916Y835947D01*
X-1272200Y838618D01*
Y841382D01*
X-1272916Y844053D01*
X-1274298Y846447D01*
X-1276253Y848402D01*
X-1278647Y849784D01*
X-1281318Y850500D01*
D02*
G37*
G36*
X-481500Y835990D02*
X-483500D01*
X-486241Y835630D01*
X-488795Y834572D01*
X-490989Y832888D01*
X-492672Y830695D01*
X-493730Y828141D01*
X-494090Y825400D01*
X-493730Y822659D01*
X-492672Y820105D01*
X-490989Y817911D01*
X-488795Y816228D01*
X-486241Y815170D01*
X-483500Y814809D01*
X-481500D01*
X-478759Y815170D01*
X-476204Y816228D01*
X-474011Y817911D01*
X-472328Y820105D01*
X-471270Y822659D01*
X-470909Y825400D01*
X-471270Y828141D01*
X-472328Y830695D01*
X-474011Y832888D01*
X-476204Y834572D01*
X-478759Y835630D01*
X-481500Y835990D01*
D02*
G37*
G36*
X-506900D02*
X-508900D01*
X-511641Y835630D01*
X-514195Y834572D01*
X-516389Y832888D01*
X-518072Y830695D01*
X-519130Y828141D01*
X-519491Y825400D01*
X-519130Y822659D01*
X-518072Y820105D01*
X-516389Y817911D01*
X-514195Y816228D01*
X-511641Y815170D01*
X-508900Y814809D01*
X-506900D01*
X-504159Y815170D01*
X-501604Y816228D01*
X-499411Y817911D01*
X-497728Y820105D01*
X-496670Y822659D01*
X-496309Y825400D01*
X-496670Y828141D01*
X-497728Y830695D01*
X-499411Y832888D01*
X-501604Y834572D01*
X-504159Y835630D01*
X-506900Y835990D01*
D02*
G37*
G36*
X-1091100D02*
X-1093100D01*
X-1095841Y835630D01*
X-1098395Y834572D01*
X-1100589Y832888D01*
X-1102272Y830695D01*
X-1103330Y828141D01*
X-1103690Y825400D01*
X-1103330Y822659D01*
X-1102272Y820105D01*
X-1100589Y817911D01*
X-1098395Y816228D01*
X-1095841Y815170D01*
X-1093100Y814809D01*
X-1091100D01*
X-1088359Y815170D01*
X-1085805Y816228D01*
X-1083611Y817911D01*
X-1081928Y820105D01*
X-1080870Y822659D01*
X-1080509Y825400D01*
X-1080870Y828141D01*
X-1081928Y830695D01*
X-1083611Y832888D01*
X-1085805Y834572D01*
X-1088359Y835630D01*
X-1091100Y835990D01*
D02*
G37*
G36*
X-1116500D02*
X-1118500D01*
X-1121241Y835630D01*
X-1123795Y834572D01*
X-1125989Y832888D01*
X-1127672Y830695D01*
X-1128730Y828141D01*
X-1129090Y825400D01*
X-1128730Y822659D01*
X-1127672Y820105D01*
X-1125989Y817911D01*
X-1123795Y816228D01*
X-1121241Y815170D01*
X-1118500Y814809D01*
X-1116500D01*
X-1113759Y815170D01*
X-1111205Y816228D01*
X-1109011Y817911D01*
X-1107328Y820105D01*
X-1106270Y822659D01*
X-1105909Y825400D01*
X-1106270Y828141D01*
X-1107328Y830695D01*
X-1109011Y832888D01*
X-1111205Y834572D01*
X-1113759Y835630D01*
X-1116500Y835990D01*
D02*
G37*
G36*
X-481500Y810590D02*
X-483500D01*
X-486241Y810229D01*
X-488795Y809172D01*
X-490989Y807488D01*
X-492672Y805295D01*
X-493730Y802741D01*
X-494090Y800000D01*
X-493730Y797259D01*
X-492672Y794705D01*
X-490989Y792511D01*
X-488795Y790828D01*
X-486241Y789770D01*
X-483500Y789409D01*
X-481500D01*
X-478759Y789770D01*
X-476204Y790828D01*
X-474011Y792511D01*
X-472328Y794705D01*
X-471270Y797259D01*
X-470909Y800000D01*
X-471270Y802741D01*
X-472328Y805295D01*
X-474011Y807488D01*
X-476204Y809172D01*
X-478759Y810229D01*
X-481500Y810590D01*
D02*
G37*
G36*
X-506900D02*
X-508900D01*
X-511641Y810229D01*
X-514195Y809172D01*
X-516389Y807488D01*
X-518072Y805295D01*
X-519130Y802741D01*
X-519491Y800000D01*
X-519130Y797259D01*
X-518072Y794705D01*
X-516389Y792511D01*
X-514195Y790828D01*
X-511641Y789770D01*
X-508900Y789409D01*
X-506900D01*
X-504159Y789770D01*
X-501604Y790828D01*
X-499411Y792511D01*
X-497728Y794705D01*
X-496670Y797259D01*
X-496309Y800000D01*
X-496670Y802741D01*
X-497728Y805295D01*
X-499411Y807488D01*
X-501604Y809172D01*
X-504159Y810229D01*
X-506900Y810590D01*
D02*
G37*
G36*
X-1091100D02*
X-1093100D01*
X-1095841Y810229D01*
X-1098395Y809172D01*
X-1100589Y807488D01*
X-1102272Y805295D01*
X-1103330Y802741D01*
X-1103690Y800000D01*
X-1103330Y797259D01*
X-1102272Y794705D01*
X-1100589Y792511D01*
X-1098395Y790828D01*
X-1095841Y789770D01*
X-1093100Y789409D01*
X-1091100D01*
X-1088359Y789770D01*
X-1085805Y790828D01*
X-1083611Y792511D01*
X-1081928Y794705D01*
X-1080870Y797259D01*
X-1080509Y800000D01*
X-1080870Y802741D01*
X-1081928Y805295D01*
X-1083611Y807488D01*
X-1085805Y809172D01*
X-1088359Y810229D01*
X-1091100Y810590D01*
D02*
G37*
G36*
X-1116500D02*
X-1118500D01*
X-1121241Y810229D01*
X-1123795Y809172D01*
X-1125989Y807488D01*
X-1127672Y805295D01*
X-1128730Y802741D01*
X-1129090Y800000D01*
X-1128730Y797259D01*
X-1127672Y794705D01*
X-1125989Y792511D01*
X-1123795Y790828D01*
X-1121241Y789770D01*
X-1118500Y789409D01*
X-1116500D01*
X-1113759Y789770D01*
X-1111205Y790828D01*
X-1109011Y792511D01*
X-1107328Y794705D01*
X-1106270Y797259D01*
X-1105909Y800000D01*
X-1106270Y802741D01*
X-1107328Y805295D01*
X-1109011Y807488D01*
X-1111205Y809172D01*
X-1113759Y810229D01*
X-1116500Y810590D01*
D02*
G37*
G36*
X-1090830Y786204D02*
Y775870D01*
X-1079628D01*
X-1079857Y777612D01*
X-1081020Y780420D01*
X-1082869Y782830D01*
X-1085280Y784680D01*
X-1088087Y785843D01*
X-1090830Y786204D01*
D02*
G37*
G36*
X-1093370Y786204D02*
X-1096112Y785843D01*
X-1098920Y784680D01*
X-1101330Y782830D01*
X-1103180Y780420D01*
X-1104343Y777612D01*
X-1104631Y775426D01*
X-1104684Y775022D01*
X-1105965D01*
X-1106018Y775426D01*
X-1106270Y777341D01*
X-1107328Y779895D01*
X-1109011Y782088D01*
X-1111205Y783772D01*
X-1113759Y784829D01*
X-1116500Y785190D01*
X-1118500D01*
X-1121241Y784829D01*
X-1123795Y783772D01*
X-1125989Y782088D01*
X-1127672Y779895D01*
X-1128730Y777341D01*
X-1129090Y774600D01*
X-1128730Y771859D01*
X-1127672Y769305D01*
X-1125989Y767111D01*
X-1123795Y765428D01*
X-1121241Y764370D01*
X-1118500Y764009D01*
X-1116500D01*
X-1113759Y764370D01*
X-1111205Y765428D01*
X-1109011Y767111D01*
X-1107328Y769305D01*
X-1106270Y771859D01*
X-1106018Y773774D01*
X-1105965Y774178D01*
X-1104684D01*
X-1104631Y773774D01*
X-1104343Y771587D01*
X-1103180Y768780D01*
X-1101330Y766369D01*
X-1098920Y764520D01*
X-1096112Y763357D01*
X-1093370Y762996D01*
Y774600D01*
Y786204D01*
D02*
G37*
G36*
X-652263Y787400D02*
X-654633D01*
X-656922Y786786D01*
X-658974Y785602D01*
X-660650Y783926D01*
X-661834Y781874D01*
X-662448Y779585D01*
Y777215D01*
X-661834Y774926D01*
X-660650Y772874D01*
X-658974Y771198D01*
X-656922Y770013D01*
X-654633Y769400D01*
X-652263D01*
X-649974Y770013D01*
X-647922Y771198D01*
X-646246Y772874D01*
X-645061Y774926D01*
X-644448Y777215D01*
Y779585D01*
X-645061Y781874D01*
X-646246Y783926D01*
X-647922Y785602D01*
X-649974Y786786D01*
X-652263Y787400D01*
D02*
G37*
G36*
X-481500Y785190D02*
X-483500D01*
X-486241Y784829D01*
X-488795Y783772D01*
X-490989Y782088D01*
X-492672Y779895D01*
X-493730Y777341D01*
X-494090Y774600D01*
X-493730Y771859D01*
X-492672Y769305D01*
X-490989Y767111D01*
X-488795Y765428D01*
X-486241Y764370D01*
X-483500Y764009D01*
X-481500D01*
X-478759Y764370D01*
X-476204Y765428D01*
X-474011Y767111D01*
X-472328Y769305D01*
X-471270Y771859D01*
X-470909Y774600D01*
X-471270Y777341D01*
X-472328Y779895D01*
X-474011Y782088D01*
X-476204Y783772D01*
X-478759Y784829D01*
X-481500Y785190D01*
D02*
G37*
G36*
X-506900D02*
X-508900D01*
X-511641Y784829D01*
X-514195Y783772D01*
X-516389Y782088D01*
X-518072Y779895D01*
X-519130Y777341D01*
X-519491Y774600D01*
X-519130Y771859D01*
X-518072Y769305D01*
X-516389Y767111D01*
X-514195Y765428D01*
X-511641Y764370D01*
X-508900Y764009D01*
X-506900D01*
X-504159Y764370D01*
X-501604Y765428D01*
X-499411Y767111D01*
X-497728Y769305D01*
X-496670Y771859D01*
X-496309Y774600D01*
X-496670Y777341D01*
X-497728Y779895D01*
X-499411Y782088D01*
X-501604Y783772D01*
X-504159Y784829D01*
X-506900Y785190D01*
D02*
G37*
G36*
X-1079628Y773330D02*
X-1090830D01*
Y762996D01*
X-1088087Y763357D01*
X-1085280Y764520D01*
X-1082869Y766369D01*
X-1081020Y768780D01*
X-1079857Y771587D01*
X-1079628Y773330D01*
D02*
G37*
G36*
X-353218Y781563D02*
X-355983D01*
X-358654Y780847D01*
X-361048Y779465D01*
X-363003Y777510D01*
X-364385Y775116D01*
X-365101Y772445D01*
Y769681D01*
X-364385Y767010D01*
X-363003Y764616D01*
X-361048Y762661D01*
X-358654Y761279D01*
X-355983Y760563D01*
X-353218D01*
X-350548Y761279D01*
X-348154Y762661D01*
X-346199Y764616D01*
X-344816Y767010D01*
X-344101Y769681D01*
Y772445D01*
X-344816Y775116D01*
X-346199Y777510D01*
X-348154Y779465D01*
X-350548Y780847D01*
X-353218Y781563D01*
D02*
G37*
G36*
X-778157Y788541D02*
X-781843D01*
X-785404Y787587D01*
X-788596Y785743D01*
X-791203Y783137D01*
X-793046Y779945D01*
X-794000Y776384D01*
Y772698D01*
X-793046Y769137D01*
X-791203Y765945D01*
X-788596Y763338D01*
X-785404Y761495D01*
X-781843Y760541D01*
X-778157D01*
X-774596Y761495D01*
X-771404Y763338D01*
X-768797Y765945D01*
X-766954Y769137D01*
X-766000Y772698D01*
Y776384D01*
X-766954Y779945D01*
X-768797Y783137D01*
X-771404Y785743D01*
X-774596Y787587D01*
X-778157Y788541D01*
D02*
G37*
G36*
X-1281318Y780500D02*
X-1284082D01*
X-1286753Y779784D01*
X-1289147Y778402D01*
X-1291102Y776447D01*
X-1292484Y774053D01*
X-1293200Y771382D01*
Y768618D01*
X-1292484Y765947D01*
X-1291102Y763553D01*
X-1289147Y761598D01*
X-1286753Y760216D01*
X-1284082Y759500D01*
X-1281318D01*
X-1278647Y760216D01*
X-1276253Y761598D01*
X-1274298Y763553D01*
X-1272916Y765947D01*
X-1272200Y768618D01*
Y771382D01*
X-1272916Y774053D01*
X-1274298Y776447D01*
X-1276253Y778402D01*
X-1278647Y779784D01*
X-1281318Y780500D01*
D02*
G37*
G36*
X-481500Y759790D02*
X-483500D01*
X-486241Y759429D01*
X-488795Y758372D01*
X-490989Y756689D01*
X-492672Y754495D01*
X-493730Y751941D01*
X-494090Y749200D01*
X-493730Y746459D01*
X-492672Y743904D01*
X-490989Y741711D01*
X-488795Y740028D01*
X-486241Y738970D01*
X-483500Y738609D01*
X-481500D01*
X-478759Y738970D01*
X-476204Y740028D01*
X-474011Y741711D01*
X-472328Y743904D01*
X-471270Y746459D01*
X-470909Y749200D01*
X-471270Y751941D01*
X-472328Y754495D01*
X-474011Y756689D01*
X-476204Y758372D01*
X-478759Y759429D01*
X-481500Y759790D01*
D02*
G37*
G36*
X-506900D02*
X-508900D01*
X-511641Y759429D01*
X-514195Y758372D01*
X-516389Y756689D01*
X-518072Y754495D01*
X-519095Y752024D01*
X-537648D01*
X-538729Y751809D01*
X-539645Y751197D01*
X-539645Y751197D01*
X-649392Y641450D01*
X-649974Y641786D01*
X-652263Y642400D01*
X-654633D01*
X-656922Y641786D01*
X-658974Y640602D01*
X-660650Y638926D01*
X-661834Y636874D01*
X-662448Y634585D01*
Y632215D01*
X-661834Y629926D01*
X-660650Y627874D01*
X-658974Y626198D01*
X-656922Y625013D01*
X-654633Y624400D01*
X-652263D01*
X-649974Y625013D01*
X-647922Y626198D01*
X-646246Y627874D01*
X-645061Y629926D01*
X-644448Y632215D01*
Y634585D01*
X-645061Y636874D01*
X-645397Y637456D01*
X-536478Y746376D01*
X-519095D01*
X-518072Y743904D01*
X-516389Y741711D01*
X-514195Y740028D01*
X-511641Y738970D01*
X-508900Y738609D01*
X-506900D01*
X-504159Y738970D01*
X-501604Y740028D01*
X-499411Y741711D01*
X-497728Y743904D01*
X-496670Y746459D01*
X-496309Y749200D01*
X-496670Y751941D01*
X-497728Y754495D01*
X-499411Y756689D01*
X-501604Y758372D01*
X-504159Y759429D01*
X-506900Y759790D01*
D02*
G37*
G36*
X-1116500D02*
X-1118500D01*
X-1121241Y759429D01*
X-1123795Y758372D01*
X-1125989Y756689D01*
X-1127672Y754495D01*
X-1128730Y751941D01*
X-1129090Y749200D01*
X-1128730Y746459D01*
X-1127672Y743904D01*
X-1125989Y741711D01*
X-1123795Y740028D01*
X-1121241Y738970D01*
X-1118500Y738609D01*
X-1116500D01*
X-1113759Y738970D01*
X-1111205Y740028D01*
X-1109011Y741711D01*
X-1107328Y743904D01*
X-1106270Y746459D01*
X-1105909Y749200D01*
X-1106270Y751941D01*
X-1107328Y754495D01*
X-1109011Y756689D01*
X-1111205Y758372D01*
X-1113759Y759429D01*
X-1116500Y759790D01*
D02*
G37*
G36*
X-996019Y738700D02*
X-997862D01*
X-999642Y738223D01*
X-1001238Y737301D01*
X-1002542Y735998D01*
X-1003463Y734402D01*
X-1003940Y732621D01*
Y730778D01*
X-1003463Y728998D01*
X-1002542Y727402D01*
X-1001238Y726098D01*
X-999642Y725177D01*
X-997862Y724700D01*
X-996019D01*
X-994238Y725177D01*
X-992642Y726098D01*
X-991339Y727402D01*
X-990417Y728998D01*
X-989940Y730778D01*
Y732621D01*
X-990417Y734402D01*
X-991339Y735998D01*
X-992642Y737301D01*
X-994238Y738223D01*
X-996019Y738700D01*
D02*
G37*
G36*
X-481500Y734390D02*
X-483500D01*
X-486241Y734029D01*
X-488795Y732971D01*
X-490989Y731289D01*
X-492672Y729095D01*
X-493730Y726541D01*
X-494090Y723800D01*
X-493730Y721059D01*
X-492672Y718504D01*
X-490989Y716311D01*
X-488795Y714628D01*
X-486241Y713570D01*
X-483500Y713209D01*
X-481500D01*
X-478759Y713570D01*
X-476204Y714628D01*
X-474011Y716311D01*
X-472328Y718504D01*
X-471270Y721059D01*
X-470909Y723800D01*
X-471270Y726541D01*
X-472328Y729095D01*
X-474011Y731289D01*
X-476204Y732971D01*
X-478759Y734029D01*
X-481500Y734390D01*
D02*
G37*
G36*
X-506900D02*
X-508900D01*
X-511641Y734029D01*
X-514195Y732971D01*
X-516389Y731289D01*
X-518072Y729095D01*
X-519130Y726541D01*
X-519491Y723800D01*
X-519130Y721059D01*
X-518072Y718504D01*
X-516389Y716311D01*
X-514195Y714628D01*
X-511641Y713570D01*
X-508900Y713209D01*
X-506900D01*
X-504159Y713570D01*
X-501604Y714628D01*
X-499411Y716311D01*
X-497728Y718504D01*
X-496670Y721059D01*
X-496309Y723800D01*
X-496670Y726541D01*
X-497728Y729095D01*
X-499411Y731289D01*
X-501604Y732971D01*
X-504159Y734029D01*
X-506900Y734390D01*
D02*
G37*
G36*
X-1091100D02*
X-1093100D01*
X-1095841Y734029D01*
X-1098395Y732971D01*
X-1100589Y731289D01*
X-1102272Y729095D01*
X-1103330Y726541D01*
X-1103690Y723800D01*
X-1103330Y721059D01*
X-1102272Y718504D01*
X-1100589Y716311D01*
X-1098395Y714628D01*
X-1095841Y713570D01*
X-1093100Y713209D01*
X-1091100D01*
X-1088359Y713570D01*
X-1085805Y714628D01*
X-1083611Y716311D01*
X-1081928Y718504D01*
X-1080870Y721059D01*
X-1080509Y723800D01*
X-1080870Y726541D01*
X-1081928Y729095D01*
X-1083611Y731289D01*
X-1085805Y732971D01*
X-1088359Y734029D01*
X-1091100Y734390D01*
D02*
G37*
G36*
X-1116500D02*
X-1118500D01*
X-1121241Y734029D01*
X-1123795Y732971D01*
X-1125989Y731289D01*
X-1127672Y729095D01*
X-1128730Y726541D01*
X-1129090Y723800D01*
X-1128730Y721059D01*
X-1127672Y718504D01*
X-1125989Y716311D01*
X-1123795Y714628D01*
X-1121241Y713570D01*
X-1118500Y713209D01*
X-1116500D01*
X-1113759Y713570D01*
X-1111205Y714628D01*
X-1109011Y716311D01*
X-1107328Y718504D01*
X-1106270Y721059D01*
X-1105909Y723800D01*
X-1106270Y726541D01*
X-1107328Y729095D01*
X-1109011Y731289D01*
X-1111205Y732971D01*
X-1113759Y734029D01*
X-1116500Y734390D01*
D02*
G37*
G36*
X-91762Y753550D02*
X-96638D01*
X-101419Y752599D01*
X-105924Y750733D01*
X-109977Y748025D01*
X-113425Y744577D01*
X-116133Y740524D01*
X-117999Y736019D01*
X-118950Y731238D01*
Y726362D01*
X-117999Y721581D01*
X-116133Y717076D01*
X-113425Y713023D01*
X-109977Y709575D01*
X-105924Y706867D01*
X-101419Y705001D01*
X-96638Y704050D01*
X-91762D01*
X-86981Y705001D01*
X-82477Y706867D01*
X-78423Y709575D01*
X-74975Y713023D01*
X-72267Y717076D01*
X-70401Y721581D01*
X-69450Y726362D01*
Y731238D01*
X-70401Y736019D01*
X-72267Y740524D01*
X-74975Y744577D01*
X-78423Y748025D01*
X-82477Y750733D01*
X-86981Y752599D01*
X-91762Y753550D01*
D02*
G37*
G36*
X-1398157Y1044000D02*
X-1401843D01*
X-1405404Y1043046D01*
X-1408596Y1041203D01*
X-1411203Y1038596D01*
X-1413046Y1035404D01*
X-1413737Y1032824D01*
X-1449000D01*
X-1450081Y1032609D01*
X-1450997Y1031997D01*
X-1450997Y1031997D01*
X-1466163Y1016831D01*
X-1471875D01*
X-1473484Y1016511D01*
X-1474849Y1015599D01*
X-1475761Y1014234D01*
X-1476081Y1012625D01*
Y1007375D01*
X-1475761Y1005766D01*
X-1474849Y1004401D01*
X-1473484Y1003489D01*
X-1473078Y1003409D01*
Y978025D01*
X-1475709Y976935D01*
X-1478451Y975103D01*
X-1480783Y972771D01*
X-1482615Y970029D01*
X-1483877Y966983D01*
X-1484520Y963749D01*
Y960451D01*
X-1483877Y957217D01*
X-1482615Y954171D01*
X-1480783Y951429D01*
X-1478451Y949097D01*
X-1475709Y947265D01*
X-1472663Y946003D01*
X-1469429Y945360D01*
X-1466131D01*
X-1462897Y946003D01*
X-1459851Y947265D01*
X-1457109Y949097D01*
X-1454777Y951429D01*
X-1452945Y954171D01*
X-1451683Y957217D01*
X-1451040Y960451D01*
Y963749D01*
X-1451683Y966983D01*
X-1452945Y970029D01*
X-1454777Y972771D01*
X-1457109Y975103D01*
X-1459851Y976935D01*
X-1462897Y978197D01*
X-1464922Y978599D01*
Y1003409D01*
X-1464516Y1003489D01*
X-1463151Y1004401D01*
X-1462239Y1005766D01*
X-1461919Y1007375D01*
Y1012625D01*
X-1461996Y1013010D01*
X-1447830Y1027176D01*
X-1413737D01*
X-1413046Y1024596D01*
X-1411203Y1021404D01*
X-1408596Y1018797D01*
X-1405404Y1016954D01*
X-1401843Y1016000D01*
X-1398157D01*
X-1394596Y1016954D01*
X-1391404Y1018797D01*
X-1388797Y1021404D01*
X-1386954Y1024596D01*
X-1386263Y1027176D01*
X-1372189D01*
X-1342824Y997811D01*
Y707754D01*
X-1343257Y707575D01*
X-1344875Y705957D01*
X-1345750Y703844D01*
Y701556D01*
X-1344875Y699443D01*
X-1343257Y697825D01*
X-1341144Y696950D01*
X-1338856D01*
X-1336743Y697825D01*
X-1335125Y699443D01*
X-1334250Y701556D01*
Y703844D01*
X-1335125Y705957D01*
X-1336743Y707575D01*
X-1337176Y707754D01*
Y998981D01*
X-1337176Y998981D01*
X-1337391Y1000062D01*
X-1338003Y1000978D01*
X-1338003Y1000978D01*
X-1369022Y1031997D01*
X-1369938Y1032609D01*
X-1371019Y1032824D01*
X-1371019Y1032824D01*
X-1386263D01*
X-1386954Y1035404D01*
X-1388797Y1038596D01*
X-1391404Y1041203D01*
X-1394596Y1043046D01*
X-1398157Y1044000D01*
D02*
G37*
G36*
X-799215Y711635D02*
X-801980D01*
X-804651Y710919D01*
X-807045Y709537D01*
X-809000Y707582D01*
X-810382Y705188D01*
X-811098Y702517D01*
Y699753D01*
X-810382Y697082D01*
X-809000Y694688D01*
X-807045Y692733D01*
X-804651Y691351D01*
X-801980Y690635D01*
X-799215D01*
X-796545Y691351D01*
X-794151Y692733D01*
X-792196Y694688D01*
X-790813Y697082D01*
X-790098Y699753D01*
Y702517D01*
X-790813Y705188D01*
X-792196Y707582D01*
X-794151Y709537D01*
X-796545Y710919D01*
X-799215Y711635D01*
D02*
G37*
G36*
X-815498D02*
X-836498D01*
Y690635D01*
X-815498D01*
Y711635D01*
D02*
G37*
G36*
X-353218Y710500D02*
X-355983D01*
X-358654Y709784D01*
X-361048Y708402D01*
X-363003Y706447D01*
X-364385Y704053D01*
X-365101Y701382D01*
Y698618D01*
X-364385Y695947D01*
X-363003Y693553D01*
X-361048Y691598D01*
X-358654Y690216D01*
X-355983Y689500D01*
X-353218D01*
X-350548Y690216D01*
X-348154Y691598D01*
X-346199Y693553D01*
X-344816Y695947D01*
X-344101Y698618D01*
Y701382D01*
X-344816Y704053D01*
X-346199Y706447D01*
X-348154Y708402D01*
X-350548Y709784D01*
X-353218Y710500D01*
D02*
G37*
G36*
X-1281318D02*
X-1284082D01*
X-1286753Y709784D01*
X-1289147Y708402D01*
X-1291102Y706447D01*
X-1292484Y704053D01*
X-1293200Y701382D01*
Y698618D01*
X-1292484Y695947D01*
X-1291102Y693553D01*
X-1289147Y691598D01*
X-1286753Y690216D01*
X-1284082Y689500D01*
X-1281318D01*
X-1278647Y690216D01*
X-1276253Y691598D01*
X-1274298Y693553D01*
X-1272916Y695947D01*
X-1272200Y698618D01*
Y701382D01*
X-1272916Y704053D01*
X-1274298Y706447D01*
X-1276253Y708402D01*
X-1278647Y709784D01*
X-1281318Y710500D01*
D02*
G37*
G36*
X-481500Y708990D02*
X-483500D01*
X-486241Y708630D01*
X-488795Y707571D01*
X-490989Y705889D01*
X-492672Y703695D01*
X-493730Y701141D01*
X-494090Y698400D01*
X-493730Y695659D01*
X-492672Y693104D01*
X-490989Y690911D01*
X-488795Y689228D01*
X-486241Y688170D01*
X-483500Y687809D01*
X-481500D01*
X-478759Y688170D01*
X-476204Y689228D01*
X-474011Y690911D01*
X-472328Y693104D01*
X-471270Y695659D01*
X-470909Y698400D01*
X-471270Y701141D01*
X-472328Y703695D01*
X-474011Y705889D01*
X-476204Y707571D01*
X-478759Y708630D01*
X-481500Y708990D01*
D02*
G37*
G36*
X-506900D02*
X-508900D01*
X-511641Y708630D01*
X-514195Y707571D01*
X-516389Y705889D01*
X-518072Y703695D01*
X-519130Y701141D01*
X-519491Y698400D01*
X-519130Y695659D01*
X-518072Y693104D01*
X-516389Y690911D01*
X-514195Y689228D01*
X-511641Y688170D01*
X-508900Y687809D01*
X-506900D01*
X-504159Y688170D01*
X-501604Y689228D01*
X-499411Y690911D01*
X-497728Y693104D01*
X-496670Y695659D01*
X-496309Y698400D01*
X-496670Y701141D01*
X-497728Y703695D01*
X-499411Y705889D01*
X-501604Y707571D01*
X-504159Y708630D01*
X-506900Y708990D01*
D02*
G37*
G36*
X-1091100D02*
X-1093100D01*
X-1095841Y708630D01*
X-1098395Y707571D01*
X-1100589Y705889D01*
X-1102272Y703695D01*
X-1103330Y701141D01*
X-1103690Y698400D01*
X-1103330Y695659D01*
X-1102272Y693104D01*
X-1100589Y690911D01*
X-1098395Y689228D01*
X-1095841Y688170D01*
X-1093100Y687809D01*
X-1091100D01*
X-1088359Y688170D01*
X-1085805Y689228D01*
X-1083611Y690911D01*
X-1081928Y693104D01*
X-1080870Y695659D01*
X-1080509Y698400D01*
X-1080870Y701141D01*
X-1081928Y703695D01*
X-1083611Y705889D01*
X-1085805Y707571D01*
X-1088359Y708630D01*
X-1091100Y708990D01*
D02*
G37*
G36*
X-1116500D02*
X-1118500D01*
X-1121241Y708630D01*
X-1123795Y707571D01*
X-1125989Y705889D01*
X-1127672Y703695D01*
X-1128730Y701141D01*
X-1129090Y698400D01*
X-1128730Y695659D01*
X-1127672Y693104D01*
X-1125989Y690911D01*
X-1123795Y689228D01*
X-1121241Y688170D01*
X-1118500Y687809D01*
X-1116500D01*
X-1113759Y688170D01*
X-1111205Y689228D01*
X-1109011Y690911D01*
X-1107328Y693104D01*
X-1106270Y695659D01*
X-1105909Y698400D01*
X-1106270Y701141D01*
X-1107328Y703695D01*
X-1109011Y705889D01*
X-1111205Y707571D01*
X-1113759Y708630D01*
X-1116500Y708990D01*
D02*
G37*
G36*
X-629466Y733600D02*
X-634430D01*
X-639298Y732631D01*
X-643885Y730732D01*
X-648012Y727974D01*
X-651522Y724464D01*
X-654280Y720337D01*
X-656180Y715750D01*
X-657148Y710882D01*
Y705918D01*
X-656180Y701049D01*
X-654280Y696463D01*
X-651522Y692336D01*
X-648012Y688826D01*
X-643885Y686068D01*
X-639298Y684168D01*
X-634430Y683200D01*
X-629466D01*
X-624597Y684168D01*
X-620011Y686068D01*
X-615884Y688826D01*
X-612374Y692336D01*
X-609616Y696463D01*
X-607716Y701049D01*
X-606748Y705918D01*
Y710882D01*
X-607716Y715750D01*
X-609616Y720337D01*
X-612374Y724464D01*
X-615884Y727974D01*
X-620011Y730732D01*
X-624597Y732631D01*
X-629466Y733600D01*
D02*
G37*
G36*
X-970619Y687900D02*
X-972462D01*
X-974242Y687423D01*
X-975838Y686501D01*
X-977142Y685198D01*
X-978063Y683602D01*
X-978540Y681821D01*
Y679978D01*
X-978063Y678198D01*
X-977142Y676602D01*
X-975838Y675298D01*
X-974242Y674377D01*
X-972462Y673900D01*
X-970619D01*
X-968838Y674377D01*
X-967242Y675298D01*
X-965939Y676602D01*
X-965017Y678198D01*
X-964540Y679978D01*
Y681821D01*
X-965017Y683602D01*
X-965939Y685198D01*
X-967242Y686501D01*
X-968838Y687423D01*
X-970619Y687900D01*
D02*
G37*
G36*
X-996019D02*
X-997862D01*
X-999642Y687423D01*
X-1001238Y686501D01*
X-1002542Y685198D01*
X-1003463Y683602D01*
X-1003940Y681821D01*
Y679978D01*
X-1003463Y678198D01*
X-1002542Y676602D01*
X-1001238Y675298D01*
X-999642Y674377D01*
X-997862Y673900D01*
X-996019D01*
X-994238Y674377D01*
X-992642Y675298D01*
X-991339Y676602D01*
X-990417Y678198D01*
X-989940Y679978D01*
Y681821D01*
X-990417Y683602D01*
X-991339Y685198D01*
X-992642Y686501D01*
X-994238Y687423D01*
X-996019Y687900D01*
D02*
G37*
G36*
X-481500Y683590D02*
X-483500D01*
X-486241Y683230D01*
X-488795Y682171D01*
X-490989Y680489D01*
X-492672Y678295D01*
X-493730Y675741D01*
X-494090Y673000D01*
X-493730Y670259D01*
X-492672Y667704D01*
X-490989Y665511D01*
X-488795Y663828D01*
X-486241Y662770D01*
X-483500Y662409D01*
X-481500D01*
X-478759Y662770D01*
X-476204Y663828D01*
X-474011Y665511D01*
X-472328Y667704D01*
X-471270Y670259D01*
X-470909Y673000D01*
X-471270Y675741D01*
X-472328Y678295D01*
X-474011Y680489D01*
X-476204Y682171D01*
X-478759Y683230D01*
X-481500Y683590D01*
D02*
G37*
G36*
X-506900D02*
X-508900D01*
X-511641Y683230D01*
X-514195Y682171D01*
X-516389Y680489D01*
X-518072Y678295D01*
X-519130Y675741D01*
X-519491Y673000D01*
X-519130Y670259D01*
X-518072Y667704D01*
X-516389Y665511D01*
X-514195Y663828D01*
X-511641Y662770D01*
X-508900Y662409D01*
X-506900D01*
X-504159Y662770D01*
X-501604Y663828D01*
X-499411Y665511D01*
X-497728Y667704D01*
X-496670Y670259D01*
X-496309Y673000D01*
X-496670Y675741D01*
X-497728Y678295D01*
X-499411Y680489D01*
X-501604Y682171D01*
X-504159Y683230D01*
X-506900Y683590D01*
D02*
G37*
G36*
X-1091100D02*
X-1093100D01*
X-1095841Y683230D01*
X-1098395Y682171D01*
X-1100589Y680489D01*
X-1102272Y678295D01*
X-1103330Y675741D01*
X-1103690Y673000D01*
X-1103330Y670259D01*
X-1102272Y667704D01*
X-1100589Y665511D01*
X-1098395Y663828D01*
X-1095841Y662770D01*
X-1093100Y662409D01*
X-1091100D01*
X-1088359Y662770D01*
X-1085805Y663828D01*
X-1083611Y665511D01*
X-1081928Y667704D01*
X-1080870Y670259D01*
X-1080509Y673000D01*
X-1080870Y675741D01*
X-1081928Y678295D01*
X-1083611Y680489D01*
X-1085805Y682171D01*
X-1088359Y683230D01*
X-1091100Y683590D01*
D02*
G37*
G36*
X-1116500D02*
X-1118500D01*
X-1121241Y683230D01*
X-1123795Y682171D01*
X-1125989Y680489D01*
X-1127672Y678295D01*
X-1128730Y675741D01*
X-1129090Y673000D01*
X-1128730Y670259D01*
X-1127672Y667704D01*
X-1125989Y665511D01*
X-1123795Y663828D01*
X-1121241Y662770D01*
X-1118500Y662409D01*
X-1116500D01*
X-1113759Y662770D01*
X-1111205Y663828D01*
X-1109011Y665511D01*
X-1107328Y667704D01*
X-1106270Y670259D01*
X-1105909Y673000D01*
X-1106270Y675741D01*
X-1107328Y678295D01*
X-1109011Y680489D01*
X-1111205Y682171D01*
X-1113759Y683230D01*
X-1116500Y683590D01*
D02*
G37*
G36*
X-99900Y666600D02*
X-116900D01*
Y649600D01*
X-99900D01*
Y666600D01*
D02*
G37*
G36*
X-506900Y658190D02*
X-508900D01*
X-511641Y657830D01*
X-514195Y656771D01*
X-516389Y655089D01*
X-518072Y652895D01*
X-519130Y650341D01*
X-519491Y647600D01*
X-519130Y644859D01*
X-518072Y642305D01*
X-516389Y640111D01*
X-514195Y638428D01*
X-511641Y637370D01*
X-508900Y637009D01*
X-506900D01*
X-504159Y637370D01*
X-501604Y638428D01*
X-499411Y640111D01*
X-497728Y642305D01*
X-496670Y644859D01*
X-496309Y647600D01*
X-496670Y650341D01*
X-497728Y652895D01*
X-499411Y655089D01*
X-501604Y656771D01*
X-504159Y657830D01*
X-506900Y658190D01*
D02*
G37*
G36*
X-1091100D02*
X-1093100D01*
X-1095841Y657830D01*
X-1098395Y656771D01*
X-1100589Y655089D01*
X-1102272Y652895D01*
X-1103330Y650341D01*
X-1103690Y647600D01*
X-1103330Y644859D01*
X-1102272Y642305D01*
X-1100589Y640111D01*
X-1098395Y638428D01*
X-1095841Y637370D01*
X-1093100Y637009D01*
X-1091100D01*
X-1088359Y637370D01*
X-1085805Y638428D01*
X-1083611Y640111D01*
X-1081928Y642305D01*
X-1080870Y644859D01*
X-1080509Y647600D01*
X-1080870Y650341D01*
X-1081928Y652895D01*
X-1083611Y655089D01*
X-1085805Y656771D01*
X-1088359Y657830D01*
X-1091100Y658190D01*
D02*
G37*
G36*
X-1116500D02*
X-1118500D01*
X-1121241Y657830D01*
X-1123795Y656771D01*
X-1125989Y655089D01*
X-1127672Y652895D01*
X-1128730Y650341D01*
X-1129090Y647600D01*
X-1128730Y644859D01*
X-1127672Y642305D01*
X-1125989Y640111D01*
X-1123795Y638428D01*
X-1121241Y637370D01*
X-1118500Y637009D01*
X-1116500D01*
X-1113759Y637370D01*
X-1111205Y638428D01*
X-1109011Y640111D01*
X-1107328Y642305D01*
X-1106270Y644859D01*
X-1105909Y647600D01*
X-1106270Y650341D01*
X-1107328Y652895D01*
X-1109011Y655089D01*
X-1111205Y656771D01*
X-1113759Y657830D01*
X-1116500Y658190D01*
D02*
G37*
G36*
X-78881Y652900D02*
X-81119D01*
X-83281Y652321D01*
X-85219Y651202D01*
X-86802Y649619D01*
X-87921Y647681D01*
X-88500Y645519D01*
Y643281D01*
X-87921Y641119D01*
X-86802Y639181D01*
X-85219Y637598D01*
X-83281Y636479D01*
X-81119Y635900D01*
X-78881D01*
X-76719Y636479D01*
X-74781Y637598D01*
X-73198Y639181D01*
X-72079Y641119D01*
X-71500Y643281D01*
Y645519D01*
X-72079Y647681D01*
X-73198Y649619D01*
X-74781Y651202D01*
X-76719Y652321D01*
X-78881Y652900D01*
D02*
G37*
G36*
X-107130Y640236D02*
Y631970D01*
X-98864D01*
X-99510Y634382D01*
X-100766Y636558D01*
X-102542Y638334D01*
X-104718Y639590D01*
X-107130Y640236D01*
D02*
G37*
G36*
X-109670Y640236D02*
X-112082Y639590D01*
X-114258Y638334D01*
X-116034Y636558D01*
X-117290Y634382D01*
X-117936Y631970D01*
X-109670D01*
Y640236D01*
D02*
G37*
G36*
X-677263Y642400D02*
X-679633D01*
X-681922Y641786D01*
X-683974Y640602D01*
X-685650Y638926D01*
X-686834Y636874D01*
X-687448Y634585D01*
Y632215D01*
X-686834Y629926D01*
X-685650Y627874D01*
X-683974Y626198D01*
X-681922Y625013D01*
X-679633Y624400D01*
X-677263D01*
X-674974Y625013D01*
X-672922Y626198D01*
X-671246Y627874D01*
X-670061Y629926D01*
X-669448Y632215D01*
Y634585D01*
X-670061Y636874D01*
X-671246Y638926D01*
X-672922Y640602D01*
X-674974Y641786D01*
X-677263Y642400D01*
D02*
G37*
G36*
X-109670Y629430D02*
X-117936D01*
X-117290Y627018D01*
X-116034Y624842D01*
X-114258Y623066D01*
X-112082Y621810D01*
X-109670Y621164D01*
Y629430D01*
D02*
G37*
G36*
X-98864D02*
X-107130D01*
Y621164D01*
X-104718Y621810D01*
X-102542Y623066D01*
X-100766Y624842D01*
X-99510Y627018D01*
X-98864Y629430D01*
D02*
G37*
G36*
X-1281318Y640500D02*
X-1284082D01*
X-1286753Y639784D01*
X-1289147Y638402D01*
X-1291102Y636447D01*
X-1292484Y634053D01*
X-1293200Y631382D01*
Y628618D01*
X-1292484Y625947D01*
X-1291102Y623553D01*
X-1289147Y621598D01*
X-1286753Y620216D01*
X-1284082Y619500D01*
X-1281318D01*
X-1278647Y620216D01*
X-1276253Y621598D01*
X-1274298Y623553D01*
X-1272916Y625947D01*
X-1272200Y628618D01*
Y631382D01*
X-1272916Y634053D01*
X-1274298Y636447D01*
X-1276253Y638402D01*
X-1278647Y639784D01*
X-1281318Y640500D01*
D02*
G37*
G36*
X-353218Y640500D02*
X-355983D01*
X-358654Y639784D01*
X-361048Y638402D01*
X-363003Y636447D01*
X-364385Y634053D01*
X-365101Y631382D01*
Y628618D01*
X-364385Y625947D01*
X-363003Y623553D01*
X-361048Y621598D01*
X-358654Y620216D01*
X-355983Y619500D01*
X-353218D01*
X-350548Y620216D01*
X-348154Y621598D01*
X-346199Y623553D01*
X-344816Y625947D01*
X-344101Y628618D01*
Y631382D01*
X-344816Y634053D01*
X-346199Y636447D01*
X-348154Y638402D01*
X-350548Y639784D01*
X-353218Y640500D01*
D02*
G37*
G36*
X-481500Y632790D02*
X-483500D01*
X-486241Y632430D01*
X-488795Y631371D01*
X-490989Y629688D01*
X-492672Y627495D01*
X-493730Y624941D01*
X-494090Y622200D01*
X-493730Y619459D01*
X-492672Y616904D01*
X-490989Y614711D01*
X-488795Y613028D01*
X-486241Y611970D01*
X-483500Y611609D01*
X-481500D01*
X-478759Y611970D01*
X-476204Y613028D01*
X-474011Y614711D01*
X-472328Y616904D01*
X-471270Y619459D01*
X-470909Y622200D01*
X-471270Y624941D01*
X-472328Y627495D01*
X-474011Y629688D01*
X-476204Y631371D01*
X-478759Y632430D01*
X-481500Y632790D01*
D02*
G37*
G36*
X-506900D02*
X-508900D01*
X-511641Y632430D01*
X-514195Y631371D01*
X-516389Y629688D01*
X-518072Y627495D01*
X-519130Y624941D01*
X-519491Y622200D01*
X-519130Y619459D01*
X-518072Y616904D01*
X-516389Y614711D01*
X-514195Y613028D01*
X-511641Y611970D01*
X-508900Y611609D01*
X-506900D01*
X-504159Y611970D01*
X-501604Y613028D01*
X-499411Y614711D01*
X-497728Y616904D01*
X-496670Y619459D01*
X-496309Y622200D01*
X-496670Y624941D01*
X-497728Y627495D01*
X-499411Y629688D01*
X-501604Y631371D01*
X-504159Y632430D01*
X-506900Y632790D01*
D02*
G37*
G36*
X-1091100D02*
X-1093100D01*
X-1095841Y632430D01*
X-1098395Y631371D01*
X-1100589Y629688D01*
X-1102272Y627495D01*
X-1103330Y624941D01*
X-1103690Y622200D01*
X-1103330Y619459D01*
X-1102272Y616904D01*
X-1100589Y614711D01*
X-1098395Y613028D01*
X-1095841Y611970D01*
X-1093100Y611609D01*
X-1091100D01*
X-1088359Y611970D01*
X-1085805Y613028D01*
X-1083611Y614711D01*
X-1081928Y616904D01*
X-1080870Y619459D01*
X-1080509Y622200D01*
X-1080870Y624941D01*
X-1081928Y627495D01*
X-1083611Y629688D01*
X-1085805Y631371D01*
X-1088359Y632430D01*
X-1091100Y632790D01*
D02*
G37*
G36*
X-1116500D02*
X-1118500D01*
X-1121241Y632430D01*
X-1123795Y631371D01*
X-1125989Y629688D01*
X-1127672Y627495D01*
X-1128730Y624941D01*
X-1129090Y622200D01*
X-1128730Y619459D01*
X-1127672Y616904D01*
X-1125989Y614711D01*
X-1123795Y613028D01*
X-1121241Y611970D01*
X-1118500Y611609D01*
X-1116500D01*
X-1113759Y611970D01*
X-1111205Y613028D01*
X-1109011Y614711D01*
X-1107328Y616904D01*
X-1106270Y619459D01*
X-1105909Y622200D01*
X-1106270Y624941D01*
X-1107328Y627495D01*
X-1109011Y629688D01*
X-1111205Y631371D01*
X-1113759Y632430D01*
X-1116500Y632790D01*
D02*
G37*
G36*
X-107281Y611800D02*
X-109519D01*
X-111681Y611221D01*
X-113619Y610102D01*
X-115202Y608519D01*
X-116321Y606581D01*
X-116900Y604419D01*
Y602181D01*
X-116321Y600019D01*
X-115202Y598081D01*
X-113619Y596498D01*
X-111681Y595379D01*
X-109519Y594800D01*
X-107281D01*
X-105119Y595379D01*
X-103181Y596498D01*
X-101598Y598081D01*
X-100479Y600019D01*
X-99900Y602181D01*
Y604419D01*
X-100479Y606581D01*
X-101598Y608519D01*
X-103181Y610102D01*
X-105119Y611221D01*
X-107281Y611800D01*
D02*
G37*
G36*
X-1091100Y607390D02*
X-1093100D01*
X-1095841Y607029D01*
X-1098395Y605971D01*
X-1100589Y604288D01*
X-1102272Y602095D01*
X-1103330Y599541D01*
X-1103690Y596800D01*
X-1103330Y594059D01*
X-1102272Y591505D01*
X-1100589Y589311D01*
X-1098395Y587628D01*
X-1095841Y586570D01*
X-1093100Y586209D01*
X-1091100D01*
X-1088359Y586570D01*
X-1085805Y587628D01*
X-1083611Y589311D01*
X-1081928Y591505D01*
X-1080870Y594059D01*
X-1080509Y596800D01*
X-1080870Y599541D01*
X-1081928Y602095D01*
X-1083611Y604288D01*
X-1085805Y605971D01*
X-1088359Y607029D01*
X-1091100Y607390D01*
D02*
G37*
G36*
X-1116500D02*
X-1118500D01*
X-1121241Y607029D01*
X-1123795Y605971D01*
X-1125989Y604288D01*
X-1127672Y602095D01*
X-1128730Y599541D01*
X-1129090Y596800D01*
X-1128730Y594059D01*
X-1127672Y591505D01*
X-1125989Y589311D01*
X-1123795Y587628D01*
X-1121241Y586570D01*
X-1118500Y586209D01*
X-1116500D01*
X-1113759Y586570D01*
X-1111205Y587628D01*
X-1109011Y589311D01*
X-1107328Y591505D01*
X-1106270Y594059D01*
X-1105909Y596800D01*
X-1106270Y599541D01*
X-1107328Y602095D01*
X-1109011Y604288D01*
X-1111205Y605971D01*
X-1113759Y607029D01*
X-1116500Y607390D01*
D02*
G37*
G36*
X-1106000Y581900D02*
X-1129000D01*
Y560900D01*
X-1106000D01*
Y581900D01*
D02*
G37*
G36*
X-1091100Y581990D02*
X-1093100D01*
X-1095841Y581629D01*
X-1098395Y580572D01*
X-1100589Y578889D01*
X-1102272Y576695D01*
X-1103330Y574141D01*
X-1103690Y571400D01*
X-1103330Y568659D01*
X-1102272Y566105D01*
X-1100589Y563911D01*
X-1098395Y562228D01*
X-1095841Y561170D01*
X-1093100Y560809D01*
X-1091100D01*
X-1088359Y561170D01*
X-1085805Y562228D01*
X-1083611Y563911D01*
X-1081928Y566105D01*
X-1080870Y568659D01*
X-1080509Y571400D01*
X-1080870Y574141D01*
X-1081928Y576695D01*
X-1083611Y578889D01*
X-1085805Y580572D01*
X-1088359Y581629D01*
X-1091100Y581990D01*
D02*
G37*
G36*
X-353218Y570500D02*
X-355983D01*
X-358654Y569784D01*
X-361048Y568402D01*
X-363003Y566447D01*
X-364385Y564053D01*
X-365101Y561382D01*
Y558618D01*
X-364385Y555947D01*
X-363003Y553553D01*
X-361048Y551598D01*
X-358654Y550216D01*
X-355983Y549500D01*
X-353218D01*
X-350548Y550216D01*
X-348154Y551598D01*
X-346199Y553553D01*
X-344816Y555947D01*
X-344101Y558618D01*
Y561382D01*
X-344816Y564053D01*
X-346199Y566447D01*
X-348154Y568402D01*
X-350548Y569784D01*
X-353218Y570500D01*
D02*
G37*
G36*
X-1281318D02*
X-1284082D01*
X-1286753Y569784D01*
X-1289147Y568402D01*
X-1291102Y566447D01*
X-1292484Y564053D01*
X-1293200Y561382D01*
Y558618D01*
X-1292484Y555947D01*
X-1291102Y553553D01*
X-1289147Y551598D01*
X-1286753Y550216D01*
X-1284082Y549500D01*
X-1281318D01*
X-1278647Y550216D01*
X-1276253Y551598D01*
X-1274298Y553553D01*
X-1272916Y555947D01*
X-1272200Y558618D01*
Y561382D01*
X-1272916Y564053D01*
X-1274298Y566447D01*
X-1276253Y568402D01*
X-1278647Y569784D01*
X-1281318Y570500D01*
D02*
G37*
G36*
X-28125Y569031D02*
X-33875D01*
X-35484Y568711D01*
X-36849Y567799D01*
X-37761Y566435D01*
X-38081Y564825D01*
Y559575D01*
X-37761Y557966D01*
X-36849Y556601D01*
X-35484Y555689D01*
X-33875Y555369D01*
X-33824D01*
Y553555D01*
X-34259Y553375D01*
X-35877Y551757D01*
X-36752Y549644D01*
Y547356D01*
X-35877Y545243D01*
X-34259Y543625D01*
X-32146Y542750D01*
X-29859D01*
X-27745Y543625D01*
X-26128Y545243D01*
X-25252Y547356D01*
Y549644D01*
X-26128Y551757D01*
X-27745Y553375D01*
X-28176Y553553D01*
Y555369D01*
X-28125D01*
X-26516Y555689D01*
X-25151Y556601D01*
X-24239Y557966D01*
X-23919Y559575D01*
Y564825D01*
X-24239Y566435D01*
X-25151Y567799D01*
X-26516Y568711D01*
X-28125Y569031D01*
D02*
G37*
G36*
X-107281Y557000D02*
X-109519D01*
X-111681Y556421D01*
X-113619Y555302D01*
X-115202Y553719D01*
X-116321Y551781D01*
X-116900Y549619D01*
Y547381D01*
X-116321Y545219D01*
X-115202Y543281D01*
X-113619Y541698D01*
X-111681Y540579D01*
X-109519Y540000D01*
X-107281D01*
X-105119Y540579D01*
X-103181Y541698D01*
X-101598Y543281D01*
X-100479Y545219D01*
X-99900Y547381D01*
Y549619D01*
X-100479Y551781D01*
X-101598Y553719D01*
X-103181Y555302D01*
X-105119Y556421D01*
X-107281Y557000D01*
D02*
G37*
G36*
X-652040Y548991D02*
X-654410D01*
X-656699Y548378D01*
X-658751Y547193D01*
X-660427Y545518D01*
X-661611Y543465D01*
X-662225Y541176D01*
Y538806D01*
X-661611Y536517D01*
X-660427Y534465D01*
X-658751Y532790D01*
X-656699Y531605D01*
X-654410Y530991D01*
X-652040D01*
X-649751Y531605D01*
X-647699Y532790D01*
X-646023Y534465D01*
X-644838Y536517D01*
X-644225Y538806D01*
Y541176D01*
X-644838Y543465D01*
X-646023Y545518D01*
X-647699Y547193D01*
X-649751Y548378D01*
X-652040Y548991D01*
D02*
G37*
G36*
X-778157Y548990D02*
X-781843D01*
X-785404Y548036D01*
X-788596Y546193D01*
X-791203Y543586D01*
X-793046Y540394D01*
X-794000Y536833D01*
Y533147D01*
X-793046Y529586D01*
X-791203Y526394D01*
X-788596Y523787D01*
X-785404Y521944D01*
X-781843Y520990D01*
X-778157D01*
X-774596Y521944D01*
X-771404Y523787D01*
X-768797Y526394D01*
X-766954Y529586D01*
X-766000Y533147D01*
Y536833D01*
X-766954Y540394D01*
X-768797Y543586D01*
X-771404Y546193D01*
X-774596Y548036D01*
X-778157Y548990D01*
D02*
G37*
G36*
X-107281Y529600D02*
X-109519D01*
X-111681Y529021D01*
X-113619Y527902D01*
X-115202Y526319D01*
X-116321Y524381D01*
X-116900Y522219D01*
Y519981D01*
X-116321Y517819D01*
X-115202Y515881D01*
X-113619Y514298D01*
X-111681Y513179D01*
X-109519Y512600D01*
X-107281D01*
X-105119Y513179D01*
X-103181Y514298D01*
X-101598Y515881D01*
X-100479Y517819D01*
X-99900Y519981D01*
Y522219D01*
X-100479Y524381D01*
X-101598Y526319D01*
X-103181Y527902D01*
X-105119Y529021D01*
X-107281Y529600D01*
D02*
G37*
G36*
X-78881Y515900D02*
X-81119D01*
X-83281Y515321D01*
X-85219Y514202D01*
X-86802Y512619D01*
X-87921Y510681D01*
X-88500Y508519D01*
Y506281D01*
X-87921Y504119D01*
X-86802Y502181D01*
X-85219Y500598D01*
X-83281Y499479D01*
X-81119Y498900D01*
X-78881D01*
X-76719Y499479D01*
X-74781Y500598D01*
X-73198Y502181D01*
X-72079Y504119D01*
X-71500Y506281D01*
Y508519D01*
X-72079Y510681D01*
X-73198Y512619D01*
X-74781Y514202D01*
X-76719Y515321D01*
X-78881Y515900D01*
D02*
G37*
G36*
X-107281Y502200D02*
X-109519D01*
X-111681Y501621D01*
X-113619Y500502D01*
X-115202Y498919D01*
X-116321Y496981D01*
X-116900Y494819D01*
Y492581D01*
X-116321Y490419D01*
X-115202Y488481D01*
X-113619Y486898D01*
X-111681Y485779D01*
X-109519Y485200D01*
X-107281D01*
X-105119Y485779D01*
X-103181Y486898D01*
X-101598Y488481D01*
X-100479Y490419D01*
X-99900Y492581D01*
Y494819D01*
X-100479Y496981D01*
X-101598Y498919D01*
X-103181Y500502D01*
X-105119Y501621D01*
X-107281Y502200D01*
D02*
G37*
G36*
X-1281318Y500500D02*
X-1284082D01*
X-1286753Y499784D01*
X-1289147Y498402D01*
X-1291102Y496447D01*
X-1292484Y494053D01*
X-1293200Y491382D01*
Y488618D01*
X-1292484Y485947D01*
X-1291102Y483553D01*
X-1289147Y481598D01*
X-1286753Y480216D01*
X-1284082Y479500D01*
X-1281318D01*
X-1278647Y480216D01*
X-1276253Y481598D01*
X-1274298Y483553D01*
X-1272916Y485947D01*
X-1272200Y488618D01*
Y491382D01*
X-1272916Y494053D01*
X-1274298Y496447D01*
X-1276253Y498402D01*
X-1278647Y499784D01*
X-1281318Y500500D01*
D02*
G37*
G36*
X-353218Y500500D02*
X-355983D01*
X-358654Y499784D01*
X-361048Y498402D01*
X-363003Y496447D01*
X-364385Y494053D01*
X-365101Y491382D01*
Y488618D01*
X-364385Y485947D01*
X-363003Y483553D01*
X-361048Y481598D01*
X-358654Y480216D01*
X-355983Y479500D01*
X-353218D01*
X-350548Y480216D01*
X-348154Y481598D01*
X-346199Y483553D01*
X-344816Y485947D01*
X-344101Y488618D01*
Y491382D01*
X-344816Y494053D01*
X-346199Y496447D01*
X-348154Y498402D01*
X-350548Y499784D01*
X-353218Y500500D01*
D02*
G37*
G36*
X-78881Y488500D02*
X-81119D01*
X-83281Y487921D01*
X-85219Y486802D01*
X-86802Y485219D01*
X-87921Y483281D01*
X-88500Y481119D01*
Y478881D01*
X-87921Y476719D01*
X-86802Y474781D01*
X-85219Y473198D01*
X-83281Y472079D01*
X-81119Y471500D01*
X-78881D01*
X-76719Y472079D01*
X-74781Y473198D01*
X-73198Y474781D01*
X-72079Y476719D01*
X-71500Y478881D01*
Y481119D01*
X-72079Y483281D01*
X-73198Y485219D01*
X-74781Y486802D01*
X-76719Y487921D01*
X-78881Y488500D01*
D02*
G37*
G36*
X-799215Y483331D02*
X-801980D01*
X-804651Y482616D01*
X-807045Y481233D01*
X-809000Y479278D01*
X-810382Y476884D01*
X-811098Y474213D01*
Y471449D01*
X-810382Y468778D01*
X-809000Y466384D01*
X-807045Y464429D01*
X-804651Y463047D01*
X-801980Y462331D01*
X-799215D01*
X-796545Y463047D01*
X-794151Y464429D01*
X-792196Y466384D01*
X-790813Y468778D01*
X-790098Y471449D01*
Y474213D01*
X-790813Y476884D01*
X-792196Y479278D01*
X-794151Y481233D01*
X-796545Y482616D01*
X-799215Y483331D01*
D02*
G37*
G36*
X-815498D02*
X-836498D01*
Y462331D01*
X-815498D01*
Y483331D01*
D02*
G37*
G36*
X-107281Y474800D02*
X-109519D01*
X-111681Y474221D01*
X-113619Y473102D01*
X-115202Y471519D01*
X-116321Y469581D01*
X-116900Y467419D01*
Y465181D01*
X-116321Y463019D01*
X-115202Y461081D01*
X-113619Y459498D01*
X-111681Y458379D01*
X-109519Y457800D01*
X-107281D01*
X-105119Y458379D01*
X-103181Y459498D01*
X-101598Y461081D01*
X-100479Y463019D01*
X-99900Y465181D01*
Y467419D01*
X-100479Y469581D01*
X-101598Y471519D01*
X-103181Y473102D01*
X-105119Y474221D01*
X-107281Y474800D01*
D02*
G37*
G36*
X-629243Y495191D02*
X-634207D01*
X-639075Y494223D01*
X-643662Y492323D01*
X-647789Y489566D01*
X-651299Y486055D01*
X-654057Y481928D01*
X-655956Y477342D01*
X-656925Y472473D01*
Y467509D01*
X-655956Y462641D01*
X-654057Y458055D01*
X-651299Y453927D01*
X-647789Y450417D01*
X-643662Y447659D01*
X-639075Y445760D01*
X-634207Y444791D01*
X-629243D01*
X-624374Y445760D01*
X-619788Y447659D01*
X-615661Y450417D01*
X-612151Y453927D01*
X-609393Y458055D01*
X-607493Y462641D01*
X-606525Y467509D01*
Y472473D01*
X-607493Y477342D01*
X-609393Y481928D01*
X-612151Y486055D01*
X-615661Y489566D01*
X-619788Y492323D01*
X-624374Y494223D01*
X-629243Y495191D01*
D02*
G37*
G36*
X-1491469Y448615D02*
X-1494891D01*
X-1498248Y447947D01*
X-1501410Y446637D01*
X-1504256Y444736D01*
X-1506676Y442316D01*
X-1508578Y439470D01*
X-1509887Y436308D01*
X-1510555Y432951D01*
Y429529D01*
X-1509887Y426172D01*
X-1508578Y423010D01*
X-1506676Y420164D01*
X-1504256Y417744D01*
X-1501410Y415843D01*
X-1498248Y414533D01*
X-1494891Y413865D01*
X-1491469D01*
X-1488112Y414533D01*
X-1484950Y415843D01*
X-1482104Y417744D01*
X-1479684Y420164D01*
X-1477782Y423010D01*
X-1476473Y426172D01*
X-1475805Y429529D01*
Y432951D01*
X-1476473Y436308D01*
X-1477782Y439470D01*
X-1479684Y442316D01*
X-1482104Y444736D01*
X-1484950Y446637D01*
X-1488112Y447947D01*
X-1491469Y448615D01*
D02*
G37*
G36*
X-1281318Y430500D02*
X-1284082D01*
X-1286753Y429784D01*
X-1289147Y428402D01*
X-1291102Y426447D01*
X-1292484Y424053D01*
X-1293200Y421382D01*
Y418618D01*
X-1292484Y415947D01*
X-1291102Y413553D01*
X-1289147Y411598D01*
X-1286753Y410216D01*
X-1284082Y409500D01*
X-1281318D01*
X-1278647Y410216D01*
X-1276253Y411598D01*
X-1274298Y413553D01*
X-1272916Y415947D01*
X-1272200Y418618D01*
Y421382D01*
X-1272916Y424053D01*
X-1274298Y426447D01*
X-1276253Y428402D01*
X-1278647Y429784D01*
X-1281318Y430500D01*
D02*
G37*
G36*
X-353218Y430500D02*
X-355983D01*
X-358654Y429784D01*
X-361048Y428402D01*
X-363003Y426447D01*
X-364385Y424053D01*
X-365101Y421382D01*
Y418618D01*
X-364385Y415947D01*
X-363003Y413553D01*
X-361048Y411598D01*
X-358654Y410216D01*
X-355983Y409500D01*
X-353218D01*
X-350548Y410216D01*
X-348154Y411598D01*
X-346199Y413553D01*
X-344816Y415947D01*
X-344101Y418618D01*
Y421382D01*
X-344816Y424053D01*
X-346199Y426447D01*
X-348154Y428402D01*
X-350548Y429784D01*
X-353218Y430500D01*
D02*
G37*
G36*
X-1405109Y438455D02*
X-1408531D01*
X-1411888Y437787D01*
X-1415050Y436478D01*
X-1417896Y434576D01*
X-1420316Y432156D01*
X-1422218Y429310D01*
X-1423527Y426148D01*
X-1424195Y422791D01*
Y419369D01*
X-1423527Y416012D01*
X-1422218Y412850D01*
X-1420316Y410004D01*
X-1417896Y407584D01*
X-1415050Y405682D01*
X-1411888Y404373D01*
X-1408531Y403705D01*
X-1405109D01*
X-1401752Y404373D01*
X-1398590Y405682D01*
X-1395744Y407584D01*
X-1393324Y410004D01*
X-1391422Y412850D01*
X-1390113Y416012D01*
X-1389445Y419369D01*
Y422791D01*
X-1390113Y426148D01*
X-1391422Y429310D01*
X-1393324Y432156D01*
X-1395744Y434576D01*
X-1398590Y436478D01*
X-1401752Y437787D01*
X-1405109Y438455D01*
D02*
G37*
G36*
X-652040Y403991D02*
X-654410D01*
X-656699Y403378D01*
X-658751Y402193D01*
X-660427Y400518D01*
X-661611Y398465D01*
X-662225Y396176D01*
Y393807D01*
X-661611Y391518D01*
X-660427Y389465D01*
X-658751Y387790D01*
X-656699Y386605D01*
X-654410Y385991D01*
X-652040D01*
X-649751Y386605D01*
X-647699Y387790D01*
X-646023Y389465D01*
X-644838Y391518D01*
X-644225Y393807D01*
Y396176D01*
X-644838Y398465D01*
X-646023Y400518D01*
X-647699Y402193D01*
X-649751Y403378D01*
X-652040Y403991D01*
D02*
G37*
G36*
X-677040D02*
X-679410D01*
X-681699Y403378D01*
X-683751Y402193D01*
X-685427Y400518D01*
X-686611Y398465D01*
X-687225Y396176D01*
Y393807D01*
X-686611Y391518D01*
X-685427Y389465D01*
X-683751Y387790D01*
X-681699Y386605D01*
X-679410Y385991D01*
X-677040D01*
X-674751Y386605D01*
X-672699Y387790D01*
X-671023Y389465D01*
X-669838Y391518D01*
X-669225Y393807D01*
Y396176D01*
X-669838Y398465D01*
X-671023Y400518D01*
X-672699Y402193D01*
X-674751Y403378D01*
X-677040Y403991D01*
D02*
G37*
G36*
X-91762Y420350D02*
X-96638D01*
X-101419Y419399D01*
X-105924Y417533D01*
X-109977Y414825D01*
X-113425Y411377D01*
X-116133Y407323D01*
X-117999Y402819D01*
X-118950Y398038D01*
Y393162D01*
X-117999Y388381D01*
X-116133Y383876D01*
X-113425Y379823D01*
X-109977Y376375D01*
X-105924Y373667D01*
X-101419Y371801D01*
X-96638Y370850D01*
X-91762D01*
X-86981Y371801D01*
X-82477Y373667D01*
X-78423Y376375D01*
X-74975Y379823D01*
X-72267Y383876D01*
X-70401Y388381D01*
X-69450Y393162D01*
Y398038D01*
X-70401Y402819D01*
X-72267Y407323D01*
X-74975Y411377D01*
X-78423Y414825D01*
X-82477Y417533D01*
X-86981Y419399D01*
X-91762Y420350D01*
D02*
G37*
G36*
X-1430571Y394640D02*
X-1433869D01*
X-1437103Y393997D01*
X-1440149Y392735D01*
X-1442891Y390903D01*
X-1445223Y388571D01*
X-1447055Y385829D01*
X-1448317Y382783D01*
X-1448960Y379549D01*
Y376251D01*
X-1448317Y373017D01*
X-1447055Y369971D01*
X-1445223Y367229D01*
X-1442891Y364897D01*
X-1440149Y363065D01*
X-1437103Y361803D01*
X-1433869Y361160D01*
X-1430571D01*
X-1427337Y361803D01*
X-1424291Y363065D01*
X-1421549Y364897D01*
X-1419217Y367229D01*
X-1417385Y369971D01*
X-1416123Y373017D01*
X-1415480Y376251D01*
Y379549D01*
X-1416123Y382783D01*
X-1417385Y385829D01*
X-1419217Y388571D01*
X-1421549Y390903D01*
X-1424291Y392735D01*
X-1427337Y393997D01*
X-1430571Y394640D01*
D02*
G37*
G36*
X-1466131D02*
X-1469429D01*
X-1472663Y393997D01*
X-1475709Y392735D01*
X-1478451Y390903D01*
X-1480783Y388571D01*
X-1482615Y385829D01*
X-1483877Y382783D01*
X-1484520Y379549D01*
Y376251D01*
X-1483877Y373017D01*
X-1482615Y369971D01*
X-1480783Y367229D01*
X-1478451Y364897D01*
X-1475709Y363065D01*
X-1472663Y361803D01*
X-1469429Y361160D01*
X-1466131D01*
X-1462897Y361803D01*
X-1459851Y363065D01*
X-1457109Y364897D01*
X-1454777Y367229D01*
X-1452945Y369971D01*
X-1451683Y373017D01*
X-1451040Y376251D01*
Y379549D01*
X-1451683Y382783D01*
X-1452945Y385829D01*
X-1454777Y388571D01*
X-1457109Y390903D01*
X-1459851Y392735D01*
X-1462897Y393997D01*
X-1466131Y394640D01*
D02*
G37*
G36*
X-353218Y360500D02*
X-355983D01*
X-358654Y359784D01*
X-361048Y358402D01*
X-363003Y356447D01*
X-364385Y354053D01*
X-365101Y351382D01*
Y348618D01*
X-364385Y345947D01*
X-363003Y343553D01*
X-361048Y341598D01*
X-358654Y340216D01*
X-355983Y339500D01*
X-353218D01*
X-350548Y340216D01*
X-348154Y341598D01*
X-346199Y343553D01*
X-344816Y345947D01*
X-344101Y348618D01*
Y351382D01*
X-344816Y354053D01*
X-346199Y356447D01*
X-348154Y358402D01*
X-350548Y359784D01*
X-353218Y360500D01*
D02*
G37*
G36*
X-1281318D02*
X-1284082D01*
X-1286753Y359784D01*
X-1289147Y358402D01*
X-1291102Y356447D01*
X-1292484Y354053D01*
X-1293200Y351382D01*
Y348618D01*
X-1292484Y345947D01*
X-1291102Y343553D01*
X-1289147Y341598D01*
X-1286753Y340216D01*
X-1284082Y339500D01*
X-1281318D01*
X-1278647Y340216D01*
X-1276253Y341598D01*
X-1274298Y343553D01*
X-1272916Y345947D01*
X-1272200Y348618D01*
Y351382D01*
X-1272916Y354053D01*
X-1274298Y356447D01*
X-1276253Y358402D01*
X-1278647Y359784D01*
X-1281318Y360500D01*
D02*
G37*
G36*
Y290500D02*
X-1284082D01*
X-1286753Y289784D01*
X-1289147Y288402D01*
X-1291102Y286447D01*
X-1292484Y284053D01*
X-1293200Y281382D01*
Y278618D01*
X-1292484Y275947D01*
X-1291102Y273553D01*
X-1289147Y271598D01*
X-1286753Y270216D01*
X-1284082Y269500D01*
X-1281318D01*
X-1278647Y270216D01*
X-1276253Y271598D01*
X-1274298Y273553D01*
X-1272916Y275947D01*
X-1272200Y278618D01*
Y281382D01*
X-1272916Y284053D01*
X-1274298Y286447D01*
X-1276253Y288402D01*
X-1278647Y289784D01*
X-1281318Y290500D01*
D02*
G37*
G36*
X-353218Y290500D02*
X-355983D01*
X-358654Y289784D01*
X-361048Y288402D01*
X-363003Y286447D01*
X-364385Y284053D01*
X-365101Y281382D01*
Y278618D01*
X-364385Y275947D01*
X-363003Y273553D01*
X-361048Y271598D01*
X-358654Y270216D01*
X-355983Y269500D01*
X-353218D01*
X-350548Y270216D01*
X-348154Y271598D01*
X-346199Y273553D01*
X-344816Y275947D01*
X-344101Y278618D01*
Y281382D01*
X-344816Y284053D01*
X-346199Y286447D01*
X-348154Y288402D01*
X-350548Y289784D01*
X-353218Y290500D01*
D02*
G37*
G36*
X-353219Y220500D02*
X-355983D01*
X-358654Y219784D01*
X-361048Y218402D01*
X-363003Y216447D01*
X-364385Y214053D01*
X-365101Y211382D01*
Y208618D01*
X-364385Y205947D01*
X-363003Y203553D01*
X-361048Y201598D01*
X-358654Y200216D01*
X-355983Y199500D01*
X-353219D01*
X-350548Y200216D01*
X-348154Y201598D01*
X-346199Y203553D01*
X-344817Y205947D01*
X-344101Y208618D01*
Y211382D01*
X-344817Y214053D01*
X-346199Y216447D01*
X-348154Y218402D01*
X-350548Y219784D01*
X-353219Y220500D01*
D02*
G37*
G36*
X-1281318D02*
X-1284082D01*
X-1286753Y219784D01*
X-1289147Y218402D01*
X-1291102Y216447D01*
X-1292484Y214053D01*
X-1293200Y211382D01*
Y208618D01*
X-1292484Y205947D01*
X-1291102Y203553D01*
X-1289147Y201598D01*
X-1286753Y200216D01*
X-1284082Y199500D01*
X-1281318D01*
X-1278647Y200216D01*
X-1276253Y201598D01*
X-1274298Y203553D01*
X-1272916Y205947D01*
X-1272200Y208618D01*
Y211382D01*
X-1272916Y214053D01*
X-1274298Y216447D01*
X-1276253Y218402D01*
X-1278647Y219784D01*
X-1281318Y220500D01*
D02*
G37*
G36*
X-598157Y223974D02*
X-601843D01*
X-605404Y223020D01*
X-608596Y221176D01*
X-611203Y218570D01*
X-613046Y215377D01*
X-614000Y211817D01*
Y208130D01*
X-613046Y204570D01*
X-611203Y201377D01*
X-608596Y198771D01*
X-605404Y196928D01*
X-601843Y195974D01*
X-598157D01*
X-594596Y196928D01*
X-591404Y198771D01*
X-588797Y201377D01*
X-586954Y204570D01*
X-586000Y208130D01*
Y211817D01*
X-586954Y215377D01*
X-588797Y218570D01*
X-591404Y221176D01*
X-594596Y223020D01*
X-598157Y223974D01*
D02*
G37*
G36*
X-818625Y215811D02*
X-826875D01*
X-828094Y215569D01*
X-829128Y214878D01*
X-829819Y213844D01*
X-830061Y212625D01*
Y209375D01*
X-829819Y208156D01*
X-829128Y207122D01*
X-828094Y206431D01*
X-826875Y206189D01*
X-825574D01*
Y196304D01*
X-826007Y196125D01*
X-827625Y194507D01*
X-828500Y192394D01*
Y190106D01*
X-827625Y187993D01*
X-826007Y186375D01*
X-823894Y185500D01*
X-821606D01*
X-819493Y186375D01*
X-817875Y187993D01*
X-817000Y190106D01*
Y192394D01*
X-817875Y194507D01*
X-819493Y196125D01*
X-819926Y196304D01*
Y206189D01*
X-818625D01*
X-817406Y206431D01*
X-816372Y207122D01*
X-815681Y208156D01*
X-815439Y209375D01*
Y212625D01*
X-815681Y213844D01*
X-816372Y214878D01*
X-817406Y215569D01*
X-818625Y215811D01*
D02*
G37*
G36*
X-781270Y164891D02*
X-782625D01*
X-784640Y164490D01*
X-786349Y163349D01*
X-787490Y161640D01*
X-787701Y160578D01*
X-801710D01*
Y161040D01*
X-807480D01*
Y156500D01*
Y151960D01*
X-801710D01*
Y152422D01*
X-787602D01*
X-787490Y151860D01*
X-786349Y150151D01*
X-784640Y149010D01*
X-782625Y148609D01*
X-781270D01*
Y156750D01*
Y164891D01*
D02*
G37*
G36*
X-777375D02*
X-778730D01*
Y158020D01*
X-772109D01*
Y159625D01*
X-772510Y161640D01*
X-773651Y163349D01*
X-775360Y164490D01*
X-777375Y164891D01*
D02*
G37*
G36*
X-810020Y161040D02*
X-815790D01*
Y157770D01*
X-810020D01*
Y161040D01*
D02*
G37*
G36*
Y155230D02*
X-815790D01*
Y151960D01*
X-810020D01*
Y155230D01*
D02*
G37*
G36*
X-772109Y155480D02*
X-778730D01*
Y148609D01*
X-777375D01*
X-775360Y149010D01*
X-773651Y150151D01*
X-772510Y151860D01*
X-772109Y153875D01*
Y155480D01*
D02*
G37*
G36*
X-917500Y148078D02*
X-922500D01*
X-924061Y147768D01*
X-925384Y146884D01*
X-926268Y145561D01*
X-926289Y145455D01*
X-927674Y145001D01*
X-929481Y145750D01*
X-931769D01*
X-933882Y144875D01*
X-935500Y143257D01*
X-936375Y141144D01*
Y138856D01*
X-935500Y136743D01*
X-933882Y135125D01*
X-931769Y134250D01*
X-929481D01*
X-927368Y135125D01*
X-926690Y135803D01*
X-925426Y135679D01*
X-925384Y135616D01*
X-924061Y134732D01*
X-922500Y134422D01*
X-917500D01*
X-915939Y134732D01*
X-914616Y135616D01*
X-913732Y136939D01*
X-913422Y138500D01*
Y144000D01*
X-913732Y145561D01*
X-914616Y146884D01*
X-915939Y147768D01*
X-917500Y148078D01*
D02*
G37*
G36*
X-777375Y145831D02*
X-782625D01*
X-784234Y145511D01*
X-785599Y144599D01*
X-786511Y143235D01*
X-786831Y141625D01*
Y135875D01*
X-786511Y134265D01*
X-785599Y132901D01*
X-784234Y131989D01*
X-782625Y131669D01*
X-777375D01*
X-775766Y131989D01*
X-774401Y132901D01*
X-773489Y134265D01*
X-773169Y135875D01*
Y135926D01*
X-769574D01*
X-769363Y135418D01*
X-767746Y133800D01*
X-765632Y132925D01*
X-763345D01*
X-761231Y133800D01*
X-759614Y135418D01*
X-758738Y137531D01*
Y139819D01*
X-759614Y141932D01*
X-761231Y143549D01*
X-763345Y144425D01*
X-765632D01*
X-767746Y143549D01*
X-769363Y141932D01*
X-769511Y141574D01*
X-773169D01*
Y141625D01*
X-773489Y143235D01*
X-774401Y144599D01*
X-775766Y145511D01*
X-777375Y145831D01*
D02*
G37*
G36*
X-793125Y224811D02*
X-801375D01*
X-802594Y224569D01*
X-803628Y223878D01*
X-804319Y222844D01*
X-804561Y221625D01*
Y218375D01*
X-804319Y217156D01*
X-803628Y216122D01*
X-802594Y215431D01*
X-801375Y215189D01*
X-793125D01*
X-791906Y215431D01*
X-790872Y216122D01*
X-790181Y217156D01*
X-790177Y217176D01*
X-691170D01*
X-677424Y203430D01*
Y150500D01*
X-685100D01*
Y129500D01*
X-664100D01*
Y150500D01*
X-671776D01*
Y204600D01*
X-671776Y204600D01*
X-671991Y205681D01*
X-672603Y206597D01*
X-688003Y221997D01*
X-688919Y222609D01*
X-690000Y222824D01*
X-690000Y222824D01*
X-790177D01*
X-790181Y222844D01*
X-790872Y223878D01*
X-791906Y224569D01*
X-793125Y224811D01*
D02*
G37*
G36*
X-1281318Y150500D02*
X-1284082D01*
X-1286753Y149784D01*
X-1289147Y148402D01*
X-1291102Y146447D01*
X-1292484Y144053D01*
X-1293200Y141382D01*
Y138618D01*
X-1292484Y135947D01*
X-1291102Y133553D01*
X-1289147Y131598D01*
X-1286753Y130216D01*
X-1284082Y129500D01*
X-1281318D01*
X-1278647Y130216D01*
X-1276253Y131598D01*
X-1274298Y133553D01*
X-1272916Y135947D01*
X-1272200Y138618D01*
Y141382D01*
X-1272916Y144053D01*
X-1274298Y146447D01*
X-1276253Y148402D01*
X-1278647Y149784D01*
X-1281318Y150500D01*
D02*
G37*
G36*
X-353218Y150500D02*
X-355983D01*
X-358654Y149784D01*
X-361048Y148402D01*
X-363003Y146447D01*
X-364385Y144053D01*
X-365101Y141382D01*
Y138618D01*
X-364385Y135947D01*
X-363003Y133553D01*
X-361048Y131598D01*
X-358654Y130216D01*
X-355983Y129500D01*
X-353218D01*
X-350548Y130216D01*
X-348154Y131598D01*
X-346199Y133553D01*
X-344816Y135947D01*
X-344101Y138618D01*
Y141382D01*
X-344816Y144053D01*
X-346199Y146447D01*
X-348154Y148402D01*
X-350548Y149784D01*
X-353218Y150500D01*
D02*
G37*
G36*
X-872361Y128980D02*
X-878730D01*
Y122361D01*
X-877500D01*
X-875533Y122752D01*
X-873866Y123866D01*
X-872752Y125534D01*
X-872361Y127500D01*
Y128980D01*
D02*
G37*
G36*
X-881270D02*
X-887639D01*
Y127500D01*
X-887247Y125534D01*
X-886133Y123866D01*
X-884466Y122752D01*
X-882500Y122361D01*
X-881270D01*
Y128980D01*
D02*
G37*
G36*
X-673218Y99700D02*
X-675982D01*
X-678653Y98984D01*
X-681047Y97602D01*
X-683002Y95647D01*
X-684384Y93253D01*
X-685100Y90582D01*
Y87818D01*
X-684384Y85147D01*
X-683002Y82753D01*
X-681047Y80798D01*
X-678653Y79416D01*
X-675982Y78700D01*
X-673218D01*
X-670547Y79416D01*
X-668153Y80798D01*
X-666198Y82753D01*
X-664816Y85147D01*
X-664100Y87818D01*
Y90582D01*
X-664816Y93253D01*
X-666198Y95647D01*
X-668153Y97602D01*
X-670547Y98984D01*
X-673218Y99700D01*
D02*
G37*
G36*
X-1060356Y63032D02*
X-1157500D01*
Y37500D01*
X-1060356D01*
Y63032D01*
D02*
G37*
G36*
X-1210882Y59275D02*
X-1224040D01*
Y35960D01*
X-1210882D01*
Y59275D01*
D02*
G37*
G36*
X-1280913D02*
X-1454040D01*
Y35960D01*
X-1280913D01*
Y59275D01*
D02*
G37*
G36*
X-50000Y92862D02*
X-55595Y92495D01*
X-61094Y91401D01*
X-66403Y89599D01*
X-71431Y87119D01*
X-76093Y84004D01*
X-80308Y80308D01*
X-84004Y76093D01*
X-87119Y71431D01*
X-89599Y66403D01*
X-91401Y61094D01*
X-92495Y55595D01*
X-92862Y50000D01*
X-92495Y44405D01*
X-91401Y38907D01*
X-89599Y33598D01*
X-87119Y28569D01*
X-84004Y23907D01*
X-80308Y19692D01*
X-76093Y15996D01*
X-71431Y12881D01*
X-66403Y10401D01*
X-61094Y8599D01*
X-55595Y7505D01*
X-50000Y7138D01*
X-44405Y7505D01*
X-38907Y8599D01*
X-33598Y10401D01*
X-28569Y12881D01*
X-23907Y15996D01*
X-19692Y19692D01*
X-15996Y23907D01*
X-12881Y28569D01*
X-10401Y33598D01*
X-8599Y38907D01*
X-7505Y44405D01*
X-7138Y50000D01*
X-7505Y55595D01*
X-8599Y61094D01*
X-10401Y66403D01*
X-12881Y71431D01*
X-15996Y76093D01*
X-19692Y80308D01*
X-23907Y84004D01*
X-28569Y87119D01*
X-33598Y89599D01*
X-38907Y91401D01*
X-44405Y92495D01*
X-50000Y92862D01*
D02*
G37*
G36*
X-1550000D02*
X-1555595Y92495D01*
X-1561093Y91401D01*
X-1566402Y89599D01*
X-1571431Y87119D01*
X-1576093Y84004D01*
X-1580308Y80308D01*
X-1584005Y76093D01*
X-1587119Y71431D01*
X-1589599Y66403D01*
X-1591401Y61094D01*
X-1592495Y55595D01*
X-1592862Y50000D01*
X-1592495Y44405D01*
X-1591401Y38907D01*
X-1589599Y33598D01*
X-1587119Y28569D01*
X-1584005Y23907D01*
X-1580308Y19692D01*
X-1576093Y15996D01*
X-1571431Y12881D01*
X-1566402Y10401D01*
X-1561093Y8599D01*
X-1555595Y7505D01*
X-1550000Y7138D01*
X-1544405Y7505D01*
X-1538907Y8599D01*
X-1533598Y10401D01*
X-1528569Y12881D01*
X-1523907Y15996D01*
X-1519692Y19692D01*
X-1515995Y23907D01*
X-1512881Y28569D01*
X-1510401Y33598D01*
X-1508599Y38907D01*
X-1507505Y44405D01*
X-1507138Y50000D01*
X-1507505Y55595D01*
X-1508599Y61094D01*
X-1510401Y66403D01*
X-1512881Y71431D01*
X-1515995Y76093D01*
X-1519692Y80308D01*
X-1523907Y84004D01*
X-1528569Y87119D01*
X-1533598Y89599D01*
X-1538907Y91401D01*
X-1544405Y92495D01*
X-1550000Y92862D01*
D02*
G37*
%LPD*%
G36*
X-1107107Y47764D02*
X-1112111D01*
Y56527D01*
X-1124634D01*
Y47764D01*
X-1129639D01*
Y61532D01*
X-1107107D01*
Y47764D01*
D02*
G37*
G36*
X-1133468D02*
X-1146038D01*
X-1146179Y47787D01*
X-1146391Y47834D01*
X-1146602Y47928D01*
X-1146837Y48069D01*
X-1147048Y48281D01*
X-1147119Y48422D01*
X-1147189Y48609D01*
X-1147213Y48797D01*
X-1147236Y49009D01*
Y52768D01*
X-1133468D01*
Y47764D01*
D02*
G37*
G36*
X-1074378Y48375D02*
Y48351D01*
Y48327D01*
Y48187D01*
X-1074355Y47975D01*
X-1074308Y47693D01*
X-1074261Y47341D01*
X-1074167Y46965D01*
X-1074026Y46565D01*
X-1073861Y46166D01*
X-1073626Y45743D01*
X-1073345Y45367D01*
X-1072992Y44991D01*
X-1072569Y44662D01*
X-1072052Y44380D01*
X-1071465Y44169D01*
X-1071136Y44098D01*
X-1070784Y44051D01*
X-1070408Y44005D01*
X-1061855D01*
Y39000D01*
X-1072522D01*
X-1072663Y39023D01*
X-1072828D01*
X-1073016Y39047D01*
X-1073227Y39070D01*
X-1073462Y39118D01*
X-1073979Y39211D01*
X-1074590Y39376D01*
X-1075224Y39587D01*
X-1075859Y39869D01*
X-1076516Y40245D01*
X-1076845Y40457D01*
X-1077151Y40715D01*
X-1077456Y40974D01*
X-1077762Y41279D01*
X-1078020Y41585D01*
X-1078279Y41937D01*
X-1078513Y42336D01*
X-1078725Y42736D01*
X-1078913Y43182D01*
X-1079077Y43675D01*
X-1079218Y44192D01*
X-1079312Y44756D01*
X-1079359Y45344D01*
X-1079383Y45978D01*
Y61532D01*
X-1074378D01*
Y48375D01*
D02*
G37*
G36*
X-1089439Y61508D02*
X-1088640Y61438D01*
X-1087888Y61297D01*
X-1087207Y61132D01*
X-1086549Y60921D01*
X-1085961Y60662D01*
X-1085397Y60380D01*
X-1084881Y60075D01*
X-1084411Y59723D01*
X-1083988Y59370D01*
X-1083588Y58994D01*
X-1083236Y58571D01*
X-1082907Y58172D01*
X-1082625Y57749D01*
X-1082343Y57303D01*
X-1082132Y56880D01*
X-1081920Y56433D01*
X-1081732Y56010D01*
X-1081591Y55564D01*
X-1081450Y55165D01*
X-1081239Y54366D01*
X-1081168Y54013D01*
X-1081098Y53661D01*
X-1081051Y53355D01*
X-1081028Y53074D01*
X-1080981Y52815D01*
Y52604D01*
X-1080957Y52439D01*
Y52298D01*
Y52228D01*
Y52204D01*
Y39000D01*
X-1085961Y39000D01*
Y52204D01*
Y52604D01*
X-1086008Y52956D01*
X-1086079Y53309D01*
X-1086149Y53637D01*
X-1086361Y54201D01*
X-1086643Y54695D01*
X-1086972Y55118D01*
X-1087324Y55470D01*
X-1087723Y55752D01*
X-1088123Y55987D01*
X-1088522Y56175D01*
X-1088922Y56292D01*
X-1089274Y56386D01*
X-1089603Y56457D01*
X-1089885Y56504D01*
X-1090097Y56527D01*
X-1098484D01*
Y39000D01*
X-1103489D01*
Y61532D01*
X-1090285D01*
X-1089439Y61508D01*
D02*
G37*
G36*
X-1092117Y52745D02*
X-1091953Y52721D01*
X-1091765Y52651D01*
X-1091530Y52580D01*
X-1091295Y52463D01*
X-1091036Y52322D01*
X-1090801Y52157D01*
X-1090543Y51922D01*
X-1090331Y51640D01*
X-1090120Y51311D01*
X-1089956Y50912D01*
X-1089838Y50466D01*
X-1089744Y49949D01*
X-1089721Y49338D01*
Y39000D01*
X-1094725D01*
Y52768D01*
X-1092258D01*
X-1092117Y52745D01*
D02*
G37*
G36*
X-1115871Y39000D02*
X-1120875D01*
Y52768D01*
X-1115871D01*
Y39000D01*
D02*
G37*
G36*
X-1133468Y56527D02*
X-1150996D01*
Y56504D01*
Y56480D01*
Y56410D01*
Y56292D01*
Y56128D01*
Y55893D01*
Y55588D01*
Y55399D01*
Y55188D01*
Y54953D01*
Y54671D01*
Y54389D01*
Y54084D01*
Y53731D01*
Y53355D01*
Y52933D01*
Y52486D01*
Y51993D01*
Y51476D01*
Y50936D01*
Y50325D01*
Y49690D01*
Y49009D01*
Y48985D01*
Y48962D01*
Y48891D01*
Y48797D01*
X-1150972Y48539D01*
X-1150925Y48233D01*
X-1150831Y47834D01*
X-1150737Y47411D01*
X-1150573Y46965D01*
X-1150361Y46495D01*
X-1150103Y46025D01*
X-1149774Y45579D01*
X-1149374Y45156D01*
X-1148881Y44780D01*
X-1148599Y44615D01*
X-1148317Y44451D01*
X-1147988Y44333D01*
X-1147636Y44216D01*
X-1147260Y44122D01*
X-1146860Y44051D01*
X-1146438Y44028D01*
X-1145991Y44004D01*
X-1133468D01*
Y39000D01*
X-1146226D01*
X-1146414Y39023D01*
X-1146649Y39047D01*
X-1146907Y39070D01*
X-1147213Y39094D01*
X-1147565Y39165D01*
X-1147918Y39235D01*
X-1148317Y39305D01*
X-1149163Y39517D01*
X-1149609Y39681D01*
X-1150056Y39846D01*
X-1150526Y40034D01*
X-1150996Y40245D01*
X-1151466Y40504D01*
X-1151935Y40786D01*
X-1152382Y41091D01*
X-1152828Y41444D01*
X-1153275Y41819D01*
X-1153674Y42242D01*
X-1154073Y42712D01*
X-1154426Y43229D01*
X-1154778Y43769D01*
X-1155084Y44380D01*
X-1155342Y45015D01*
X-1155577Y45696D01*
X-1155742Y46448D01*
X-1155882Y47247D01*
X-1155976Y48093D01*
X-1156000Y49009D01*
Y61532D01*
X-1133468D01*
Y56527D01*
D02*
G37*
D13*
X-440000Y549999D02*
Y1091427D01*
X-444040Y484039D02*
Y1089753D01*
X-440000Y549999D02*
X-380001Y490000D01*
X-444040Y484039D02*
X-380001Y420000D01*
X-460269Y220268D02*
X-380001Y140000D01*
X-456160Y286159D02*
Y1084733D01*
X-452120Y352119D02*
Y1086407D01*
X-448080Y418079D02*
Y1088080D01*
X-435663Y615662D02*
Y1092803D01*
Y615662D02*
X-380001Y560000D01*
X-466148Y655927D02*
X-466057Y656019D01*
X-448080Y418079D02*
X-380001Y350000D01*
X-452120Y352119D02*
X-380001Y280000D01*
X-456160Y286159D02*
X-380001Y210000D01*
X-460269Y220268D02*
Y1083129D01*
X-466057Y656019D02*
Y859756D01*
X-467289Y651551D02*
X-466148Y652691D01*
Y655927D01*
X-550000Y1172860D02*
X-460269Y1083129D01*
X-537648Y749200D02*
X-507900D01*
X-653448Y633400D02*
X-537648Y749200D01*
X-780000Y980000D02*
X-750000Y1010000D01*
X-650000D02*
X-600000Y960000D01*
X-750000Y1010000D02*
X-650000D01*
X-654000Y845000D02*
X-600000Y899000D01*
Y960000D01*
X-560000Y860000D02*
Y867145D01*
X-520670Y906475D01*
X-549177Y830895D02*
X-548986Y831086D01*
Y852759D02*
X-512845Y888900D01*
X-549177Y826223D02*
Y830895D01*
X-512845Y888900D02*
X-502955D01*
X-548986Y831086D02*
Y852759D01*
X-550000Y825400D02*
X-549177Y826223D01*
X-482500Y876200D02*
X-466057Y859756D01*
X-502955Y888900D02*
X-495130Y896724D01*
Y897218D01*
X-493642Y898706D01*
X-485394D01*
X-482500Y901600D01*
X-520670Y906475D02*
Y906475D01*
X-496130Y913370D02*
X-482500Y927000D01*
X-513775Y913370D02*
X-496130D01*
X-520670Y906475D02*
X-513775Y913370D01*
X-486254Y575154D02*
Y581682D01*
X-535030Y585030D02*
X-489602D01*
X-486254Y575154D02*
X-482500Y571400D01*
X-489602Y585030D02*
X-486254Y581682D01*
X-610000Y660000D02*
X-535030Y585030D01*
X-794410Y1044410D02*
X-474951D01*
X-464309Y1033767D01*
X-810000Y1060000D02*
X-794410Y1044410D01*
X-810000Y1060000D02*
Y1210000D01*
X-31000Y548502D02*
Y562200D01*
X-31002Y562202D02*
X-31000Y562200D01*
X-31002Y548500D02*
X-31000Y548502D01*
X-49000Y534301D02*
X-41920Y527221D01*
X-49000Y534301D02*
Y562200D01*
X-80000D02*
X-49000D01*
X-80000Y565301D02*
X-79316D01*
X-80000Y562200D02*
Y565301D01*
X-89770Y558153D02*
Y566247D01*
X-80117Y575900D01*
X-79883D02*
X-70230Y585553D01*
X-80117Y575900D02*
X-79883D01*
X-70230Y585553D02*
Y585670D01*
X-68018Y587882D02*
Y605018D01*
X-70230Y585670D02*
X-68018Y587882D01*
X-80000Y617000D02*
X-68018Y605018D01*
X-96429Y573171D02*
X-80000Y589600D01*
X-96429Y555028D02*
Y573171D01*
Y555028D02*
X-88039Y546638D01*
X-78021D01*
X-45960Y364040D02*
Y522683D01*
X-82295Y550678D02*
X-73955D01*
X-45960Y522683D01*
X-41920Y362367D02*
Y527221D01*
X-354287Y50000D02*
X-41920Y362367D01*
X-78021Y546638D02*
X-50000Y518617D01*
X-64140Y345860D02*
X-45960Y364040D01*
X-50000Y365713D02*
Y518617D01*
X-890000Y50000D02*
X-354287D01*
X-357633Y58080D02*
X-50000Y365713D01*
X-1180000Y831345D02*
X-1121515Y889830D01*
X-780000Y138750D02*
X-764564D01*
X-764489Y138675D01*
X-900000Y159000D02*
Y188750D01*
Y150414D02*
Y159000D01*
X-900250Y158750D02*
X-900000Y159000D01*
X-920000Y158750D02*
X-900250D01*
X-920625Y140625D02*
X-920000Y141250D01*
X-930000Y140625D02*
X-920625D01*
X-842500Y159000D02*
X-840000Y156500D01*
X-880000Y159000D02*
X-842500D01*
X-840000Y156500D02*
X-831250D01*
X-867774Y139730D02*
X-858578Y148926D01*
X-835968D01*
X-889316Y139730D02*
X-867774D01*
X-898512Y148926D02*
X-898512D01*
X-889316Y139730D01*
X-890899Y187923D02*
X-890360Y188462D01*
X-880538D01*
X-900000Y188750D02*
X-877750Y211000D01*
X-900000Y150414D02*
X-898512Y148926D01*
X-880538Y188462D02*
X-880000Y189000D01*
X-877750Y211000D02*
X-850250D01*
X-880000Y159000D02*
Y171500D01*
Y147750D02*
Y159000D01*
X-1420000Y1030000D02*
X-1371019D01*
X-1051899Y901600D02*
X-1013498Y940000D01*
X-695400Y114600D02*
X-674600D01*
X-720000Y90000D02*
X-695400Y114600D01*
X-1108139Y889830D02*
X-1096369Y901600D01*
X-1121515Y889830D02*
X-1108139D01*
X-1096369Y901600D02*
X-1092100D01*
X-1150000Y879000D02*
Y892653D01*
X-1180000Y340000D02*
X-890000Y50000D01*
X-1180000Y340000D02*
Y831345D01*
X-674600Y114600D02*
X-618080Y58080D01*
X-355960Y54040D02*
X-64140Y345860D01*
X-774840Y54040D02*
X-355960D01*
X-810000Y89200D02*
X-774840Y54040D01*
X-618080Y58080D02*
X-357633D01*
X-89770Y558153D02*
X-82295Y550678D01*
X-818512Y260000D02*
X-480000D01*
X-466057Y273943D02*
Y580356D01*
X-480000Y260000D02*
X-466057Y273943D01*
X-822750Y229000D02*
X-821953D01*
X-820000Y230953D01*
Y258512D01*
X-818512Y260000D01*
X-482500Y596800D02*
X-466057Y580356D01*
X-690000Y220000D02*
X-674600Y204600D01*
Y140000D02*
Y204600D01*
X-797250Y220000D02*
X-690000D01*
X-808750Y90450D02*
Y143500D01*
X-810000Y89200D02*
X-808750Y90450D01*
X-835624Y149270D02*
X-831980D01*
X-835968Y148926D02*
X-835624Y149270D01*
X-831980D02*
X-831250Y150000D01*
X-822750Y191250D02*
Y211000D01*
X-850250Y211000D02*
X-832250Y229000D01*
X-822750D01*
X-849032Y140000D02*
X-845532Y143500D01*
X-831250D01*
X-850000Y140000D02*
X-849032D01*
X-930625Y140000D02*
X-930000Y140625D01*
X-880000Y147750D02*
X-880000Y147750D01*
X-530000Y828700D02*
X-507900Y850800D01*
X-530000Y800000D02*
Y828700D01*
X-550000Y800000D02*
X-530000D01*
X-530000Y800000D01*
X-1009707Y1071720D02*
X-947578Y1133849D01*
X-930619D01*
X-930000Y1133230D01*
X-940993Y1126695D02*
X-940958Y1126730D01*
X-949018Y1126695D02*
X-940993D01*
X-1057911Y1145739D02*
X-1055187D01*
X-1058515Y1146342D02*
X-1057911Y1145739D01*
X-1055187D02*
X-1054047Y1144598D01*
X-1095968Y1146342D02*
X-1058515D01*
X-530000Y1250000D02*
X-501488D01*
X-490000Y1261488D01*
X-645502Y1134498D02*
X-530000Y1250000D01*
X-490000Y1261488D02*
Y1280000D01*
X-464309Y995991D02*
Y1033767D01*
X-482500Y977800D02*
X-464309Y995991D01*
X-636766Y1160374D02*
X-574040Y1223100D01*
X-649542Y1136172D02*
X-530000Y1255713D01*
X-670000Y1160374D02*
X-636766D01*
X-662522Y1148729D02*
X-642697D01*
X-653606Y1132037D02*
X-649542Y1136102D01*
X-574040Y1223100D02*
Y1244040D01*
X-642697Y1148729D02*
X-570000Y1221427D01*
Y1280000D01*
X-649542Y1136102D02*
Y1136172D01*
X-530000Y1255713D02*
Y1260000D01*
X-645502Y1119146D02*
Y1134498D01*
X-610000Y1280000D02*
X-574040Y1244040D01*
X-1092100Y901600D02*
X-1051899D01*
X-1092100Y901600D02*
X-1092100Y901600D01*
X-380001Y210000D02*
X-380001D01*
X-427583Y747582D02*
X-380001Y700000D01*
X-431623Y681622D02*
Y1094477D01*
X-423543Y814605D02*
Y1097823D01*
Y814605D02*
X-380001Y771063D01*
X-427583Y747582D02*
Y1096150D01*
X-431623Y681622D02*
X-380001Y630000D01*
X-1469000Y1010000D02*
X-1449000Y1030000D01*
X-1420000D01*
X-1371019D02*
X-1340000Y998981D01*
Y702700D02*
Y998981D01*
X-450000Y1129994D02*
Y1188046D01*
X-530000Y1164287D02*
X-452120Y1086407D01*
X-480000Y1142854D02*
X-431623Y1094477D01*
X-520000Y1160000D02*
Y1188046D01*
X-460000Y1134280D02*
Y1188046D01*
X-480000Y1142854D02*
Y1188046D01*
X-450000Y1129994D02*
X-419503Y1099497D01*
Y879502D02*
Y1099497D01*
X-490000Y1147140D02*
Y1188046D01*
X-520000Y1160000D02*
X-448080Y1088080D01*
X-510000Y1155713D02*
X-444040Y1089753D01*
X-540000Y1168573D02*
Y1188046D01*
Y1168573D02*
X-456160Y1084733D01*
X-470000Y1138567D02*
X-427583Y1096150D01*
X-500000Y1151427D02*
Y1188046D01*
X-550000Y1172860D02*
Y1188046D01*
X-530000Y1164287D02*
Y1188046D01*
X-510000Y1155713D02*
Y1188046D01*
X-460000Y1134280D02*
X-423543Y1097823D01*
X-490000Y1147140D02*
X-435663Y1092803D01*
X-500000Y1151427D02*
X-440000Y1091427D01*
X-470000Y1138567D02*
Y1188046D01*
X-419503Y879502D02*
X-380001Y840000D01*
X-1237605Y1100000D02*
X-1021421D01*
X-943617Y1166377D02*
X-920913D01*
X-1013054Y1079800D02*
X-946104Y1146750D01*
X-1206379Y1079800D02*
X-1013054D01*
X-1019747Y1095960D02*
X-942727Y1172980D01*
X-1208052Y1083840D02*
X-1014727D01*
X-1011380Y1075760D02*
X-946890Y1140250D01*
X-1008033Y1067680D02*
X-949018Y1126695D01*
X-946890Y1140250D02*
X-920520D01*
X-1201558Y1071720D02*
X-1009707D01*
X-1195950Y1063640D02*
X-1006360D01*
X-1021421Y1100000D02*
X-941421Y1180000D01*
X-1225000Y1104040D02*
X-1023094D01*
X-1018074Y1091920D02*
X-943617Y1166377D01*
X-1211673Y1091920D02*
X-1018074D01*
X-1213347Y1095960D02*
X-1019747D01*
X-942727Y1172980D02*
X-930417D01*
X-941421Y1180000D02*
X-940000D01*
X-956890Y1113110D02*
X-941140D01*
X-1014727Y1083840D02*
X-945317Y1153250D01*
X-900000D01*
X-1006360Y1063640D02*
X-956890Y1113110D01*
X-1199400Y1067680D02*
X-1008033D01*
X-1016400Y1087880D02*
X-944010Y1160270D01*
X-1023094Y1104040D02*
X-950000Y1177134D01*
X-944010Y1160270D02*
X-910104D01*
X-1210000Y1087880D02*
X-1016400D01*
X-1204240Y1075760D02*
X-1011380D01*
X-946104Y1146750D02*
X-911017D01*
X-950000Y1177134D02*
Y1186270D01*
X-941140Y1113110D02*
X-940000Y1114250D01*
X-1081140Y1115390D02*
X-1078568Y1112818D01*
X-1077000D01*
X-1186766Y1220000D02*
X-1089198Y1122432D01*
X-1087870Y1115390D02*
X-1081140D01*
X-1181746Y1232120D02*
X-1095968Y1146342D01*
X-1183419Y1228080D02*
X-1093442Y1138103D01*
X-1185093Y1224040D02*
X-1090983Y1129931D01*
X-1307819Y1228080D02*
X-1183419D01*
X-1090983Y1129931D02*
X-1067635D01*
X-1306145Y1224040D02*
X-1185093D01*
X-1304472Y1220000D02*
X-1186766D01*
X-1188439Y1215960D02*
X-1087870Y1115390D01*
X-1300432Y1215960D02*
X-1188439D01*
X-1089198Y1122432D02*
X-1074251D01*
X-1093442Y1138103D02*
X-1061692D01*
X-1309492Y1232120D02*
X-1181746D01*
X-1318080Y1223532D02*
X-1309492Y1232120D01*
X-1318080Y200780D02*
Y1223532D01*
Y200780D02*
X-1257300Y140000D01*
X-1314040Y1221859D02*
X-1307819Y1228080D01*
X-1305960Y398660D02*
X-1257300Y350000D01*
X-1314040Y266740D02*
X-1257300Y210000D01*
X-1301920Y464620D02*
X-1257300Y420000D01*
X-1310000Y332700D02*
Y1220185D01*
Y332700D02*
X-1257300Y280000D01*
X-1314040Y266740D02*
Y1221859D01*
X-1301920Y464620D02*
Y1214472D01*
X-1305960Y398660D02*
Y1218512D01*
X-1310000Y1220185D02*
X-1306145Y1224040D01*
X-1301920Y1214472D02*
X-1300432Y1215960D01*
X-1305960Y1218512D02*
X-1304472Y1220000D01*
X-1061692Y1138103D02*
X-1061014Y1137425D01*
X-1209544Y1063734D02*
X-1201558Y1071720D01*
X-1257300Y1136340D02*
X-1225000Y1104040D01*
X-1225960Y1071920D02*
X-1210000Y1087880D01*
X-1200832Y1058758D02*
X-1195950Y1063640D01*
X-1257300Y1052007D02*
X-1213347Y1095960D01*
X-1230000Y1073593D02*
X-1211673Y1091920D01*
X-1204872Y1062208D02*
X-1199400Y1067680D01*
X-1221920Y1069972D02*
X-1208052Y1083840D01*
X-1217624Y1068555D02*
X-1206379Y1079800D01*
X-1213584Y1066416D02*
X-1204240Y1075760D01*
X-1257605Y1120000D02*
X-1237605Y1100000D01*
X-911017Y1146750D02*
X-910497Y1146230D01*
X-920913Y1166377D02*
X-920000Y1167290D01*
X-910104Y1160270D02*
X-910000Y1160374D01*
X-1257300Y1136340D02*
Y1190000D01*
X-1200832Y546468D02*
Y1058758D01*
X-1209544Y677756D02*
Y1063734D01*
X-1204872Y612428D02*
Y1062208D01*
X-1213584Y743716D02*
Y1066416D01*
X-1217624Y809676D02*
Y1068555D01*
X-1257300Y1050000D02*
Y1052007D01*
X-1221920Y875380D02*
Y1069972D01*
X-1225960Y941645D02*
Y1071920D01*
X-1230000Y1007300D02*
Y1073593D01*
X-1257300Y560000D02*
X-1204872Y612428D01*
X-1257605Y910000D02*
X-1225960Y941645D01*
X-1257300Y630000D02*
X-1209544Y677756D01*
X-1257300Y700000D02*
X-1213584Y743716D01*
X-1257300Y770000D02*
X-1217624Y809676D01*
X-1257300Y840000D02*
X-1221920Y875380D01*
X-1257300Y490000D02*
X-1200832Y546468D01*
X-920520Y1140250D02*
X-920000Y1139730D01*
X-1257300Y980000D02*
X-1230000Y1007300D01*
X-930417Y1172980D02*
X-930000Y1173397D01*
X-1220000Y40000D02*
X-1214922D01*
X-1217461D01*
Y55235D01*
X-1220000Y52696D01*
X-1450000Y40000D02*
X-1444922D01*
X-1447461D01*
Y55235D01*
X-1450000Y52696D01*
X-1437304D02*
X-1434765Y55235D01*
X-1429687D01*
X-1427147Y52696D01*
Y50157D01*
X-1429687Y47618D01*
X-1432226D01*
X-1429687D01*
X-1427147Y45078D01*
Y42539D01*
X-1429687Y40000D01*
X-1434765D01*
X-1437304Y42539D01*
X-1422069D02*
X-1419530Y40000D01*
X-1414451D01*
X-1411912Y42539D01*
Y52696D01*
X-1414451Y55235D01*
X-1419530D01*
X-1422069Y52696D01*
Y50157D01*
X-1419530Y47618D01*
X-1411912D01*
X-1406834Y40000D02*
X-1401756D01*
X-1404295D01*
Y55235D01*
X-1406834Y52696D01*
X-1394138Y40000D02*
Y42539D01*
X-1391599D01*
Y40000D01*
X-1394138D01*
X-1371286Y55235D02*
X-1381442D01*
Y47618D01*
X-1376364Y50157D01*
X-1373825D01*
X-1371286Y47618D01*
Y42539D01*
X-1373825Y40000D01*
X-1378903D01*
X-1381442Y42539D01*
X-1366207Y40000D02*
X-1361129D01*
X-1363668D01*
Y55235D01*
X-1366207Y52696D01*
X-1353511D02*
X-1350972Y55235D01*
X-1345894D01*
X-1343354Y52696D01*
Y42539D01*
X-1345894Y40000D01*
X-1350972D01*
X-1353511Y42539D01*
Y52696D01*
X-1338276D02*
X-1335737Y55235D01*
X-1330659D01*
X-1328119Y52696D01*
Y42539D01*
X-1330659Y40000D01*
X-1335737D01*
X-1338276Y42539D01*
Y52696D01*
X-1323041Y40000D02*
Y42539D01*
X-1320502D01*
Y40000D01*
X-1323041D01*
X-1310345Y52696D02*
X-1307806Y55235D01*
X-1302728D01*
X-1300188Y52696D01*
Y42539D01*
X-1302728Y40000D01*
X-1307806D01*
X-1310345Y42539D01*
Y52696D01*
X-1295110D02*
X-1292571Y55235D01*
X-1287493D01*
X-1284953Y52696D01*
Y42539D01*
X-1287493Y40000D01*
X-1292571D01*
X-1295110Y42539D01*
Y52696D01*
D14*
X-704000Y845000D02*
G03*
X-703448Y843271I4960J632D01*
G01*
X-1092100Y749200D02*
X-1040650Y800650D01*
X-703448Y635129D02*
X-697248Y641329D01*
X-703448Y776671D02*
X-697248Y770471D01*
Y641329D02*
Y770471D01*
X-704000Y845000D02*
Y845000D01*
X-703448Y843271D02*
Y843271D01*
X-703448Y776671D02*
Y778400D01*
X-704000Y845000D02*
Y845000D01*
X-703448Y843271D02*
X-703448Y778400D01*
X-704000Y845000D02*
Y846729D01*
X-697800Y852929D01*
X-704000Y937674D02*
Y990000D01*
Y937674D02*
X-697800Y931474D01*
Y852929D02*
Y931474D01*
X-703413Y541913D02*
Y547895D01*
X-703448Y547929D02*
X-703413Y547895D01*
X-703448Y547929D02*
Y635129D01*
X-703413Y541913D02*
X-701500Y540000D01*
Y538271D02*
X-695300Y532071D01*
Y402929D02*
Y532071D01*
X-701500Y538271D02*
Y540000D01*
X-808750Y156500D02*
X-780250D01*
X-780000Y156750D01*
X-974540Y734700D02*
X-971540Y731700D01*
X-974540Y734700D02*
Y739940D01*
X-1040650Y800650D02*
X-996300Y845000D01*
X-1040650Y800650D02*
X-1035250D01*
X-974540Y739940D01*
X-1010000Y858700D02*
Y880000D01*
Y858700D02*
X-996300Y845000D01*
X-704000D01*
X-700000Y396500D02*
Y398229D01*
X-695300Y402929D01*
X-701500Y395000D02*
X-700000Y396500D01*
X-1469000Y963320D02*
Y1010000D01*
Y963320D02*
X-1467780Y962100D01*
X-1451000Y1010000D02*
X-1437016D01*
X-1435997Y1008981D01*
X-1435050D01*
D19*
X-1469000Y1010000D02*
D03*
X-1451000D02*
D03*
X-49000Y562200D02*
D03*
X-31000D02*
D03*
D20*
X-808750Y156500D02*
D03*
Y143500D02*
D03*
X-831250D02*
D03*
Y150000D02*
D03*
Y156500D02*
D03*
D21*
X-920000Y141250D02*
D03*
Y158750D02*
D03*
X-880000Y147750D02*
D03*
Y130250D02*
D03*
Y171500D02*
D03*
Y189000D02*
D03*
D22*
X-1150000Y879000D02*
D03*
Y861000D02*
D03*
X-780000Y156750D02*
D03*
Y138750D02*
D03*
D23*
X-797250Y220000D02*
D03*
X-822750Y211000D02*
D03*
Y229000D02*
D03*
D24*
X-1117500Y876200D02*
D03*
Y850800D02*
D03*
Y825400D02*
D03*
Y774600D02*
D03*
Y749200D02*
D03*
Y723800D02*
D03*
Y698400D02*
D03*
Y673000D02*
D03*
Y647600D02*
D03*
Y977800D02*
D03*
Y1028600D02*
D03*
Y1003200D02*
D03*
Y622200D02*
D03*
Y596800D02*
D03*
Y901600D02*
D03*
Y952400D02*
D03*
Y927000D02*
D03*
Y800000D02*
D03*
X-1092100D02*
D03*
Y927000D02*
D03*
Y952400D02*
D03*
Y901600D02*
D03*
Y596800D02*
D03*
Y622200D02*
D03*
Y1003200D02*
D03*
Y1028600D02*
D03*
Y977800D02*
D03*
Y647600D02*
D03*
Y673000D02*
D03*
Y698400D02*
D03*
Y723800D02*
D03*
Y749200D02*
D03*
Y774600D02*
D03*
Y825400D02*
D03*
Y850800D02*
D03*
Y876200D02*
D03*
Y571400D02*
D03*
X-482500D02*
D03*
Y876200D02*
D03*
Y850800D02*
D03*
Y825400D02*
D03*
Y774600D02*
D03*
Y749200D02*
D03*
Y723800D02*
D03*
Y698400D02*
D03*
Y673000D02*
D03*
Y647600D02*
D03*
Y977800D02*
D03*
Y1028600D02*
D03*
Y1003200D02*
D03*
Y622200D02*
D03*
Y596800D02*
D03*
Y901600D02*
D03*
Y952400D02*
D03*
Y927000D02*
D03*
Y800000D02*
D03*
X-507900D02*
D03*
Y927000D02*
D03*
Y952400D02*
D03*
Y901600D02*
D03*
Y596800D02*
D03*
Y622200D02*
D03*
Y1003200D02*
D03*
Y1028600D02*
D03*
Y977800D02*
D03*
Y647600D02*
D03*
Y673000D02*
D03*
Y698400D02*
D03*
Y723800D02*
D03*
Y749200D02*
D03*
Y774600D02*
D03*
Y825400D02*
D03*
Y850800D02*
D03*
Y876200D02*
D03*
D25*
X-1117500Y571400D02*
D03*
X-507900D02*
D03*
D26*
X-94200Y395600D02*
D03*
Y728800D02*
D03*
D27*
X-80000Y480000D02*
D03*
Y507400D02*
D03*
Y534800D02*
D03*
Y562200D02*
D03*
Y589600D02*
D03*
Y617000D02*
D03*
Y644400D02*
D03*
X-108400Y466300D02*
D03*
Y493700D02*
D03*
Y521100D02*
D03*
Y548500D02*
D03*
Y575900D02*
D03*
Y603300D02*
D03*
Y630700D02*
D03*
D28*
Y658100D02*
D03*
D29*
X-704000Y845000D02*
D03*
X-679000D02*
D03*
X-654000D02*
D03*
X-704000Y990000D02*
D03*
X-654000D02*
D03*
X-703225Y394991D02*
D03*
X-678225D02*
D03*
X-653225D02*
D03*
X-703225Y539991D02*
D03*
X-653225D02*
D03*
X-703448Y633400D02*
D03*
X-678448D02*
D03*
X-653448D02*
D03*
X-703448Y778400D02*
D03*
X-653448D02*
D03*
D30*
X-725500Y920000D02*
D03*
X-632500D02*
D03*
X-724725Y469991D02*
D03*
X-631725D02*
D03*
X-724948Y708400D02*
D03*
X-631948D02*
D03*
D31*
X-800598Y472831D02*
D03*
Y701135D02*
D03*
Y923431D02*
D03*
X-380001Y140000D02*
D03*
X-354601D02*
D03*
X-380001Y210000D02*
D03*
X-354601D02*
D03*
X-380001Y280000D02*
D03*
X-354601D02*
D03*
X-380001Y350000D02*
D03*
X-354601D02*
D03*
X-380001Y420000D02*
D03*
X-354601D02*
D03*
X-380001Y490000D02*
D03*
X-354601D02*
D03*
X-380001Y560000D02*
D03*
X-354601D02*
D03*
X-380001Y630000D02*
D03*
X-354601D02*
D03*
X-380001Y700000D02*
D03*
X-354601D02*
D03*
Y771063D02*
D03*
X-380001D02*
D03*
X-380001Y840000D02*
D03*
X-354601D02*
D03*
X-380001Y910000D02*
D03*
X-354601D02*
D03*
X-380001Y980000D02*
D03*
X-354601D02*
D03*
X-380001Y1050000D02*
D03*
X-354601D02*
D03*
X-380001Y1120000D02*
D03*
X-354601D02*
D03*
X-380001Y1188046D02*
D03*
X-354601D02*
D03*
X-1283005Y1120000D02*
D03*
X-1257605D02*
D03*
X-1282700Y140000D02*
D03*
X-1257300D02*
D03*
X-1282700Y210000D02*
D03*
X-1257300D02*
D03*
X-1282700Y280000D02*
D03*
X-1257300D02*
D03*
X-1282700Y350000D02*
D03*
X-1257300D02*
D03*
X-1282700Y420000D02*
D03*
X-1257300D02*
D03*
X-1282700Y490000D02*
D03*
X-1257300D02*
D03*
X-1282700Y560000D02*
D03*
X-1257300D02*
D03*
X-1282700Y630000D02*
D03*
X-1257300D02*
D03*
X-1282700Y700000D02*
D03*
X-1257300D02*
D03*
X-1282700Y770000D02*
D03*
X-1257300D02*
D03*
X-1282700Y840000D02*
D03*
X-1257300D02*
D03*
X-1283005Y910000D02*
D03*
X-1257605D02*
D03*
X-1282700Y980000D02*
D03*
X-1257300D02*
D03*
X-1282700Y1050000D02*
D03*
X-1257300D02*
D03*
X-1282700Y1190000D02*
D03*
X-1257300D02*
D03*
X-674600Y114600D02*
D03*
Y89200D02*
D03*
D32*
X-825998Y472831D02*
D03*
Y701135D02*
D03*
Y923431D02*
D03*
D33*
X-996940Y680900D02*
D03*
Y731700D02*
D03*
X-971540Y680900D02*
D03*
D34*
Y731700D02*
D03*
D35*
X-1493180Y908760D02*
D03*
Y431240D02*
D03*
X-1406820Y918920D02*
D03*
Y421080D02*
D03*
D36*
X-1432220Y377900D02*
D03*
X-1467780Y962100D02*
D03*
Y377900D02*
D03*
D37*
X-780000Y534990D02*
D03*
Y774541D02*
D03*
X-780000Y980000D02*
D03*
X-1400000Y1030000D02*
D03*
X-550000Y800000D02*
D03*
X-1009067Y938393D02*
D03*
X-1010000Y880000D02*
D03*
X-720000Y90000D02*
D03*
X-810000Y89200D02*
D03*
X-490000Y1270000D02*
D03*
X-530000D02*
D03*
X-570000D02*
D03*
X-810000D02*
D03*
X-940000D02*
D03*
X-980000D02*
D03*
X-1022287D02*
D03*
X-1063341D02*
D03*
X-611407D02*
D03*
X-106500Y1123262D02*
D03*
X-780000Y1110000D02*
D03*
X-106500Y1060000D02*
D03*
X-600000Y209974D02*
D03*
X-1540000Y1050000D02*
D03*
X-106500Y992039D02*
D03*
D38*
X-177120Y1164160D02*
D03*
Y1223460D02*
D03*
D39*
X-223620Y1190960D02*
D03*
D40*
X-674600Y140000D02*
D03*
D41*
X-1550000Y1250000D02*
D03*
X-50000Y50000D02*
D03*
X-1550000D02*
D03*
X-50000Y1250000D02*
D03*
D42*
X-467289Y651551D02*
D03*
X-1077000Y1192000D02*
D03*
X-560000Y860000D02*
D03*
X-550000Y825400D02*
D03*
X-610000Y660000D02*
D03*
X-31002Y548500D02*
D03*
X-764489Y138675D02*
D03*
X-890899Y187923D02*
D03*
X-1150000Y892653D02*
D03*
X-99591Y195119D02*
D03*
X-99321Y182422D02*
D03*
X-150856Y642992D02*
D03*
X-97902Y944944D02*
D03*
X-97092Y855249D02*
D03*
Y868017D02*
D03*
X-97632Y932246D02*
D03*
Y906116D02*
D03*
Y919766D02*
D03*
X-97092Y880716D02*
D03*
X-97632Y892802D02*
D03*
X-822750Y191250D02*
D03*
X-850000Y140000D02*
D03*
X-930625Y140000D02*
D03*
X-645502Y1119146D02*
D03*
X-653686Y1131101D02*
D03*
X-662522Y1148729D02*
D03*
X-670000Y1160374D02*
D03*
X-940958Y1126730D02*
D03*
X-810000Y1210000D02*
D03*
X-98781Y105424D02*
D03*
Y130892D02*
D03*
Y118192D02*
D03*
X-99321Y169942D02*
D03*
Y156292D02*
D03*
X-640000Y1200000D02*
D03*
X-1340000Y702700D02*
D03*
X-1435050Y1008981D02*
D03*
X-99321Y142977D02*
D03*
X-1501561Y105933D02*
D03*
Y118701D02*
D03*
Y131401D02*
D03*
X-1501020Y143486D02*
D03*
Y156801D02*
D03*
Y170451D02*
D03*
Y182931D02*
D03*
X-1500750Y195629D02*
D03*
X-1499689Y1195178D02*
D03*
X-1499959Y1182480D02*
D03*
Y1170000D02*
D03*
Y1156350D02*
D03*
Y1143035D02*
D03*
X-1500500Y1130950D02*
D03*
Y1118250D02*
D03*
Y1105482D02*
D03*
X-450000Y1188046D02*
D03*
X-460000D02*
D03*
X-470000D02*
D03*
X-480000D02*
D03*
X-490000D02*
D03*
X-500000D02*
D03*
X-510000D02*
D03*
X-520000D02*
D03*
X-530000D02*
D03*
X-540000D02*
D03*
X-550000D02*
D03*
X-148477Y992039D02*
D03*
X-940000Y1114250D02*
D03*
X-1054047Y1144598D02*
D03*
X-1077000Y1112818D02*
D03*
X-1061014Y1137425D02*
D03*
X-1074251Y1122432D02*
D03*
X-1067635Y1129931D02*
D03*
X-920000Y1139730D02*
D03*
X-910497Y1146230D02*
D03*
X-930000Y1133230D02*
D03*
X-910000Y1160374D02*
D03*
X-920000Y1167290D02*
D03*
X-900000Y1153250D02*
D03*
X-950000Y1186270D02*
D03*
X-940000Y1180000D02*
D03*
X-930000Y1173397D02*
D03*
M02*
