G04*
G04 #@! TF.GenerationSoftware,Altium Limited,Altium Designer,22.7.1 (60)*
G04*
G04 Layer_Color=2752767*
%FSLAX44Y44*%
%MOMM*%
G71*
G04*
G04 #@! TF.SameCoordinates,B875D083-2DC7-4D9C-95C5-8495ED73C8DD*
G04*
G04*
G04 #@! TF.FilePolarity,Positive*
G04*
G01*
G75*
%ADD13C,0.2540*%
%ADD50C,0.1524*%
%ADD51C,0.3810*%
%ADD52C,0.4064*%
%ADD53C,0.3556*%
D13*
X1535691Y1117913D02*
G03*
X1535691Y1117913I-8467J0D01*
G01*
X1532305Y1079813D02*
G03*
X1532305Y1079813I-5080J0D01*
G01*
X1535691D02*
G03*
X1535691Y1079813I-8467J0D01*
G01*
X1527225Y1303333D02*
X1532305Y1313493D01*
X1522145D02*
X1532305D01*
X1522145D02*
X1527225Y1303333D01*
Y1299946D02*
X1535691Y1316879D01*
X1518758D02*
X1535691D01*
X1518758D02*
X1527225Y1299946D01*
X1518758Y1261846D02*
Y1266079D01*
X1522991Y1270313D01*
X1518758Y1274546D02*
X1522991Y1270313D01*
X1518758Y1274546D02*
Y1278780D01*
X1522991D01*
X1527225Y1274546D01*
X1531458Y1278780D01*
X1535691D01*
Y1274546D02*
Y1278780D01*
X1531458Y1270313D02*
X1535691Y1274546D01*
X1531458Y1270313D02*
X1535691Y1266079D01*
Y1261846D02*
Y1266079D01*
X1531458Y1261846D02*
X1535691D01*
X1527225Y1266079D02*
X1531458Y1261846D01*
X1522991D02*
X1527225Y1266079D01*
X1518758Y1261846D02*
X1522991D01*
X1524685Y1229673D02*
X1527225Y1227133D01*
X1522145Y1229673D02*
X1524685D01*
X1522145D02*
X1524685Y1232213D01*
X1522145Y1234753D02*
X1524685Y1232213D01*
X1522145Y1234753D02*
X1524685D01*
X1527225Y1237293D01*
X1529765Y1234753D01*
X1532305D01*
X1529765Y1232213D02*
X1532305Y1234753D01*
X1529765Y1232213D02*
X1532305Y1229673D01*
X1529765D02*
X1532305D01*
X1527225Y1227133D02*
X1529765Y1229673D01*
X1522991Y1227980D02*
X1527225Y1223746D01*
X1518758Y1227980D02*
X1522991D01*
X1518758D02*
X1522991Y1232213D01*
X1518758Y1236446D02*
X1522991Y1232213D01*
X1518758Y1236446D02*
X1522991D01*
X1527225Y1240679D01*
X1531458Y1236446D01*
X1535691D01*
X1531458Y1232213D02*
X1535691Y1236446D01*
X1531458Y1232213D02*
X1535691Y1227980D01*
X1531458D02*
X1535691D01*
X1527225Y1223746D02*
X1531458Y1227980D01*
X1518758Y1185646D02*
X1527225Y1189880D01*
X1535691Y1185646D01*
X1531458Y1194113D02*
X1535691Y1185646D01*
X1531458Y1194113D02*
X1535691Y1202579D01*
X1527225Y1198346D02*
X1535691Y1202579D01*
X1518758D02*
X1527225Y1198346D01*
X1518758Y1202579D02*
X1522991Y1194113D01*
X1518758Y1185646D02*
X1522991Y1194113D01*
X1518758Y1147546D02*
X1535691D01*
Y1164480D01*
X1518758D02*
X1535691D01*
X1518758Y1147546D02*
Y1164480D01*
X1522145Y1036633D02*
X1532305D01*
Y1046793D01*
X1522145D02*
X1532305D01*
X1522145Y1036633D02*
Y1046793D01*
X1518758Y1033246D02*
X1535691D01*
Y1050180D01*
X1518758D02*
X1535691D01*
X1518758Y1033246D02*
Y1050180D01*
X1522991Y999380D02*
X1527225Y995146D01*
X1518758Y999380D02*
X1522991D01*
X1518758D02*
X1522991Y1003613D01*
X1518758Y1007846D02*
X1522991Y1003613D01*
X1518758Y1007846D02*
X1522991D01*
X1527225Y1012079D01*
X1531458Y1007846D01*
X1535691D01*
X1531458Y1003613D02*
X1535691Y1007846D01*
X1531458Y1003613D02*
X1535691Y999380D01*
X1531458D02*
X1535691D01*
X1527225Y995146D02*
X1531458Y999380D01*
X1518758Y961280D02*
X1522991D01*
X1518758D02*
Y969746D01*
X1522991D01*
Y973979D01*
X1531458D01*
Y969746D02*
Y973979D01*
Y969746D02*
X1535691D01*
Y961280D02*
Y969746D01*
X1531458Y961280D02*
X1535691D01*
X1531458Y957046D02*
Y961280D01*
X1522991Y957046D02*
X1531458D01*
X1522991D02*
Y961280D01*
X1518758Y927413D02*
X1527225Y918946D01*
X1535691Y927413D01*
X1527225Y935880D02*
X1535691Y927413D01*
X1518758D02*
X1527225Y935880D01*
X2116575Y1315181D02*
X2126732D01*
X2121653D01*
Y1299946D01*
X2134349D02*
X2139428D01*
X2141967Y1302485D01*
Y1307564D01*
X2139428Y1310103D01*
X2134349D01*
X2131810Y1307564D01*
Y1302485D01*
X2134349Y1299946D01*
X2147045Y1294868D02*
Y1310103D01*
X2154663D01*
X2157202Y1307564D01*
Y1302485D01*
X2154663Y1299946D01*
X2147045D01*
X2177515Y1315181D02*
Y1299946D01*
X2187672D01*
X2195289Y1310103D02*
X2200368D01*
X2202907Y1307564D01*
Y1299946D01*
X2195289D01*
X2192750Y1302485D01*
X2195289Y1305025D01*
X2202907D01*
X2207985Y1310103D02*
Y1302485D01*
X2210525Y1299946D01*
X2218142D01*
Y1297407D01*
X2215603Y1294868D01*
X2213064D01*
X2218142Y1299946D02*
Y1310103D01*
X2230838Y1299946D02*
X2225760D01*
X2223221Y1302485D01*
Y1307564D01*
X2225760Y1310103D01*
X2230838D01*
X2233377Y1307564D01*
Y1305025D01*
X2223221D01*
X2238456Y1310103D02*
Y1299946D01*
Y1305025D01*
X2240995Y1307564D01*
X2243534Y1310103D01*
X2246073D01*
X2268926Y1307564D02*
X2279082D01*
X2299396Y1315181D02*
Y1299946D01*
X2307013D01*
X2309553Y1302485D01*
Y1305025D01*
X2307013Y1307564D01*
X2299396D01*
X2307013D01*
X2309553Y1310103D01*
Y1312642D01*
X2307013Y1315181D01*
X2299396D01*
X2317170Y1299946D02*
X2322249D01*
X2324788Y1302485D01*
Y1307564D01*
X2322249Y1310103D01*
X2317170D01*
X2314631Y1307564D01*
Y1302485D01*
X2317170Y1299946D01*
X2332405Y1312642D02*
Y1310103D01*
X2329866D01*
X2334944D01*
X2332405D01*
Y1302485D01*
X2334944Y1299946D01*
X2345101Y1312642D02*
Y1310103D01*
X2342562D01*
X2347640D01*
X2345101D01*
Y1302485D01*
X2347640Y1299946D01*
X2357797D02*
X2362875D01*
X2365414Y1302485D01*
Y1307564D01*
X2362875Y1310103D01*
X2357797D01*
X2355258Y1307564D01*
Y1302485D01*
X2357797Y1299946D01*
X2370493D02*
Y1310103D01*
X2373032D01*
X2375571Y1307564D01*
Y1299946D01*
Y1307564D01*
X2378110Y1310103D01*
X2380650Y1307564D01*
Y1299946D01*
X2400963Y1315181D02*
Y1299946D01*
X2411120D01*
X2418737Y1310103D02*
X2423816D01*
X2426355Y1307564D01*
Y1299946D01*
X2418737D01*
X2416198Y1302485D01*
X2418737Y1305025D01*
X2426355D01*
X2431433Y1310103D02*
Y1302485D01*
X2433972Y1299946D01*
X2441590D01*
Y1297407D01*
X2439051Y1294868D01*
X2436512D01*
X2441590Y1299946D02*
Y1310103D01*
X2454286Y1299946D02*
X2449207D01*
X2446668Y1302485D01*
Y1307564D01*
X2449207Y1310103D01*
X2454286D01*
X2456825Y1307564D01*
Y1305025D01*
X2446668D01*
X2461903Y1310103D02*
Y1299946D01*
Y1305025D01*
X2464442Y1307564D01*
X2466982Y1310103D01*
X2469521D01*
X2116575Y1277081D02*
X2126732D01*
X2121653D01*
Y1261846D01*
X2134349D02*
X2139428D01*
X2141967Y1264385D01*
Y1269464D01*
X2139428Y1272003D01*
X2134349D01*
X2131810Y1269464D01*
Y1264385D01*
X2134349Y1261846D01*
X2147045Y1256768D02*
Y1272003D01*
X2154663D01*
X2157202Y1269464D01*
Y1264385D01*
X2154663Y1261846D01*
X2147045D01*
X2177515Y1277081D02*
Y1261846D01*
X2187672D01*
X2195289Y1272003D02*
X2200368D01*
X2202907Y1269464D01*
Y1261846D01*
X2195289D01*
X2192750Y1264385D01*
X2195289Y1266925D01*
X2202907D01*
X2207985Y1272003D02*
Y1264385D01*
X2210525Y1261846D01*
X2218142D01*
Y1259307D01*
X2215603Y1256768D01*
X2213064D01*
X2218142Y1261846D02*
Y1272003D01*
X2230838Y1261846D02*
X2225760D01*
X2223221Y1264385D01*
Y1269464D01*
X2225760Y1272003D01*
X2230838D01*
X2233377Y1269464D01*
Y1266925D01*
X2223221D01*
X2238456Y1272003D02*
Y1261846D01*
Y1266925D01*
X2240995Y1269464D01*
X2243534Y1272003D01*
X2246073D01*
X2268926Y1269464D02*
X2279082D01*
X2299396Y1277081D02*
Y1261846D01*
X2307013D01*
X2309553Y1264385D01*
Y1266925D01*
X2307013Y1269464D01*
X2299396D01*
X2307013D01*
X2309553Y1272003D01*
Y1274542D01*
X2307013Y1277081D01*
X2299396D01*
X2317170Y1261846D02*
X2322249D01*
X2324788Y1264385D01*
Y1269464D01*
X2322249Y1272003D01*
X2317170D01*
X2314631Y1269464D01*
Y1264385D01*
X2317170Y1261846D01*
X2332405Y1274542D02*
Y1272003D01*
X2329866D01*
X2334944D01*
X2332405D01*
Y1264385D01*
X2334944Y1261846D01*
X2345101Y1274542D02*
Y1272003D01*
X2342562D01*
X2347640D01*
X2345101D01*
Y1264385D01*
X2347640Y1261846D01*
X2357797D02*
X2362875D01*
X2365414Y1264385D01*
Y1269464D01*
X2362875Y1272003D01*
X2357797D01*
X2355258Y1269464D01*
Y1264385D01*
X2357797Y1261846D01*
X2370493D02*
Y1272003D01*
X2373032D01*
X2375571Y1269464D01*
Y1261846D01*
Y1269464D01*
X2378110Y1272003D01*
X2380650Y1269464D01*
Y1261846D01*
X2400963Y1277081D02*
Y1261846D01*
X2411120D01*
X2418737Y1272003D02*
X2423816D01*
X2426355Y1269464D01*
Y1261846D01*
X2418737D01*
X2416198Y1264385D01*
X2418737Y1266925D01*
X2426355D01*
X2431433Y1272003D02*
Y1264385D01*
X2433972Y1261846D01*
X2441590D01*
Y1259307D01*
X2439051Y1256768D01*
X2436512D01*
X2441590Y1261846D02*
Y1272003D01*
X2454286Y1261846D02*
X2449207D01*
X2446668Y1264385D01*
Y1269464D01*
X2449207Y1272003D01*
X2454286D01*
X2456825Y1269464D01*
Y1266925D01*
X2446668D01*
X2461903Y1272003D02*
Y1261846D01*
Y1266925D01*
X2464442Y1269464D01*
X2466982Y1272003D01*
X2469521D01*
X2116575Y1238981D02*
X2126732D01*
X2121653D01*
Y1223746D01*
X2134349D02*
X2139428D01*
X2141967Y1226285D01*
Y1231364D01*
X2139428Y1233903D01*
X2134349D01*
X2131810Y1231364D01*
Y1226285D01*
X2134349Y1223746D01*
X2147045Y1218668D02*
Y1233903D01*
X2154663D01*
X2157202Y1231364D01*
Y1226285D01*
X2154663Y1223746D01*
X2147045D01*
X2177515Y1238981D02*
Y1223746D01*
X2187672D01*
X2195289Y1233903D02*
X2200368D01*
X2202907Y1231364D01*
Y1223746D01*
X2195289D01*
X2192750Y1226285D01*
X2195289Y1228824D01*
X2202907D01*
X2207985Y1233903D02*
Y1226285D01*
X2210525Y1223746D01*
X2218142D01*
Y1221207D01*
X2215603Y1218668D01*
X2213064D01*
X2218142Y1223746D02*
Y1233903D01*
X2230838Y1223746D02*
X2225760D01*
X2223221Y1226285D01*
Y1231364D01*
X2225760Y1233903D01*
X2230838D01*
X2233377Y1231364D01*
Y1228824D01*
X2223221D01*
X2238456Y1233903D02*
Y1223746D01*
Y1228824D01*
X2240995Y1231364D01*
X2243534Y1233903D01*
X2246073D01*
X2268926Y1231364D02*
X2279082D01*
X2299396Y1238981D02*
Y1223746D01*
X2307013D01*
X2309553Y1226285D01*
Y1228824D01*
X2307013Y1231364D01*
X2299396D01*
X2307013D01*
X2309553Y1233903D01*
Y1236442D01*
X2307013Y1238981D01*
X2299396D01*
X2317170Y1223746D02*
X2322249D01*
X2324788Y1226285D01*
Y1231364D01*
X2322249Y1233903D01*
X2317170D01*
X2314631Y1231364D01*
Y1226285D01*
X2317170Y1223746D01*
X2332405Y1236442D02*
Y1233903D01*
X2329866D01*
X2334944D01*
X2332405D01*
Y1226285D01*
X2334944Y1223746D01*
X2345101Y1236442D02*
Y1233903D01*
X2342562D01*
X2347640D01*
X2345101D01*
Y1226285D01*
X2347640Y1223746D01*
X2357797D02*
X2362875D01*
X2365414Y1226285D01*
Y1231364D01*
X2362875Y1233903D01*
X2357797D01*
X2355258Y1231364D01*
Y1226285D01*
X2357797Y1223746D01*
X2370493D02*
Y1233903D01*
X2373032D01*
X2375571Y1231364D01*
Y1223746D01*
Y1231364D01*
X2378110Y1233903D01*
X2380650Y1231364D01*
Y1223746D01*
X2400963Y1238981D02*
Y1223746D01*
X2411120D01*
X2418737Y1233903D02*
X2423816D01*
X2426355Y1231364D01*
Y1223746D01*
X2418737D01*
X2416198Y1226285D01*
X2418737Y1228824D01*
X2426355D01*
X2431433Y1233903D02*
Y1226285D01*
X2433972Y1223746D01*
X2441590D01*
Y1221207D01*
X2439051Y1218668D01*
X2436512D01*
X2441590Y1223746D02*
Y1233903D01*
X2454286Y1223746D02*
X2449207D01*
X2446668Y1226285D01*
Y1231364D01*
X2449207Y1233903D01*
X2454286D01*
X2456825Y1231364D01*
Y1228824D01*
X2446668D01*
X2461903Y1233903D02*
Y1223746D01*
Y1228824D01*
X2464442Y1231364D01*
X2466982Y1233903D01*
X2469521D01*
X2116575Y1200881D02*
X2126732D01*
X2121653D01*
Y1185646D01*
X2134349D02*
X2139428D01*
X2141967Y1188185D01*
Y1193264D01*
X2139428Y1195803D01*
X2134349D01*
X2131810Y1193264D01*
Y1188185D01*
X2134349Y1185646D01*
X2147045Y1180568D02*
Y1195803D01*
X2154663D01*
X2157202Y1193264D01*
Y1188185D01*
X2154663Y1185646D01*
X2147045D01*
X2177515Y1200881D02*
Y1185646D01*
X2187672D01*
X2195289Y1195803D02*
X2200368D01*
X2202907Y1193264D01*
Y1185646D01*
X2195289D01*
X2192750Y1188185D01*
X2195289Y1190724D01*
X2202907D01*
X2207985Y1195803D02*
Y1188185D01*
X2210525Y1185646D01*
X2218142D01*
Y1183107D01*
X2215603Y1180568D01*
X2213064D01*
X2218142Y1185646D02*
Y1195803D01*
X2230838Y1185646D02*
X2225760D01*
X2223221Y1188185D01*
Y1193264D01*
X2225760Y1195803D01*
X2230838D01*
X2233377Y1193264D01*
Y1190724D01*
X2223221D01*
X2238456Y1195803D02*
Y1185646D01*
Y1190724D01*
X2240995Y1193264D01*
X2243534Y1195803D01*
X2246073D01*
X2268926Y1193264D02*
X2279082D01*
X2299396Y1200881D02*
Y1185646D01*
X2307013D01*
X2309553Y1188185D01*
Y1190724D01*
X2307013Y1193264D01*
X2299396D01*
X2307013D01*
X2309553Y1195803D01*
Y1198342D01*
X2307013Y1200881D01*
X2299396D01*
X2317170Y1185646D02*
X2322249D01*
X2324788Y1188185D01*
Y1193264D01*
X2322249Y1195803D01*
X2317170D01*
X2314631Y1193264D01*
Y1188185D01*
X2317170Y1185646D01*
X2332405Y1198342D02*
Y1195803D01*
X2329866D01*
X2334944D01*
X2332405D01*
Y1188185D01*
X2334944Y1185646D01*
X2345101Y1198342D02*
Y1195803D01*
X2342562D01*
X2347640D01*
X2345101D01*
Y1188185D01*
X2347640Y1185646D01*
X2357797D02*
X2362875D01*
X2365414Y1188185D01*
Y1193264D01*
X2362875Y1195803D01*
X2357797D01*
X2355258Y1193264D01*
Y1188185D01*
X2357797Y1185646D01*
X2370493D02*
Y1195803D01*
X2373032D01*
X2375571Y1193264D01*
Y1185646D01*
Y1193264D01*
X2378110Y1195803D01*
X2380650Y1193264D01*
Y1185646D01*
X2400963Y1200881D02*
Y1185646D01*
X2411120D01*
X2418737Y1195803D02*
X2423816D01*
X2426355Y1193264D01*
Y1185646D01*
X2418737D01*
X2416198Y1188185D01*
X2418737Y1190724D01*
X2426355D01*
X2431433Y1195803D02*
Y1188185D01*
X2433972Y1185646D01*
X2441590D01*
Y1183107D01*
X2439051Y1180568D01*
X2436512D01*
X2441590Y1185646D02*
Y1195803D01*
X2454286Y1185646D02*
X2449207D01*
X2446668Y1188185D01*
Y1193264D01*
X2449207Y1195803D01*
X2454286D01*
X2456825Y1193264D01*
Y1190724D01*
X2446668D01*
X2461903Y1195803D02*
Y1185646D01*
Y1190724D01*
X2464442Y1193264D01*
X2466982Y1195803D01*
X2469521D01*
X2116575Y1162781D02*
X2126732D01*
X2121653D01*
Y1147546D01*
X2134349D02*
X2139428D01*
X2141967Y1150085D01*
Y1155164D01*
X2139428Y1157703D01*
X2134349D01*
X2131810Y1155164D01*
Y1150085D01*
X2134349Y1147546D01*
X2147045Y1142468D02*
Y1157703D01*
X2154663D01*
X2157202Y1155164D01*
Y1150085D01*
X2154663Y1147546D01*
X2147045D01*
X2177515Y1162781D02*
Y1147546D01*
X2187672D01*
X2195289Y1157703D02*
X2200368D01*
X2202907Y1155164D01*
Y1147546D01*
X2195289D01*
X2192750Y1150085D01*
X2195289Y1152625D01*
X2202907D01*
X2207985Y1157703D02*
Y1150085D01*
X2210525Y1147546D01*
X2218142D01*
Y1145007D01*
X2215603Y1142468D01*
X2213064D01*
X2218142Y1147546D02*
Y1157703D01*
X2230838Y1147546D02*
X2225760D01*
X2223221Y1150085D01*
Y1155164D01*
X2225760Y1157703D01*
X2230838D01*
X2233377Y1155164D01*
Y1152625D01*
X2223221D01*
X2238456Y1157703D02*
Y1147546D01*
Y1152625D01*
X2240995Y1155164D01*
X2243534Y1157703D01*
X2246073D01*
X2268926Y1155164D02*
X2279082D01*
X2299396Y1162781D02*
Y1147546D01*
X2307013D01*
X2309553Y1150085D01*
Y1152625D01*
X2307013Y1155164D01*
X2299396D01*
X2307013D01*
X2309553Y1157703D01*
Y1160242D01*
X2307013Y1162781D01*
X2299396D01*
X2317170Y1147546D02*
X2322249D01*
X2324788Y1150085D01*
Y1155164D01*
X2322249Y1157703D01*
X2317170D01*
X2314631Y1155164D01*
Y1150085D01*
X2317170Y1147546D01*
X2332405Y1160242D02*
Y1157703D01*
X2329866D01*
X2334944D01*
X2332405D01*
Y1150085D01*
X2334944Y1147546D01*
X2345101Y1160242D02*
Y1157703D01*
X2342562D01*
X2347640D01*
X2345101D01*
Y1150085D01*
X2347640Y1147546D01*
X2357797D02*
X2362875D01*
X2365414Y1150085D01*
Y1155164D01*
X2362875Y1157703D01*
X2357797D01*
X2355258Y1155164D01*
Y1150085D01*
X2357797Y1147546D01*
X2370493D02*
Y1157703D01*
X2373032D01*
X2375571Y1155164D01*
Y1147546D01*
Y1155164D01*
X2378110Y1157703D01*
X2380650Y1155164D01*
Y1147546D01*
X2400963Y1162781D02*
Y1147546D01*
X2411120D01*
X2418737Y1157703D02*
X2423816D01*
X2426355Y1155164D01*
Y1147546D01*
X2418737D01*
X2416198Y1150085D01*
X2418737Y1152625D01*
X2426355D01*
X2431433Y1157703D02*
Y1150085D01*
X2433972Y1147546D01*
X2441590D01*
Y1145007D01*
X2439051Y1142468D01*
X2436512D01*
X2441590Y1147546D02*
Y1157703D01*
X2454286Y1147546D02*
X2449207D01*
X2446668Y1150085D01*
Y1155164D01*
X2449207Y1157703D01*
X2454286D01*
X2456825Y1155164D01*
Y1152625D01*
X2446668D01*
X2461903Y1157703D02*
Y1147546D01*
Y1152625D01*
X2464442Y1155164D01*
X2466982Y1157703D01*
X2469521D01*
X2116575Y1124681D02*
X2126732D01*
X2121653D01*
Y1109446D01*
X2134349D02*
X2139428D01*
X2141967Y1111985D01*
Y1117064D01*
X2139428Y1119603D01*
X2134349D01*
X2131810Y1117064D01*
Y1111985D01*
X2134349Y1109446D01*
X2147045Y1104368D02*
Y1119603D01*
X2154663D01*
X2157202Y1117064D01*
Y1111985D01*
X2154663Y1109446D01*
X2147045D01*
X2177515Y1124681D02*
Y1109446D01*
X2187672D01*
X2195289Y1119603D02*
X2200368D01*
X2202907Y1117064D01*
Y1109446D01*
X2195289D01*
X2192750Y1111985D01*
X2195289Y1114525D01*
X2202907D01*
X2207985Y1119603D02*
Y1111985D01*
X2210525Y1109446D01*
X2218142D01*
Y1106907D01*
X2215603Y1104368D01*
X2213064D01*
X2218142Y1109446D02*
Y1119603D01*
X2230838Y1109446D02*
X2225760D01*
X2223221Y1111985D01*
Y1117064D01*
X2225760Y1119603D01*
X2230838D01*
X2233377Y1117064D01*
Y1114525D01*
X2223221D01*
X2238456Y1119603D02*
Y1109446D01*
Y1114525D01*
X2240995Y1117064D01*
X2243534Y1119603D01*
X2246073D01*
X2268926Y1117064D02*
X2279082D01*
X2299396Y1124681D02*
Y1109446D01*
X2307013D01*
X2309553Y1111985D01*
Y1114525D01*
X2307013Y1117064D01*
X2299396D01*
X2307013D01*
X2309553Y1119603D01*
Y1122142D01*
X2307013Y1124681D01*
X2299396D01*
X2317170Y1109446D02*
X2322249D01*
X2324788Y1111985D01*
Y1117064D01*
X2322249Y1119603D01*
X2317170D01*
X2314631Y1117064D01*
Y1111985D01*
X2317170Y1109446D01*
X2332405Y1122142D02*
Y1119603D01*
X2329866D01*
X2334944D01*
X2332405D01*
Y1111985D01*
X2334944Y1109446D01*
X2345101Y1122142D02*
Y1119603D01*
X2342562D01*
X2347640D01*
X2345101D01*
Y1111985D01*
X2347640Y1109446D01*
X2357797D02*
X2362875D01*
X2365414Y1111985D01*
Y1117064D01*
X2362875Y1119603D01*
X2357797D01*
X2355258Y1117064D01*
Y1111985D01*
X2357797Y1109446D01*
X2370493D02*
Y1119603D01*
X2373032D01*
X2375571Y1117064D01*
Y1109446D01*
Y1117064D01*
X2378110Y1119603D01*
X2380650Y1117064D01*
Y1109446D01*
X2400963Y1124681D02*
Y1109446D01*
X2411120D01*
X2418737Y1119603D02*
X2423816D01*
X2426355Y1117064D01*
Y1109446D01*
X2418737D01*
X2416198Y1111985D01*
X2418737Y1114525D01*
X2426355D01*
X2431433Y1119603D02*
Y1111985D01*
X2433972Y1109446D01*
X2441590D01*
Y1106907D01*
X2439051Y1104368D01*
X2436512D01*
X2441590Y1109446D02*
Y1119603D01*
X2454286Y1109446D02*
X2449207D01*
X2446668Y1111985D01*
Y1117064D01*
X2449207Y1119603D01*
X2454286D01*
X2456825Y1117064D01*
Y1114525D01*
X2446668D01*
X2461903Y1119603D02*
Y1109446D01*
Y1114525D01*
X2464442Y1117064D01*
X2466982Y1119603D01*
X2469521D01*
X2116575Y1086581D02*
X2126732D01*
X2121653D01*
Y1071346D01*
X2134349D02*
X2139428D01*
X2141967Y1073885D01*
Y1078964D01*
X2139428Y1081503D01*
X2134349D01*
X2131810Y1078964D01*
Y1073885D01*
X2134349Y1071346D01*
X2147045Y1066268D02*
Y1081503D01*
X2154663D01*
X2157202Y1078964D01*
Y1073885D01*
X2154663Y1071346D01*
X2147045D01*
X2177515Y1086581D02*
Y1071346D01*
X2187672D01*
X2195289Y1081503D02*
X2200368D01*
X2202907Y1078964D01*
Y1071346D01*
X2195289D01*
X2192750Y1073885D01*
X2195289Y1076424D01*
X2202907D01*
X2207985Y1081503D02*
Y1073885D01*
X2210525Y1071346D01*
X2218142D01*
Y1068807D01*
X2215603Y1066268D01*
X2213064D01*
X2218142Y1071346D02*
Y1081503D01*
X2230838Y1071346D02*
X2225760D01*
X2223221Y1073885D01*
Y1078964D01*
X2225760Y1081503D01*
X2230838D01*
X2233377Y1078964D01*
Y1076424D01*
X2223221D01*
X2238456Y1081503D02*
Y1071346D01*
Y1076424D01*
X2240995Y1078964D01*
X2243534Y1081503D01*
X2246073D01*
X2268926Y1078964D02*
X2279082D01*
X2299396Y1086581D02*
Y1071346D01*
X2307013D01*
X2309553Y1073885D01*
Y1076424D01*
X2307013Y1078964D01*
X2299396D01*
X2307013D01*
X2309553Y1081503D01*
Y1084042D01*
X2307013Y1086581D01*
X2299396D01*
X2317170Y1071346D02*
X2322249D01*
X2324788Y1073885D01*
Y1078964D01*
X2322249Y1081503D01*
X2317170D01*
X2314631Y1078964D01*
Y1073885D01*
X2317170Y1071346D01*
X2332405Y1084042D02*
Y1081503D01*
X2329866D01*
X2334944D01*
X2332405D01*
Y1073885D01*
X2334944Y1071346D01*
X2345101Y1084042D02*
Y1081503D01*
X2342562D01*
X2347640D01*
X2345101D01*
Y1073885D01*
X2347640Y1071346D01*
X2357797D02*
X2362875D01*
X2365414Y1073885D01*
Y1078964D01*
X2362875Y1081503D01*
X2357797D01*
X2355258Y1078964D01*
Y1073885D01*
X2357797Y1071346D01*
X2370493D02*
Y1081503D01*
X2373032D01*
X2375571Y1078964D01*
Y1071346D01*
Y1078964D01*
X2378110Y1081503D01*
X2380650Y1078964D01*
Y1071346D01*
X2400963Y1086581D02*
Y1071346D01*
X2411120D01*
X2418737Y1081503D02*
X2423816D01*
X2426355Y1078964D01*
Y1071346D01*
X2418737D01*
X2416198Y1073885D01*
X2418737Y1076424D01*
X2426355D01*
X2431433Y1081503D02*
Y1073885D01*
X2433972Y1071346D01*
X2441590D01*
Y1068807D01*
X2439051Y1066268D01*
X2436512D01*
X2441590Y1071346D02*
Y1081503D01*
X2454286Y1071346D02*
X2449207D01*
X2446668Y1073885D01*
Y1078964D01*
X2449207Y1081503D01*
X2454286D01*
X2456825Y1078964D01*
Y1076424D01*
X2446668D01*
X2461903Y1081503D02*
Y1071346D01*
Y1076424D01*
X2464442Y1078964D01*
X2466982Y1081503D01*
X2469521D01*
X2116575Y1048481D02*
X2126732D01*
X2121653D01*
Y1033246D01*
X2134349D02*
X2139428D01*
X2141967Y1035785D01*
Y1040864D01*
X2139428Y1043403D01*
X2134349D01*
X2131810Y1040864D01*
Y1035785D01*
X2134349Y1033246D01*
X2147045Y1028168D02*
Y1043403D01*
X2154663D01*
X2157202Y1040864D01*
Y1035785D01*
X2154663Y1033246D01*
X2147045D01*
X2177515Y1048481D02*
Y1033246D01*
X2187672D01*
X2195289Y1043403D02*
X2200368D01*
X2202907Y1040864D01*
Y1033246D01*
X2195289D01*
X2192750Y1035785D01*
X2195289Y1038325D01*
X2202907D01*
X2207985Y1043403D02*
Y1035785D01*
X2210525Y1033246D01*
X2218142D01*
Y1030707D01*
X2215603Y1028168D01*
X2213064D01*
X2218142Y1033246D02*
Y1043403D01*
X2230838Y1033246D02*
X2225760D01*
X2223221Y1035785D01*
Y1040864D01*
X2225760Y1043403D01*
X2230838D01*
X2233377Y1040864D01*
Y1038325D01*
X2223221D01*
X2238456Y1043403D02*
Y1033246D01*
Y1038325D01*
X2240995Y1040864D01*
X2243534Y1043403D01*
X2246073D01*
X2268926Y1040864D02*
X2279082D01*
X2299396Y1048481D02*
Y1033246D01*
X2307013D01*
X2309553Y1035785D01*
Y1038325D01*
X2307013Y1040864D01*
X2299396D01*
X2307013D01*
X2309553Y1043403D01*
Y1045942D01*
X2307013Y1048481D01*
X2299396D01*
X2317170Y1033246D02*
X2322249D01*
X2324788Y1035785D01*
Y1040864D01*
X2322249Y1043403D01*
X2317170D01*
X2314631Y1040864D01*
Y1035785D01*
X2317170Y1033246D01*
X2332405Y1045942D02*
Y1043403D01*
X2329866D01*
X2334944D01*
X2332405D01*
Y1035785D01*
X2334944Y1033246D01*
X2345101Y1045942D02*
Y1043403D01*
X2342562D01*
X2347640D01*
X2345101D01*
Y1035785D01*
X2347640Y1033246D01*
X2357797D02*
X2362875D01*
X2365414Y1035785D01*
Y1040864D01*
X2362875Y1043403D01*
X2357797D01*
X2355258Y1040864D01*
Y1035785D01*
X2357797Y1033246D01*
X2370493D02*
Y1043403D01*
X2373032D01*
X2375571Y1040864D01*
Y1033246D01*
Y1040864D01*
X2378110Y1043403D01*
X2380650Y1040864D01*
Y1033246D01*
X2400963Y1048481D02*
Y1033246D01*
X2411120D01*
X2418737Y1043403D02*
X2423816D01*
X2426355Y1040864D01*
Y1033246D01*
X2418737D01*
X2416198Y1035785D01*
X2418737Y1038325D01*
X2426355D01*
X2431433Y1043403D02*
Y1035785D01*
X2433972Y1033246D01*
X2441590D01*
Y1030707D01*
X2439051Y1028168D01*
X2436512D01*
X2441590Y1033246D02*
Y1043403D01*
X2454286Y1033246D02*
X2449207D01*
X2446668Y1035785D01*
Y1040864D01*
X2449207Y1043403D01*
X2454286D01*
X2456825Y1040864D01*
Y1038325D01*
X2446668D01*
X2461903Y1043403D02*
Y1033246D01*
Y1038325D01*
X2464442Y1040864D01*
X2466982Y1043403D01*
X2469521D01*
X2116575Y1010381D02*
X2126732D01*
X2121653D01*
Y995146D01*
X2134349D02*
X2139428D01*
X2141967Y997685D01*
Y1002764D01*
X2139428Y1005303D01*
X2134349D01*
X2131810Y1002764D01*
Y997685D01*
X2134349Y995146D01*
X2147045Y990068D02*
Y1005303D01*
X2154663D01*
X2157202Y1002764D01*
Y997685D01*
X2154663Y995146D01*
X2147045D01*
X2177515Y1010381D02*
Y995146D01*
X2187672D01*
X2195289Y1005303D02*
X2200368D01*
X2202907Y1002764D01*
Y995146D01*
X2195289D01*
X2192750Y997685D01*
X2195289Y1000225D01*
X2202907D01*
X2207985Y1005303D02*
Y997685D01*
X2210525Y995146D01*
X2218142D01*
Y992607D01*
X2215603Y990068D01*
X2213064D01*
X2218142Y995146D02*
Y1005303D01*
X2230838Y995146D02*
X2225760D01*
X2223221Y997685D01*
Y1002764D01*
X2225760Y1005303D01*
X2230838D01*
X2233377Y1002764D01*
Y1000225D01*
X2223221D01*
X2238456Y1005303D02*
Y995146D01*
Y1000225D01*
X2240995Y1002764D01*
X2243534Y1005303D01*
X2246073D01*
X2268926Y1002764D02*
X2279082D01*
X2299396Y1010381D02*
Y995146D01*
X2307013D01*
X2309553Y997685D01*
Y1000225D01*
X2307013Y1002764D01*
X2299396D01*
X2307013D01*
X2309553Y1005303D01*
Y1007842D01*
X2307013Y1010381D01*
X2299396D01*
X2317170Y995146D02*
X2322249D01*
X2324788Y997685D01*
Y1002764D01*
X2322249Y1005303D01*
X2317170D01*
X2314631Y1002764D01*
Y997685D01*
X2317170Y995146D01*
X2332405Y1007842D02*
Y1005303D01*
X2329866D01*
X2334944D01*
X2332405D01*
Y997685D01*
X2334944Y995146D01*
X2345101Y1007842D02*
Y1005303D01*
X2342562D01*
X2347640D01*
X2345101D01*
Y997685D01*
X2347640Y995146D01*
X2357797D02*
X2362875D01*
X2365414Y997685D01*
Y1002764D01*
X2362875Y1005303D01*
X2357797D01*
X2355258Y1002764D01*
Y997685D01*
X2357797Y995146D01*
X2370493D02*
Y1005303D01*
X2373032D01*
X2375571Y1002764D01*
Y995146D01*
Y1002764D01*
X2378110Y1005303D01*
X2380650Y1002764D01*
Y995146D01*
X2400963Y1010381D02*
Y995146D01*
X2411120D01*
X2418737Y1005303D02*
X2423816D01*
X2426355Y1002764D01*
Y995146D01*
X2418737D01*
X2416198Y997685D01*
X2418737Y1000225D01*
X2426355D01*
X2431433Y1005303D02*
Y997685D01*
X2433972Y995146D01*
X2441590D01*
Y992607D01*
X2439051Y990068D01*
X2436512D01*
X2441590Y995146D02*
Y1005303D01*
X2454286Y995146D02*
X2449207D01*
X2446668Y997685D01*
Y1002764D01*
X2449207Y1005303D01*
X2454286D01*
X2456825Y1002764D01*
Y1000225D01*
X2446668D01*
X2461903Y1005303D02*
Y995146D01*
Y1000225D01*
X2464442Y1002764D01*
X2466982Y1005303D01*
X2469521D01*
X2116575Y972281D02*
X2126732D01*
X2121653D01*
Y957046D01*
X2134349D02*
X2139428D01*
X2141967Y959585D01*
Y964664D01*
X2139428Y967203D01*
X2134349D01*
X2131810Y964664D01*
Y959585D01*
X2134349Y957046D01*
X2147045Y951968D02*
Y967203D01*
X2154663D01*
X2157202Y964664D01*
Y959585D01*
X2154663Y957046D01*
X2147045D01*
X2177515Y972281D02*
Y957046D01*
X2187672D01*
X2195289Y967203D02*
X2200368D01*
X2202907Y964664D01*
Y957046D01*
X2195289D01*
X2192750Y959585D01*
X2195289Y962124D01*
X2202907D01*
X2207985Y967203D02*
Y959585D01*
X2210525Y957046D01*
X2218142D01*
Y954507D01*
X2215603Y951968D01*
X2213064D01*
X2218142Y957046D02*
Y967203D01*
X2230838Y957046D02*
X2225760D01*
X2223221Y959585D01*
Y964664D01*
X2225760Y967203D01*
X2230838D01*
X2233377Y964664D01*
Y962124D01*
X2223221D01*
X2238456Y967203D02*
Y957046D01*
Y962124D01*
X2240995Y964664D01*
X2243534Y967203D01*
X2246073D01*
X2268926Y964664D02*
X2279082D01*
X2299396Y972281D02*
Y957046D01*
X2307013D01*
X2309553Y959585D01*
Y962124D01*
X2307013Y964664D01*
X2299396D01*
X2307013D01*
X2309553Y967203D01*
Y969742D01*
X2307013Y972281D01*
X2299396D01*
X2317170Y957046D02*
X2322249D01*
X2324788Y959585D01*
Y964664D01*
X2322249Y967203D01*
X2317170D01*
X2314631Y964664D01*
Y959585D01*
X2317170Y957046D01*
X2332405Y969742D02*
Y967203D01*
X2329866D01*
X2334944D01*
X2332405D01*
Y959585D01*
X2334944Y957046D01*
X2345101Y969742D02*
Y967203D01*
X2342562D01*
X2347640D01*
X2345101D01*
Y959585D01*
X2347640Y957046D01*
X2357797D02*
X2362875D01*
X2365414Y959585D01*
Y964664D01*
X2362875Y967203D01*
X2357797D01*
X2355258Y964664D01*
Y959585D01*
X2357797Y957046D01*
X2370493D02*
Y967203D01*
X2373032D01*
X2375571Y964664D01*
Y957046D01*
Y964664D01*
X2378110Y967203D01*
X2380650Y964664D01*
Y957046D01*
X2400963Y972281D02*
Y957046D01*
X2411120D01*
X2418737Y967203D02*
X2423816D01*
X2426355Y964664D01*
Y957046D01*
X2418737D01*
X2416198Y959585D01*
X2418737Y962124D01*
X2426355D01*
X2431433Y967203D02*
Y959585D01*
X2433972Y957046D01*
X2441590D01*
Y954507D01*
X2439051Y951968D01*
X2436512D01*
X2441590Y957046D02*
Y967203D01*
X2454286Y957046D02*
X2449207D01*
X2446668Y959585D01*
Y964664D01*
X2449207Y967203D01*
X2454286D01*
X2456825Y964664D01*
Y962124D01*
X2446668D01*
X2461903Y967203D02*
Y957046D01*
Y962124D01*
X2464442Y964664D01*
X2466982Y967203D01*
X2469521D01*
X2116575Y934181D02*
X2126732D01*
X2121653D01*
Y918946D01*
X2134349D02*
X2139428D01*
X2141967Y921485D01*
Y926564D01*
X2139428Y929103D01*
X2134349D01*
X2131810Y926564D01*
Y921485D01*
X2134349Y918946D01*
X2147045Y913868D02*
Y929103D01*
X2154663D01*
X2157202Y926564D01*
Y921485D01*
X2154663Y918946D01*
X2147045D01*
X2177515Y934181D02*
Y918946D01*
X2187672D01*
X2195289Y929103D02*
X2200368D01*
X2202907Y926564D01*
Y918946D01*
X2195289D01*
X2192750Y921485D01*
X2195289Y924025D01*
X2202907D01*
X2207985Y929103D02*
Y921485D01*
X2210525Y918946D01*
X2218142D01*
Y916407D01*
X2215603Y913868D01*
X2213064D01*
X2218142Y918946D02*
Y929103D01*
X2230838Y918946D02*
X2225760D01*
X2223221Y921485D01*
Y926564D01*
X2225760Y929103D01*
X2230838D01*
X2233377Y926564D01*
Y924025D01*
X2223221D01*
X2238456Y929103D02*
Y918946D01*
Y924025D01*
X2240995Y926564D01*
X2243534Y929103D01*
X2246073D01*
X2268926Y926564D02*
X2279082D01*
X2299396Y934181D02*
Y918946D01*
X2307013D01*
X2309553Y921485D01*
Y924025D01*
X2307013Y926564D01*
X2299396D01*
X2307013D01*
X2309553Y929103D01*
Y931642D01*
X2307013Y934181D01*
X2299396D01*
X2317170Y918946D02*
X2322249D01*
X2324788Y921485D01*
Y926564D01*
X2322249Y929103D01*
X2317170D01*
X2314631Y926564D01*
Y921485D01*
X2317170Y918946D01*
X2332405Y931642D02*
Y929103D01*
X2329866D01*
X2334944D01*
X2332405D01*
Y921485D01*
X2334944Y918946D01*
X2345101Y931642D02*
Y929103D01*
X2342562D01*
X2347640D01*
X2345101D01*
Y921485D01*
X2347640Y918946D01*
X2357797D02*
X2362875D01*
X2365414Y921485D01*
Y926564D01*
X2362875Y929103D01*
X2357797D01*
X2355258Y926564D01*
Y921485D01*
X2357797Y918946D01*
X2370493D02*
Y929103D01*
X2373032D01*
X2375571Y926564D01*
Y918946D01*
Y926564D01*
X2378110Y929103D01*
X2380650Y926564D01*
Y918946D01*
X2400963Y934181D02*
Y918946D01*
X2411120D01*
X2418737Y929103D02*
X2423816D01*
X2426355Y926564D01*
Y918946D01*
X2418737D01*
X2416198Y921485D01*
X2418737Y924025D01*
X2426355D01*
X2431433Y929103D02*
Y921485D01*
X2433972Y918946D01*
X2441590D01*
Y916407D01*
X2439051Y913868D01*
X2436512D01*
X2441590Y918946D02*
Y929103D01*
X2454286Y918946D02*
X2449207D01*
X2446668Y921485D01*
Y926564D01*
X2449207Y929103D01*
X2454286D01*
X2456825Y926564D01*
Y924025D01*
X2446668D01*
X2461903Y929103D02*
Y918946D01*
Y924025D01*
X2464442Y926564D01*
X2466982Y929103D01*
X2469521D01*
X1988082Y1299946D02*
Y1315181D01*
X1995700D01*
X1998239Y1312642D01*
Y1307564D01*
X1995700Y1305025D01*
X1988082D01*
X2003318Y1315181D02*
X2013474D01*
X2008396D01*
Y1299946D01*
X2018553Y1315181D02*
Y1299946D01*
Y1307564D01*
X2028709D01*
Y1315181D01*
Y1299946D01*
X1988082Y1261846D02*
Y1277081D01*
X1995700D01*
X1998239Y1274542D01*
Y1269464D01*
X1995700Y1266925D01*
X1988082D01*
X2003318Y1277081D02*
X2013474D01*
X2008396D01*
Y1261846D01*
X2018553Y1277081D02*
Y1261846D01*
Y1269464D01*
X2028709D01*
Y1277081D01*
Y1261846D01*
X1988082Y1223746D02*
Y1238981D01*
X1995700D01*
X1998239Y1236442D01*
Y1231364D01*
X1995700Y1228824D01*
X1988082D01*
X2003318Y1238981D02*
X2013474D01*
X2008396D01*
Y1223746D01*
X2018553Y1238981D02*
Y1223746D01*
Y1231364D01*
X2028709D01*
Y1238981D01*
Y1223746D01*
X1988082Y1185646D02*
Y1200881D01*
X1995700D01*
X1998239Y1198342D01*
Y1193264D01*
X1995700Y1190724D01*
X1988082D01*
X2003318Y1200881D02*
X2013474D01*
X2008396D01*
Y1185646D01*
X2018553Y1200881D02*
Y1185646D01*
Y1193264D01*
X2028709D01*
Y1200881D01*
Y1185646D01*
X1988082Y1147546D02*
Y1162781D01*
X1995700D01*
X1998239Y1160242D01*
Y1155164D01*
X1995700Y1152625D01*
X1988082D01*
X2003318Y1162781D02*
X2013474D01*
X2008396D01*
Y1147546D01*
X2018553Y1162781D02*
Y1147546D01*
Y1155164D01*
X2028709D01*
Y1162781D01*
Y1147546D01*
X1988082Y1109446D02*
Y1124681D01*
X1995700D01*
X1998239Y1122142D01*
Y1117064D01*
X1995700Y1114525D01*
X1988082D01*
X2003318Y1124681D02*
X2013474D01*
X2008396D01*
Y1109446D01*
X2018553Y1124681D02*
Y1109446D01*
Y1117064D01*
X2028709D01*
Y1124681D01*
Y1109446D01*
X1988082Y1071346D02*
Y1086581D01*
X1995700D01*
X1998239Y1084042D01*
Y1078964D01*
X1995700Y1076424D01*
X1988082D01*
X2003318Y1086581D02*
X2013474D01*
X2008396D01*
Y1071346D01*
X2018553Y1086581D02*
Y1071346D01*
Y1078964D01*
X2028709D01*
Y1086581D01*
Y1071346D01*
X1988082Y1033246D02*
Y1048481D01*
X1995700D01*
X1998239Y1045942D01*
Y1040864D01*
X1995700Y1038325D01*
X1988082D01*
X2003318Y1048481D02*
X2013474D01*
X2008396D01*
Y1033246D01*
X2018553Y1048481D02*
Y1033246D01*
Y1040864D01*
X2028709D01*
Y1048481D01*
Y1033246D01*
X1988082Y995146D02*
Y1010381D01*
X1995700D01*
X1998239Y1007842D01*
Y1002764D01*
X1995700Y1000225D01*
X1988082D01*
X2003318Y1010381D02*
X2013474D01*
X2008396D01*
Y995146D01*
X2018553Y1010381D02*
Y995146D01*
Y1002764D01*
X2028709D01*
Y1010381D01*
Y995146D01*
X1988082Y957046D02*
Y972281D01*
X1995700D01*
X1998239Y969742D01*
Y964664D01*
X1995700Y962124D01*
X1988082D01*
X2003318Y972281D02*
X2013474D01*
X2008396D01*
Y957046D01*
X2018553Y972281D02*
Y957046D01*
Y964664D01*
X2028709D01*
Y972281D01*
Y957046D01*
X1988082Y918946D02*
Y934181D01*
X1998239Y918946D01*
Y934181D01*
X2003318Y918946D02*
Y934181D01*
X2010935D01*
X2013474Y931642D01*
Y926564D01*
X2010935Y924025D01*
X2003318D01*
X2018553Y934181D02*
X2028709D01*
X2023631D01*
Y918946D01*
X2033788Y934181D02*
Y918946D01*
Y926564D01*
X2043945D01*
Y934181D01*
Y918946D01*
X1804744Y1312642D02*
X1807283Y1315181D01*
X1812361D01*
X1814901Y1312642D01*
Y1302485D01*
X1812361Y1299946D01*
X1807283D01*
X1804744Y1302485D01*
Y1312642D01*
X1822518Y1297407D02*
X1825057Y1299946D01*
Y1302485D01*
X1822518D01*
Y1299946D01*
X1825057D01*
X1822518Y1297407D01*
X1819979Y1294868D01*
X1845371Y1315181D02*
X1835214D01*
Y1307564D01*
X1840292Y1310103D01*
X1842832D01*
X1845371Y1307564D01*
Y1302485D01*
X1842832Y1299946D01*
X1837753D01*
X1835214Y1302485D01*
X1850449Y1312642D02*
X1852988Y1315181D01*
X1858067D01*
X1860606Y1312642D01*
Y1302485D01*
X1858067Y1299946D01*
X1852988D01*
X1850449Y1302485D01*
Y1312642D01*
X1865684D02*
X1868223Y1315181D01*
X1873302D01*
X1875841Y1312642D01*
Y1302485D01*
X1873302Y1299946D01*
X1868223D01*
X1865684Y1302485D01*
Y1312642D01*
X1880919Y1299946D02*
Y1310103D01*
X1883458D01*
X1885997Y1307564D01*
Y1299946D01*
Y1307564D01*
X1888537Y1310103D01*
X1891076Y1307564D01*
Y1299946D01*
X1896154D02*
Y1310103D01*
X1898694D01*
X1901233Y1307564D01*
Y1299946D01*
Y1307564D01*
X1903772Y1310103D01*
X1906311Y1307564D01*
Y1299946D01*
X1804744Y1274542D02*
X1807283Y1277081D01*
X1812361D01*
X1814901Y1274542D01*
Y1264385D01*
X1812361Y1261846D01*
X1807283D01*
X1804744Y1264385D01*
Y1274542D01*
X1822518Y1259307D02*
X1825057Y1261846D01*
Y1264385D01*
X1822518D01*
Y1261846D01*
X1825057D01*
X1822518Y1259307D01*
X1819979Y1256768D01*
X1845371Y1277081D02*
X1840292Y1274542D01*
X1835214Y1269464D01*
Y1264385D01*
X1837753Y1261846D01*
X1842832D01*
X1845371Y1264385D01*
Y1266925D01*
X1842832Y1269464D01*
X1835214D01*
X1850449Y1274542D02*
X1852988Y1277081D01*
X1858067D01*
X1860606Y1274542D01*
Y1264385D01*
X1858067Y1261846D01*
X1852988D01*
X1850449Y1264385D01*
Y1274542D01*
X1865684D02*
X1868223Y1277081D01*
X1873302D01*
X1875841Y1274542D01*
Y1264385D01*
X1873302Y1261846D01*
X1868223D01*
X1865684Y1264385D01*
Y1274542D01*
X1880919Y1261846D02*
Y1272003D01*
X1883458D01*
X1885997Y1269464D01*
Y1261846D01*
Y1269464D01*
X1888537Y1272003D01*
X1891076Y1269464D01*
Y1261846D01*
X1896154D02*
Y1272003D01*
X1898694D01*
X1901233Y1269464D01*
Y1261846D01*
Y1269464D01*
X1903772Y1272003D01*
X1906311Y1269464D01*
Y1261846D01*
X1804744Y1236442D02*
X1807283Y1238981D01*
X1812361D01*
X1814901Y1236442D01*
Y1226285D01*
X1812361Y1223746D01*
X1807283D01*
X1804744Y1226285D01*
Y1236442D01*
X1822518Y1221207D02*
X1825057Y1223746D01*
Y1226285D01*
X1822518D01*
Y1223746D01*
X1825057D01*
X1822518Y1221207D01*
X1819979Y1218668D01*
X1835214Y1238981D02*
X1845371D01*
Y1236442D01*
X1835214Y1226285D01*
Y1223746D01*
X1860606Y1238981D02*
X1855527Y1236442D01*
X1850449Y1231364D01*
Y1226285D01*
X1852988Y1223746D01*
X1858067D01*
X1860606Y1226285D01*
Y1228824D01*
X1858067Y1231364D01*
X1850449D01*
X1865684Y1236442D02*
X1868223Y1238981D01*
X1873302D01*
X1875841Y1236442D01*
Y1226285D01*
X1873302Y1223746D01*
X1868223D01*
X1865684Y1226285D01*
Y1236442D01*
X1880919Y1223746D02*
Y1233903D01*
X1883458D01*
X1885997Y1231364D01*
Y1223746D01*
Y1231364D01*
X1888537Y1233903D01*
X1891076Y1231364D01*
Y1223746D01*
X1896154D02*
Y1233903D01*
X1898694D01*
X1901233Y1231364D01*
Y1223746D01*
Y1231364D01*
X1903772Y1233903D01*
X1906311Y1231364D01*
Y1223746D01*
X1804744Y1198342D02*
X1807283Y1200881D01*
X1812361D01*
X1814901Y1198342D01*
Y1188185D01*
X1812361Y1185646D01*
X1807283D01*
X1804744Y1188185D01*
Y1198342D01*
X1822518Y1183107D02*
X1825057Y1185646D01*
Y1188185D01*
X1822518D01*
Y1185646D01*
X1825057D01*
X1822518Y1183107D01*
X1819979Y1180568D01*
X1835214Y1188185D02*
X1837753Y1185646D01*
X1842832D01*
X1845371Y1188185D01*
Y1198342D01*
X1842832Y1200881D01*
X1837753D01*
X1835214Y1198342D01*
Y1195803D01*
X1837753Y1193264D01*
X1845371D01*
X1850449Y1198342D02*
X1852988Y1200881D01*
X1858067D01*
X1860606Y1198342D01*
Y1188185D01*
X1858067Y1185646D01*
X1852988D01*
X1850449Y1188185D01*
Y1198342D01*
X1865684D02*
X1868223Y1200881D01*
X1873302D01*
X1875841Y1198342D01*
Y1188185D01*
X1873302Y1185646D01*
X1868223D01*
X1865684Y1188185D01*
Y1198342D01*
X1880919Y1185646D02*
Y1195803D01*
X1883458D01*
X1885997Y1193264D01*
Y1185646D01*
Y1193264D01*
X1888537Y1195803D01*
X1891076Y1193264D01*
Y1185646D01*
X1896154D02*
Y1195803D01*
X1898694D01*
X1901233Y1193264D01*
Y1185646D01*
Y1193264D01*
X1903772Y1195803D01*
X1906311Y1193264D01*
Y1185646D01*
X1804744Y1147546D02*
X1809822D01*
X1807283D01*
Y1162781D01*
X1804744Y1160242D01*
X1819979Y1145007D02*
X1822518Y1147546D01*
Y1150085D01*
X1819979D01*
Y1147546D01*
X1822518D01*
X1819979Y1145007D01*
X1817440Y1142468D01*
X1832675Y1160242D02*
X1835214Y1162781D01*
X1840292D01*
X1842832Y1160242D01*
Y1150085D01*
X1840292Y1147546D01*
X1835214D01*
X1832675Y1150085D01*
Y1160242D01*
X1847910D02*
X1850449Y1162781D01*
X1855527D01*
X1858067Y1160242D01*
Y1150085D01*
X1855527Y1147546D01*
X1850449D01*
X1847910Y1150085D01*
Y1160242D01*
X1863145D02*
X1865684Y1162781D01*
X1870762D01*
X1873302Y1160242D01*
Y1150085D01*
X1870762Y1147546D01*
X1865684D01*
X1863145Y1150085D01*
Y1160242D01*
X1878380Y1147546D02*
Y1157703D01*
X1880919D01*
X1883458Y1155164D01*
Y1147546D01*
Y1155164D01*
X1885997Y1157703D01*
X1888537Y1155164D01*
Y1147546D01*
X1893615D02*
Y1157703D01*
X1896154D01*
X1898693Y1155164D01*
Y1147546D01*
Y1155164D01*
X1901233Y1157703D01*
X1903772Y1155164D01*
Y1147546D01*
X1804744Y1109446D02*
X1809822D01*
X1807283D01*
Y1124681D01*
X1804744Y1122142D01*
X1819979Y1106907D02*
X1822518Y1109446D01*
Y1111985D01*
X1819979D01*
Y1109446D01*
X1822518D01*
X1819979Y1106907D01*
X1817440Y1104368D01*
X1842832Y1109446D02*
X1832675D01*
X1842832Y1119603D01*
Y1122142D01*
X1840292Y1124681D01*
X1835214D01*
X1832675Y1122142D01*
X1847910D02*
X1850449Y1124681D01*
X1855527D01*
X1858067Y1122142D01*
Y1111985D01*
X1855527Y1109446D01*
X1850449D01*
X1847910Y1111985D01*
Y1122142D01*
X1863145D02*
X1865684Y1124681D01*
X1870762D01*
X1873302Y1122142D01*
Y1111985D01*
X1870762Y1109446D01*
X1865684D01*
X1863145Y1111985D01*
Y1122142D01*
X1878380Y1109446D02*
Y1119603D01*
X1880919D01*
X1883458Y1117064D01*
Y1109446D01*
Y1117064D01*
X1885997Y1119603D01*
X1888537Y1117064D01*
Y1109446D01*
X1893615D02*
Y1119603D01*
X1896154D01*
X1898693Y1117064D01*
Y1109446D01*
Y1117064D01*
X1901233Y1119603D01*
X1903772Y1117064D01*
Y1109446D01*
X1804744Y1071346D02*
X1809822D01*
X1807283D01*
Y1086581D01*
X1804744Y1084042D01*
X1819979Y1068807D02*
X1822518Y1071346D01*
Y1073885D01*
X1819979D01*
Y1071346D01*
X1822518D01*
X1819979Y1068807D01*
X1817440Y1066268D01*
X1842832Y1086581D02*
X1832675D01*
Y1078964D01*
X1837753Y1081503D01*
X1840292D01*
X1842832Y1078964D01*
Y1073885D01*
X1840292Y1071346D01*
X1835214D01*
X1832675Y1073885D01*
X1855527Y1071346D02*
Y1086581D01*
X1847910Y1078964D01*
X1858067D01*
X1863145Y1073885D02*
X1865684Y1071346D01*
X1870762D01*
X1873302Y1073885D01*
Y1084042D01*
X1870762Y1086581D01*
X1865684D01*
X1863145Y1084042D01*
Y1081503D01*
X1865684Y1078964D01*
X1873302D01*
X1878380Y1071346D02*
Y1081503D01*
X1880919D01*
X1883458Y1078964D01*
Y1071346D01*
Y1078964D01*
X1885997Y1081503D01*
X1888537Y1078964D01*
Y1071346D01*
X1893615D02*
Y1081503D01*
X1896154D01*
X1898693Y1078964D01*
Y1071346D01*
Y1078964D01*
X1901233Y1081503D01*
X1903772Y1078964D01*
Y1071346D01*
X1804744Y1033246D02*
X1809822D01*
X1807283D01*
Y1048481D01*
X1804744Y1045942D01*
X1819979Y1030707D02*
X1822518Y1033246D01*
Y1035785D01*
X1819979D01*
Y1033246D01*
X1822518D01*
X1819979Y1030707D01*
X1817440Y1028168D01*
X1832675Y1035785D02*
X1835214Y1033246D01*
X1840292D01*
X1842832Y1035785D01*
Y1045942D01*
X1840292Y1048481D01*
X1835214D01*
X1832675Y1045942D01*
Y1043403D01*
X1835214Y1040864D01*
X1842832D01*
X1847910Y1045942D02*
X1850449Y1048481D01*
X1855527D01*
X1858067Y1045942D01*
Y1035785D01*
X1855527Y1033246D01*
X1850449D01*
X1847910Y1035785D01*
Y1045942D01*
X1873302Y1048481D02*
X1863145D01*
Y1040864D01*
X1868223Y1043403D01*
X1870762D01*
X1873302Y1040864D01*
Y1035785D01*
X1870762Y1033246D01*
X1865684D01*
X1863145Y1035785D01*
X1878380Y1033246D02*
Y1043403D01*
X1880919D01*
X1883458Y1040864D01*
Y1033246D01*
Y1040864D01*
X1885997Y1043403D01*
X1888537Y1040864D01*
Y1033246D01*
X1893615D02*
Y1043403D01*
X1896154D01*
X1898693Y1040864D01*
Y1033246D01*
Y1040864D01*
X1901233Y1043403D01*
X1903772Y1040864D01*
Y1033246D01*
X1804744Y1007842D02*
X1807283Y1010381D01*
X1812361D01*
X1814901Y1007842D01*
Y1005303D01*
X1812361Y1002764D01*
X1809822D01*
X1812361D01*
X1814901Y1000225D01*
Y997685D01*
X1812361Y995146D01*
X1807283D01*
X1804744Y997685D01*
X1822518Y992607D02*
X1825057Y995146D01*
Y997685D01*
X1822518D01*
Y995146D01*
X1825057D01*
X1822518Y992607D01*
X1819979Y990068D01*
X1835214Y995146D02*
X1840292D01*
X1837753D01*
Y1010381D01*
X1835214Y1007842D01*
X1847910D02*
X1850449Y1010381D01*
X1855527D01*
X1858067Y1007842D01*
Y997685D01*
X1855527Y995146D01*
X1850449D01*
X1847910Y997685D01*
Y1007842D01*
X1863145D02*
X1865684Y1010381D01*
X1870762D01*
X1873302Y1007842D01*
Y997685D01*
X1870762Y995146D01*
X1865684D01*
X1863145Y997685D01*
Y1007842D01*
X1878380Y995146D02*
Y1005303D01*
X1880919D01*
X1883458Y1002764D01*
Y995146D01*
Y1002764D01*
X1885997Y1005303D01*
X1888537Y1002764D01*
Y995146D01*
X1893615D02*
Y1005303D01*
X1896154D01*
X1898693Y1002764D01*
Y995146D01*
Y1002764D01*
X1901233Y1005303D01*
X1903772Y1002764D01*
Y995146D01*
X1804744Y969742D02*
X1807283Y972281D01*
X1812361D01*
X1814901Y969742D01*
Y967203D01*
X1812361Y964664D01*
X1809822D01*
X1812361D01*
X1814901Y962124D01*
Y959585D01*
X1812361Y957046D01*
X1807283D01*
X1804744Y959585D01*
X1822518Y954507D02*
X1825057Y957046D01*
Y959585D01*
X1822518D01*
Y957046D01*
X1825057D01*
X1822518Y954507D01*
X1819979Y951968D01*
X1835214Y957046D02*
X1840292D01*
X1837753D01*
Y972281D01*
X1835214Y969742D01*
X1858067Y972281D02*
X1852988Y969742D01*
X1847910Y964664D01*
Y959585D01*
X1850449Y957046D01*
X1855527D01*
X1858067Y959585D01*
Y962124D01*
X1855527Y964664D01*
X1847910D01*
X1863145Y969742D02*
X1865684Y972281D01*
X1870762D01*
X1873302Y969742D01*
Y959585D01*
X1870762Y957046D01*
X1865684D01*
X1863145Y959585D01*
Y969742D01*
X1878380Y957046D02*
Y967203D01*
X1880919D01*
X1883458Y964664D01*
Y957046D01*
Y964664D01*
X1885997Y967203D01*
X1888537Y964664D01*
Y957046D01*
X1893615D02*
Y967203D01*
X1896154D01*
X1898693Y964664D01*
Y957046D01*
Y964664D01*
X1901233Y967203D01*
X1903772Y964664D01*
Y957046D01*
X1804744Y931642D02*
X1807283Y934181D01*
X1812361D01*
X1814901Y931642D01*
Y929103D01*
X1812361Y926564D01*
X1809822D01*
X1812361D01*
X1814901Y924025D01*
Y921485D01*
X1812361Y918946D01*
X1807283D01*
X1804744Y921485D01*
X1822518Y916407D02*
X1825057Y918946D01*
Y921485D01*
X1822518D01*
Y918946D01*
X1825057D01*
X1822518Y916407D01*
X1819979Y913868D01*
X1845371Y918946D02*
X1835214D01*
X1845371Y929103D01*
Y931642D01*
X1842832Y934181D01*
X1837753D01*
X1835214Y931642D01*
X1850449D02*
X1852988Y934181D01*
X1858067D01*
X1860606Y931642D01*
Y921485D01*
X1858067Y918946D01*
X1852988D01*
X1850449Y921485D01*
Y931642D01*
X1865684D02*
X1868223Y934181D01*
X1873302D01*
X1875841Y931642D01*
Y921485D01*
X1873302Y918946D01*
X1868223D01*
X1865684Y921485D01*
Y931642D01*
X1880919Y918946D02*
Y929103D01*
X1883458D01*
X1885997Y926564D01*
Y918946D01*
Y926564D01*
X1888537Y929103D01*
X1891076Y926564D01*
Y918946D01*
X1896154D02*
Y929103D01*
X1898694D01*
X1901233Y926564D01*
Y918946D01*
Y926564D01*
X1903772Y929103D01*
X1906311Y926564D01*
Y918946D01*
X1654923Y893542D02*
X1657462Y896081D01*
X1662541D01*
X1665080Y893542D01*
Y891003D01*
X1662541Y888464D01*
X1660002D01*
X1662541D01*
X1665080Y885925D01*
Y883385D01*
X1662541Y880846D01*
X1657462D01*
X1654923Y883385D01*
X1670158Y880846D02*
X1675237D01*
X1672697D01*
Y896081D01*
X1670158Y893542D01*
X1682854D02*
X1685393Y896081D01*
X1690472D01*
X1693011Y893542D01*
Y883385D01*
X1690472Y880846D01*
X1685393D01*
X1682854Y883385D01*
Y893542D01*
X1713324Y896081D02*
X1723481D01*
X1718403D01*
Y880846D01*
X1731099D02*
X1736177D01*
X1738716Y883385D01*
Y888464D01*
X1736177Y891003D01*
X1731099D01*
X1728560Y888464D01*
Y883385D01*
X1731099Y880846D01*
X1746334Y893542D02*
Y891003D01*
X1743795D01*
X1748873D01*
X1746334D01*
Y883385D01*
X1748873Y880846D01*
X1759030Y891003D02*
X1764108D01*
X1766647Y888464D01*
Y880846D01*
X1759030D01*
X1756490Y883385D01*
X1759030Y885925D01*
X1766647D01*
X1771725Y880846D02*
X1776804D01*
X1774265D01*
Y896081D01*
X1771725D01*
X1654923Y1312642D02*
X1657462Y1315181D01*
X1662541D01*
X1665080Y1312642D01*
Y1310103D01*
X1662541Y1307564D01*
X1665080Y1305025D01*
Y1302485D01*
X1662541Y1299946D01*
X1657462D01*
X1654923Y1302485D01*
Y1305025D01*
X1657462Y1307564D01*
X1654923Y1310103D01*
Y1312642D01*
X1657462Y1307564D02*
X1662541D01*
X1670158Y1299946D02*
X1675237D01*
X1672697D01*
Y1315181D01*
X1670158Y1312642D01*
X1662541Y1261846D02*
Y1277081D01*
X1654923Y1269464D01*
X1665080D01*
X1654923Y1236442D02*
X1657462Y1238981D01*
X1662541D01*
X1665080Y1236442D01*
Y1233903D01*
X1662541Y1231364D01*
X1660002D01*
X1662541D01*
X1665080Y1228824D01*
Y1226285D01*
X1662541Y1223746D01*
X1657462D01*
X1654923Y1226285D01*
X1665080Y1185646D02*
X1654923D01*
X1665080Y1195803D01*
Y1198342D01*
X1662541Y1200881D01*
X1657462D01*
X1654923Y1198342D01*
X1670158Y1185646D02*
X1675237D01*
X1672697D01*
Y1200881D01*
X1670158Y1198342D01*
X1654923Y1147546D02*
X1660002D01*
X1657462D01*
Y1162781D01*
X1654923Y1160242D01*
X1667619D02*
X1670158Y1162781D01*
X1675237D01*
X1677776Y1160242D01*
Y1150085D01*
X1675237Y1147546D01*
X1670158D01*
X1667619Y1150085D01*
Y1160242D01*
X1693011Y1162781D02*
X1687933Y1160242D01*
X1682854Y1155164D01*
Y1150085D01*
X1685393Y1147546D01*
X1690472D01*
X1693011Y1150085D01*
Y1152625D01*
X1690472Y1155164D01*
X1682854D01*
X1654923Y1124681D02*
X1665080D01*
Y1122142D01*
X1654923Y1111985D01*
Y1109446D01*
X1680315Y1124681D02*
X1675237Y1122142D01*
X1670158Y1117064D01*
Y1111985D01*
X1672697Y1109446D01*
X1677776D01*
X1680315Y1111985D01*
Y1114525D01*
X1677776Y1117064D01*
X1670158D01*
X1654923Y1084042D02*
X1657462Y1086581D01*
X1662541D01*
X1665080Y1084042D01*
Y1081503D01*
X1662541Y1078964D01*
X1660002D01*
X1662541D01*
X1665080Y1076424D01*
Y1073885D01*
X1662541Y1071346D01*
X1657462D01*
X1654923Y1073885D01*
X1662541Y1033246D02*
Y1048481D01*
X1654923Y1040864D01*
X1665080D01*
Y995146D02*
X1654923D01*
X1665080Y1005303D01*
Y1007842D01*
X1662541Y1010381D01*
X1657462D01*
X1654923Y1007842D01*
X1665080Y972281D02*
X1660002Y969742D01*
X1654923Y964664D01*
Y959585D01*
X1657462Y957046D01*
X1662541D01*
X1665080Y959585D01*
Y962124D01*
X1662541Y964664D01*
X1654923D01*
X1662541Y918946D02*
Y934181D01*
X1654923Y926564D01*
X1665080D01*
X1979940Y823708D02*
X1990097D01*
X1979940Y828786D02*
X1990097D01*
X2010410Y818629D02*
Y833864D01*
X2018028D01*
X2020567Y831325D01*
Y826247D01*
X2018028Y823708D01*
X2010410D01*
X2015489D02*
X2020567Y818629D01*
X2028185D02*
X2033263D01*
X2035802Y821169D01*
Y826247D01*
X2033263Y828786D01*
X2028185D01*
X2025645Y826247D01*
Y821169D01*
X2028185Y818629D01*
X2040880Y828786D02*
Y821169D01*
X2043420Y818629D01*
X2051037D01*
Y828786D01*
X2058655Y831325D02*
Y828786D01*
X2056116D01*
X2061194D01*
X2058655D01*
Y821169D01*
X2061194Y818629D01*
X2076429D02*
X2071351D01*
X2068811Y821169D01*
Y826247D01*
X2071351Y828786D01*
X2076429D01*
X2078968Y826247D01*
Y823708D01*
X2068811D01*
X2094203Y833864D02*
Y818629D01*
X2086586D01*
X2084046Y821169D01*
Y826247D01*
X2086586Y828786D01*
X2094203D01*
X2114517Y818629D02*
Y833864D01*
X2122134D01*
X2124673Y831325D01*
Y826247D01*
X2122134Y823708D01*
X2114517D01*
X2132291Y828786D02*
X2137369D01*
X2139908Y826247D01*
Y818629D01*
X2132291D01*
X2129752Y821169D01*
X2132291Y823708D01*
X2139908D01*
X2147526Y831325D02*
Y828786D01*
X2144987D01*
X2150065D01*
X2147526D01*
Y821169D01*
X2150065Y818629D01*
X2157683Y833864D02*
Y818629D01*
Y826247D01*
X2160222Y828786D01*
X2165300D01*
X2167839Y826247D01*
Y818629D01*
X2188153Y833864D02*
Y818629D01*
X2198309D01*
X2211005D02*
X2205927D01*
X2203388Y821169D01*
Y826247D01*
X2205927Y828786D01*
X2211005D01*
X2213544Y826247D01*
Y823708D01*
X2203388D01*
X2218623Y818629D02*
Y828786D01*
X2226240D01*
X2228780Y826247D01*
Y818629D01*
X2238936Y813551D02*
X2241476D01*
X2244015Y816090D01*
Y828786D01*
X2236397D01*
X2233858Y826247D01*
Y821169D01*
X2236397Y818629D01*
X2244015D01*
X2251632Y831325D02*
Y828786D01*
X2249093D01*
X2254171D01*
X2251632D01*
Y821169D01*
X2254171Y818629D01*
X2261789Y833864D02*
Y818629D01*
Y826247D01*
X2264328Y828786D01*
X2269406D01*
X2271946Y826247D01*
Y818629D01*
X2292259Y826247D02*
X2302416D01*
X2297337Y831325D02*
Y821169D01*
X2322729Y833864D02*
X2332886D01*
X2327808D01*
Y818629D01*
X2340504D02*
X2345582D01*
X2348121Y821169D01*
Y826247D01*
X2345582Y828786D01*
X2340504D01*
X2337964Y826247D01*
Y821169D01*
X2340504Y818629D01*
X2355739D02*
X2360817D01*
X2363356Y821169D01*
Y826247D01*
X2360817Y828786D01*
X2355739D01*
X2353199Y826247D01*
Y821169D01*
X2355739Y818629D01*
X2368434D02*
X2373513D01*
X2370974D01*
Y833864D01*
X2368434D01*
X2406522Y831325D02*
X2403983Y833864D01*
X2398905D01*
X2396365Y831325D01*
Y828786D01*
X2398905Y826247D01*
X2403983D01*
X2406522Y823708D01*
Y821169D01*
X2403983Y818629D01*
X2398905D01*
X2396365Y821169D01*
X2411600Y818629D02*
X2416679D01*
X2414140D01*
Y828786D01*
X2411600D01*
X2424296D02*
X2434453D01*
X2424296Y818629D01*
X2434453D01*
X2447149D02*
X2442071D01*
X2439531Y821169D01*
Y826247D01*
X2442071Y828786D01*
X2447149D01*
X2449688Y826247D01*
Y823708D01*
X2439531D01*
X2470002D02*
X2480158D01*
X2470002Y828786D02*
X2480158D01*
X2510628Y831325D02*
X2508089Y833864D01*
X2503011D01*
X2500472Y831325D01*
Y828786D01*
X2503011Y826247D01*
X2508089D01*
X2510628Y823708D01*
Y821169D01*
X2508089Y818629D01*
X2503011D01*
X2500472Y821169D01*
X2515707Y818629D02*
X2520785D01*
X2518246D01*
Y833864D01*
X2515707D01*
X2530942Y818629D02*
X2536020D01*
X2538559Y821169D01*
Y826247D01*
X2536020Y828786D01*
X2530942D01*
X2528403Y826247D01*
Y821169D01*
X2530942Y818629D01*
X2546177Y831325D02*
Y828786D01*
X2543638D01*
X2548716D01*
X2546177D01*
Y821169D01*
X2548716Y818629D01*
X2571569D02*
X2576647D01*
X2574108D01*
Y833864D01*
X2571569D01*
X2591882Y818629D02*
X2586804D01*
X2584265Y821169D01*
Y826247D01*
X2586804Y828786D01*
X2591882D01*
X2594421Y826247D01*
Y823708D01*
X2584265D01*
X2599500Y818629D02*
Y828786D01*
X2607117D01*
X2609656Y826247D01*
Y818629D01*
X2619813Y813551D02*
X2622352D01*
X2624891Y816090D01*
Y828786D01*
X2617274D01*
X2614735Y826247D01*
Y821169D01*
X2617274Y818629D01*
X2624891D01*
X2632509Y831325D02*
Y828786D01*
X2629970D01*
X2635048D01*
X2632509D01*
Y821169D01*
X2635048Y818629D01*
X2642666Y833864D02*
Y818629D01*
Y826247D01*
X2645205Y828786D01*
X2650283D01*
X2652822Y826247D01*
Y818629D01*
X2675675Y828786D02*
X2680753D01*
X2683293Y826247D01*
Y818629D01*
X2675675D01*
X2673136Y821169D01*
X2675675Y823708D01*
X2683293D01*
X2688371Y818629D02*
X2695988D01*
X2698528Y821169D01*
X2695988Y823708D01*
X2690910D01*
X2688371Y826247D01*
X2690910Y828786D01*
X2698528D01*
X2728998Y833864D02*
Y818629D01*
X2721380D01*
X2718841Y821169D01*
Y826247D01*
X2721380Y828786D01*
X2728998D01*
X2741694Y818629D02*
X2736615D01*
X2734076Y821169D01*
Y826247D01*
X2736615Y828786D01*
X2741694D01*
X2744233Y826247D01*
Y823708D01*
X2734076D01*
X2751850Y818629D02*
Y831325D01*
Y826247D01*
X2749311D01*
X2754390D01*
X2751850D01*
Y831325D01*
X2754390Y833864D01*
X2762007Y818629D02*
X2767085D01*
X2764546D01*
Y828786D01*
X2762007D01*
X2774703Y818629D02*
Y828786D01*
X2782321D01*
X2784860Y826247D01*
Y818629D01*
X2797556D02*
X2792477D01*
X2789938Y821169D01*
Y826247D01*
X2792477Y828786D01*
X2797556D01*
X2800095Y826247D01*
Y823708D01*
X2789938D01*
X2815330Y833864D02*
Y818629D01*
X2807712D01*
X2805173Y821169D01*
Y826247D01*
X2807712Y828786D01*
X2815330D01*
X2835643Y818629D02*
X2840722D01*
X2838182D01*
Y828786D01*
X2835643D01*
X2848339Y818629D02*
Y828786D01*
X2855957D01*
X2858496Y826247D01*
Y818629D01*
X2881349Y831325D02*
Y828786D01*
X2878809D01*
X2883888D01*
X2881349D01*
Y821169D01*
X2883888Y818629D01*
X2891505Y833864D02*
Y818629D01*
Y826247D01*
X2894044Y828786D01*
X2899123D01*
X2901662Y826247D01*
Y818629D01*
X2914358D02*
X2909279D01*
X2906740Y821169D01*
Y826247D01*
X2909279Y828786D01*
X2914358D01*
X2916897Y826247D01*
Y823708D01*
X2906740D01*
X2937210Y818629D02*
Y833864D01*
X2944828D01*
X2947367Y831325D01*
Y826247D01*
X2944828Y823708D01*
X2937210D01*
X2962602Y831325D02*
X2960063Y833864D01*
X2954985D01*
X2952445Y831325D01*
Y821169D01*
X2954985Y818629D01*
X2960063D01*
X2962602Y821169D01*
X2967680Y833864D02*
Y818629D01*
X2975298D01*
X2977837Y821169D01*
Y823708D01*
X2975298Y826247D01*
X2967680D01*
X2975298D01*
X2977837Y828786D01*
Y831325D01*
X2975298Y833864D01*
X2967680D01*
X2998151Y818629D02*
X3003229D01*
X3000690D01*
Y833864D01*
X2998151D01*
X3013386Y828786D02*
X3018464D01*
X3021003Y826247D01*
Y818629D01*
X3013386D01*
X3010847Y821169D01*
X3013386Y823708D01*
X3021003D01*
X3026082Y828786D02*
Y821169D01*
X3028621Y818629D01*
X3036238D01*
Y816090D01*
X3033699Y813551D01*
X3031160D01*
X3036238Y818629D02*
Y828786D01*
X3043856Y818629D02*
X3048934D01*
X3051473Y821169D01*
Y826247D01*
X3048934Y828786D01*
X3043856D01*
X3041317Y826247D01*
Y821169D01*
X3043856Y818629D01*
X3056552Y828786D02*
Y821169D01*
X3059091Y818629D01*
X3066708D01*
Y828786D01*
X3074326Y831325D02*
Y828786D01*
X3071787D01*
X3076865D01*
X3074326D01*
Y821169D01*
X3076865Y818629D01*
X2068811Y849101D02*
X2078968D01*
X2068811Y854180D02*
X2078968D01*
X2109438Y856719D02*
X2106899Y859258D01*
X2101821D01*
X2099281Y856719D01*
Y846562D01*
X2101821Y844023D01*
X2106899D01*
X2109438Y846562D01*
X2117056Y854180D02*
X2122134D01*
X2124673Y851640D01*
Y844023D01*
X2117056D01*
X2114517Y846562D01*
X2117056Y849101D01*
X2124673D01*
X2129752Y844023D02*
X2134830D01*
X2132291D01*
Y859258D01*
X2129752D01*
X2152604Y854180D02*
X2144987D01*
X2142448Y851640D01*
Y846562D01*
X2144987Y844023D01*
X2152604D01*
X2157683Y854180D02*
Y846562D01*
X2160222Y844023D01*
X2167839D01*
Y854180D01*
X2172918Y844023D02*
X2177996D01*
X2175457D01*
Y859258D01*
X2172918D01*
X2188153Y854180D02*
X2193231D01*
X2195770Y851640D01*
Y844023D01*
X2188153D01*
X2185614Y846562D01*
X2188153Y849101D01*
X2195770D01*
X2203388Y856719D02*
Y854180D01*
X2200849D01*
X2205927D01*
X2203388D01*
Y846562D01*
X2205927Y844023D01*
X2221162D02*
X2216084D01*
X2213544Y846562D01*
Y851640D01*
X2216084Y854180D01*
X2221162D01*
X2223701Y851640D01*
Y849101D01*
X2213544D01*
X2238936Y859258D02*
Y844023D01*
X2231319D01*
X2228780Y846562D01*
Y851640D01*
X2231319Y854180D01*
X2238936D01*
X2261789Y844023D02*
Y856719D01*
Y851640D01*
X2259250D01*
X2264328D01*
X2261789D01*
Y856719D01*
X2264328Y859258D01*
X2271946Y854180D02*
Y844023D01*
Y849101D01*
X2274485Y851640D01*
X2277024Y854180D01*
X2279563D01*
X2289720Y844023D02*
X2294798D01*
X2297337Y846562D01*
Y851640D01*
X2294798Y854180D01*
X2289720D01*
X2287181Y851640D01*
Y846562D01*
X2289720Y844023D01*
X2302416D02*
Y854180D01*
X2304955D01*
X2307494Y851640D01*
Y844023D01*
Y851640D01*
X2310033Y854180D01*
X2312572Y851640D01*
Y844023D01*
X2335425Y856719D02*
Y854180D01*
X2332886D01*
X2337964D01*
X2335425D01*
Y846562D01*
X2337964Y844023D01*
X2348121D02*
X2353199D01*
X2355739Y846562D01*
Y851640D01*
X2353199Y854180D01*
X2348121D01*
X2345582Y851640D01*
Y846562D01*
X2348121Y844023D01*
X2363356D02*
X2368434D01*
X2370974Y846562D01*
Y851640D01*
X2368434Y854180D01*
X2363356D01*
X2360817Y851640D01*
Y846562D01*
X2363356Y844023D01*
X2376052D02*
X2381130D01*
X2378591D01*
Y859258D01*
X2376052D01*
X2403983Y844023D02*
X2411600D01*
X2414140Y846562D01*
X2411600Y849101D01*
X2406522D01*
X2403983Y851640D01*
X2406522Y854180D01*
X2414140D01*
X2421757Y856719D02*
Y854180D01*
X2419218D01*
X2424296D01*
X2421757D01*
Y846562D01*
X2424296Y844023D01*
X2434453Y854180D02*
X2439531D01*
X2442071Y851640D01*
Y844023D01*
X2434453D01*
X2431914Y846562D01*
X2434453Y849101D01*
X2442071D01*
X2447149Y854180D02*
Y844023D01*
Y849101D01*
X2449688Y851640D01*
X2452227Y854180D01*
X2454767D01*
X2464923Y856719D02*
Y854180D01*
X2462384D01*
X2467462D01*
X2464923D01*
Y846562D01*
X2467462Y844023D01*
X2500472Y854180D02*
X2492854D01*
X2490315Y851640D01*
Y846562D01*
X2492854Y844023D01*
X2500472D01*
X2513168D02*
X2508089D01*
X2505550Y846562D01*
Y851640D01*
X2508089Y854180D01*
X2513168D01*
X2515707Y851640D01*
Y849101D01*
X2505550D01*
X2520785Y844023D02*
Y854180D01*
X2528403D01*
X2530942Y851640D01*
Y844023D01*
X2538559Y856719D02*
Y854180D01*
X2536020D01*
X2541098D01*
X2538559D01*
Y846562D01*
X2541098Y844023D01*
X2548716Y854180D02*
Y844023D01*
Y849101D01*
X2551255Y851640D01*
X2553794Y854180D01*
X2556334D01*
X2571569Y844023D02*
X2566490D01*
X2563951Y846562D01*
Y851640D01*
X2566490Y854180D01*
X2571569D01*
X2574108Y851640D01*
Y849101D01*
X2563951D01*
X2594421Y838944D02*
Y854180D01*
X2602039D01*
X2604578Y851640D01*
Y846562D01*
X2602039Y844023D01*
X2594421D01*
X2612195D02*
X2617274D01*
X2619813Y846562D01*
Y851640D01*
X2617274Y854180D01*
X2612195D01*
X2609656Y851640D01*
Y846562D01*
X2612195Y844023D01*
X2624891D02*
X2632509D01*
X2635048Y846562D01*
X2632509Y849101D01*
X2627431D01*
X2624891Y851640D01*
X2627431Y854180D01*
X2635048D01*
X2640127Y844023D02*
X2645205D01*
X2642666D01*
Y854180D01*
X2640127D01*
X2655362Y856719D02*
Y854180D01*
X2652822D01*
X2657901D01*
X2655362D01*
Y846562D01*
X2657901Y844023D01*
X2665518D02*
X2670597D01*
X2668058D01*
Y854180D01*
X2665518D01*
X2680753Y844023D02*
X2685832D01*
X2688371Y846562D01*
Y851640D01*
X2685832Y854180D01*
X2680753D01*
X2678214Y851640D01*
Y846562D01*
X2680753Y844023D01*
X2693449D02*
Y854180D01*
X2701067D01*
X2703606Y851640D01*
Y844023D01*
X2726459Y856719D02*
Y854180D01*
X2723919D01*
X2728998D01*
X2726459D01*
Y846562D01*
X2728998Y844023D01*
X2739154D02*
X2744233D01*
X2746772Y846562D01*
Y851640D01*
X2744233Y854180D01*
X2739154D01*
X2736615Y851640D01*
Y846562D01*
X2739154Y844023D01*
X2769625Y856719D02*
Y854180D01*
X2767085D01*
X2772164D01*
X2769625D01*
Y846562D01*
X2772164Y844023D01*
X2782321D02*
X2787399D01*
X2789938Y846562D01*
Y851640D01*
X2787399Y854180D01*
X2782321D01*
X2779781Y851640D01*
Y846562D01*
X2782321Y844023D01*
X2797556D02*
X2802634D01*
X2805173Y846562D01*
Y851640D01*
X2802634Y854180D01*
X2797556D01*
X2795016Y851640D01*
Y846562D01*
X2797556Y844023D01*
X2810251D02*
X2815330D01*
X2812791D01*
Y859258D01*
X2810251D01*
X2845800Y844023D02*
X2840722D01*
X2838182Y846562D01*
Y851640D01*
X2840722Y854180D01*
X2845800D01*
X2848339Y851640D01*
Y849101D01*
X2838182D01*
X2853417Y844023D02*
Y854180D01*
X2861035D01*
X2863574Y851640D01*
Y844023D01*
X2878809Y859258D02*
Y844023D01*
X2871192D01*
X2868653Y846562D01*
Y851640D01*
X2871192Y854180D01*
X2878809D01*
X2909279D02*
X2901662D01*
X2899123Y851640D01*
Y846562D01*
X2901662Y844023D01*
X2909279D01*
X2921975D02*
X2916897D01*
X2914358Y846562D01*
Y851640D01*
X2916897Y854180D01*
X2921975D01*
X2924514Y851640D01*
Y849101D01*
X2914358D01*
X2929593Y844023D02*
Y854180D01*
X2937210D01*
X2939749Y851640D01*
Y844023D01*
X2947367Y856719D02*
Y854180D01*
X2944828D01*
X2949906D01*
X2947367D01*
Y846562D01*
X2949906Y844023D01*
X2957524Y854180D02*
Y844023D01*
Y849101D01*
X2960063Y851640D01*
X2962602Y854180D01*
X2965141D01*
X2980376Y844023D02*
X2975298D01*
X2972759Y846562D01*
Y851640D01*
X2975298Y854180D01*
X2980376D01*
X2982916Y851640D01*
Y849101D01*
X2972759D01*
X3003229Y838944D02*
Y854180D01*
X3010847D01*
X3013386Y851640D01*
Y846562D01*
X3010847Y844023D01*
X3003229D01*
X3021003D02*
X3026082D01*
X3028621Y846562D01*
Y851640D01*
X3026082Y854180D01*
X3021003D01*
X3018464Y851640D01*
Y846562D01*
X3021003Y844023D01*
X3033699D02*
X3041317D01*
X3043856Y846562D01*
X3041317Y849101D01*
X3036238D01*
X3033699Y851640D01*
X3036238Y854180D01*
X3043856D01*
X3048934Y844023D02*
X3054012D01*
X3051473D01*
Y854180D01*
X3048934D01*
X3064169Y856719D02*
Y854180D01*
X3061630D01*
X3066708D01*
X3064169D01*
Y846562D01*
X3066708Y844023D01*
X3074326D02*
X3079404D01*
X3076865D01*
Y854180D01*
X3074326D01*
X3089561Y844023D02*
X3094639D01*
X3097179Y846562D01*
Y851640D01*
X3094639Y854180D01*
X3089561D01*
X3087022Y851640D01*
Y846562D01*
X3089561Y844023D01*
X3102257D02*
Y854180D01*
X3109875D01*
X3112414Y851640D01*
Y844023D01*
X3117492D02*
Y846562D01*
X3120031D01*
Y844023D01*
X3117492D01*
D50*
X-1463208Y377900D02*
G03*
X-1463208Y377900I-4572J0D01*
G01*
X-1460160D02*
G03*
X-1460160Y377900I-7620J0D01*
G01*
X-1463208Y962100D02*
G03*
X-1463208Y962100I-4572J0D01*
G01*
X-1460160D02*
G03*
X-1460160Y962100I-7620J0D01*
G01*
X-1427648Y377900D02*
G03*
X-1427648Y377900I-4572J0D01*
G01*
X-1424600D02*
G03*
X-1424600Y377900I-7620J0D01*
G01*
X-500280Y876200D02*
G03*
X-500280Y876200I-7620J0D01*
G01*
Y850800D02*
G03*
X-500280Y850800I-7620J0D01*
G01*
Y825400D02*
G03*
X-500280Y825400I-7620J0D01*
G01*
Y774600D02*
G03*
X-500280Y774600I-7620J0D01*
G01*
Y749200D02*
G03*
X-500280Y749200I-7620J0D01*
G01*
Y723800D02*
G03*
X-500280Y723800I-7620J0D01*
G01*
Y698400D02*
G03*
X-500280Y698400I-7620J0D01*
G01*
Y673000D02*
G03*
X-500280Y673000I-7620J0D01*
G01*
Y647600D02*
G03*
X-500280Y647600I-7620J0D01*
G01*
Y977800D02*
G03*
X-500280Y977800I-7620J0D01*
G01*
Y1028600D02*
G03*
X-500280Y1028600I-7620J0D01*
G01*
Y1003200D02*
G03*
X-500280Y1003200I-7620J0D01*
G01*
Y622200D02*
G03*
X-500280Y622200I-7620J0D01*
G01*
Y596800D02*
G03*
X-500280Y596800I-7620J0D01*
G01*
Y571400D02*
G03*
X-500280Y571400I-7620J0D01*
G01*
Y901600D02*
G03*
X-500280Y901600I-7620J0D01*
G01*
Y952400D02*
G03*
X-500280Y952400I-7620J0D01*
G01*
Y927000D02*
G03*
X-500280Y927000I-7620J0D01*
G01*
Y800000D02*
G03*
X-500280Y800000I-7620J0D01*
G01*
X-474880D02*
G03*
X-474880Y800000I-7620J0D01*
G01*
Y927000D02*
G03*
X-474880Y927000I-7620J0D01*
G01*
Y952400D02*
G03*
X-474880Y952400I-7620J0D01*
G01*
Y901600D02*
G03*
X-474880Y901600I-7620J0D01*
G01*
Y596800D02*
G03*
X-474880Y596800I-7620J0D01*
G01*
Y622200D02*
G03*
X-474880Y622200I-7620J0D01*
G01*
Y1003200D02*
G03*
X-474880Y1003200I-7620J0D01*
G01*
Y1028600D02*
G03*
X-474880Y1028600I-7620J0D01*
G01*
Y977800D02*
G03*
X-474880Y977800I-7620J0D01*
G01*
Y647600D02*
G03*
X-474880Y647600I-7620J0D01*
G01*
Y673000D02*
G03*
X-474880Y673000I-7620J0D01*
G01*
Y698400D02*
G03*
X-474880Y698400I-7620J0D01*
G01*
Y723800D02*
G03*
X-474880Y723800I-7620J0D01*
G01*
Y749200D02*
G03*
X-474880Y749200I-7620J0D01*
G01*
Y774600D02*
G03*
X-474880Y774600I-7620J0D01*
G01*
Y825400D02*
G03*
X-474880Y825400I-7620J0D01*
G01*
Y850800D02*
G03*
X-474880Y850800I-7620J0D01*
G01*
Y876200D02*
G03*
X-474880Y876200I-7620J0D01*
G01*
Y571400D02*
G03*
X-474880Y571400I-7620J0D01*
G01*
X-1084480D02*
G03*
X-1084480Y571400I-7620J0D01*
G01*
Y876200D02*
G03*
X-1084480Y876200I-7620J0D01*
G01*
Y850800D02*
G03*
X-1084480Y850800I-7620J0D01*
G01*
Y825400D02*
G03*
X-1084480Y825400I-7620J0D01*
G01*
Y774600D02*
G03*
X-1084480Y774600I-7620J0D01*
G01*
Y749200D02*
G03*
X-1084480Y749200I-7620J0D01*
G01*
Y723800D02*
G03*
X-1084480Y723800I-7620J0D01*
G01*
Y698400D02*
G03*
X-1084480Y698400I-7620J0D01*
G01*
Y673000D02*
G03*
X-1084480Y673000I-7620J0D01*
G01*
Y647600D02*
G03*
X-1084480Y647600I-7620J0D01*
G01*
Y977800D02*
G03*
X-1084480Y977800I-7620J0D01*
G01*
Y1028600D02*
G03*
X-1084480Y1028600I-7620J0D01*
G01*
Y1003200D02*
G03*
X-1084480Y1003200I-7620J0D01*
G01*
Y622200D02*
G03*
X-1084480Y622200I-7620J0D01*
G01*
Y596800D02*
G03*
X-1084480Y596800I-7620J0D01*
G01*
Y901600D02*
G03*
X-1084480Y901600I-7620J0D01*
G01*
Y952400D02*
G03*
X-1084480Y952400I-7620J0D01*
G01*
Y927000D02*
G03*
X-1084480Y927000I-7620J0D01*
G01*
Y800000D02*
G03*
X-1084480Y800000I-7620J0D01*
G01*
X-1109880D02*
G03*
X-1109880Y800000I-7620J0D01*
G01*
Y927000D02*
G03*
X-1109880Y927000I-7620J0D01*
G01*
Y952400D02*
G03*
X-1109880Y952400I-7620J0D01*
G01*
Y901600D02*
G03*
X-1109880Y901600I-7620J0D01*
G01*
Y571400D02*
G03*
X-1109880Y571400I-7620J0D01*
G01*
Y596800D02*
G03*
X-1109880Y596800I-7620J0D01*
G01*
Y622200D02*
G03*
X-1109880Y622200I-7620J0D01*
G01*
Y1003200D02*
G03*
X-1109880Y1003200I-7620J0D01*
G01*
Y1028600D02*
G03*
X-1109880Y1028600I-7620J0D01*
G01*
Y977800D02*
G03*
X-1109880Y977800I-7620J0D01*
G01*
Y647600D02*
G03*
X-1109880Y647600I-7620J0D01*
G01*
Y673000D02*
G03*
X-1109880Y673000I-7620J0D01*
G01*
Y698400D02*
G03*
X-1109880Y698400I-7620J0D01*
G01*
Y723800D02*
G03*
X-1109880Y723800I-7620J0D01*
G01*
Y749200D02*
G03*
X-1109880Y749200I-7620J0D01*
G01*
Y774600D02*
G03*
X-1109880Y774600I-7620J0D01*
G01*
Y825400D02*
G03*
X-1109880Y825400I-7620J0D01*
G01*
Y850800D02*
G03*
X-1109880Y850800I-7620J0D01*
G01*
Y876200D02*
G03*
X-1109880Y876200I-7620J0D01*
G01*
X-930000Y1168825D02*
X-925428Y1177969D01*
X-934572D02*
X-925428D01*
X-934572D02*
X-930000Y1168825D01*
Y1165777D02*
X-922380Y1181017D01*
X-937620D02*
X-922380D01*
X-937620D02*
X-930000Y1165777D01*
X-940000Y1175428D02*
X-935428Y1184572D01*
X-944572D02*
X-935428D01*
X-944572D02*
X-940000Y1175428D01*
Y1172380D02*
X-932380Y1187620D01*
X-947620D02*
X-932380D01*
X-947620D02*
X-940000Y1172380D01*
X-950000Y1181698D02*
X-945428Y1190842D01*
X-954572D02*
X-945428D01*
X-954572D02*
X-950000Y1181698D01*
Y1178650D02*
X-942380Y1193890D01*
X-957620D02*
X-942380D01*
X-957620D02*
X-950000Y1178650D01*
X-900000Y1148678D02*
X-895428Y1157822D01*
X-904572D02*
X-895428D01*
X-904572D02*
X-900000Y1148678D01*
Y1145630D02*
X-892380Y1160870D01*
X-907620D02*
X-892380D01*
X-907620D02*
X-900000Y1145630D01*
X-920000Y1162718D02*
X-915428Y1171862D01*
X-924572D02*
X-915428D01*
X-924572D02*
X-920000Y1162718D01*
Y1159670D02*
X-912380Y1174910D01*
X-927620D02*
X-912380D01*
X-927620D02*
X-920000Y1159670D01*
X-910000Y1155802D02*
X-905428Y1164946D01*
X-914572D02*
X-905428D01*
X-914572D02*
X-910000Y1155802D01*
Y1152754D02*
X-902380Y1167994D01*
X-917620D02*
X-902380D01*
X-917620D02*
X-910000Y1152754D01*
X-930000Y1128658D02*
X-925428Y1137802D01*
X-934572D02*
X-925428D01*
X-934572D02*
X-930000Y1128658D01*
Y1125610D02*
X-922380Y1140850D01*
X-937620D02*
X-922380D01*
X-937620D02*
X-930000Y1125610D01*
X-910497Y1141658D02*
X-905925Y1150802D01*
X-915069D02*
X-905925D01*
X-915069D02*
X-910497Y1141658D01*
Y1138610D02*
X-902877Y1153850D01*
X-918117D02*
X-902877D01*
X-918117D02*
X-910497Y1138610D01*
X-920000Y1135158D02*
X-915428Y1144302D01*
X-924572D02*
X-915428D01*
X-924572D02*
X-920000Y1135158D01*
Y1132110D02*
X-912380Y1147350D01*
X-927620D02*
X-912380D01*
X-927620D02*
X-920000Y1132110D01*
X-1067635Y1125359D02*
X-1063063Y1134503D01*
X-1072207D02*
X-1063063D01*
X-1072207D02*
X-1067635Y1125359D01*
Y1122311D02*
X-1060015Y1137551D01*
X-1075255D02*
X-1060015D01*
X-1075255D02*
X-1067635Y1122311D01*
X-1074251Y1117860D02*
X-1069679Y1127004D01*
X-1078823D02*
X-1069679D01*
X-1078823D02*
X-1074251Y1117860D01*
Y1114812D02*
X-1066631Y1130052D01*
X-1081871D02*
X-1066631D01*
X-1081871D02*
X-1074251Y1114812D01*
X-1061014Y1132853D02*
X-1056442Y1141997D01*
X-1065586D02*
X-1056442D01*
X-1065586D02*
X-1061014Y1132853D01*
Y1129805D02*
X-1053394Y1145045D01*
X-1068634D02*
X-1053394D01*
X-1068634D02*
X-1061014Y1129805D01*
X-1077000Y1108245D02*
X-1072428Y1117390D01*
X-1081572D02*
X-1072428D01*
X-1081572D02*
X-1077000Y1108245D01*
Y1105198D02*
X-1069380Y1120437D01*
X-1084620D02*
X-1069380D01*
X-1084620D02*
X-1077000Y1105198D01*
X-1054047Y1140026D02*
X-1049475Y1149170D01*
X-1058619D02*
X-1049475D01*
X-1058619D02*
X-1054047Y1140026D01*
Y1136978D02*
X-1046427Y1152218D01*
X-1061667D02*
X-1046427D01*
X-1061667D02*
X-1054047Y1136978D01*
X-940000Y1109678D02*
X-935428Y1118822D01*
X-944572D02*
X-935428D01*
X-944572D02*
X-940000Y1109678D01*
Y1106630D02*
X-932380Y1121870D01*
X-947620D02*
X-932380D01*
X-947620D02*
X-940000Y1106630D01*
X-148477Y987467D02*
X-143905Y996611D01*
X-153049D02*
X-143905D01*
X-153049D02*
X-148477Y987467D01*
Y984419D02*
X-140857Y999659D01*
X-156097D02*
X-140857D01*
X-156097D02*
X-148477Y984419D01*
X-550000Y1183474D02*
X-545428Y1192617D01*
X-554572D02*
X-545428D01*
X-554572D02*
X-550000Y1183474D01*
Y1180425D02*
X-542380Y1195666D01*
X-557620D02*
X-542380D01*
X-557620D02*
X-550000Y1180425D01*
X-540000Y1183474D02*
X-535428Y1192617D01*
X-544572D02*
X-535428D01*
X-544572D02*
X-540000Y1183474D01*
Y1180425D02*
X-532380Y1195666D01*
X-547620D02*
X-532380D01*
X-547620D02*
X-540000Y1180425D01*
X-530000Y1183474D02*
X-525428Y1192617D01*
X-534572D02*
X-525428D01*
X-534572D02*
X-530000Y1183474D01*
Y1180425D02*
X-522380Y1195666D01*
X-537620D02*
X-522380D01*
X-537620D02*
X-530000Y1180425D01*
X-520000Y1183474D02*
X-515428Y1192617D01*
X-524572D02*
X-515428D01*
X-524572D02*
X-520000Y1183474D01*
Y1180425D02*
X-512380Y1195666D01*
X-527620D02*
X-512380D01*
X-527620D02*
X-520000Y1180425D01*
X-510000Y1183474D02*
X-505428Y1192617D01*
X-514572D02*
X-505428D01*
X-514572D02*
X-510000Y1183474D01*
Y1180425D02*
X-502380Y1195666D01*
X-517620D02*
X-502380D01*
X-517620D02*
X-510000Y1180425D01*
X-500000Y1183474D02*
X-495428Y1192617D01*
X-504572D02*
X-495428D01*
X-504572D02*
X-500000Y1183474D01*
Y1180425D02*
X-492380Y1195666D01*
X-507620D02*
X-492380D01*
X-507620D02*
X-500000Y1180425D01*
X-490000Y1183474D02*
X-485428Y1192617D01*
X-494572D02*
X-485428D01*
X-494572D02*
X-490000Y1183474D01*
Y1180425D02*
X-482380Y1195666D01*
X-497620D02*
X-482380D01*
X-497620D02*
X-490000Y1180425D01*
X-480000Y1183474D02*
X-475428Y1192617D01*
X-484572D02*
X-475428D01*
X-484572D02*
X-480000Y1183474D01*
Y1180425D02*
X-472380Y1195666D01*
X-487620D02*
X-472380D01*
X-487620D02*
X-480000Y1180425D01*
X-470000Y1183474D02*
X-465428Y1192617D01*
X-474572D02*
X-465428D01*
X-474572D02*
X-470000Y1183474D01*
Y1180425D02*
X-462380Y1195666D01*
X-477620D02*
X-462380D01*
X-477620D02*
X-470000Y1180425D01*
X-460000Y1183474D02*
X-455428Y1192617D01*
X-464572D02*
X-455428D01*
X-464572D02*
X-460000Y1183474D01*
Y1180425D02*
X-452380Y1195666D01*
X-467620D02*
X-452380D01*
X-467620D02*
X-460000Y1180425D01*
X-450000Y1183474D02*
X-445428Y1192617D01*
X-454572D02*
X-445428D01*
X-454572D02*
X-450000Y1183474D01*
Y1180425D02*
X-442380Y1195666D01*
X-457620D02*
X-442380D01*
X-457620D02*
X-450000Y1180425D01*
X-1500500Y1100910D02*
X-1495928Y1110054D01*
X-1505072D02*
X-1495928D01*
X-1505072D02*
X-1500500Y1100910D01*
Y1097862D02*
X-1492880Y1113102D01*
X-1508120D02*
X-1492880D01*
X-1508120D02*
X-1500500Y1097862D01*
Y1113678D02*
X-1495928Y1122822D01*
X-1505072D02*
X-1495928D01*
X-1505072D02*
X-1500500Y1113678D01*
Y1110630D02*
X-1492880Y1125870D01*
X-1508120D02*
X-1492880D01*
X-1508120D02*
X-1500500Y1110630D01*
Y1126378D02*
X-1495928Y1135522D01*
X-1505072D02*
X-1495928D01*
X-1505072D02*
X-1500500Y1126378D01*
Y1123330D02*
X-1492880Y1138570D01*
X-1508120D02*
X-1492880D01*
X-1508120D02*
X-1500500Y1123330D01*
X-1499959Y1138463D02*
X-1495387Y1147607D01*
X-1504531D02*
X-1495387D01*
X-1504531D02*
X-1499959Y1138463D01*
Y1135415D02*
X-1492339Y1150655D01*
X-1507579D02*
X-1492339D01*
X-1507579D02*
X-1499959Y1135415D01*
Y1151778D02*
X-1495387Y1160922D01*
X-1504531D02*
X-1495387D01*
X-1504531D02*
X-1499959Y1151778D01*
Y1148730D02*
X-1492339Y1163970D01*
X-1507579D02*
X-1492339D01*
X-1507579D02*
X-1499959Y1148730D01*
Y1165428D02*
X-1495387Y1174572D01*
X-1504531D02*
X-1495387D01*
X-1504531D02*
X-1499959Y1165428D01*
Y1162380D02*
X-1492339Y1177620D01*
X-1507579D02*
X-1492339D01*
X-1507579D02*
X-1499959Y1162380D01*
Y1177908D02*
X-1495387Y1187052D01*
X-1504531D02*
X-1495387D01*
X-1504531D02*
X-1499959Y1177908D01*
Y1174860D02*
X-1492339Y1190100D01*
X-1507579D02*
X-1492339D01*
X-1507579D02*
X-1499959Y1174860D01*
X-1499689Y1190605D02*
X-1495117Y1199750D01*
X-1504261D02*
X-1495117D01*
X-1504261D02*
X-1499689Y1190605D01*
Y1187558D02*
X-1492069Y1202797D01*
X-1507309D02*
X-1492069D01*
X-1507309D02*
X-1499689Y1187558D01*
X-1500750Y191057D02*
X-1496178Y200201D01*
X-1505322D02*
X-1496178D01*
X-1505322D02*
X-1500750Y191057D01*
Y188009D02*
X-1493130Y203249D01*
X-1508370D02*
X-1493130D01*
X-1508370D02*
X-1500750Y188009D01*
X-1501020Y178359D02*
X-1496448Y187503D01*
X-1505592D02*
X-1496448D01*
X-1505592D02*
X-1501020Y178359D01*
Y175311D02*
X-1493400Y190551D01*
X-1508640D02*
X-1493400D01*
X-1508640D02*
X-1501020Y175311D01*
Y165879D02*
X-1496448Y175023D01*
X-1505592D02*
X-1496448D01*
X-1505592D02*
X-1501020Y165879D01*
Y162831D02*
X-1493400Y178071D01*
X-1508640D02*
X-1493400D01*
X-1508640D02*
X-1501020Y162831D01*
Y152229D02*
X-1496448Y161373D01*
X-1505592D02*
X-1496448D01*
X-1505592D02*
X-1501020Y152229D01*
Y149181D02*
X-1493400Y164421D01*
X-1508640D02*
X-1493400D01*
X-1508640D02*
X-1501020Y149181D01*
Y138914D02*
X-1496448Y148059D01*
X-1505592D02*
X-1496448D01*
X-1505592D02*
X-1501020Y138914D01*
Y135866D02*
X-1493400Y151107D01*
X-1508640D02*
X-1493400D01*
X-1508640D02*
X-1501020Y135866D01*
X-1501561Y126829D02*
X-1496989Y135973D01*
X-1506133D02*
X-1496989D01*
X-1506133D02*
X-1501561Y126829D01*
Y123781D02*
X-1493941Y139021D01*
X-1509181D02*
X-1493941D01*
X-1509181D02*
X-1501561Y123781D01*
Y114129D02*
X-1496989Y123273D01*
X-1506133D02*
X-1496989D01*
X-1506133D02*
X-1501561Y114129D01*
Y111081D02*
X-1493941Y126321D01*
X-1509181D02*
X-1493941D01*
X-1509181D02*
X-1501561Y111081D01*
Y101361D02*
X-1496989Y110505D01*
X-1506133D02*
X-1496989D01*
X-1506133D02*
X-1501561Y101361D01*
Y98313D02*
X-1493941Y113553D01*
X-1509181D02*
X-1493941D01*
X-1509181D02*
X-1501561Y98313D01*
X-99321Y138405D02*
X-94749Y147549D01*
X-103893D02*
X-94749D01*
X-103893D02*
X-99321Y138405D01*
Y135357D02*
X-91701Y150597D01*
X-106941D02*
X-91701D01*
X-106941D02*
X-99321Y135357D01*
X-1435050Y1004409D02*
X-1430478Y1013553D01*
X-1439622D02*
X-1430478D01*
X-1439622D02*
X-1435050Y1004409D01*
Y1001361D02*
X-1427430Y1016601D01*
X-1442670D02*
X-1427430D01*
X-1442670D02*
X-1435050Y1001361D01*
X-1340000Y698128D02*
X-1335428Y707272D01*
X-1344572D02*
X-1335428D01*
X-1344572D02*
X-1340000Y698128D01*
Y695080D02*
X-1332380Y710320D01*
X-1347620D02*
X-1332380D01*
X-1347620D02*
X-1340000Y695080D01*
X-640000Y1195428D02*
X-635428Y1204572D01*
X-644572D02*
X-635428D01*
X-644572D02*
X-640000Y1195428D01*
Y1192380D02*
X-632380Y1207620D01*
X-647620D02*
X-632380D01*
X-647620D02*
X-640000Y1192380D01*
X-99321Y151720D02*
X-94749Y160864D01*
X-103893D02*
X-94749D01*
X-103893D02*
X-99321Y151720D01*
Y148672D02*
X-91701Y163912D01*
X-106941D02*
X-91701D01*
X-106941D02*
X-99321Y148672D01*
Y165370D02*
X-94749Y174514D01*
X-103893D02*
X-94749D01*
X-103893D02*
X-99321Y165370D01*
Y162322D02*
X-91701Y177562D01*
X-106941D02*
X-91701D01*
X-106941D02*
X-99321Y162322D01*
X-98781Y113620D02*
X-94209Y122764D01*
X-103353D02*
X-94209D01*
X-103353D02*
X-98781Y113620D01*
Y110572D02*
X-91161Y125812D01*
X-106401D02*
X-91161D01*
X-106401D02*
X-98781Y110572D01*
Y126320D02*
X-94209Y135464D01*
X-103353D02*
X-94209D01*
X-103353D02*
X-98781Y126320D01*
Y123272D02*
X-91161Y138512D01*
X-106401D02*
X-91161D01*
X-106401D02*
X-98781Y123272D01*
Y100852D02*
X-94209Y109996D01*
X-103353D02*
X-94209D01*
X-103353D02*
X-98781Y100852D01*
Y97804D02*
X-91161Y113044D01*
X-106401D02*
X-91161D01*
X-106401D02*
X-98781Y97804D01*
X-810000Y1205428D02*
X-805428Y1214572D01*
X-814572D02*
X-805428D01*
X-814572D02*
X-810000Y1205428D01*
Y1202380D02*
X-802380Y1217620D01*
X-817620D02*
X-802380D01*
X-817620D02*
X-810000Y1202380D01*
X-940958Y1122158D02*
X-936386Y1131302D01*
X-945530D02*
X-936386D01*
X-945530D02*
X-940958Y1122158D01*
Y1119110D02*
X-933338Y1134350D01*
X-948578D02*
X-933338D01*
X-948578D02*
X-940958Y1119110D01*
X-670000Y1155802D02*
X-665428Y1164946D01*
X-674572D02*
X-665428D01*
X-674572D02*
X-670000Y1155802D01*
Y1152754D02*
X-662380Y1167994D01*
X-677620D02*
X-662380D01*
X-677620D02*
X-670000Y1152754D01*
X-662522Y1144157D02*
X-657950Y1153301D01*
X-667094D02*
X-657950D01*
X-667094D02*
X-662522Y1144157D01*
Y1141109D02*
X-654902Y1156349D01*
X-670142D02*
X-654902D01*
X-670142D02*
X-662522Y1141109D01*
X-653686Y1126529D02*
X-649113Y1135673D01*
X-658258D02*
X-649113D01*
X-658258D02*
X-653686Y1126529D01*
Y1123481D02*
X-646066Y1138721D01*
X-661305D02*
X-646066D01*
X-661305D02*
X-653686Y1123481D01*
X-645502Y1114574D02*
X-640930Y1123718D01*
X-650074D02*
X-640930D01*
X-650074D02*
X-645502Y1114574D01*
Y1111526D02*
X-637882Y1126766D01*
X-653122D02*
X-637882D01*
X-653122D02*
X-645502Y1111526D01*
X-930625Y135428D02*
X-926053Y144572D01*
X-935197D02*
X-926053D01*
X-935197D02*
X-930625Y135428D01*
Y132380D02*
X-923005Y147620D01*
X-938245D02*
X-923005D01*
X-938245D02*
X-930625Y132380D01*
X-850000Y135428D02*
X-845428Y144572D01*
X-854572D02*
X-845428D01*
X-854572D02*
X-850000Y135428D01*
Y132380D02*
X-842380Y147620D01*
X-857620D02*
X-842380D01*
X-857620D02*
X-850000Y132380D01*
X-822750Y186678D02*
X-818178Y195822D01*
X-827322D02*
X-818178D01*
X-827322D02*
X-822750Y186678D01*
Y183630D02*
X-815130Y198870D01*
X-830370D02*
X-815130D01*
X-830370D02*
X-822750Y183630D01*
X-97632Y888230D02*
X-93060Y897374D01*
X-102204D02*
X-93060D01*
X-102204D02*
X-97632Y888230D01*
Y885182D02*
X-90012Y900422D01*
X-105252D02*
X-90012D01*
X-105252D02*
X-97632Y885182D01*
X-97092Y876144D02*
X-92520Y885288D01*
X-101664D02*
X-92520D01*
X-101664D02*
X-97092Y876144D01*
Y873096D02*
X-89472Y888336D01*
X-104712D02*
X-89472D01*
X-104712D02*
X-97092Y873096D01*
X-97632Y915194D02*
X-93060Y924339D01*
X-102204D02*
X-93060D01*
X-102204D02*
X-97632Y915194D01*
Y912147D02*
X-90012Y927386D01*
X-105252D02*
X-90012D01*
X-105252D02*
X-97632Y912147D01*
Y901544D02*
X-93060Y910688D01*
X-102204D02*
X-93060D01*
X-102204D02*
X-97632Y901544D01*
Y898496D02*
X-90012Y913736D01*
X-105252D02*
X-90012D01*
X-105252D02*
X-97632Y898496D01*
Y927674D02*
X-93060Y936818D01*
X-102204D02*
X-93060D01*
X-102204D02*
X-97632Y927674D01*
Y924626D02*
X-90012Y939866D01*
X-105252D02*
X-90012D01*
X-105252D02*
X-97632Y924626D01*
X-97092Y863445D02*
X-92520Y872589D01*
X-101664D02*
X-92520D01*
X-101664D02*
X-97092Y863445D01*
Y860396D02*
X-89472Y875637D01*
X-104712D02*
X-89472D01*
X-104712D02*
X-97092Y860396D01*
Y850677D02*
X-92520Y859821D01*
X-101664D02*
X-92520D01*
X-101664D02*
X-97092Y850677D01*
Y847629D02*
X-89472Y862869D01*
X-104712D02*
X-89472D01*
X-104712D02*
X-97092Y847629D01*
X-97902Y940372D02*
X-93330Y949516D01*
X-102474D02*
X-93330D01*
X-102474D02*
X-97902Y940372D01*
Y937324D02*
X-90282Y952564D01*
X-105522D02*
X-90282D01*
X-105522D02*
X-97902Y937324D01*
X-150856Y638420D02*
X-146284Y647564D01*
X-155428D02*
X-146284D01*
X-155428D02*
X-150856Y638420D01*
Y635373D02*
X-143236Y650612D01*
X-158476D02*
X-143236D01*
X-158476D02*
X-150856Y635373D01*
X-99321Y177850D02*
X-94749Y186994D01*
X-103893D02*
X-94749D01*
X-103893D02*
X-99321Y177850D01*
Y174802D02*
X-91701Y190042D01*
X-106941D02*
X-91701D01*
X-106941D02*
X-99321Y174802D01*
X-99591Y190548D02*
X-95019Y199692D01*
X-104163D02*
X-95019D01*
X-104163D02*
X-99591Y190548D01*
Y187500D02*
X-91971Y202740D01*
X-107211D02*
X-91971D01*
X-107211D02*
X-99591Y187500D01*
X-1150000Y888081D02*
X-1145428Y897225D01*
X-1154572D02*
X-1145428D01*
X-1154572D02*
X-1150000Y888081D01*
Y885033D02*
X-1142380Y900273D01*
X-1157620D02*
X-1142380D01*
X-1157620D02*
X-1150000Y885033D01*
X-890899Y183351D02*
X-886327Y192495D01*
X-895471D02*
X-886327D01*
X-895471D02*
X-890899Y183351D01*
Y180303D02*
X-883279Y195543D01*
X-898519D02*
X-883279D01*
X-898519D02*
X-890899Y180303D01*
X-764489Y134103D02*
X-759917Y143247D01*
X-769061D02*
X-759917D01*
X-769061D02*
X-764489Y134103D01*
Y131055D02*
X-756869Y146295D01*
X-772109D02*
X-756869D01*
X-772109D02*
X-764489Y131055D01*
X-31002Y543928D02*
X-26430Y553072D01*
X-35574D02*
X-26430D01*
X-35574D02*
X-31002Y543928D01*
Y540880D02*
X-23382Y556120D01*
X-38622D02*
X-23382D01*
X-38622D02*
X-31002Y540880D01*
X-610000Y655428D02*
X-605428Y664572D01*
X-614572D02*
X-605428D01*
X-614572D02*
X-610000Y655428D01*
Y652380D02*
X-602380Y667620D01*
X-617620D02*
X-602380D01*
X-617620D02*
X-610000Y652380D01*
X-550000Y820828D02*
X-545428Y829972D01*
X-554572D02*
X-545428D01*
X-554572D02*
X-550000Y820828D01*
Y817780D02*
X-542380Y833020D01*
X-557620D02*
X-542380D01*
X-557620D02*
X-550000Y817780D01*
X-560000Y855428D02*
X-555428Y864572D01*
X-564572D02*
X-555428D01*
X-564572D02*
X-560000Y855428D01*
Y852380D02*
X-552380Y867620D01*
X-567620D02*
X-552380D01*
X-567620D02*
X-560000Y852380D01*
X-1077000Y1187428D02*
X-1072428Y1196572D01*
X-1081572D02*
X-1072428D01*
X-1081572D02*
X-1077000Y1187428D01*
Y1184380D02*
X-1069380Y1199620D01*
X-1084620D02*
X-1069380D01*
X-1084620D02*
X-1077000Y1184380D01*
X-467289Y646979D02*
X-462717Y656123D01*
X-471861D02*
X-462717D01*
X-471861D02*
X-467289Y646979D01*
Y643931D02*
X-459669Y659171D01*
X-474909D02*
X-459669D01*
X-474909D02*
X-467289Y643931D01*
X-114120Y984419D02*
X-98880D01*
Y999659D01*
X-114120D02*
X-98880D01*
X-114120Y984419D02*
Y999659D01*
X-1547620Y1042380D02*
X-1532380D01*
Y1057620D01*
X-1547620D02*
X-1532380D01*
X-1547620Y1042380D02*
Y1057620D01*
X-607620Y202354D02*
X-592380D01*
Y217594D01*
X-607620D02*
X-592380D01*
X-607620Y202354D02*
Y217594D01*
X-114120Y1052380D02*
X-98880D01*
Y1067620D01*
X-114120D02*
X-98880D01*
X-114120Y1052380D02*
Y1067620D01*
X-787620Y1102380D02*
X-772380D01*
Y1117620D01*
X-787620D02*
X-772380D01*
X-787620Y1102380D02*
Y1117620D01*
X-57620Y1250000D02*
X-50000Y1242380D01*
X-42380Y1250000D01*
X-50000Y1257620D02*
X-42380Y1250000D01*
X-57620D02*
X-50000Y1257620D01*
X-1557620Y50000D02*
X-1550000Y42380D01*
X-1542380Y50000D01*
X-1550000Y57620D02*
X-1542380Y50000D01*
X-1557620D02*
X-1550000Y57620D01*
X-57620Y50000D02*
X-50000Y42380D01*
X-42380Y50000D01*
X-50000Y57620D02*
X-42380Y50000D01*
X-57620D02*
X-50000Y57620D01*
X-1557620Y1250000D02*
X-1550000Y1242380D01*
X-1542380Y1250000D01*
X-1550000Y1257620D02*
X-1542380Y1250000D01*
X-1557620D02*
X-1550000Y1257620D01*
X-114120Y1115642D02*
X-98880D01*
Y1130882D01*
X-114120D02*
X-98880D01*
X-114120Y1115642D02*
Y1130882D01*
X-619027Y1262380D02*
X-603787D01*
Y1277620D01*
X-619027D02*
X-603787D01*
X-619027Y1262380D02*
Y1277620D01*
X-1070961Y1262380D02*
X-1055721D01*
Y1277620D01*
X-1070961D02*
X-1055721D01*
X-1070961Y1262380D02*
Y1277620D01*
X-1029907Y1262380D02*
X-1014667D01*
Y1277620D01*
X-1029907D02*
X-1014667D01*
X-1029907Y1262380D02*
Y1277620D01*
X-987620Y1262380D02*
X-972380D01*
Y1277620D01*
X-987620D02*
X-972380D01*
X-987620Y1262380D02*
Y1277620D01*
X-947620Y1262380D02*
X-932380D01*
Y1277620D01*
X-947620D02*
X-932380D01*
X-947620Y1262380D02*
Y1277620D01*
X-817620Y1262380D02*
X-802380D01*
Y1277620D01*
X-817620D02*
X-802380D01*
X-817620Y1262380D02*
Y1277620D01*
X-577620Y1262380D02*
X-562380D01*
Y1277620D01*
X-577620D02*
X-562380D01*
X-577620Y1262380D02*
Y1277620D01*
X-537620Y1262380D02*
X-522380D01*
Y1277620D01*
X-537620D02*
X-522380D01*
X-537620Y1262380D02*
Y1277620D01*
X-497620Y1262380D02*
X-482380D01*
Y1277620D01*
X-497620D02*
X-482380D01*
X-497620Y1262380D02*
Y1277620D01*
X-817620Y81580D02*
X-802380D01*
Y96820D01*
X-817620D02*
X-802380D01*
X-817620Y81580D02*
Y96820D01*
X-727620Y82380D02*
X-712380D01*
Y97620D01*
X-727620D02*
X-712380D01*
X-727620Y82380D02*
Y97620D01*
X-682220Y81580D02*
X-666980D01*
Y96820D01*
X-682220D02*
X-666980D01*
X-682220Y81580D02*
Y96820D01*
Y132380D02*
X-666980D01*
Y147620D01*
X-682220D02*
X-666980D01*
X-682220Y132380D02*
Y147620D01*
Y106980D02*
X-666980D01*
Y122220D01*
X-682220D02*
X-666980D01*
X-682220Y106980D02*
Y122220D01*
X-1017620Y872380D02*
X-1002380D01*
Y887620D01*
X-1017620D02*
X-1002380D01*
X-1017620Y872380D02*
Y887620D01*
X-1264920Y1182380D02*
X-1249680D01*
Y1197620D01*
X-1264920D02*
X-1249680D01*
X-1264920Y1182380D02*
Y1197620D01*
X-1290320Y1182380D02*
X-1275080D01*
Y1197620D01*
X-1290320D02*
X-1275080D01*
X-1290320Y1182380D02*
Y1197620D01*
X-1264920Y1042380D02*
X-1249680D01*
Y1057620D01*
X-1264920D02*
X-1249680D01*
X-1264920Y1042380D02*
Y1057620D01*
X-1290320Y1042380D02*
X-1275080D01*
Y1057620D01*
X-1290320D02*
X-1275080D01*
X-1290320Y1042380D02*
Y1057620D01*
X-1264920Y972380D02*
X-1249680D01*
Y987620D01*
X-1264920D02*
X-1249680D01*
X-1264920Y972380D02*
Y987620D01*
X-1290320Y972380D02*
X-1275080D01*
Y987620D01*
X-1290320D02*
X-1275080D01*
X-1290320Y972380D02*
Y987620D01*
X-1265225Y902380D02*
X-1249985D01*
Y917620D01*
X-1265225D02*
X-1249985D01*
X-1265225Y902380D02*
Y917620D01*
X-1290625Y902380D02*
X-1275385D01*
Y917620D01*
X-1290625D02*
X-1275385D01*
X-1290625Y902380D02*
Y917620D01*
X-1264920Y832380D02*
X-1249680D01*
Y847620D01*
X-1264920D02*
X-1249680D01*
X-1264920Y832380D02*
Y847620D01*
X-1290320Y832380D02*
X-1275080D01*
Y847620D01*
X-1290320D02*
X-1275080D01*
X-1290320Y832380D02*
Y847620D01*
X-1264920Y762380D02*
X-1249680D01*
Y777620D01*
X-1264920D02*
X-1249680D01*
X-1264920Y762380D02*
Y777620D01*
X-1290320Y762380D02*
X-1275080D01*
Y777620D01*
X-1290320D02*
X-1275080D01*
X-1290320Y762380D02*
Y777620D01*
X-1264920Y692380D02*
X-1249680D01*
Y707620D01*
X-1264920D02*
X-1249680D01*
X-1264920Y692380D02*
Y707620D01*
X-1290320Y692380D02*
X-1275080D01*
Y707620D01*
X-1290320D02*
X-1275080D01*
X-1290320Y692380D02*
Y707620D01*
X-1264920Y622380D02*
X-1249680D01*
Y637620D01*
X-1264920D02*
X-1249680D01*
X-1264920Y622380D02*
Y637620D01*
X-1290320Y622380D02*
X-1275080D01*
Y637620D01*
X-1290320D02*
X-1275080D01*
X-1290320Y622380D02*
Y637620D01*
X-1264920Y552380D02*
X-1249680D01*
Y567620D01*
X-1264920D02*
X-1249680D01*
X-1264920Y552380D02*
Y567620D01*
X-1290320Y552380D02*
X-1275080D01*
Y567620D01*
X-1290320D02*
X-1275080D01*
X-1290320Y552380D02*
Y567620D01*
X-1264920Y482380D02*
X-1249680D01*
Y497620D01*
X-1264920D02*
X-1249680D01*
X-1264920Y482380D02*
Y497620D01*
X-1290320Y482380D02*
X-1275080D01*
Y497620D01*
X-1290320D02*
X-1275080D01*
X-1290320Y482380D02*
Y497620D01*
X-1264920Y412380D02*
X-1249680D01*
Y427620D01*
X-1264920D02*
X-1249680D01*
X-1264920Y412380D02*
Y427620D01*
X-1290320Y412380D02*
X-1275080D01*
Y427620D01*
X-1290320D02*
X-1275080D01*
X-1290320Y412380D02*
Y427620D01*
X-1264920Y342380D02*
X-1249680D01*
Y357620D01*
X-1264920D02*
X-1249680D01*
X-1264920Y342380D02*
Y357620D01*
X-1290320Y342380D02*
X-1275080D01*
Y357620D01*
X-1290320D02*
X-1275080D01*
X-1290320Y342380D02*
Y357620D01*
X-1264920Y272380D02*
X-1249680D01*
Y287620D01*
X-1264920D02*
X-1249680D01*
X-1264920Y272380D02*
Y287620D01*
X-1290320Y272380D02*
X-1275080D01*
Y287620D01*
X-1290320D02*
X-1275080D01*
X-1290320Y272380D02*
Y287620D01*
X-1264920Y202380D02*
X-1249680D01*
Y217620D01*
X-1264920D02*
X-1249680D01*
X-1264920Y202380D02*
Y217620D01*
X-1290320Y202380D02*
X-1275080D01*
Y217620D01*
X-1290320D02*
X-1275080D01*
X-1290320Y202380D02*
Y217620D01*
X-1264920Y132380D02*
X-1249680D01*
Y147620D01*
X-1264920D02*
X-1249680D01*
X-1264920Y132380D02*
Y147620D01*
X-1290320Y132380D02*
X-1275080D01*
Y147620D01*
X-1290320D02*
X-1275080D01*
X-1290320Y132380D02*
Y147620D01*
X-1265225Y1112380D02*
X-1249985D01*
Y1127620D01*
X-1265225D02*
X-1249985D01*
X-1265225Y1112380D02*
Y1127620D01*
X-1290625Y1112380D02*
X-1275385D01*
Y1127620D01*
X-1290625D02*
X-1275385D01*
X-1290625Y1112380D02*
Y1127620D01*
X-362221Y1180425D02*
X-346981D01*
Y1195666D01*
X-362221D02*
X-346981D01*
X-362221Y1180425D02*
Y1195666D01*
X-387621Y1180425D02*
X-372381D01*
Y1195666D01*
X-387621D02*
X-372381D01*
X-387621Y1180425D02*
Y1195666D01*
X-362221Y1112380D02*
X-346981D01*
Y1127620D01*
X-362221D02*
X-346981D01*
X-362221Y1112380D02*
Y1127620D01*
X-387621Y1112380D02*
X-372381D01*
Y1127620D01*
X-387621D02*
X-372381D01*
X-387621Y1112380D02*
Y1127620D01*
X-362221Y1042380D02*
X-346981D01*
Y1057620D01*
X-362221D02*
X-346981D01*
X-362221Y1042380D02*
Y1057620D01*
X-387621Y1042380D02*
X-372381D01*
Y1057620D01*
X-387621D02*
X-372381D01*
X-387621Y1042380D02*
Y1057620D01*
X-362221Y972380D02*
X-346981D01*
Y987620D01*
X-362221D02*
X-346981D01*
X-362221Y972380D02*
Y987620D01*
X-387621Y972380D02*
X-372381D01*
Y987620D01*
X-387621D02*
X-372381D01*
X-387621Y972380D02*
Y987620D01*
X-362221Y902380D02*
X-346981D01*
Y917620D01*
X-362221D02*
X-346981D01*
X-362221Y902380D02*
Y917620D01*
X-387621Y902380D02*
X-372381D01*
Y917620D01*
X-387621D02*
X-372381D01*
X-387621Y902380D02*
Y917620D01*
X-362221Y832380D02*
X-346981D01*
Y847620D01*
X-362221D02*
X-346981D01*
X-362221Y832380D02*
Y847620D01*
X-387621Y832380D02*
X-372381D01*
Y847620D01*
X-387621D02*
X-372381D01*
X-387621Y832380D02*
Y847620D01*
X-387621Y763443D02*
X-372381D01*
Y778683D01*
X-387621D02*
X-372381D01*
X-387621Y763443D02*
Y778683D01*
X-362221Y763443D02*
X-346981D01*
Y778683D01*
X-362221D02*
X-346981D01*
X-362221Y763443D02*
Y778683D01*
Y692380D02*
X-346981D01*
Y707620D01*
X-362221D02*
X-346981D01*
X-362221Y692380D02*
Y707620D01*
X-387621Y692380D02*
X-372381D01*
Y707620D01*
X-387621D02*
X-372381D01*
X-387621Y692380D02*
Y707620D01*
X-362221Y622380D02*
X-346981D01*
Y637620D01*
X-362221D02*
X-346981D01*
X-362221Y622380D02*
Y637620D01*
X-387621Y622380D02*
X-372381D01*
Y637620D01*
X-387621D02*
X-372381D01*
X-387621Y622380D02*
Y637620D01*
X-362221Y552380D02*
X-346981D01*
Y567620D01*
X-362221D02*
X-346981D01*
X-362221Y552380D02*
Y567620D01*
X-387621Y552380D02*
X-372381D01*
Y567620D01*
X-387621D02*
X-372381D01*
X-387621Y552380D02*
Y567620D01*
X-362221Y482380D02*
X-346981D01*
Y497620D01*
X-362221D02*
X-346981D01*
X-362221Y482380D02*
Y497620D01*
X-387621Y482380D02*
X-372381D01*
Y497620D01*
X-387621D02*
X-372381D01*
X-387621Y482380D02*
Y497620D01*
X-362221Y412380D02*
X-346981D01*
Y427620D01*
X-362221D02*
X-346981D01*
X-362221Y412380D02*
Y427620D01*
X-387621Y412380D02*
X-372381D01*
Y427620D01*
X-387621D02*
X-372381D01*
X-387621Y412380D02*
Y427620D01*
X-362221Y342380D02*
X-346981D01*
Y357620D01*
X-362221D02*
X-346981D01*
X-362221Y342380D02*
Y357620D01*
X-387621Y342380D02*
X-372381D01*
Y357620D01*
X-387621D02*
X-372381D01*
X-387621Y342380D02*
Y357620D01*
X-362221Y272380D02*
X-346981D01*
Y287620D01*
X-362221D02*
X-346981D01*
X-362221Y272380D02*
Y287620D01*
X-387621Y272380D02*
X-372381D01*
Y287620D01*
X-387621D02*
X-372381D01*
X-387621Y272380D02*
Y287620D01*
X-362221Y202380D02*
X-346981D01*
Y217620D01*
X-362221D02*
X-346981D01*
X-362221Y202380D02*
Y217620D01*
X-387621Y202380D02*
X-372381D01*
Y217620D01*
X-387621D02*
X-372381D01*
X-387621Y202380D02*
Y217620D01*
X-362221Y132380D02*
X-346981D01*
Y147620D01*
X-362221D02*
X-346981D01*
X-362221Y132380D02*
Y147620D01*
X-387621Y132380D02*
X-372381D01*
Y147620D01*
X-387621D02*
X-372381D01*
X-387621Y132380D02*
Y147620D01*
X-1016687Y930773D02*
X-1001447D01*
Y946013D01*
X-1016687D02*
X-1001447D01*
X-1016687Y930773D02*
Y946013D01*
X-557620Y792380D02*
X-542380D01*
Y807620D01*
X-557620D02*
X-542380D01*
X-557620Y792380D02*
Y807620D01*
X-225906Y1188674D02*
X-223620Y1186388D01*
X-228192Y1188674D02*
X-225906D01*
X-228192D02*
X-225906Y1190960D01*
X-228192Y1193246D02*
X-225906Y1190960D01*
X-228192Y1193246D02*
X-225906D01*
X-223620Y1195532D01*
X-221334Y1193246D01*
X-219048D01*
X-221334Y1190960D02*
X-219048Y1193246D01*
X-221334Y1190960D02*
X-219048Y1188674D01*
X-221334D02*
X-219048D01*
X-223620Y1186388D02*
X-221334Y1188674D01*
X-227430Y1187150D02*
X-223620Y1183340D01*
X-231240Y1187150D02*
X-227430D01*
X-231240D02*
X-227430Y1190960D01*
X-231240Y1194770D02*
X-227430Y1190960D01*
X-231240Y1194770D02*
X-227430D01*
X-223620Y1198580D01*
X-219810Y1194770D01*
X-216000D01*
X-219810Y1190960D02*
X-216000Y1194770D01*
X-219810Y1190960D02*
X-216000Y1187150D01*
X-219810D02*
X-216000D01*
X-223620Y1183340D02*
X-219810Y1187150D01*
X-179406Y1221174D02*
X-177120Y1218888D01*
X-181692Y1221174D02*
X-179406D01*
X-181692D02*
X-179406Y1223460D01*
X-181692Y1225746D02*
X-179406Y1223460D01*
X-181692Y1225746D02*
X-179406D01*
X-177120Y1228032D01*
X-174834Y1225746D01*
X-172548D01*
X-174834Y1223460D02*
X-172548Y1225746D01*
X-174834Y1223460D02*
X-172548Y1221174D01*
X-174834D02*
X-172548D01*
X-177120Y1218888D02*
X-174834Y1221174D01*
X-180930Y1219650D02*
X-177120Y1215840D01*
X-184740Y1219650D02*
X-180930D01*
X-184740D02*
X-180930Y1223460D01*
X-184740Y1227270D02*
X-180930Y1223460D01*
X-184740Y1227270D02*
X-180930D01*
X-177120Y1231080D01*
X-173310Y1227270D01*
X-169500D01*
X-173310Y1223460D02*
X-169500Y1227270D01*
X-173310Y1223460D02*
X-169500Y1219650D01*
X-173310D02*
X-169500D01*
X-177120Y1215840D02*
X-173310Y1219650D01*
X-179406Y1161874D02*
X-177120Y1159588D01*
X-181692Y1161874D02*
X-179406D01*
X-181692D02*
X-179406Y1164160D01*
X-181692Y1166446D02*
X-179406Y1164160D01*
X-181692Y1166446D02*
X-179406D01*
X-177120Y1168732D01*
X-174834Y1166446D01*
X-172548D01*
X-174834Y1164160D02*
X-172548Y1166446D01*
X-174834Y1164160D02*
X-172548Y1161874D01*
X-174834D02*
X-172548D01*
X-177120Y1159588D02*
X-174834Y1161874D01*
X-180930Y1160350D02*
X-177120Y1156540D01*
X-184740Y1160350D02*
X-180930D01*
X-184740D02*
X-180930Y1164160D01*
X-184740Y1167970D02*
X-180930Y1164160D01*
X-184740Y1167970D02*
X-180930D01*
X-177120Y1171780D01*
X-173310Y1167970D01*
X-169500D01*
X-173310Y1164160D02*
X-169500Y1167970D01*
X-173310Y1164160D02*
X-169500Y1160350D01*
X-173310D02*
X-169500D01*
X-177120Y1156540D02*
X-173310Y1160350D01*
X-1407620Y1022380D02*
X-1392380D01*
Y1037620D01*
X-1407620D02*
X-1392380D01*
X-1407620Y1022380D02*
Y1037620D01*
X-787620Y972380D02*
X-772380D01*
Y987620D01*
X-787620D02*
X-772380D01*
X-787620Y972380D02*
Y987620D01*
X-787620Y766921D02*
X-772380D01*
Y782161D01*
X-787620D02*
X-772380D01*
X-787620Y766921D02*
Y782161D01*
Y527370D02*
X-772380D01*
Y542610D01*
X-787620D02*
X-772380D01*
X-787620Y527370D02*
Y542610D01*
X-1411392Y416508D02*
X-1402248D01*
Y425652D01*
X-1411392D02*
X-1402248D01*
X-1411392Y416508D02*
Y425652D01*
X-1414440Y413460D02*
X-1399200D01*
Y428700D01*
X-1414440D02*
X-1399200D01*
X-1414440Y413460D02*
Y428700D01*
X-1411392Y914348D02*
X-1402248D01*
Y923492D01*
X-1411392D02*
X-1402248D01*
X-1411392Y914348D02*
Y923492D01*
X-1414440Y911300D02*
X-1399200D01*
Y926540D01*
X-1414440D02*
X-1399200D01*
X-1414440Y911300D02*
Y926540D01*
X-1497752Y426668D02*
X-1488608D01*
Y435812D01*
X-1497752D02*
X-1488608D01*
X-1497752Y426668D02*
Y435812D01*
X-1500800Y423620D02*
X-1485560D01*
Y438860D01*
X-1500800D02*
X-1485560D01*
X-1500800Y423620D02*
Y438860D01*
X-1497752Y904188D02*
X-1488608D01*
Y913332D01*
X-1497752D02*
X-1488608D01*
X-1497752Y904188D02*
Y913332D01*
X-1500800Y901140D02*
X-1485560D01*
Y916380D01*
X-1500800D02*
X-1485560D01*
X-1500800Y901140D02*
Y916380D01*
X-639568Y704590D02*
X-635758D01*
X-639568D02*
Y712210D01*
X-635758D01*
Y716020D01*
X-628138D01*
Y712210D02*
Y716020D01*
Y712210D02*
X-624328D01*
Y704590D02*
Y712210D01*
X-628138Y704590D02*
X-624328D01*
X-628138Y700780D02*
Y704590D01*
X-635758Y700780D02*
X-628138D01*
X-635758D02*
Y704590D01*
X-732568D02*
X-728758D01*
X-732568D02*
Y712210D01*
X-728758D01*
Y716020D01*
X-721138D01*
Y712210D02*
Y716020D01*
Y712210D02*
X-717328D01*
Y704590D02*
Y712210D01*
X-721138Y704590D02*
X-717328D01*
X-721138Y700780D02*
Y704590D01*
X-728758Y700780D02*
X-721138D01*
X-728758D02*
Y704590D01*
X-661068Y770780D02*
X-645828D01*
Y786020D01*
X-661068D02*
X-645828D01*
X-661068Y770780D02*
Y786020D01*
X-711068Y770780D02*
X-695828D01*
Y786020D01*
X-711068D02*
X-695828D01*
X-711068Y770780D02*
Y786020D01*
X-661068Y625780D02*
X-645828D01*
Y641020D01*
X-661068D02*
X-645828D01*
X-661068Y625780D02*
Y641020D01*
X-686068Y625780D02*
X-670828D01*
Y641020D01*
X-686068D02*
X-670828D01*
X-686068Y625780D02*
Y641020D01*
X-711068Y625780D02*
X-695828D01*
Y641020D01*
X-711068D02*
X-695828D01*
X-711068Y625780D02*
Y641020D01*
X-639345Y466181D02*
X-635535D01*
X-639345D02*
Y473801D01*
X-635535D01*
Y477611D01*
X-627915D01*
Y473801D02*
Y477611D01*
Y473801D02*
X-624105D01*
Y466181D02*
Y473801D01*
X-627915Y466181D02*
X-624105D01*
X-627915Y462371D02*
Y466181D01*
X-635535Y462371D02*
X-627915D01*
X-635535D02*
Y466181D01*
X-732345D02*
X-728535D01*
X-732345D02*
Y473801D01*
X-728535D01*
Y477611D01*
X-720915D01*
Y473801D02*
Y477611D01*
Y473801D02*
X-717105D01*
Y466181D02*
Y473801D01*
X-720915Y466181D02*
X-717105D01*
X-720915Y462371D02*
Y466181D01*
X-728535Y462371D02*
X-720915D01*
X-728535D02*
Y466181D01*
X-660845Y532371D02*
X-645605D01*
Y547611D01*
X-660845D02*
X-645605D01*
X-660845Y532371D02*
Y547611D01*
X-710845Y532371D02*
X-695605D01*
Y547611D01*
X-710845D02*
X-695605D01*
X-710845Y532371D02*
Y547611D01*
X-660845Y387371D02*
X-645605D01*
Y402611D01*
X-660845D02*
X-645605D01*
X-660845Y387371D02*
Y402611D01*
X-685845Y387371D02*
X-670605D01*
Y402611D01*
X-685845D02*
X-670605D01*
X-685845Y387371D02*
Y402611D01*
X-710845Y387371D02*
X-695605D01*
Y402611D01*
X-710845D02*
X-695605D01*
X-710845Y387371D02*
Y402611D01*
X-979160Y724080D02*
Y727890D01*
X-975350Y731700D01*
X-979160Y735510D02*
X-975350Y731700D01*
X-979160Y735510D02*
Y739320D01*
X-975350D01*
X-971540Y735510D01*
X-967730Y739320D01*
X-963920D01*
Y735510D02*
Y739320D01*
X-967730Y731700D02*
X-963920Y735510D01*
X-967730Y731700D02*
X-963920Y727890D01*
Y724080D02*
Y727890D01*
X-967730Y724080D02*
X-963920D01*
X-971540Y727890D02*
X-967730Y724080D01*
X-975350D02*
X-971540Y727890D01*
X-979160Y724080D02*
X-975350D01*
X-979160Y673280D02*
Y677090D01*
X-975350Y680900D01*
X-979160Y684710D02*
X-975350Y680900D01*
X-979160Y684710D02*
Y688520D01*
X-975350D01*
X-971540Y684710D01*
X-967730Y688520D01*
X-963920D01*
Y684710D02*
Y688520D01*
X-967730Y680900D02*
X-963920Y684710D01*
X-967730Y680900D02*
X-963920Y677090D01*
Y673280D02*
Y677090D01*
X-967730Y673280D02*
X-963920D01*
X-971540Y677090D02*
X-967730Y673280D01*
X-975350D02*
X-971540Y677090D01*
X-979160Y673280D02*
X-975350D01*
X-1004560Y724080D02*
Y727890D01*
X-1000750Y731700D01*
X-1004560Y735510D02*
X-1000750Y731700D01*
X-1004560Y735510D02*
Y739320D01*
X-1000750D01*
X-996940Y735510D01*
X-993130Y739320D01*
X-989320D01*
Y735510D02*
Y739320D01*
X-993130Y731700D02*
X-989320Y735510D01*
X-993130Y731700D02*
X-989320Y727890D01*
Y724080D02*
Y727890D01*
X-993130Y724080D02*
X-989320D01*
X-996940Y727890D02*
X-993130Y724080D01*
X-1000750D02*
X-996940Y727890D01*
X-1004560Y724080D02*
X-1000750D01*
X-1004560Y673280D02*
Y677090D01*
X-1000750Y680900D01*
X-1004560Y684710D02*
X-1000750Y680900D01*
X-1004560Y684710D02*
Y688520D01*
X-1000750D01*
X-996940Y684710D01*
X-993130Y688520D01*
X-989320D01*
Y684710D02*
Y688520D01*
X-993130Y680900D02*
X-989320Y684710D01*
X-993130Y680900D02*
X-989320Y677090D01*
Y673280D02*
Y677090D01*
X-993130Y673280D02*
X-989320D01*
X-996940Y677090D02*
X-993130Y673280D01*
X-1000750D02*
X-996940Y677090D01*
X-1004560Y673280D02*
X-1000750D01*
X-833618Y915811D02*
X-825998Y919621D01*
X-818378Y915811D01*
X-822188Y923431D02*
X-818378Y915811D01*
X-822188Y923431D02*
X-818378Y931051D01*
X-825998Y927241D02*
X-818378Y931051D01*
X-833618D02*
X-825998Y927241D01*
X-833618Y931051D02*
X-829808Y923431D01*
X-833618Y915811D02*
X-829808Y923431D01*
X-808218Y915811D02*
X-800598Y919621D01*
X-792978Y915811D01*
X-796788Y923431D02*
X-792978Y915811D01*
X-796788Y923431D02*
X-792978Y931051D01*
X-800598Y927241D02*
X-792978Y931051D01*
X-808218D02*
X-800598Y927241D01*
X-808218Y931051D02*
X-804408Y923431D01*
X-808218Y915811D02*
X-804408Y923431D01*
X-833618Y693515D02*
X-825998Y697325D01*
X-818378Y693515D01*
X-822188Y701135D02*
X-818378Y693515D01*
X-822188Y701135D02*
X-818378Y708755D01*
X-825998Y704945D02*
X-818378Y708755D01*
X-833618D02*
X-825998Y704945D01*
X-833618Y708755D02*
X-829808Y701135D01*
X-833618Y693515D02*
X-829808Y701135D01*
X-808218Y693515D02*
X-800598Y697325D01*
X-792978Y693515D01*
X-796788Y701135D02*
X-792978Y693515D01*
X-796788Y701135D02*
X-792978Y708755D01*
X-800598Y704945D02*
X-792978Y708755D01*
X-808218D02*
X-800598Y704945D01*
X-808218Y708755D02*
X-804408Y701135D01*
X-808218Y693515D02*
X-804408Y701135D01*
X-833618Y465211D02*
X-825998Y469021D01*
X-818378Y465211D01*
X-822188Y472831D02*
X-818378Y465211D01*
X-822188Y472831D02*
X-818378Y480451D01*
X-825998Y476641D02*
X-818378Y480451D01*
X-833618D02*
X-825998Y476641D01*
X-833618Y480451D02*
X-829808Y472831D01*
X-833618Y465211D02*
X-829808Y472831D01*
X-808218Y465211D02*
X-800598Y469021D01*
X-792978Y465211D01*
X-796788Y472831D02*
X-792978Y465211D01*
X-796788Y472831D02*
X-792978Y480451D01*
X-800598Y476641D02*
X-792978Y480451D01*
X-808218D02*
X-800598Y476641D01*
X-808218Y480451D02*
X-804408Y472831D01*
X-808218Y465211D02*
X-804408Y472831D01*
X-640120Y916190D02*
X-636310D01*
X-640120D02*
Y923810D01*
X-636310D01*
Y927620D01*
X-628690D01*
Y923810D02*
Y927620D01*
Y923810D02*
X-624880D01*
Y916190D02*
Y923810D01*
X-628690Y916190D02*
X-624880D01*
X-628690Y912380D02*
Y916190D01*
X-636310Y912380D02*
X-628690D01*
X-636310D02*
Y916190D01*
X-733120D02*
X-729310D01*
X-733120D02*
Y923810D01*
X-729310D01*
Y927620D01*
X-721690D01*
Y923810D02*
Y927620D01*
Y923810D02*
X-717880D01*
Y916190D02*
Y923810D01*
X-721690Y916190D02*
X-717880D01*
X-721690Y912380D02*
Y916190D01*
X-729310Y912380D02*
X-721690D01*
X-729310D02*
Y916190D01*
X-661620Y982380D02*
X-646380D01*
Y997620D01*
X-661620D02*
X-646380D01*
X-661620Y982380D02*
Y997620D01*
X-711620Y982380D02*
X-696380D01*
Y997620D01*
X-711620D02*
X-696380D01*
X-711620Y982380D02*
Y997620D01*
X-661620Y837380D02*
X-646380D01*
Y852620D01*
X-661620D02*
X-646380D01*
X-661620Y837380D02*
Y852620D01*
X-686620Y837380D02*
X-671380D01*
Y852620D01*
X-686620D02*
X-671380D01*
X-686620Y837380D02*
Y852620D01*
X-711620Y837380D02*
X-696380D01*
Y852620D01*
X-711620D02*
X-696380D01*
X-711620Y837380D02*
Y852620D01*
X-116020Y650480D02*
X-108400Y654290D01*
X-100780Y650480D01*
X-104590Y658100D02*
X-100780Y650480D01*
X-104590Y658100D02*
X-100780Y665720D01*
X-108400Y661910D02*
X-100780Y665720D01*
X-116020D02*
X-108400Y661910D01*
X-116020Y665720D02*
X-112210Y658100D01*
X-116020Y650480D02*
X-112210Y658100D01*
X-116020Y623080D02*
X-108400Y626890D01*
X-100780Y623080D01*
X-104590Y630700D02*
X-100780Y623080D01*
X-104590Y630700D02*
X-100780Y638320D01*
X-108400Y634510D02*
X-100780Y638320D01*
X-116020D02*
X-108400Y634510D01*
X-116020Y638320D02*
X-112210Y630700D01*
X-116020Y623080D02*
X-112210Y630700D01*
X-116020Y595680D02*
X-108400Y599490D01*
X-100780Y595680D01*
X-104590Y603300D02*
X-100780Y595680D01*
X-104590Y603300D02*
X-100780Y610920D01*
X-108400Y607110D02*
X-100780Y610920D01*
X-116020D02*
X-108400Y607110D01*
X-116020Y610920D02*
X-112210Y603300D01*
X-116020Y595680D02*
X-112210Y603300D01*
X-116020Y568280D02*
X-108400Y572090D01*
X-100780Y568280D01*
X-104590Y575900D02*
X-100780Y568280D01*
X-104590Y575900D02*
X-100780Y583520D01*
X-108400Y579710D02*
X-100780Y583520D01*
X-116020D02*
X-108400Y579710D01*
X-116020Y583520D02*
X-112210Y575900D01*
X-116020Y568280D02*
X-112210Y575900D01*
X-116020Y540880D02*
X-108400Y544690D01*
X-100780Y540880D01*
X-104590Y548500D02*
X-100780Y540880D01*
X-104590Y548500D02*
X-100780Y556120D01*
X-108400Y552310D02*
X-100780Y556120D01*
X-116020D02*
X-108400Y552310D01*
X-116020Y556120D02*
X-112210Y548500D01*
X-116020Y540880D02*
X-112210Y548500D01*
X-116020Y513480D02*
X-108400Y517290D01*
X-100780Y513480D01*
X-104590Y521100D02*
X-100780Y513480D01*
X-104590Y521100D02*
X-100780Y528720D01*
X-108400Y524910D02*
X-100780Y528720D01*
X-116020D02*
X-108400Y524910D01*
X-116020Y528720D02*
X-112210Y521100D01*
X-116020Y513480D02*
X-112210Y521100D01*
X-116020Y486080D02*
X-108400Y489890D01*
X-100780Y486080D01*
X-104590Y493700D02*
X-100780Y486080D01*
X-104590Y493700D02*
X-100780Y501320D01*
X-108400Y497510D02*
X-100780Y501320D01*
X-116020D02*
X-108400Y497510D01*
X-116020Y501320D02*
X-112210Y493700D01*
X-116020Y486080D02*
X-112210Y493700D01*
X-116020Y458680D02*
X-108400Y462490D01*
X-100780Y458680D01*
X-104590Y466300D02*
X-100780Y458680D01*
X-104590Y466300D02*
X-100780Y473920D01*
X-108400Y470110D02*
X-100780Y473920D01*
X-116020D02*
X-108400Y470110D01*
X-116020Y473920D02*
X-112210Y466300D01*
X-116020Y458680D02*
X-112210Y466300D01*
X-87620Y636780D02*
X-80000Y640590D01*
X-72380Y636780D01*
X-76190Y644400D02*
X-72380Y636780D01*
X-76190Y644400D02*
X-72380Y652020D01*
X-80000Y648210D02*
X-72380Y652020D01*
X-87620D02*
X-80000Y648210D01*
X-87620Y652020D02*
X-83810Y644400D01*
X-87620Y636780D02*
X-83810Y644400D01*
X-87620Y609380D02*
X-80000Y613190D01*
X-72380Y609380D01*
X-76190Y617000D02*
X-72380Y609380D01*
X-76190Y617000D02*
X-72380Y624620D01*
X-80000Y620810D02*
X-72380Y624620D01*
X-87620D02*
X-80000Y620810D01*
X-87620Y624620D02*
X-83810Y617000D01*
X-87620Y609380D02*
X-83810Y617000D01*
X-87620Y581980D02*
X-80000Y585790D01*
X-72380Y581980D01*
X-76190Y589600D02*
X-72380Y581980D01*
X-76190Y589600D02*
X-72380Y597220D01*
X-80000Y593410D02*
X-72380Y597220D01*
X-87620D02*
X-80000Y593410D01*
X-87620Y597220D02*
X-83810Y589600D01*
X-87620Y581980D02*
X-83810Y589600D01*
X-87620Y554580D02*
X-80000Y558390D01*
X-72380Y554580D01*
X-76190Y562200D02*
X-72380Y554580D01*
X-76190Y562200D02*
X-72380Y569820D01*
X-80000Y566010D02*
X-72380Y569820D01*
X-87620D02*
X-80000Y566010D01*
X-87620Y569820D02*
X-83810Y562200D01*
X-87620Y554580D02*
X-83810Y562200D01*
X-87620Y527180D02*
X-80000Y530990D01*
X-72380Y527180D01*
X-76190Y534800D02*
X-72380Y527180D01*
X-76190Y534800D02*
X-72380Y542420D01*
X-80000Y538610D02*
X-72380Y542420D01*
X-87620D02*
X-80000Y538610D01*
X-87620Y542420D02*
X-83810Y534800D01*
X-87620Y527180D02*
X-83810Y534800D01*
X-87620Y499780D02*
X-80000Y503590D01*
X-72380Y499780D01*
X-76190Y507400D02*
X-72380Y499780D01*
X-76190Y507400D02*
X-72380Y515020D01*
X-80000Y511210D02*
X-72380Y515020D01*
X-87620D02*
X-80000Y511210D01*
X-87620Y515020D02*
X-83810Y507400D01*
X-87620Y499780D02*
X-83810Y507400D01*
X-87620Y472380D02*
X-80000Y476190D01*
X-72380Y472380D01*
X-76190Y480000D02*
X-72380Y472380D01*
X-76190Y480000D02*
X-72380Y487620D01*
X-80000Y483810D02*
X-72380Y487620D01*
X-87620D02*
X-80000Y483810D01*
X-87620Y487620D02*
X-83810Y480000D01*
X-87620Y472380D02*
X-83810Y480000D01*
X-98010Y724990D02*
X-94200Y721180D01*
X-101820Y724990D02*
X-98010D01*
X-101820D02*
X-98010Y728800D01*
X-101820Y732610D02*
X-98010Y728800D01*
X-101820Y732610D02*
X-98010D01*
X-94200Y736420D01*
X-90390Y732610D01*
X-86580D01*
X-90390Y728800D02*
X-86580Y732610D01*
X-90390Y728800D02*
X-86580Y724990D01*
X-90390D02*
X-86580D01*
X-94200Y721180D02*
X-90390Y724990D01*
X-98010Y391790D02*
X-94200Y387980D01*
X-101820Y391790D02*
X-98010D01*
X-101820D02*
X-98010Y395600D01*
X-101820Y399410D02*
X-98010Y395600D01*
X-101820Y399410D02*
X-98010D01*
X-94200Y403220D01*
X-90390Y399410D01*
X-86580D01*
X-90390Y395600D02*
X-86580Y399410D01*
X-90390Y395600D02*
X-86580Y391790D01*
X-90390D02*
X-86580D01*
X-94200Y387980D02*
X-90390Y391790D01*
D51*
X1503571Y1326616D02*
X2497461D01*
X1503571Y907516D02*
X2497461D01*
X1503571Y869416D02*
X2497461D01*
Y1364716D01*
X1503571D02*
X2497461D01*
X1503571Y869416D02*
Y1364716D01*
X2105145Y869416D02*
Y1364716D01*
X1976653Y869416D02*
Y1364716D01*
X1793314Y869416D02*
Y1364716D01*
X1643493Y869416D02*
Y1364716D01*
D52*
X2116575Y1356328D02*
Y1338046D01*
X2125716D01*
X2128763Y1341093D01*
Y1353281D01*
X2125716Y1356328D01*
X2116575D01*
X2134857Y1350234D02*
Y1338046D01*
Y1344140D01*
X2137904Y1347187D01*
X2140951Y1350234D01*
X2143998D01*
X2153139Y1338046D02*
X2159233D01*
X2156186D01*
Y1350234D01*
X2153139D01*
X2168374Y1338046D02*
X2174468D01*
X2171421D01*
Y1356328D01*
X2168374D01*
X2183609Y1338046D02*
X2189703D01*
X2186656D01*
Y1356328D01*
X2183609D01*
X2217126D02*
Y1338046D01*
X2229315D01*
X2238456Y1350234D02*
X2244550D01*
X2247597Y1347187D01*
Y1338046D01*
X2238456D01*
X2235408Y1341093D01*
X2238456Y1344140D01*
X2247597D01*
X2253691Y1350234D02*
Y1341093D01*
X2256738Y1338046D01*
X2265879D01*
Y1334999D01*
X2262832Y1331952D01*
X2259785D01*
X2265879Y1338046D02*
Y1350234D01*
X2281114Y1338046D02*
X2275020D01*
X2271973Y1341093D01*
Y1347187D01*
X2275020Y1350234D01*
X2281114D01*
X2284161Y1347187D01*
Y1344140D01*
X2271973D01*
X2290255Y1350234D02*
Y1338046D01*
Y1344140D01*
X2293302Y1347187D01*
X2296349Y1350234D01*
X2299396D01*
X2326819Y1338046D02*
Y1356328D01*
X2335960D01*
X2339007Y1353281D01*
Y1347187D01*
X2335960Y1344140D01*
X2326819D01*
X2348148Y1350234D02*
X2354242D01*
X2357289Y1347187D01*
Y1338046D01*
X2348148D01*
X2345101Y1341093D01*
X2348148Y1344140D01*
X2357289D01*
X2363383Y1338046D02*
X2369477D01*
X2366430D01*
Y1350234D01*
X2363383D01*
X2378618D02*
Y1338046D01*
Y1344140D01*
X2381665Y1347187D01*
X2384712Y1350234D01*
X2387759D01*
X1988082Y1338046D02*
Y1356328D01*
X1997224D01*
X2000271Y1353281D01*
Y1347187D01*
X1997224Y1344140D01*
X1988082D01*
X2006365Y1338046D02*
X2012459D01*
X2009412D01*
Y1356328D01*
X2006365D01*
X2024647Y1350234D02*
X2030741D01*
X2033788Y1347187D01*
Y1338046D01*
X2024647D01*
X2021600Y1341093D01*
X2024647Y1344140D01*
X2033788D01*
X2042929Y1353281D02*
Y1350234D01*
X2039882D01*
X2045976D01*
X2042929D01*
Y1341093D01*
X2045976Y1338046D01*
X2064258D02*
X2058164D01*
X2055117Y1341093D01*
Y1347187D01*
X2058164Y1350234D01*
X2064258D01*
X2067305Y1347187D01*
Y1344140D01*
X2055117D01*
X2085587Y1356328D02*
Y1338046D01*
X2076446D01*
X2073399Y1341093D01*
Y1347187D01*
X2076446Y1350234D01*
X2085587D01*
X1804744Y1356328D02*
Y1338046D01*
Y1347187D01*
X1816932D01*
Y1356328D01*
Y1338046D01*
X1826073D02*
X1832167D01*
X1835214Y1341093D01*
Y1347187D01*
X1832167Y1350234D01*
X1826073D01*
X1823026Y1347187D01*
Y1341093D01*
X1826073Y1338046D01*
X1841308D02*
X1847402D01*
X1844355D01*
Y1356328D01*
X1841308D01*
X1865684Y1338046D02*
X1859590D01*
X1856543Y1341093D01*
Y1347187D01*
X1859590Y1350234D01*
X1865684D01*
X1868731Y1347187D01*
Y1344140D01*
X1856543D01*
X1905295Y1353281D02*
X1902248Y1356328D01*
X1896154D01*
X1893107Y1353281D01*
Y1350234D01*
X1896154Y1347187D01*
X1902248D01*
X1905295Y1344140D01*
Y1341093D01*
X1902248Y1338046D01*
X1896154D01*
X1893107Y1341093D01*
X1911389Y1338046D02*
X1917483D01*
X1914436D01*
Y1350234D01*
X1911389D01*
X1926624D02*
X1938813D01*
X1926624Y1338046D01*
X1938813D01*
X1954048D02*
X1947953D01*
X1944906Y1341093D01*
Y1347187D01*
X1947953Y1350234D01*
X1954048D01*
X1957095Y1347187D01*
Y1344140D01*
X1944906D01*
X1667111Y1353281D02*
X1664064Y1356328D01*
X1657970D01*
X1654923Y1353281D01*
Y1341093D01*
X1657970Y1338046D01*
X1664064D01*
X1667111Y1341093D01*
X1676252Y1338046D02*
X1682346D01*
X1685393Y1341093D01*
Y1347187D01*
X1682346Y1350234D01*
X1676252D01*
X1673205Y1347187D01*
Y1341093D01*
X1676252Y1338046D01*
X1691487Y1350234D02*
Y1341093D01*
X1694534Y1338046D01*
X1703676D01*
Y1350234D01*
X1709769Y1338046D02*
Y1350234D01*
X1718911D01*
X1721958Y1347187D01*
Y1338046D01*
X1731099Y1353281D02*
Y1350234D01*
X1728052D01*
X1734146D01*
X1731099D01*
Y1341093D01*
X1734146Y1338046D01*
X1538619Y1353281D02*
X1535572Y1356328D01*
X1529478D01*
X1526431Y1353281D01*
Y1350234D01*
X1529478Y1347187D01*
X1535572D01*
X1538619Y1344140D01*
Y1341093D01*
X1535572Y1338046D01*
X1529478D01*
X1526431Y1341093D01*
X1544713Y1350234D02*
Y1341093D01*
X1547760Y1338046D01*
X1556901D01*
Y1334999D01*
X1553854Y1331952D01*
X1550807D01*
X1556901Y1338046D02*
Y1350234D01*
X1562995Y1338046D02*
Y1350234D01*
X1566042D01*
X1569089Y1347187D01*
Y1338046D01*
Y1347187D01*
X1572136Y1350234D01*
X1575183Y1347187D01*
Y1338046D01*
X1581277Y1356328D02*
Y1338046D01*
X1590418D01*
X1593465Y1341093D01*
Y1344140D01*
Y1347187D01*
X1590418Y1350234D01*
X1581277D01*
X1602606Y1338046D02*
X1608700D01*
X1611747Y1341093D01*
Y1347187D01*
X1608700Y1350234D01*
X1602606D01*
X1599559Y1347187D01*
Y1341093D01*
X1602606Y1338046D01*
X1617841D02*
X1623935D01*
X1620888D01*
Y1356328D01*
X1617841D01*
D53*
X1788734Y833864D02*
Y818629D01*
Y826247D01*
X1798891D01*
Y833864D01*
Y818629D01*
X1806508D02*
X1811587D01*
X1814126Y821169D01*
Y826247D01*
X1811587Y828786D01*
X1806508D01*
X1803969Y826247D01*
Y821169D01*
X1806508Y818629D01*
X1819204D02*
X1824283D01*
X1821743D01*
Y833864D01*
X1819204D01*
X1839518Y818629D02*
X1834439D01*
X1831900Y821169D01*
Y826247D01*
X1834439Y828786D01*
X1839518D01*
X1842057Y826247D01*
Y823708D01*
X1831900D01*
X1862370Y833864D02*
Y818629D01*
X1872527D01*
X1885223D02*
X1880144D01*
X1877605Y821169D01*
Y826247D01*
X1880144Y828786D01*
X1885223D01*
X1887762Y826247D01*
Y823708D01*
X1877605D01*
X1892840Y818629D02*
Y828786D01*
X1900458D01*
X1902997Y826247D01*
Y818629D01*
X1913154Y813551D02*
X1915693D01*
X1918232Y816090D01*
Y828786D01*
X1910614D01*
X1908075Y826247D01*
Y821169D01*
X1910614Y818629D01*
X1918232D01*
X1925850Y831325D02*
Y828786D01*
X1923310D01*
X1928389D01*
X1925850D01*
Y821169D01*
X1928389Y818629D01*
X1936006Y833864D02*
Y818629D01*
Y826247D01*
X1938546Y828786D01*
X1943624D01*
X1946163Y826247D01*
Y818629D01*
X1788734Y844023D02*
Y859258D01*
X1796351D01*
X1798891Y856719D01*
Y851640D01*
X1796351Y849101D01*
X1788734D01*
X1793812D02*
X1798891Y844023D01*
X1806508D02*
X1811587D01*
X1814126Y846562D01*
Y851640D01*
X1811587Y854180D01*
X1806508D01*
X1803969Y851640D01*
Y846562D01*
X1806508Y844023D01*
X1819204Y854180D02*
Y846562D01*
X1821743Y844023D01*
X1829361D01*
Y854180D01*
X1836978Y856719D02*
Y854180D01*
X1834439D01*
X1839518D01*
X1836978D01*
Y846562D01*
X1839518Y844023D01*
X1854753D02*
X1849674D01*
X1847135Y846562D01*
Y851640D01*
X1849674Y854180D01*
X1854753D01*
X1857292Y851640D01*
Y849101D01*
X1847135D01*
X1872527Y859258D02*
Y844023D01*
X1864909D01*
X1862370Y846562D01*
Y851640D01*
X1864909Y854180D01*
X1872527D01*
X1892840Y844023D02*
Y859258D01*
X1900458D01*
X1902997Y856719D01*
Y851640D01*
X1900458Y849101D01*
X1892840D01*
X1910614Y854180D02*
X1915693D01*
X1918232Y851640D01*
Y844023D01*
X1910614D01*
X1908075Y846562D01*
X1910614Y849101D01*
X1918232D01*
X1925850Y856719D02*
Y854180D01*
X1923310D01*
X1928389D01*
X1925850D01*
Y846562D01*
X1928389Y844023D01*
X1936006Y859258D02*
Y844023D01*
Y851640D01*
X1938546Y854180D01*
X1943624D01*
X1946163Y851640D01*
Y844023D01*
X1966476Y859258D02*
Y844023D01*
X1976633D01*
X1989329D02*
X1984251D01*
X1981711Y846562D01*
Y851640D01*
X1984251Y854180D01*
X1989329D01*
X1991868Y851640D01*
Y849101D01*
X1981711D01*
X1996947Y844023D02*
Y854180D01*
X2004564D01*
X2007103Y851640D01*
Y844023D01*
X2017260Y838944D02*
X2019799D01*
X2022338Y841484D01*
Y854180D01*
X2014721D01*
X2012182Y851640D01*
Y846562D01*
X2014721Y844023D01*
X2022338D01*
X2029956Y856719D02*
Y854180D01*
X2027417D01*
X2032495D01*
X2029956D01*
Y846562D01*
X2032495Y844023D01*
X2040113Y859258D02*
Y844023D01*
Y851640D01*
X2042652Y854180D01*
X2047730D01*
X2050269Y851640D01*
Y844023D01*
X1536588Y856719D02*
X1534048Y859258D01*
X1528970D01*
X1526431Y856719D01*
Y854180D01*
X1528970Y851640D01*
X1534048D01*
X1536588Y849101D01*
Y846562D01*
X1534048Y844023D01*
X1528970D01*
X1526431Y846562D01*
X1541666Y844023D02*
X1546744D01*
X1544205D01*
Y859258D01*
X1541666D01*
X1556901Y844023D02*
X1561979D01*
X1564518Y846562D01*
Y851640D01*
X1561979Y854180D01*
X1556901D01*
X1554362Y851640D01*
Y846562D01*
X1556901Y844023D01*
X1572136Y856719D02*
Y854180D01*
X1569597D01*
X1574675D01*
X1572136D01*
Y846562D01*
X1574675Y844023D01*
X1607685Y859258D02*
Y844023D01*
X1600067D01*
X1597528Y846562D01*
Y851640D01*
X1600067Y854180D01*
X1607685D01*
X1620381Y844023D02*
X1615302D01*
X1612763Y846562D01*
Y851640D01*
X1615302Y854180D01*
X1620381D01*
X1622920Y851640D01*
Y849101D01*
X1612763D01*
X1630537Y844023D02*
Y856719D01*
Y851640D01*
X1627998D01*
X1633076D01*
X1630537D01*
Y856719D01*
X1633076Y859258D01*
X1640694Y844023D02*
X1645772D01*
X1643233D01*
Y854180D01*
X1640694D01*
X1653390Y844023D02*
Y854180D01*
X1661007D01*
X1663546Y851640D01*
Y844023D01*
X1668625D02*
X1673703D01*
X1671164D01*
Y854180D01*
X1668625D01*
X1683860Y856719D02*
Y854180D01*
X1681321D01*
X1686399D01*
X1683860D01*
Y846562D01*
X1686399Y844023D01*
X1694017D02*
X1699095D01*
X1696556D01*
Y854180D01*
X1694017D01*
X1709252Y844023D02*
X1714330D01*
X1716869Y846562D01*
Y851640D01*
X1714330Y854180D01*
X1709252D01*
X1706712Y851640D01*
Y846562D01*
X1709252Y844023D01*
X1721948D02*
Y854180D01*
X1729565D01*
X1732104Y851640D01*
Y844023D01*
X1737183D02*
X1744800D01*
X1747339Y846562D01*
X1744800Y849101D01*
X1739722D01*
X1737183Y851640D01*
X1739722Y854180D01*
X1747339D01*
X1767653D02*
X1770192D01*
Y851640D01*
X1767653D01*
Y854180D01*
Y846562D02*
X1770192D01*
Y844023D01*
X1767653D01*
Y846562D01*
M02*
